M48
;Layer_Color=9474304
;FILE_FORMAT=2:5
INCH,LZ
;TYPE=PLATED
T1F00S00C0.01200
T2F00S00C0.01400
T4F00S00C0.03543
T5F00S00C0.08000
%
T01
X00898Y00062
X0088Y0013
X00902Y0042
X00881Y00452
X00903Y00539
X00805Y005
X0115Y00504
X01064Y00593
X01362Y00496
X01361Y00431
X01451Y00433
Y00496
X01526Y00501
X01527Y00429
X01608
X01674Y00426
X01675Y00501
X01609
X01603Y00363
Y00269
X016Y00171
X01603Y00085
X013Y00308
X0125Y0033
X00712Y003
X00525
X0056Y00335
X00545Y0018
X00447Y00047
X00665Y00049
X0011Y00036
X00049Y00247
X00052Y00355
Y00462
X00055Y00595
X00225
X0049Y0047
X0039Y00725
X00389Y00843
Y00951
X0039Y01075
X0014Y0106
X00052
X00049Y00939
Y00816
X00052Y00706
X00585Y0084
X0064Y00875
X00685
X007Y0104
X00947Y01042
X01206Y01015
Y00927
X01209Y00823
X01133Y00836
X01056Y00714
X00907Y0076
X00836Y0084
X00872Y0129
X01411Y01062
X01415Y00996
X01411Y00924
X01412Y00863
X01411Y00803
T02
X0059595Y0057095
Y0061032
X0063532Y0061
Y0057095
X0067532
X0071406
Y0061
X0067532
Y0064969
X0071406
Y0068906
X0067532
X0063532
X0059595
Y0064969
X0063532
T04
X0006Y0012
X0016
X0026
X01Y0115
Y0125
X011
Y0115
X012
Y0125
X013
Y0115
X014
Y0125
T05
X01455Y0013
X00115Y0119
M30
