%FSLAX25Y25*%
%MOIN*%
G70*
G01*
G75*
G04 Layer_Color=16711935*
%ADD10O,0.01180X0.05906*%
%ADD11O,0.05906X0.01180*%
%ADD12R,0.17716X0.17716*%
%ADD13R,0.04000X0.03500*%
%ADD14R,0.05906X0.04724*%
%ADD15R,0.03937X0.07087*%
%ADD16R,0.02953X0.02362*%
%ADD17R,0.02362X0.02953*%
%ADD18R,0.02362X0.07874*%
%ADD19R,0.07874X0.02362*%
%ADD20R,0.03500X0.04000*%
%ADD21R,0.04724X0.05512*%
%ADD22R,0.08800X0.04200*%
%ADD23R,0.04000X0.04000*%
%ADD24R,0.01400X0.04000*%
%ADD25R,0.07200X0.08000*%
%ADD26R,0.07200X0.16000*%
%ADD27R,0.04200X0.08800*%
%ADD28R,0.04000X0.04000*%
%ADD29C,0.01000*%
%ADD30C,0.02000*%
%ADD31C,0.04000*%
%ADD32C,0.10000*%
%ADD33R,0.03000X0.03000*%
%ADD34R,0.10000X0.08000*%
%ADD35C,0.12000*%
%ADD36C,0.04000*%
%ADD37R,0.05906X0.05906*%
%ADD38C,0.05906*%
%ADD39C,0.02500*%
%ADD40R,0.17700X0.17700*%
%ADD41R,0.20000X0.20000*%
%ADD42C,0.00600*%
%ADD43C,0.00787*%
%ADD44C,0.00400*%
%ADD45O,0.01580X0.06306*%
%ADD46O,0.06306X0.01580*%
%ADD47R,0.04800X0.04300*%
%ADD48R,0.06706X0.05524*%
%ADD49R,0.04737X0.07887*%
%ADD50R,0.03753X0.03162*%
%ADD51R,0.03162X0.03753*%
%ADD52R,0.03162X0.08674*%
%ADD53R,0.08674X0.03162*%
%ADD54R,0.04300X0.04800*%
%ADD55R,0.05524X0.06312*%
%ADD56R,0.09600X0.05000*%
%ADD57R,0.04800X0.04800*%
%ADD58R,0.02200X0.04800*%
%ADD59R,0.08000X0.08800*%
%ADD60R,0.08000X0.16800*%
%ADD61R,0.05000X0.09600*%
%ADD62R,0.04800X0.04800*%
%ADD63R,0.10800X0.08800*%
%ADD64C,0.12800*%
%ADD65R,0.06706X0.06706*%
%ADD66C,0.06706*%
%ADD67C,0.03300*%
%ADD68R,0.18500X0.18500*%
%ADD69R,0.20800X0.20800*%
D33*
X67532Y68906D02*
D03*
X63532D02*
D03*
X71406Y57095D02*
D03*
X67532D02*
D03*
X59595D02*
D03*
X71406Y61000D02*
D03*
X67532D02*
D03*
X59595Y61032D02*
D03*
Y68906D02*
D03*
X71406D02*
D03*
X63532Y61000D02*
D03*
Y57095D02*
D03*
Y64969D02*
D03*
X59595D02*
D03*
X67532D02*
D03*
X71406D02*
D03*
D35*
X29500Y111000D02*
D03*
X143500Y31000D02*
D03*
D63*
X65500Y13000D02*
D03*
Y113000D02*
D03*
D64*
X145500Y13000D02*
D03*
X11500Y119000D02*
D03*
D65*
X100000Y115000D02*
D03*
X26000Y12000D02*
D03*
D66*
X100000Y125000D02*
D03*
X110000Y115000D02*
D03*
Y125000D02*
D03*
X120000Y115000D02*
D03*
Y125000D02*
D03*
X130000Y115000D02*
D03*
Y125000D02*
D03*
X140000Y115000D02*
D03*
Y125000D02*
D03*
X6000Y12000D02*
D03*
X16000D02*
D03*
D67*
X94700Y104200D02*
D03*
X87200Y129000D02*
D03*
X88000Y13000D02*
D03*
X39000Y72500D02*
D03*
X49000Y47000D02*
D03*
X22500Y59500D02*
D03*
X141500Y99600D02*
D03*
X113300Y83600D02*
D03*
X141200Y86300D02*
D03*
X115000Y50400D02*
D03*
X125000Y33000D02*
D03*
X54500Y18000D02*
D03*
X70000Y104000D02*
D03*
X39000Y107500D02*
D03*
X14000Y106000D02*
D03*
X52500Y30000D02*
D03*
X56000Y33500D02*
D03*
X68500Y87500D02*
D03*
X64000D02*
D03*
X80500Y50000D02*
D03*
X58500Y84000D02*
D03*
X71200Y30000D02*
D03*
X90700Y76000D02*
D03*
X90300Y53900D02*
D03*
X130000Y30800D02*
D03*
X83600Y84000D02*
D03*
X167500Y50100D02*
D03*
X160900D02*
D03*
X152600D02*
D03*
X145100Y49600D02*
D03*
X136200D02*
D03*
X141100Y80300D02*
D03*
Y92400D02*
D03*
Y106200D02*
D03*
X160300Y36300D02*
D03*
Y26900D02*
D03*
X160000Y17100D02*
D03*
X160300Y8500D02*
D03*
X5200Y106000D02*
D03*
X4900Y93900D02*
D03*
Y81600D02*
D03*
X5200Y70600D02*
D03*
X5500Y59500D02*
D03*
X5200Y46200D02*
D03*
Y35500D02*
D03*
X4900Y24700D02*
D03*
X120600Y101500D02*
D03*
Y92700D02*
D03*
X120900Y82300D02*
D03*
X136100Y43100D02*
D03*
X145100Y43300D02*
D03*
X152700Y42900D02*
D03*
X160800D02*
D03*
X167400Y42600D02*
D03*
X88100Y45200D02*
D03*
X90200Y42000D02*
D03*
X106400Y59300D02*
D03*
X105600Y71400D02*
D03*
X38900Y95100D02*
D03*
Y84300D02*
D03*
X89800Y6200D02*
D03*
X66500Y4900D02*
D03*
X44700Y4700D02*
D03*
X11000Y3600D02*
D03*
D68*
X65600Y63000D02*
D03*
D69*
X65500D02*
D03*
M02*
