%FSLAX25Y25*%
%MOIN*%
G70*
G01*
G75*
%ADD10O,0.01180X0.05906*%
%ADD11O,0.05906X0.01180*%
%ADD12R,0.17716X0.17716*%
%ADD13R,0.04000X0.03500*%
%ADD14R,0.05906X0.04724*%
%ADD15R,0.03937X0.07087*%
%ADD16R,0.02953X0.02362*%
%ADD17R,0.02362X0.02953*%
%ADD18R,0.02362X0.07874*%
%ADD19R,0.07874X0.02362*%
%ADD20R,0.03500X0.04000*%
%ADD21R,0.04724X0.05512*%
%ADD22R,0.08800X0.04200*%
%ADD23R,0.04000X0.04000*%
%ADD24R,0.01400X0.04000*%
%ADD25R,0.07200X0.08000*%
%ADD26R,0.07200X0.16000*%
%ADD27R,0.04200X0.08800*%
%ADD28R,0.04000X0.04000*%
%ADD29C,0.01000*%
%ADD30C,0.02000*%
%ADD31C,0.04000*%
%ADD32C,0.10000*%
%ADD33R,0.03000X0.03000*%
%ADD34R,0.10000X0.08000*%
%ADD35C,0.12000*%
%ADD36C,0.04000*%
%ADD37R,0.05906X0.05906*%
%ADD38C,0.05906*%
%ADD39C,0.02500*%
%ADD40R,0.17700X0.17700*%
%ADD41R,0.20000X0.20000*%
%ADD42C,0.00600*%
%ADD43C,0.00787*%
%ADD44C,0.00400*%
D29*
X51751Y77173D02*
G03*
X51751Y77173I-424J0D01*
G01*
X113500Y110000D02*
Y111000D01*
X126500D01*
Y110000D02*
Y111000D01*
X126000Y70000D02*
X142000D01*
Y62000D02*
Y70000D01*
X126000Y62000D02*
X142000D01*
X126000D02*
Y70000D01*
X35500Y35000D02*
Y43000D01*
Y35000D02*
X51500D01*
Y43000D01*
X35500D02*
X51500D01*
Y25000D02*
Y33000D01*
X35500D02*
X51500D01*
X35500Y25000D02*
Y33000D01*
Y25000D02*
X51500D01*
X50350Y88148D02*
Y83150D01*
X51350Y82150D01*
X53349D01*
X54349Y83150D01*
Y88148D01*
X56348Y82150D02*
X58347D01*
X57348D01*
Y88148D01*
X56348Y87148D01*
X73000Y117001D02*
Y122999D01*
X75999D01*
X76999Y121999D01*
Y120000D01*
X75999Y119000D01*
X73000D01*
X79998D02*
X81997D01*
X82997Y120000D01*
Y121999D01*
X81997Y122999D01*
X79998D01*
X78998Y121999D01*
Y120000D01*
X79998Y119000D01*
X84996Y122999D02*
Y120000D01*
X85996Y119000D01*
X86996Y120000D01*
X87995Y119000D01*
X88995Y120000D01*
Y122999D01*
X93993Y119000D02*
X91994D01*
X90994Y120000D01*
Y121999D01*
X91994Y122999D01*
X93993D01*
X94993Y121999D01*
Y120999D01*
X90994D01*
X96992Y122999D02*
Y119000D01*
Y120999D01*
X97992Y121999D01*
X98992Y122999D01*
X99991D01*
X47400Y16800D02*
Y22798D01*
X50399D01*
X51399Y21798D01*
Y19799D01*
X50399Y18799D01*
X47400D01*
X49399D02*
X51399Y16800D01*
X57397Y22798D02*
X55397Y21798D01*
X53398Y19799D01*
Y17800D01*
X54398Y16800D01*
X56397D01*
X57397Y17800D01*
Y18799D01*
X56397Y19799D01*
X53398D01*
X53465Y39465D02*
Y45463D01*
X56464D01*
X57464Y44463D01*
Y42464D01*
X56464Y41464D01*
X53465D01*
X55464D02*
X57464Y39465D01*
X63462Y45463D02*
X59463D01*
Y42464D01*
X61462Y43464D01*
X62462D01*
X63462Y42464D01*
Y40465D01*
X62462Y39465D01*
X60463D01*
X59463Y40465D01*
X3500Y41998D02*
Y36000D01*
Y37999D01*
X7499Y41998D01*
X4500Y38999D01*
X7499Y36000D01*
X9498D02*
X11497D01*
X10498D01*
Y41998D01*
X9498Y40998D01*
X2000Y85498D02*
Y79500D01*
Y81499D01*
X5999Y85498D01*
X3000Y82499D01*
X5999Y79500D01*
X11997D02*
X7998D01*
X11997Y83499D01*
Y84498D01*
X10997Y85498D01*
X8998D01*
X7998Y84498D01*
X83500Y11500D02*
Y17498D01*
X86499D01*
X87499Y16498D01*
Y14499D01*
X86499Y13499D01*
X83500D01*
X85499D02*
X87499Y11500D01*
X93497Y17498D02*
X89498D01*
Y11500D01*
X93497D01*
X89498Y14499D02*
X91497D01*
X99495Y16498D02*
X98495Y17498D01*
X96496D01*
X95496Y16498D01*
Y15499D01*
X96496Y14499D01*
X98495D01*
X99495Y13499D01*
Y12500D01*
X98495Y11500D01*
X96496D01*
X95496Y12500D01*
X105493Y17498D02*
X101494D01*
Y11500D01*
X105493D01*
X101494Y14499D02*
X103493D01*
X107492Y17498D02*
X111491D01*
X109492D01*
Y11500D01*
X105600Y103498D02*
Y97500D01*
X108599D01*
X109599Y98500D01*
Y102498D01*
X108599Y103498D01*
X105600D01*
X115597D02*
X111598D01*
Y97500D01*
X115597D01*
X111598Y100499D02*
X113597D01*
X117596Y103498D02*
Y97500D01*
X120595D01*
X121595Y98500D01*
Y99499D01*
X120595Y100499D01*
X117596D01*
X120595D01*
X121595Y101499D01*
Y102498D01*
X120595Y103498D01*
X117596D01*
X123594D02*
Y98500D01*
X124594Y97500D01*
X126593D01*
X127593Y98500D01*
Y103498D01*
X133591Y102498D02*
X132591Y103498D01*
X130592D01*
X129592Y102498D01*
Y98500D01*
X130592Y97500D01*
X132591D01*
X133591Y98500D01*
Y100499D01*
X131592D01*
X147000Y118000D02*
Y123998D01*
X149999D01*
X150999Y122998D01*
Y120999D01*
X149999Y119999D01*
X147000D01*
X152998Y118000D02*
X154997D01*
X153998D01*
Y123998D01*
X152998Y122998D01*
X5199Y23898D02*
X4199Y24898D01*
X2200D01*
X1200Y23898D01*
Y19900D01*
X2200Y18900D01*
X4199D01*
X5199Y19900D01*
Y21899D01*
X3199D01*
X7198Y18900D02*
Y22899D01*
X10197D01*
X11197Y21899D01*
Y18900D01*
X17195Y24898D02*
Y18900D01*
X14196D01*
X13196Y19900D01*
Y21899D01*
X14196Y22899D01*
X17195D01*
X19194Y24898D02*
X23193D01*
X21193D01*
Y18900D01*
X25192Y22899D02*
X29191Y18900D01*
X27192Y20899D01*
X29191Y22899D01*
X25192Y18900D01*
X31190D02*
Y24898D01*
X34189D01*
X35189Y23898D01*
Y21899D01*
X34189Y20899D01*
X31190D01*
X33190D02*
X35189Y18900D01*
X37188Y22899D02*
X41187Y18900D01*
X39188Y20899D01*
X41187Y22899D01*
X37188Y18900D01*
X33000Y8000D02*
Y13998D01*
X35999D01*
X36999Y12998D01*
Y10999D01*
X35999Y9999D01*
X33000D01*
X42997Y8000D02*
X38998D01*
X42997Y11999D01*
Y12998D01*
X41997Y13998D01*
X39998D01*
X38998Y12998D01*
X126500Y73500D02*
Y79498D01*
X129499D01*
X130499Y78498D01*
Y76499D01*
X129499Y75499D01*
X126500D01*
X128499D02*
X130499Y73500D01*
X132498Y79498D02*
X136497D01*
Y78498D01*
X132498Y74500D01*
Y73500D01*
X109450Y84648D02*
Y79650D01*
X110450Y78650D01*
X112449D01*
X113449Y79650D01*
Y84648D01*
X119447Y78650D02*
X115448D01*
X119447Y82649D01*
Y83648D01*
X118447Y84648D01*
X116448D01*
X115448Y83648D01*
X146800Y96841D02*
Y91843D01*
X147800Y90843D01*
X149799D01*
X150799Y91843D01*
Y96841D01*
X152798Y95842D02*
X153798Y96841D01*
X155797D01*
X156797Y95842D01*
Y94842D01*
X155797Y93842D01*
X154797D01*
X155797D01*
X156797Y92843D01*
Y91843D01*
X155797Y90843D01*
X153798D01*
X152798Y91843D01*
X104000Y56798D02*
Y51800D01*
X105000Y50800D01*
X106999D01*
X107999Y51800D01*
Y56798D01*
X112997Y50800D02*
Y56798D01*
X109998Y53799D01*
X113997D01*
X152299Y112998D02*
X148300D01*
Y107000D01*
X152299D01*
X148300Y109999D02*
X150299D01*
X154298Y107000D02*
X156297D01*
X155298D01*
Y112998D01*
X154298Y111998D01*
X18000Y130498D02*
Y124500D01*
X20999D01*
X21999Y125500D01*
Y129498D01*
X20999Y130498D01*
X18000D01*
X27997Y129498D02*
X26997Y130498D01*
X24998D01*
X23998Y129498D01*
Y125500D01*
X24998Y124500D01*
X26997D01*
X27997Y125500D01*
Y127499D01*
X25997D01*
X33995Y130498D02*
X31995D01*
X32995D01*
Y125500D01*
X31995Y124500D01*
X30996D01*
X29996Y125500D01*
X35994Y123500D02*
X39993D01*
X45991Y128499D02*
X42992D01*
X41992Y127499D01*
Y125500D01*
X42992Y124500D01*
X45991D01*
X48990Y128499D02*
X50989D01*
X51989Y127499D01*
Y124500D01*
X48990D01*
X47990Y125500D01*
X48990Y126499D01*
X51989D01*
X53988Y128499D02*
Y124500D01*
Y126499D01*
X54988Y127499D01*
X55988Y128499D01*
X56987D01*
X59986Y123500D02*
X63985D01*
X65984Y124500D02*
X67984D01*
X66984D01*
Y128499D01*
X65984D01*
X70983Y124500D02*
Y128499D01*
X73982D01*
X74982Y127499D01*
Y124500D01*
D42*
X102200Y63922D02*
G03*
X102200Y62078I0J-922D01*
G01*
X53689Y73236D02*
Y74811D01*
X55264D01*
X75736D02*
X77311D01*
Y73236D02*
Y74811D01*
X53689Y51189D02*
Y52764D01*
Y51189D02*
X55264D01*
X77311D02*
Y52764D01*
X75736Y51189D02*
X77311D01*
X74300Y97100D02*
X87100D01*
Y88800D02*
Y97100D01*
X71900Y88800D02*
X87100D01*
X71900D02*
Y97100D01*
X74300D01*
X81000Y105200D02*
Y108800D01*
Y105200D02*
X90000D01*
Y108800D01*
X81000D02*
X90000D01*
X85461Y105200D02*
Y106055D01*
X84988Y106173D02*
X85972D01*
X84988D02*
Y107945D01*
X85972Y106173D02*
Y107945D01*
X85461Y107866D02*
Y108800D01*
X84988Y107945D02*
X85972D01*
X95500Y80200D02*
Y83800D01*
Y80200D02*
X104500D01*
Y83800D01*
X95500D02*
X104500D01*
X99961Y80200D02*
Y81055D01*
X99488Y81173D02*
X100472D01*
X99488D02*
Y82945D01*
X100472Y81173D02*
Y82945D01*
X99961Y82866D02*
Y83800D01*
X99488Y82945D02*
X100472D01*
X46555Y95473D02*
X48327D01*
X46555Y94488D02*
X48327D01*
X45700Y90500D02*
Y99500D01*
X49300D01*
Y90500D02*
Y99500D01*
X45700Y90500D02*
X49300D01*
X90173Y94528D02*
X91945D01*
X90173Y95512D02*
X91945D01*
X92800Y90500D02*
Y99500D01*
X89200Y90500D02*
X92800D01*
X89200D02*
Y99500D01*
X92800D01*
X73000Y35200D02*
Y38800D01*
Y35200D02*
X82000D01*
Y38800D01*
X73000D02*
X82000D01*
X77461Y35200D02*
Y36055D01*
X76988Y36173D02*
X77973D01*
X76988D02*
Y37945D01*
X77973Y36173D02*
Y37945D01*
X77461Y37866D02*
Y38800D01*
X76988Y37945D02*
X77973D01*
X12500Y76500D02*
X30500D01*
X12500D02*
Y89500D01*
X30500D01*
Y76500D02*
Y89500D01*
X70000Y35200D02*
Y38800D01*
X61000D02*
X70000D01*
X61000Y35200D02*
Y38800D01*
Y35200D02*
X70000D01*
X65539Y37945D02*
Y38800D01*
X65027Y37827D02*
X66012D01*
Y36055D02*
Y37827D01*
X65027Y36055D02*
Y37827D01*
X65539Y35200D02*
Y36134D01*
X65027Y36055D02*
X66012D01*
X12500Y32500D02*
X30500D01*
X12500D02*
Y45500D01*
X30500D01*
Y32500D02*
Y45500D01*
X126000Y6000D02*
Y24000D01*
X113000Y6000D02*
X126000D01*
X113000D02*
Y24000D01*
X126000D01*
X112673Y34528D02*
X114445D01*
X112673Y35512D02*
X114445D01*
X115300Y30500D02*
Y39500D01*
X111700Y30500D02*
X115300D01*
X111700D02*
Y39500D01*
X115300D01*
X89055Y34473D02*
X90827D01*
X89055Y33488D02*
X90827D01*
X88200Y29500D02*
Y38500D01*
X91800D01*
Y29500D02*
Y38500D01*
X88200Y29500D02*
X91800D01*
X66173Y94528D02*
X67945D01*
X66173Y95512D02*
X67945D01*
X68800Y90500D02*
Y99500D01*
X65200Y90500D02*
X68800D01*
X65200D02*
Y99500D01*
X68800D01*
X52555Y95473D02*
X54327D01*
X52555Y94488D02*
X54327D01*
X51700Y90500D02*
Y99500D01*
X55300D01*
Y90500D02*
Y99500D01*
X51700Y90500D02*
X55300D01*
X99528Y45055D02*
Y46827D01*
X100512Y45055D02*
Y46827D01*
X95500Y44200D02*
X104500D01*
X95500D02*
Y47800D01*
X104500D01*
Y44200D02*
Y47800D01*
X39028Y50055D02*
Y51827D01*
X40012Y50055D02*
Y51827D01*
X35000Y49200D02*
X44000D01*
X35000D02*
Y52800D01*
X44000D01*
Y49200D02*
Y52800D01*
X100472Y51173D02*
Y52945D01*
X99488Y51173D02*
Y52945D01*
X95500Y53800D02*
X104500D01*
Y50200D02*
Y53800D01*
X95500Y50200D02*
X104500D01*
X95500D02*
Y53800D01*
X100472Y75173D02*
Y76945D01*
X99488Y75173D02*
Y76945D01*
X95500Y77800D02*
X104500D01*
Y74200D02*
Y77800D01*
X95500Y74200D02*
X104500D01*
X95500D02*
Y77800D01*
X100472Y87173D02*
Y88945D01*
X99488Y87173D02*
Y88945D01*
X95500Y89800D02*
X104500D01*
Y86200D02*
Y89800D01*
X95500Y86200D02*
X104500D01*
X95500D02*
Y89800D01*
X108800Y56700D02*
Y75300D01*
Y56700D02*
X123800D01*
Y75200D01*
X123700Y75300D02*
X123800Y75200D01*
X108800Y75300D02*
X123700D01*
X93800Y69700D02*
X102200D01*
X93800Y56300D02*
Y69700D01*
Y56300D02*
X93900Y56400D01*
X102200D01*
Y69700D01*
X150700Y72800D02*
X169300D01*
Y87800D01*
X150800D02*
X169300D01*
X150700Y87700D02*
X150800Y87800D01*
X150700Y72800D02*
Y87700D01*
D43*
X79500Y112441D02*
Y117559D01*
X91500D01*
Y112441D02*
Y117559D01*
X79500Y112441D02*
X91500D01*
X100300Y30079D02*
X102700D01*
X100300Y39921D02*
X102700D01*
X107799Y34600D02*
Y35702D01*
X95201Y34499D02*
Y35601D01*
X145000Y110000D02*
Y130000D01*
X95000Y110000D02*
Y130000D01*
X145000D01*
X95000Y110000D02*
X145000D01*
X76941Y20500D02*
X82059D01*
X76941D02*
Y32500D01*
X82059D01*
Y20500D02*
Y32500D01*
X60941Y20500D02*
X66059D01*
X60941D02*
Y32500D01*
X66059D01*
Y20500D02*
Y32500D01*
X134000Y63638D02*
Y68362D01*
X31000Y7000D02*
Y17000D01*
X1000Y7000D02*
X31000D01*
X1000D02*
Y17000D01*
X31000D01*
X43500Y36638D02*
Y41362D01*
Y26638D02*
Y31362D01*
D44*
X78000Y116750D02*
X79000D01*
X78500Y117250D02*
Y116250D01*
X77750Y19000D02*
Y20000D01*
X77250Y19500D02*
X78250D01*
X61750Y19000D02*
Y20000D01*
X61250Y19500D02*
X62250D01*
M02*
