%FSLAX25Y25*%
%MOIN*%
G70*
G01*
G75*
G04 Layer_Color=2752767*
%ADD10C,0.01000*%
D10*
X0Y0D02*
Y132000D01*
X171000D01*
Y0D02*
Y132000D01*
X0Y0D02*
X171000D01*
X67532Y68906D02*
Y72238D01*
X69198Y73904D01*
X70864Y72238D01*
Y68906D01*
Y71405D01*
X67532D01*
X63532Y68906D02*
Y72238D01*
X65198Y73904D01*
X66864Y72238D01*
Y68906D01*
Y71405D01*
X63532D01*
X71406Y57095D02*
Y60427D01*
X73072Y62093D01*
X74738Y60427D01*
Y57095D01*
Y59594D01*
X71406D01*
X67532Y57095D02*
Y60427D01*
X69198Y62093D01*
X70864Y60427D01*
Y57095D01*
Y59594D01*
X67532D01*
X59595Y57095D02*
Y60427D01*
X61261Y62093D01*
X62927Y60427D01*
Y57095D01*
Y59594D01*
X59595D01*
X71406Y61000D02*
Y64332D01*
X73072Y65998D01*
X74738Y64332D01*
Y61000D01*
Y63499D01*
X71406D01*
X67532Y61000D02*
Y64332D01*
X69198Y65998D01*
X70864Y64332D01*
Y61000D01*
Y63499D01*
X67532D01*
X59595Y61032D02*
Y64364D01*
X61261Y66030D01*
X62927Y64364D01*
Y61032D01*
Y63531D01*
X59595D01*
Y68906D02*
Y72238D01*
X61261Y73904D01*
X62927Y72238D01*
Y68906D01*
Y71405D01*
X59595D01*
X71406Y68906D02*
Y72238D01*
X73072Y73904D01*
X74738Y72238D01*
Y68906D01*
Y71405D01*
X71406D01*
X63532Y61000D02*
Y64332D01*
X65198Y65998D01*
X66864Y64332D01*
Y61000D01*
Y63499D01*
X63532D01*
Y57095D02*
Y60427D01*
X65198Y62093D01*
X66864Y60427D01*
Y57095D01*
Y59594D01*
X63532D01*
Y64969D02*
Y68301D01*
X65198Y69967D01*
X66864Y68301D01*
Y64969D01*
Y67468D01*
X63532D01*
X59595Y64969D02*
Y68301D01*
X61261Y69967D01*
X62927Y68301D01*
Y64969D01*
Y67468D01*
X59595D01*
X67532Y64969D02*
Y68301D01*
X69198Y69967D01*
X70864Y68301D01*
Y64969D01*
Y67468D01*
X67532D01*
X71406Y64969D02*
Y68301D01*
X73072Y69967D01*
X74738Y68301D01*
Y64969D01*
Y67468D01*
X71406D01*
X65500Y17998D02*
Y13000D01*
X67999D01*
X68832Y13833D01*
Y14666D01*
X67999Y15499D01*
X65500D01*
X67999D01*
X68832Y16332D01*
Y17165D01*
X67999Y17998D01*
X65500D01*
Y117998D02*
Y113000D01*
X67999D01*
X68832Y113833D01*
Y114666D01*
X67999Y115499D01*
X65500D01*
X67999D01*
X68832Y116332D01*
Y117165D01*
X67999Y117998D01*
X65500D01*
X148832Y17165D02*
X147999Y17998D01*
X146333D01*
X145500Y17165D01*
Y13833D01*
X146333Y13000D01*
X147999D01*
X148832Y13833D01*
X14832Y123165D02*
X13999Y123998D01*
X12333D01*
X11500Y123165D01*
Y119833D01*
X12333Y119000D01*
X13999D01*
X14832Y119833D01*
X100000Y119998D02*
Y115000D01*
X102499D01*
X103332Y115833D01*
Y119165D01*
X102499Y119998D01*
X100000D01*
Y129998D02*
Y125000D01*
X102499D01*
X103332Y125833D01*
Y129165D01*
X102499Y129998D01*
X100000D01*
X110000Y119998D02*
Y115000D01*
X112499D01*
X113332Y115833D01*
Y119165D01*
X112499Y119998D01*
X110000D01*
Y129998D02*
Y125000D01*
X112499D01*
X113332Y125833D01*
Y129165D01*
X112499Y129998D01*
X110000D01*
X120000Y119998D02*
Y115000D01*
X122499D01*
X123332Y115833D01*
Y119165D01*
X122499Y119998D01*
X120000D01*
Y129998D02*
Y125000D01*
X122499D01*
X123332Y125833D01*
Y129165D01*
X122499Y129998D01*
X120000D01*
X130000Y119998D02*
Y115000D01*
X132499D01*
X133332Y115833D01*
Y119165D01*
X132499Y119998D01*
X130000D01*
Y129998D02*
Y125000D01*
X132499D01*
X133332Y125833D01*
Y129165D01*
X132499Y129998D01*
X130000D01*
X140000Y119998D02*
Y115000D01*
X142499D01*
X143332Y115833D01*
Y119165D01*
X142499Y119998D01*
X140000D01*
Y129998D02*
Y125000D01*
X142499D01*
X143332Y125833D01*
Y129165D01*
X142499Y129998D01*
X140000D01*
X6000Y16998D02*
Y12000D01*
X8499D01*
X9332Y12833D01*
Y16165D01*
X8499Y16998D01*
X6000D01*
X16000D02*
Y12000D01*
X18499D01*
X19332Y12833D01*
Y16165D01*
X18499Y16998D01*
X16000D01*
X26000D02*
Y12000D01*
X28499D01*
X29332Y12833D01*
Y16165D01*
X28499Y16998D01*
X26000D01*
X98032Y109198D02*
X94700D01*
Y104200D01*
X98032D01*
X94700Y106699D02*
X96366D01*
X90532Y133998D02*
X87200D01*
Y129000D01*
X90532D01*
X87200Y131499D02*
X88866D01*
X91332Y17998D02*
X88000D01*
Y13000D01*
X91332D01*
X88000Y15499D02*
X89666D01*
X42332Y77498D02*
X39000D01*
Y72500D01*
X42332D01*
X39000Y74999D02*
X40666D01*
X52332Y51998D02*
X49000D01*
Y47000D01*
X52332D01*
X49000Y49499D02*
X50666D01*
X25832Y64498D02*
X22500D01*
Y59500D01*
X25832D01*
X22500Y61999D02*
X24166D01*
X144832Y104598D02*
X141500D01*
Y99600D01*
X144832D01*
X141500Y102099D02*
X143166D01*
X116632Y88598D02*
X113300D01*
Y83600D01*
X116632D01*
X113300Y86099D02*
X114966D01*
X144532Y91298D02*
X141200D01*
Y86300D01*
X144532D01*
X141200Y88799D02*
X142866D01*
X118332Y55398D02*
X115000D01*
Y50400D01*
X118332D01*
X115000Y52899D02*
X116666D01*
X128332Y37998D02*
X125000D01*
Y33000D01*
X128332D01*
X125000Y35499D02*
X126666D01*
X57832Y22998D02*
X54500D01*
Y18000D01*
X57832D01*
X54500Y20499D02*
X56166D01*
X73332Y108998D02*
X70000D01*
Y104000D01*
X73332D01*
X70000Y106499D02*
X71666D01*
X42332Y112498D02*
X39000D01*
Y107500D01*
X42332D01*
X39000Y109999D02*
X40666D01*
X17332Y110998D02*
X14000D01*
Y106000D01*
X17332D01*
X14000Y108499D02*
X15666D01*
X55832Y34998D02*
X52500D01*
Y30000D01*
X55832D01*
X52500Y32499D02*
X54166D01*
X59332Y38498D02*
X56000D01*
Y33500D01*
X59332D01*
X56000Y35999D02*
X57666D01*
X71832Y92498D02*
X68500D01*
Y87500D01*
X71832D01*
X68500Y89999D02*
X70166D01*
X67332Y92498D02*
X64000D01*
Y87500D01*
X67332D01*
X64000Y89999D02*
X65666D01*
X83832Y54998D02*
X80500D01*
Y50000D01*
X83832D01*
X80500Y52499D02*
X82166D01*
X61832Y88998D02*
X58500D01*
Y84000D01*
X61832D01*
X58500Y86499D02*
X60166D01*
X74532Y34998D02*
X71200D01*
Y30000D01*
X74532D01*
X71200Y32499D02*
X72866D01*
X94032Y80998D02*
X90700D01*
Y76000D01*
X94032D01*
X90700Y78499D02*
X92366D01*
X93632Y58898D02*
X90300D01*
Y53900D01*
X93632D01*
X90300Y56399D02*
X91966D01*
X133332Y35798D02*
X130000D01*
Y30800D01*
X133332D01*
X130000Y33299D02*
X131666D01*
X86932Y88998D02*
X83600D01*
Y84000D01*
X86932D01*
X83600Y86499D02*
X85266D01*
X170832Y55098D02*
X167500D01*
Y50100D01*
X170832D01*
X167500Y52599D02*
X169166D01*
X164232Y55098D02*
X160900D01*
Y50100D01*
X164232D01*
X160900Y52599D02*
X162566D01*
X155932Y55098D02*
X152600D01*
Y50100D01*
X155932D01*
X152600Y52599D02*
X154266D01*
X148432Y54598D02*
X145100D01*
Y49600D01*
X148432D01*
X145100Y52099D02*
X146766D01*
X139532Y54598D02*
X136200D01*
Y49600D01*
X139532D01*
X136200Y52099D02*
X137866D01*
X144432Y85298D02*
X141100D01*
Y80300D01*
X144432D01*
X141100Y82799D02*
X142766D01*
X144432Y97398D02*
X141100D01*
Y92400D01*
X144432D01*
X141100Y94899D02*
X142766D01*
X144432Y111198D02*
X141100D01*
Y106200D01*
X144432D01*
X141100Y108699D02*
X142766D01*
X163632Y41298D02*
X160300D01*
Y36300D01*
X163632D01*
X160300Y38799D02*
X161966D01*
X163632Y31898D02*
X160300D01*
Y26900D01*
X163632D01*
X160300Y29399D02*
X161966D01*
X163332Y22098D02*
X160000D01*
Y17100D01*
X163332D01*
X160000Y19599D02*
X161666D01*
X163632Y13498D02*
X160300D01*
Y8500D01*
X163632D01*
X160300Y10999D02*
X161966D01*
X8532Y110998D02*
X5200D01*
Y106000D01*
X8532D01*
X5200Y108499D02*
X6866D01*
X8232Y98898D02*
X4900D01*
Y93900D01*
X8232D01*
X4900Y96399D02*
X6566D01*
X8232Y86598D02*
X4900D01*
Y81600D01*
X8232D01*
X4900Y84099D02*
X6566D01*
X8532Y75598D02*
X5200D01*
Y70600D01*
X8532D01*
X5200Y73099D02*
X6866D01*
X8832Y64498D02*
X5500D01*
Y59500D01*
X8832D01*
X5500Y61999D02*
X7166D01*
X8532Y51198D02*
X5200D01*
Y46200D01*
X8532D01*
X5200Y48699D02*
X6866D01*
X8532Y40498D02*
X5200D01*
Y35500D01*
X8532D01*
X5200Y37999D02*
X6866D01*
X8232Y29698D02*
X4900D01*
Y24700D01*
X8232D01*
X4900Y27199D02*
X6566D01*
X123932Y106498D02*
X120600D01*
Y101500D01*
X123932D01*
X120600Y103999D02*
X122266D01*
X123932Y97698D02*
X120600D01*
Y92700D01*
X123932D01*
X120600Y95199D02*
X122266D01*
X124232Y87298D02*
X120900D01*
Y82300D01*
X124232D01*
X120900Y84799D02*
X122566D01*
X139432Y48098D02*
X136100D01*
Y43100D01*
X139432D01*
X136100Y45599D02*
X137766D01*
X148432Y48298D02*
X145100D01*
Y43300D01*
X148432D01*
X145100Y45799D02*
X146766D01*
X156032Y47898D02*
X152700D01*
Y42900D01*
X156032D01*
X152700Y45399D02*
X154366D01*
X164132Y47898D02*
X160800D01*
Y42900D01*
X164132D01*
X160800Y45399D02*
X162466D01*
X170732Y47598D02*
X167400D01*
Y42600D01*
X170732D01*
X167400Y45099D02*
X169066D01*
X91432Y50198D02*
X88100D01*
Y45200D01*
X91432D01*
X88100Y47699D02*
X89766D01*
X93532Y46998D02*
X90200D01*
Y42000D01*
X93532D01*
X90200Y44499D02*
X91866D01*
X109732Y64298D02*
X106400D01*
Y59300D01*
X109732D01*
X106400Y61799D02*
X108066D01*
X108932Y76398D02*
X105600D01*
Y71400D01*
X108932D01*
X105600Y73899D02*
X107266D01*
X42232Y100098D02*
X38900D01*
Y95100D01*
X42232D01*
X38900Y97599D02*
X40566D01*
X42232Y89298D02*
X38900D01*
Y84300D01*
X42232D01*
X38900Y86799D02*
X40566D01*
X93132Y11198D02*
X89800D01*
Y6200D01*
X93132D01*
X89800Y8699D02*
X91466D01*
X69832Y9898D02*
X66500D01*
Y4900D01*
X69832D01*
X66500Y7399D02*
X68166D01*
X48032Y9698D02*
X44700D01*
Y4700D01*
X48032D01*
X44700Y7199D02*
X46366D01*
X14332Y8598D02*
X11000D01*
Y3600D01*
X14332D01*
X11000Y6099D02*
X12666D01*
M02*
