%FSLAX25Y25*%
%MOIN*%
G70*
G01*
G75*
G04 Layer_Color=8421504*
%ADD10O,0.01180X0.05906*%
%ADD11O,0.05906X0.01180*%
%ADD12R,0.17716X0.17716*%
%ADD13R,0.04000X0.03500*%
%ADD14R,0.05906X0.04724*%
%ADD15R,0.03937X0.07087*%
%ADD16R,0.02953X0.02362*%
%ADD17R,0.02362X0.02953*%
%ADD18R,0.02362X0.07874*%
%ADD19R,0.07874X0.02362*%
%ADD20R,0.03500X0.04000*%
%ADD21R,0.04724X0.05512*%
%ADD22R,0.08800X0.04200*%
%ADD23R,0.04000X0.04000*%
%ADD24R,0.01400X0.04000*%
%ADD25R,0.07200X0.08000*%
%ADD26R,0.07200X0.16000*%
%ADD27R,0.04200X0.08800*%
%ADD28R,0.04000X0.04000*%
%ADD29C,0.01000*%
%ADD30C,0.02000*%
%ADD31C,0.04000*%
%ADD32C,0.10000*%
%ADD33R,0.03000X0.03000*%
%ADD34R,0.10000X0.08000*%
%ADD35C,0.12000*%
%ADD36C,0.04000*%
%ADD37R,0.05906X0.05906*%
%ADD38C,0.05906*%
%ADD39C,0.02500*%
%ADD40R,0.17700X0.17700*%
%ADD41R,0.20000X0.20000*%
%ADD42C,0.00600*%
%ADD43C,0.00787*%
%ADD44C,0.00400*%
D10*
X56571Y75994D02*
D03*
X58539D02*
D03*
X60508D02*
D03*
X62476D02*
D03*
X64445D02*
D03*
X66413D02*
D03*
X68382D02*
D03*
X70350D02*
D03*
X72319D02*
D03*
X74287D02*
D03*
Y50006D02*
D03*
X72319D02*
D03*
X70350D02*
D03*
X68382D02*
D03*
X66413D02*
D03*
X64445D02*
D03*
X62476D02*
D03*
X60508D02*
D03*
X58539D02*
D03*
X56571D02*
D03*
D11*
X78495Y71858D02*
D03*
Y69890D02*
D03*
Y67921D02*
D03*
Y65953D02*
D03*
Y63984D02*
D03*
Y62016D02*
D03*
Y60047D02*
D03*
Y58079D02*
D03*
Y56110D02*
D03*
Y54142D02*
D03*
X52505D02*
D03*
Y56110D02*
D03*
Y58079D02*
D03*
Y60047D02*
D03*
Y62016D02*
D03*
Y63984D02*
D03*
Y65953D02*
D03*
Y67921D02*
D03*
Y69890D02*
D03*
Y71858D02*
D03*
D12*
X65595Y62906D02*
D03*
D13*
X88492Y115000D02*
D03*
X82508D02*
D03*
D14*
X96776Y38346D02*
D03*
X106224D02*
D03*
Y31653D02*
D03*
X96776D02*
D03*
D15*
X84421Y93000D02*
D03*
X74579D02*
D03*
D16*
X87862Y107000D02*
D03*
X83138D02*
D03*
X102362Y82000D02*
D03*
X97638D02*
D03*
X79862Y37000D02*
D03*
X75138D02*
D03*
X63138D02*
D03*
X67862D02*
D03*
X102362Y46000D02*
D03*
X97638D02*
D03*
X41862Y51000D02*
D03*
X37138D02*
D03*
X97638Y52000D02*
D03*
X102362D02*
D03*
X97638Y76000D02*
D03*
X102362D02*
D03*
X97638Y88000D02*
D03*
X102362D02*
D03*
D17*
X47500Y92638D02*
D03*
Y97362D02*
D03*
X91000D02*
D03*
Y92638D02*
D03*
X113500Y37362D02*
D03*
Y32638D02*
D03*
X90000Y31638D02*
D03*
Y36362D02*
D03*
X67000Y97362D02*
D03*
Y92638D02*
D03*
X53500D02*
D03*
Y97362D02*
D03*
D18*
X28783Y93039D02*
D03*
Y72961D02*
D03*
X14138D02*
D03*
X14217Y93039D02*
D03*
X28783Y49039D02*
D03*
Y28961D02*
D03*
X14138D02*
D03*
X14217Y49039D02*
D03*
D19*
X109461Y22283D02*
D03*
X129539D02*
D03*
Y7638D02*
D03*
X109461Y7717D02*
D03*
D20*
X79500Y29492D02*
D03*
Y23508D02*
D03*
X63500Y29492D02*
D03*
Y23508D02*
D03*
D21*
X130457Y66000D02*
D03*
X137543D02*
D03*
X47043Y39000D02*
D03*
X39957D02*
D03*
X39957Y29000D02*
D03*
X47043D02*
D03*
D22*
X118000Y72000D02*
D03*
Y60000D02*
D03*
D23*
X112000Y66000D02*
D03*
D24*
X100600Y66600D02*
D03*
X98000D02*
D03*
X95400D02*
D03*
Y59400D02*
D03*
X98000D02*
D03*
X100600D02*
D03*
D25*
X162000Y94000D02*
D03*
D26*
Y122000D02*
D03*
D27*
X154000Y82000D02*
D03*
X166000D02*
D03*
D28*
X160000Y76000D02*
D03*
M02*
