%FSLAX25Y25*%
%MOIN*%
G70*
G01*
G75*
%ADD10C,0.00400*%
%ADD11R,0.08000X0.06000*%
%ADD12O,0.08000X0.06000*%
%ADD13R,0.05906X0.05906*%
%ADD14C,0.05906*%
%ADD15C,0.12000*%
%ADD16C,0.02000*%
%ADD17C,0.01000*%
%ADD18C,0.00787*%
D10*
X0Y0D02*
Y52000D01*
X148500D01*
Y0D02*
Y52000D01*
X0Y0D02*
X148500D01*
D17*
X60300Y32800D02*
Y36600D01*
X64500Y31900D02*
Y32800D01*
X60300D02*
X64500D01*
Y17300D02*
Y31900D01*
X60300Y36600D02*
X64700D01*
Y43100D01*
X39700D02*
X64700D01*
X39000Y42400D02*
X39700Y43100D01*
X39000Y5000D02*
Y42400D01*
Y5000D02*
X54000D01*
X60000Y17300D02*
X64500D01*
X60000Y13500D02*
Y17300D01*
Y13500D02*
X64500D01*
Y5000D02*
Y13500D01*
X54000Y5000D02*
X64500D01*
X69500Y24500D02*
Y30498D01*
X72499D01*
X73499Y29498D01*
Y27499D01*
X72499Y26499D01*
X69500D01*
X75498Y24500D02*
X77497D01*
X76498D01*
Y30498D01*
X75498Y29498D01*
X119000Y24500D02*
Y30498D01*
X121999D01*
X122999Y29498D01*
Y27499D01*
X121999Y26499D01*
X119000D01*
X124998Y29498D02*
X125998Y30498D01*
X127997D01*
X128997Y29498D01*
Y28499D01*
X127997Y27499D01*
X126997D01*
X127997D01*
X128997Y26499D01*
Y25500D01*
X127997Y24500D01*
X125998D01*
X124998Y25500D01*
X89500Y25000D02*
Y30998D01*
X92499D01*
X93499Y29998D01*
Y27999D01*
X92499Y26999D01*
X89500D01*
X99497Y25000D02*
X95498D01*
X99497Y28999D01*
Y29998D01*
X98497Y30998D01*
X96498D01*
X95498Y29998D01*
X3000Y48498D02*
Y42500D01*
X5999D01*
X6999Y43500D01*
Y47498D01*
X5999Y48498D01*
X3000D01*
X8998Y42500D02*
Y48498D01*
X11997D01*
X12997Y47498D01*
Y45499D01*
X11997Y44499D01*
X8998D01*
X10997D02*
X12997Y42500D01*
X14996Y48498D02*
X16996D01*
X15996D01*
Y42500D01*
X14996D01*
X16996D01*
X19995Y48498D02*
Y42500D01*
X23993D01*
X25993Y48498D02*
Y42500D01*
X29991D01*
X31991D02*
X33990D01*
X32990D01*
Y48498D01*
X31991Y47498D01*
X2500Y28998D02*
Y23000D01*
X5499D01*
X6499Y24000D01*
Y27998D01*
X5499Y28998D01*
X2500D01*
X8498Y23000D02*
Y28998D01*
X11497D01*
X12497Y27998D01*
Y25999D01*
X11497Y24999D01*
X8498D01*
X10497D02*
X12497Y23000D01*
X14496Y28998D02*
X16496D01*
X15496D01*
Y23000D01*
X14496D01*
X16496D01*
X19494Y28998D02*
Y23000D01*
X23493D01*
X25493Y28998D02*
Y23000D01*
X29491D01*
X35489D02*
X31491D01*
X35489Y26999D01*
Y27998D01*
X34490Y28998D01*
X32490D01*
X31491Y27998D01*
D18*
X131500Y17500D02*
X141500D01*
X131500D02*
Y37500D01*
X141500D01*
Y17500D02*
Y37500D01*
X103500Y17500D02*
X113500D01*
X103500D02*
Y37500D01*
X113500D01*
Y17500D02*
Y37500D01*
M02*
