%FSLAX25Y25*%
%MOIN*%
G70*
G01*
G75*
G04 Layer_Color=255*
%ADD10R,0.04724X0.05512*%
%ADD11R,0.05500X0.07700*%
%ADD12R,0.04200X0.08800*%
%ADD13R,0.04000X0.04000*%
%ADD14R,0.07200X0.16000*%
%ADD15R,0.07200X0.08000*%
%ADD16R,0.08000X0.02500*%
%ADD17R,0.02500X0.04000*%
%ADD18R,0.01400X0.04000*%
%ADD19R,0.08800X0.04200*%
%ADD20R,0.04000X0.04000*%
%ADD21R,0.07000X0.06000*%
%ADD22R,0.05512X0.04724*%
%ADD23R,0.05906X0.04724*%
%ADD24R,0.02953X0.02362*%
%ADD25R,0.04000X0.03500*%
%ADD26R,0.03937X0.07087*%
%ADD27R,0.04724X0.03150*%
%ADD28R,0.02362X0.02953*%
%ADD29R,0.02362X0.07874*%
%ADD30R,0.03150X0.04724*%
%ADD31R,0.05906X0.01969*%
%ADD32R,0.05906X0.02362*%
%ADD33R,0.05906X0.02480*%
%ADD34R,0.06000X0.07000*%
%ADD35R,0.07700X0.05500*%
%ADD36O,0.01180X0.05906*%
%ADD37O,0.05906X0.01180*%
%ADD38R,0.17716X0.17716*%
%ADD39C,0.02000*%
%ADD40C,0.01000*%
%ADD41C,0.04000*%
%ADD42C,0.08000*%
%ADD43C,0.10000*%
%ADD44C,0.08000*%
%ADD45R,0.08000X0.08000*%
%ADD46R,0.08000X0.06000*%
%ADD47O,0.08000X0.06000*%
%ADD48C,0.06000*%
%ADD49R,0.06000X0.06000*%
%ADD50R,0.05906X0.05906*%
%ADD51C,0.05906*%
%ADD52R,0.06000X0.08000*%
%ADD53O,0.06000X0.08000*%
%ADD54C,0.20000*%
%ADD55C,0.04000*%
%ADD56R,0.03000X0.03000*%
%ADD57C,0.02500*%
%ADD58C,0.05000*%
%ADD59R,0.17700X0.17700*%
D44*
X86000Y74000D02*
D03*
X154070Y36380D02*
D03*
Y83620D02*
D03*
X106050Y36380D02*
D03*
Y83620D02*
D03*
X161950Y60000D02*
D03*
X154070Y108380D02*
D03*
Y155620D02*
D03*
X106050Y108380D02*
D03*
Y155620D02*
D03*
X161950Y132000D02*
D03*
D45*
X86000Y34000D02*
D03*
D46*
X18000Y130000D02*
D03*
X18300Y77700D02*
D03*
Y43700D02*
D03*
D47*
X18000Y140000D02*
D03*
Y150000D02*
D03*
X18300Y107700D02*
D03*
Y97700D02*
D03*
Y87700D02*
D03*
Y53700D02*
D03*
D48*
X62000Y68000D02*
D03*
D49*
X72000D02*
D03*
D50*
X266000Y38000D02*
D03*
X280300Y175700D02*
D03*
D51*
X256000Y38000D02*
D03*
X246000D02*
D03*
X280300Y185700D02*
D03*
X290300Y175700D02*
D03*
Y185700D02*
D03*
X300300Y175700D02*
D03*
Y185700D02*
D03*
X310300Y175700D02*
D03*
Y185700D02*
D03*
X320300Y175700D02*
D03*
Y185700D02*
D03*
D52*
X58300Y182700D02*
D03*
X289300Y20700D02*
D03*
X255300D02*
D03*
D53*
X68300Y182700D02*
D03*
X78300D02*
D03*
X279300Y20700D02*
D03*
X245300D02*
D03*
D54*
X340300Y176700D02*
D03*
X18300Y14700D02*
D03*
X19100Y176700D02*
D03*
X340300Y14700D02*
D03*
D55*
X40000Y176000D02*
D03*
X324300Y54700D02*
D03*
D56*
X254331Y94605D02*
D03*
X250331D02*
D03*
X258206Y82794D02*
D03*
X254331D02*
D03*
X246394D02*
D03*
X258206Y86700D02*
D03*
X254331D02*
D03*
X246394Y86731D02*
D03*
Y94605D02*
D03*
X258206D02*
D03*
X250331Y86700D02*
D03*
Y82794D02*
D03*
Y90668D02*
D03*
X246394D02*
D03*
X254331D02*
D03*
X258206D02*
D03*
D59*
X252400Y88700D02*
D03*
M02*
