%FSLAX25Y25*%
%MOIN*%
G70*
G01*
G75*
%ADD10R,0.05500X0.07700*%
%ADD11R,0.04724X0.05512*%
%ADD12R,0.01400X0.04000*%
%ADD13R,0.05512X0.04724*%
%ADD14R,0.05906X0.04724*%
%ADD15R,0.02953X0.02362*%
%ADD16R,0.04000X0.03500*%
%ADD17R,0.03937X0.07087*%
%ADD18R,0.04724X0.03150*%
%ADD19R,0.02362X0.02953*%
%ADD20R,0.02362X0.07874*%
%ADD21R,0.05906X0.01969*%
%ADD22R,0.05906X0.02362*%
%ADD23R,0.05906X0.02480*%
%ADD24R,0.06000X0.07000*%
%ADD25R,0.07700X0.05500*%
%ADD26O,0.01180X0.05906*%
%ADD27O,0.05906X0.01180*%
%ADD28R,0.17716X0.17716*%
%ADD29R,0.01000X0.02600*%
%ADD30R,0.02600X0.01000*%
%ADD31R,0.08800X0.04200*%
%ADD32R,0.04000X0.04000*%
%ADD33C,0.01000*%
%ADD34C,0.04000*%
%ADD35C,0.08000*%
%ADD36C,0.02000*%
%ADD37C,0.01200*%
%ADD38C,0.08000*%
%ADD39R,0.08000X0.08000*%
%ADD40R,0.08000X0.06000*%
%ADD41O,0.08000X0.06000*%
%ADD42C,0.06000*%
%ADD43R,0.06000X0.06000*%
%ADD44R,0.05906X0.05906*%
%ADD45C,0.05906*%
%ADD46R,0.06000X0.08000*%
%ADD47O,0.06000X0.08000*%
%ADD48C,0.20000*%
%ADD49C,0.04000*%
%ADD50R,0.03000X0.03000*%
%ADD51R,0.05000X0.05000*%
%ADD52C,0.02500*%
%ADD53C,0.05000*%
%ADD54R,0.17700X0.17700*%
%ADD55C,0.00600*%
%ADD56C,0.00984*%
%ADD57C,0.00800*%
%ADD58C,0.00787*%
%ADD59C,0.00400*%
D33*
X55171Y16200D02*
G03*
X55171Y16200I-10171J0D01*
G01*
X238551Y102873D02*
G03*
X238551Y102873I-424J0D01*
G01*
X63600Y75700D02*
X75300D01*
X63600Y23500D02*
Y75700D01*
Y23500D02*
X63700Y23600D01*
X76100D01*
X76200Y23700D01*
Y75600D01*
X76100Y75700D02*
X76200Y75600D01*
X75300Y75700D02*
X76100D01*
X122450Y45500D02*
X124450Y47500D01*
X107950Y75000D02*
X124450D01*
Y70000D02*
Y75000D01*
X107950Y42500D02*
X124450D01*
Y47500D01*
X136950Y60000D01*
X153450D01*
X171950Y27500D02*
Y93500D01*
X171450Y93000D02*
X171950Y93500D01*
X96950Y93000D02*
X171450D01*
X96950Y27500D02*
Y93000D01*
Y27500D02*
X171950D01*
X23800Y148300D02*
Y152100D01*
X28000Y147400D02*
Y148300D01*
X23800D02*
X28000D01*
Y132800D02*
Y147400D01*
X23800Y152100D02*
X28200D01*
Y158600D01*
X3200D02*
X28200D01*
X2500Y157900D02*
X3200Y158600D01*
X2500Y120500D02*
Y157900D01*
Y120500D02*
X17500D01*
X23500Y132800D02*
X28000D01*
X23500Y129000D02*
Y132800D01*
Y129000D02*
X28000D01*
Y120500D02*
Y129000D01*
X17500Y120500D02*
X28000D01*
X74000Y82000D02*
Y90000D01*
X58000D02*
X74000D01*
X58000Y82000D02*
Y90000D01*
Y82000D02*
X74000D01*
X122450Y117500D02*
X124450Y119500D01*
X107950Y147000D02*
X124450D01*
Y142000D02*
Y147000D01*
X107950Y114500D02*
X124450D01*
Y119500D01*
X136950Y132000D01*
X153450D01*
X171950Y99500D02*
Y165500D01*
X171450Y165000D02*
X171950Y165500D01*
X96950Y165000D02*
X171450D01*
X96950Y99500D02*
Y165000D01*
Y99500D02*
X171950D01*
X299300Y5700D02*
Y20700D01*
X269300Y7200D02*
Y25200D01*
Y30700D01*
X276800D01*
Y26700D02*
Y30700D01*
Y26700D02*
X280300D01*
Y30700D01*
X287800D01*
Y26700D02*
Y30700D01*
Y26700D02*
X291300D01*
Y30700D01*
X299300D01*
Y20700D02*
Y30700D01*
X269300Y5700D02*
X299300D01*
X269300D02*
Y7200D01*
X265300Y5700D02*
Y20700D01*
X235300Y7200D02*
Y25200D01*
Y30700D01*
X242800D01*
Y26700D02*
Y30700D01*
Y26700D02*
X246300D01*
Y30700D01*
X253800D01*
Y26700D02*
Y30700D01*
Y26700D02*
X257300D01*
Y30700D01*
X265300D01*
Y20700D02*
Y30700D01*
X235300Y5700D02*
X265300D01*
X235300D02*
Y7200D01*
X36000Y38000D02*
Y54000D01*
X44000D01*
Y38000D02*
Y54000D01*
X36000Y38000D02*
X44000D01*
X18300Y67700D02*
X28300D01*
Y76700D01*
X23800D02*
X28300D01*
X23800D02*
Y80200D01*
X28300D01*
Y106700D01*
X23800D02*
X28300D01*
X23800D02*
Y109700D01*
X28300D01*
Y117200D01*
X2800D02*
X28300D01*
X2800Y68200D02*
Y117200D01*
Y68200D02*
X3300Y67700D01*
X18300D01*
X3300Y63700D02*
X4800D01*
X3300Y33700D02*
Y63700D01*
X18300Y33700D02*
X28300D01*
Y41700D01*
X24300D02*
X28300D01*
X24300D02*
Y45200D01*
X28300D01*
Y52700D01*
X24300D02*
X28300D01*
X24300D02*
Y56200D01*
X28300D01*
Y63700D01*
X22800D02*
X28300D01*
X4800D02*
X22800D01*
X3300Y33700D02*
X18300D01*
X36000Y74000D02*
Y82000D01*
Y74000D02*
X52000D01*
Y82000D01*
X36000D02*
X52000D01*
X192300Y94200D02*
Y102200D01*
X176300D02*
X192300D01*
X176300Y94200D02*
Y102200D01*
Y94200D02*
X192300D01*
X224300Y44700D02*
Y52700D01*
X208300D02*
X224300D01*
X208300Y44700D02*
Y52700D01*
Y44700D02*
X224300D01*
X192300Y104700D02*
Y112700D01*
X176300D02*
X192300D01*
X176300Y104700D02*
Y112700D01*
Y104700D02*
X192300D01*
X208300Y114700D02*
Y122700D01*
Y114700D02*
X224300D01*
Y122700D01*
X208300D02*
X224300D01*
Y56700D02*
Y64700D01*
X208300D02*
X224300D01*
X208300Y56700D02*
Y64700D01*
Y56700D02*
X224300D01*
X176300Y82700D02*
Y90700D01*
Y82700D02*
X192300D01*
Y90700D01*
X176300D02*
X192300D01*
X293800Y170700D02*
Y171700D01*
X306800D01*
Y170700D02*
Y171700D01*
X60600Y140371D02*
Y151771D01*
X43300Y140371D02*
X60600D01*
X43300D02*
Y151771D01*
X60600D01*
X52163Y140371D02*
Y151771D01*
X306400Y89200D02*
Y90200D01*
X317900Y89100D02*
Y90200D01*
X316700Y89100D02*
X317900D01*
X304200Y100500D02*
X304500D01*
X306400Y89200D02*
X307400D01*
X306400Y100500D02*
X307500D01*
X306400Y99400D02*
Y100500D01*
X316700D02*
X317900D01*
Y99500D02*
Y100500D01*
X1000Y100D02*
Y198900D01*
X353900D01*
Y200D02*
Y198900D01*
Y200D02*
X354000Y100D01*
X1000D02*
X354000D01*
D36*
X2500Y163998D02*
X9165D01*
X5832Y167331D02*
Y160666D01*
D55*
X288200Y89622D02*
G03*
X288200Y87778I0J-922D01*
G01*
Y82100D02*
Y95400D01*
X279900Y82100D02*
X288200D01*
X279800Y82000D02*
X279900Y82100D01*
X279800Y82000D02*
Y95400D01*
X288200D01*
X38500Y46500D02*
X42000D01*
X38500Y45500D02*
X42000D01*
X218500Y164200D02*
Y167800D01*
X209500D02*
X218500D01*
X209500Y164200D02*
Y167800D01*
Y164200D02*
X218500D01*
X214512Y165055D02*
Y166827D01*
X213527Y165055D02*
Y166827D01*
X264700Y134800D02*
X267100D01*
X264700Y126500D02*
Y134800D01*
Y126500D02*
X279900D01*
Y134800D01*
X267100D02*
X279900D01*
X239355Y117173D02*
X241127D01*
X239355Y116188D02*
X241127D01*
X238500Y112200D02*
Y121200D01*
X242100D01*
Y112200D02*
Y121200D01*
X238500Y112200D02*
X242100D01*
X217828Y75755D02*
Y77527D01*
X218812Y75755D02*
Y77527D01*
X213800Y74900D02*
X222800D01*
X213800D02*
Y78500D01*
X222800D01*
Y74900D02*
Y78500D01*
X285527Y69055D02*
Y70827D01*
X286512Y69055D02*
Y70827D01*
X281500Y68200D02*
X290500D01*
X281500D02*
Y71800D01*
X290500D01*
Y68200D02*
Y71800D01*
X286473Y75173D02*
Y76945D01*
X285488Y75173D02*
Y76945D01*
X281500Y77800D02*
X290500D01*
Y74200D02*
Y77800D01*
X281500Y74200D02*
X290500D01*
X281500D02*
Y77800D01*
X286473Y101173D02*
Y102945D01*
X285488Y101173D02*
Y102945D01*
X281500Y103800D02*
X290500D01*
Y100200D02*
Y103800D01*
X281500Y100200D02*
X290500D01*
X281500D02*
Y103800D01*
X271355Y117173D02*
X273127D01*
X271355Y116188D02*
X273127D01*
X270500Y112200D02*
Y121200D01*
X274100D01*
Y112200D02*
Y121200D01*
X270500Y112200D02*
X274100D01*
X275355Y55172D02*
X277127D01*
X275355Y54188D02*
X277127D01*
X274500Y50200D02*
Y59200D01*
X278100D01*
Y50200D02*
Y59200D01*
X274500Y50200D02*
X278100D01*
X299473Y54228D02*
X301245D01*
X299473Y55212D02*
X301245D01*
X302100Y50200D02*
Y59200D01*
X298500Y50200D02*
X302100D01*
X298500D02*
Y59200D01*
X302100D01*
X283473Y130227D02*
X285245D01*
X283473Y131212D02*
X285245D01*
X286100Y126200D02*
Y135200D01*
X282500Y126200D02*
X286100D01*
X282500D02*
Y135200D01*
X286100D01*
X259473Y130227D02*
X261245D01*
X259473Y131212D02*
X261245D01*
X262100Y126200D02*
Y135200D01*
X258500Y126200D02*
X262100D01*
X258500D02*
Y135200D01*
X262100D01*
X233355Y117173D02*
X235127D01*
X233355Y116188D02*
X235127D01*
X232500Y112200D02*
Y121200D01*
X236100D01*
Y112200D02*
Y121200D01*
X232500Y112200D02*
X236100D01*
X213300Y22200D02*
X231300D01*
X213300D02*
Y35200D01*
X231300D01*
Y22200D02*
Y35200D01*
X191300D02*
X209300D01*
Y22200D02*
Y35200D01*
X191300Y22200D02*
X209300D01*
X191300D02*
Y35200D01*
X281500Y106200D02*
Y109800D01*
Y106200D02*
X290500D01*
Y109800D01*
X281500D02*
X290500D01*
X285961Y106200D02*
Y107055D01*
X285488Y107173D02*
X286473D01*
X285488D02*
Y108945D01*
X286473Y107173D02*
Y108945D01*
X285961Y108866D02*
Y109800D01*
X285488Y108945D02*
X286473D01*
X260500Y59200D02*
X264100D01*
X260500Y50200D02*
Y59200D01*
Y50200D02*
X264100D01*
Y59200D01*
X260500Y54739D02*
X261355D01*
X261473Y54228D02*
Y55212D01*
X263245D01*
X261473Y54228D02*
X263245D01*
X263166Y54739D02*
X264100D01*
X263245Y54228D02*
Y55212D01*
X254500Y59200D02*
X258100D01*
X254500Y50200D02*
Y59200D01*
Y50200D02*
X258100D01*
Y59200D01*
X254500Y54739D02*
X255355D01*
X255473Y54228D02*
Y55212D01*
X257245D01*
X255473Y54228D02*
X257245D01*
X257166Y54739D02*
X258100D01*
X257245Y54228D02*
Y55212D01*
X256500Y172200D02*
Y175800D01*
X247500D02*
X256500D01*
X247500Y172200D02*
Y175800D01*
Y172200D02*
X256500D01*
X252039Y174945D02*
Y175800D01*
X251528Y174827D02*
X252512D01*
Y173055D02*
Y174827D01*
X251528Y173055D02*
Y174827D01*
X252039Y172200D02*
Y173134D01*
X251528Y173055D02*
X252512D01*
X305300Y33200D02*
X323300D01*
Y20200D02*
Y33200D01*
X305300Y20200D02*
X323300D01*
X305300D02*
Y33200D01*
X65355Y145173D02*
X67127D01*
X65355Y144188D02*
X67127D01*
X64500Y140200D02*
Y149200D01*
X68100D01*
Y140200D02*
Y149200D01*
X64500Y140200D02*
X68100D01*
X187245Y28227D02*
Y29212D01*
X187166Y28739D02*
X188100D01*
X185473Y28227D02*
X187245D01*
X185473Y29212D02*
X187245D01*
X185473Y28227D02*
Y29212D01*
X184500Y28739D02*
X185355D01*
X188100Y24200D02*
Y33200D01*
X184500Y24200D02*
X188100D01*
X184500D02*
Y33200D01*
X188100D01*
X179245Y28227D02*
Y29212D01*
X179166Y28739D02*
X180100D01*
X177473Y28227D02*
X179245D01*
X177473Y29212D02*
X179245D01*
X177473Y28227D02*
Y29212D01*
X176500Y28739D02*
X177355D01*
X180100Y24200D02*
Y33200D01*
X176500Y24200D02*
X180100D01*
X176500D02*
Y33200D01*
X180100D01*
X240489Y98936D02*
Y100511D01*
X242064D01*
X262536D02*
X264111D01*
Y98936D02*
Y100511D01*
X240489Y76889D02*
Y78464D01*
Y76889D02*
X242064D01*
X264111D02*
Y78464D01*
X262536Y76889D02*
X264111D01*
X306200Y105500D02*
X309800D01*
Y114500D01*
X306200D02*
X309800D01*
X306200Y105500D02*
Y114500D01*
X307055Y109488D02*
X308827D01*
X307055Y110473D02*
X308827D01*
X312200Y114500D02*
X315800D01*
X312200Y105500D02*
Y114500D01*
Y105500D02*
X315800D01*
Y114500D01*
X313173Y110512D02*
X314945D01*
X313173Y109528D02*
X314945D01*
X217488Y86945D02*
X218473D01*
X217961Y86866D02*
Y87800D01*
X218473Y85173D02*
Y86945D01*
X217488Y85173D02*
Y86945D01*
Y85173D02*
X218473D01*
X217961Y84200D02*
Y85055D01*
X213500Y87800D02*
X222500D01*
Y84200D02*
Y87800D01*
X213500Y84200D02*
X222500D01*
X213500D02*
Y87800D01*
X217488Y92945D02*
X218473D01*
X217961Y92866D02*
Y93800D01*
X218473Y91173D02*
Y92945D01*
X217488Y91173D02*
Y92945D01*
Y91173D02*
X218473D01*
X217961Y90200D02*
Y91055D01*
X213500Y93800D02*
X222500D01*
Y90200D02*
Y93800D01*
X213500Y90200D02*
X222500D01*
X213500D02*
Y93800D01*
X300500Y90200D02*
Y93800D01*
X291500D02*
X300500D01*
X291500Y90200D02*
Y93800D01*
Y90200D02*
X300500D01*
X296512Y91055D02*
Y92827D01*
X295528Y91055D02*
Y92827D01*
X324800Y84700D02*
Y103300D01*
Y84700D02*
X339800D01*
Y103200D01*
X339700Y103300D02*
X339800Y103200D01*
X324800Y103300D02*
X339700D01*
X77200Y174999D02*
Y171000D01*
X79199D01*
X79866Y171667D01*
Y174332D01*
X79199Y174999D01*
X77200D01*
X83198Y171000D02*
Y174999D01*
X81199Y172999D01*
X83864D01*
X309600Y83599D02*
Y80266D01*
X310266Y79600D01*
X311599D01*
X312266Y80266D01*
Y83599D01*
X313599Y82932D02*
X314265Y83599D01*
X315598D01*
X316265Y82932D01*
Y82266D01*
X315598Y81599D01*
X314932D01*
X315598D01*
X316265Y80933D01*
Y80266D01*
X315598Y79600D01*
X314265D01*
X313599Y80266D01*
X76200Y82900D02*
Y86899D01*
X78199D01*
X78866Y86232D01*
Y84899D01*
X78199Y84233D01*
X76200D01*
X77533D02*
X78866Y82900D01*
X80199D02*
X81532D01*
X80865D01*
Y86899D01*
X80199Y86232D01*
X83531D02*
X84197Y86899D01*
X85530D01*
X86197Y86232D01*
Y85566D01*
X85530Y84899D01*
X86197Y84233D01*
Y83566D01*
X85530Y82900D01*
X84197D01*
X83531Y83566D01*
Y84233D01*
X84197Y84899D01*
X83531Y85566D01*
Y86232D01*
X84197Y84899D02*
X85530D01*
X78200Y48900D02*
Y52899D01*
X80199D01*
X80866Y52232D01*
Y50899D01*
X80199Y50233D01*
X78200D01*
X79533D02*
X80866Y48900D01*
X82199D02*
X83532D01*
X82865D01*
Y52899D01*
X82199Y52232D01*
X85531Y52899D02*
X88197D01*
Y52232D01*
X85531Y49566D01*
Y48900D01*
X72000Y102199D02*
Y98200D01*
X73999D01*
X74666Y98866D01*
Y101532D01*
X73999Y102199D01*
X72000D01*
X78664D02*
X75999D01*
Y100199D01*
X77332Y100866D01*
X77998D01*
X78664Y100199D01*
Y98866D01*
X77998Y98200D01*
X76665D01*
X75999Y98866D01*
X41966Y32932D02*
X41299Y33599D01*
X39966D01*
X39300Y32932D01*
Y30266D01*
X39966Y29600D01*
X41299D01*
X41966Y30266D01*
X43299D02*
X43965Y29600D01*
X45298D01*
X45965Y30266D01*
Y32932D01*
X45298Y33599D01*
X43965D01*
X43299Y32932D01*
Y32266D01*
X43965Y31599D01*
X45965D01*
X176350Y76149D02*
Y72150D01*
X178349D01*
X179016Y72816D01*
Y75482D01*
X178349Y76149D01*
X176350D01*
X183015Y72150D02*
X180349D01*
X183015Y74816D01*
Y75482D01*
X182348Y76149D01*
X181015D01*
X180349Y75482D01*
X176350Y152149D02*
Y148150D01*
X178349D01*
X179016Y148817D01*
Y151482D01*
X178349Y152149D01*
X176350D01*
X180349Y148150D02*
X181682D01*
X181015D01*
Y152149D01*
X180349Y151482D01*
X72000Y117499D02*
Y113500D01*
X73999D01*
X74666Y114166D01*
Y116832D01*
X73999Y117499D01*
X72000D01*
X75999Y116832D02*
X76665Y117499D01*
X77998D01*
X78664Y116832D01*
Y116166D01*
X77998Y115499D01*
X77332D01*
X77998D01*
X78664Y114833D01*
Y114166D01*
X77998Y113500D01*
X76665D01*
X75999Y114166D01*
X69366Y130332D02*
X68699Y130999D01*
X67366D01*
X66700Y130332D01*
Y127666D01*
X67366Y127000D01*
X68699D01*
X69366Y127666D01*
X73365Y127000D02*
X70699D01*
X73365Y129666D01*
Y130332D01*
X72698Y130999D01*
X71365D01*
X70699Y130332D01*
X74697D02*
X75364Y130999D01*
X76697D01*
X77363Y130332D01*
Y127666D01*
X76697Y127000D01*
X75364D01*
X74697Y127666D01*
Y130332D01*
X188200Y12900D02*
X184201D01*
Y14899D01*
X184868Y15566D01*
X186201D01*
X186867Y14899D01*
Y12900D01*
Y14233D02*
X188200Y15566D01*
Y16899D02*
Y18232D01*
Y17565D01*
X184201D01*
X184868Y16899D01*
X184201Y22897D02*
X184868Y21564D01*
X186201Y20231D01*
X187533D01*
X188200Y20897D01*
Y22230D01*
X187533Y22897D01*
X186867D01*
X186201Y22230D01*
Y20231D01*
X179800Y12700D02*
X175801D01*
Y14699D01*
X176468Y15366D01*
X177801D01*
X178467Y14699D01*
Y12700D01*
Y14033D02*
X179800Y15366D01*
Y16699D02*
Y18032D01*
Y17365D01*
X175801D01*
X176468Y16699D01*
X175801Y22697D02*
Y20031D01*
X177801D01*
X177134Y21364D01*
Y22030D01*
X177801Y22697D01*
X179133D01*
X179800Y22030D01*
Y20697D01*
X179133Y20031D01*
X202300Y89900D02*
Y93899D01*
X204299D01*
X204966Y93232D01*
Y91899D01*
X204299Y91233D01*
X202300D01*
X203633D02*
X204966Y89900D01*
X206299D02*
X207632D01*
X206965D01*
Y93899D01*
X206299Y93232D01*
X209631D02*
X210297Y93899D01*
X211630D01*
X212297Y93232D01*
Y92566D01*
X211630Y91899D01*
X210964D01*
X211630D01*
X212297Y91233D01*
Y90566D01*
X211630Y89900D01*
X210297D01*
X209631Y90566D01*
X277300Y122699D02*
Y122032D01*
X278633Y120699D01*
X279966Y122032D01*
Y122699D01*
X278633Y120699D02*
Y118700D01*
X283964D02*
X281299D01*
X283964Y121366D01*
Y122032D01*
X283298Y122699D01*
X281965D01*
X281299Y122032D01*
X292600Y66299D02*
Y65632D01*
X293933Y64299D01*
X295266Y65632D01*
Y66299D01*
X293933Y64299D02*
Y62300D01*
X296599D02*
X297932D01*
X297265D01*
Y66299D01*
X296599Y65632D01*
X325400Y27300D02*
Y31299D01*
X327399D01*
X328066Y30632D01*
Y29299D01*
X327399Y28633D01*
X325400D01*
X326733D02*
X328066Y27300D01*
X332065Y31299D02*
X329399D01*
Y27300D01*
X332065D01*
X329399Y29299D02*
X330732D01*
X336063Y30632D02*
X335397Y31299D01*
X334064D01*
X333397Y30632D01*
Y29966D01*
X334064Y29299D01*
X335397D01*
X336063Y28633D01*
Y27966D01*
X335397Y27300D01*
X334064D01*
X333397Y27966D01*
X340062Y31299D02*
X337396D01*
Y27300D01*
X340062D01*
X337396Y29299D02*
X338729D01*
X341395Y31299D02*
X344061D01*
X342728D01*
Y27300D01*
X226800Y58200D02*
Y62199D01*
X228799D01*
X229466Y61532D01*
Y60199D01*
X228799Y59533D01*
X226800D01*
X228133D02*
X229466Y58200D01*
X233465Y62199D02*
X232132Y61532D01*
X230799Y60199D01*
Y58866D01*
X231465Y58200D01*
X232798D01*
X233465Y58866D01*
Y59533D01*
X232798Y60199D01*
X230799D01*
X193900Y84700D02*
Y88699D01*
X195899D01*
X196566Y88032D01*
Y86699D01*
X195899Y86033D01*
X193900D01*
X195233D02*
X196566Y84700D01*
X200565Y88699D02*
X197899D01*
Y86699D01*
X199232Y87366D01*
X199898D01*
X200565Y86699D01*
Y85366D01*
X199898Y84700D01*
X198565D01*
X197899Y85366D01*
X249800Y178000D02*
Y181999D01*
X251799D01*
X252466Y181332D01*
Y179999D01*
X251799Y179333D01*
X249800D01*
X251133D02*
X252466Y178000D01*
X255798D02*
Y181999D01*
X253799Y179999D01*
X256465D01*
X258400Y61100D02*
X254401D01*
Y63099D01*
X255068Y63766D01*
X256401D01*
X257067Y63099D01*
Y61100D01*
Y62433D02*
X258400Y63766D01*
X255068Y65099D02*
X254401Y65765D01*
Y67098D01*
X255068Y67765D01*
X255734D01*
X256401Y67098D01*
Y66432D01*
Y67098D01*
X257067Y67765D01*
X257734D01*
X258400Y67098D01*
Y65765D01*
X257734Y65099D01*
X265700Y60700D02*
X261701D01*
Y62699D01*
X262368Y63366D01*
X263701D01*
X264367Y62699D01*
Y60700D01*
Y62033D02*
X265700Y63366D01*
Y67365D02*
Y64699D01*
X263034Y67365D01*
X262368D01*
X261701Y66698D01*
Y65365D01*
X262368Y64699D01*
X232218Y37395D02*
Y41394D01*
X234217D01*
X234884Y40727D01*
Y39394D01*
X234217Y38728D01*
X232218D01*
X238882Y37395D02*
X236217D01*
X238882Y40060D01*
Y40727D01*
X238216Y41394D01*
X236883D01*
X236217Y40727D01*
X246366Y47732D02*
X245699Y48399D01*
X244366D01*
X243700Y47732D01*
Y45066D01*
X244366Y44400D01*
X245699D01*
X246366Y45066D01*
Y46399D01*
X245033D01*
X247699Y44400D02*
Y47066D01*
X249698D01*
X250364Y46399D01*
Y44400D01*
X254363Y48399D02*
Y44400D01*
X252364D01*
X251697Y45066D01*
Y46399D01*
X252364Y47066D01*
X254363D01*
X255696Y48399D02*
X258362D01*
X257029D01*
Y44400D01*
X259695Y47066D02*
X262361Y44400D01*
X261028Y45733D01*
X262361Y47066D01*
X259695Y44400D01*
X263694D02*
Y48399D01*
X265693D01*
X266359Y47732D01*
Y46399D01*
X265693Y45733D01*
X263694D01*
X265026D02*
X266359Y44400D01*
X267692Y47066D02*
X270358Y44400D01*
X269025Y45733D01*
X270358Y47066D01*
X267692Y44400D01*
X305900Y162600D02*
Y166599D01*
X307899D01*
X308566Y165932D01*
Y164599D01*
X307899Y163933D01*
X305900D01*
X309899Y162600D02*
X311232D01*
X310565D01*
Y166599D01*
X309899Y165932D01*
X285900Y195799D02*
Y191800D01*
X287899D01*
X288566Y192466D01*
Y195132D01*
X287899Y195799D01*
X285900D01*
X292565D02*
X289899D01*
Y191800D01*
X292565D01*
X289899Y193799D02*
X291232D01*
X293897Y195799D02*
Y191800D01*
X295897D01*
X296563Y192466D01*
Y193133D01*
X295897Y193799D01*
X293897D01*
X295897D01*
X296563Y194466D01*
Y195132D01*
X295897Y195799D01*
X293897D01*
X297896D02*
Y192466D01*
X298563Y191800D01*
X299896D01*
X300562Y192466D01*
Y195799D01*
X304561Y195132D02*
X303894Y195799D01*
X302561D01*
X301895Y195132D01*
Y192466D01*
X302561Y191800D01*
X303894D01*
X304561Y192466D01*
Y193799D01*
X303228D01*
X229100Y178067D02*
Y182066D01*
X231099D01*
X231766Y181399D01*
Y180067D01*
X231099Y179400D01*
X229100D01*
X233765D02*
X235098D01*
X235765Y180067D01*
Y181399D01*
X235098Y182066D01*
X233765D01*
X233099Y181399D01*
Y180067D01*
X233765Y179400D01*
X237097Y182066D02*
Y180067D01*
X237764Y179400D01*
X238430Y180067D01*
X239097Y179400D01*
X239763Y180067D01*
Y182066D01*
X243095Y179400D02*
X241763D01*
X241096Y180067D01*
Y181399D01*
X241763Y182066D01*
X243095D01*
X243762Y181399D01*
Y180733D01*
X241096D01*
X245095Y182066D02*
Y179400D01*
Y180733D01*
X245761Y181399D01*
X246428Y182066D01*
X247094D01*
X195800Y15699D02*
Y11700D01*
Y13033D01*
X198466Y15699D01*
X196467Y13699D01*
X198466Y11700D01*
X202465D02*
X199799D01*
X202465Y14366D01*
Y15032D01*
X201798Y15699D01*
X200465D01*
X199799Y15032D01*
X218400Y16299D02*
Y12300D01*
Y13633D01*
X221066Y16299D01*
X219066Y14299D01*
X221066Y12300D01*
X222399D02*
X223732D01*
X223065D01*
Y16299D01*
X222399Y15632D01*
X193800Y96300D02*
Y100299D01*
X195799D01*
X196466Y99632D01*
Y98299D01*
X195799Y97633D01*
X193800D01*
X195133D02*
X196466Y96300D01*
X197799D02*
X199132D01*
X198465D01*
Y100299D01*
X197799Y99632D01*
X201131D02*
X201797Y100299D01*
X203130D01*
X203797Y99632D01*
Y96966D01*
X203130Y96300D01*
X201797D01*
X201131Y96966D01*
Y99632D01*
X226800Y45200D02*
Y49199D01*
X228799D01*
X229466Y48532D01*
Y47199D01*
X228799Y46533D01*
X226800D01*
X228133D02*
X229466Y45200D01*
X230799Y45866D02*
X231465Y45200D01*
X232798D01*
X233465Y45866D01*
Y48532D01*
X232798Y49199D01*
X231465D01*
X230799Y48532D01*
Y47866D01*
X231465Y47199D01*
X233465D01*
X193900Y106900D02*
Y110899D01*
X195899D01*
X196566Y110232D01*
Y108899D01*
X195899Y108233D01*
X193900D01*
X195233D02*
X196566Y106900D01*
X197899Y110232D02*
X198565Y110899D01*
X199898D01*
X200565Y110232D01*
Y109566D01*
X199898Y108899D01*
X200565Y108233D01*
Y107566D01*
X199898Y106900D01*
X198565D01*
X197899Y107566D01*
Y108233D01*
X198565Y108899D01*
X197899Y109566D01*
Y110232D01*
X198565Y108899D02*
X199898D01*
X211800Y107200D02*
Y111199D01*
X213799D01*
X214466Y110532D01*
Y109199D01*
X213799Y108533D01*
X211800D01*
X213133D02*
X214466Y107200D01*
X215799Y111199D02*
X218464D01*
Y110532D01*
X215799Y107867D01*
Y107200D01*
X199069Y64722D02*
Y67388D01*
X198403Y68055D01*
X197070D01*
X196404Y67388D01*
Y64722D01*
X197070Y64056D01*
X198403D01*
X197736Y65389D02*
X199069Y64056D01*
X198403D02*
X199069Y64722D01*
X203068Y64056D02*
X200402D01*
X203068Y66722D01*
Y67388D01*
X202401Y68055D01*
X201069D01*
X200402Y67388D01*
X196966Y136767D02*
Y139432D01*
X196299Y140099D01*
X194966D01*
X194300Y139432D01*
Y136767D01*
X194966Y136100D01*
X196299D01*
X195633Y137433D02*
X196966Y136100D01*
X196299D02*
X196966Y136767D01*
X198299Y136100D02*
X199632D01*
X198965D01*
Y140099D01*
X198299Y139432D01*
X68166Y163832D02*
X67499Y164499D01*
X66166D01*
X65500Y163832D01*
Y161167D01*
X66166Y160500D01*
X67499D01*
X68166Y161167D01*
X69499Y160500D02*
X70832D01*
X70165D01*
Y164499D01*
X69499Y163832D01*
X72831Y164499D02*
X75497D01*
Y163832D01*
X72831Y161167D01*
Y160500D01*
X29400Y140700D02*
Y144699D01*
X31399D01*
X32066Y144032D01*
Y142699D01*
X31399Y142033D01*
X29400D01*
X33399Y144032D02*
X34065Y144699D01*
X35398D01*
X36064Y144032D01*
Y143366D01*
X35398Y142699D01*
X34732D01*
X35398D01*
X36064Y142033D01*
Y141367D01*
X35398Y140700D01*
X34065D01*
X33399Y141367D01*
X6999Y175134D02*
Y177800D01*
X4999D01*
X5666Y176467D01*
Y175801D01*
X4999Y175134D01*
X3666D01*
X3000Y175801D01*
Y177134D01*
X3666Y177800D01*
X6999Y173801D02*
X4333D01*
X3000Y172468D01*
X4333Y171135D01*
X6999D01*
X64400Y156599D02*
Y153267D01*
X65066Y152600D01*
X66399D01*
X67066Y153267D01*
Y156599D01*
X71065Y152600D02*
X68399D01*
X71065Y155266D01*
Y155932D01*
X70398Y156599D01*
X69065D01*
X68399Y155932D01*
X30500Y89600D02*
Y93599D01*
X32499D01*
X33166Y92932D01*
Y91599D01*
X32499Y90933D01*
X30500D01*
X36498Y89600D02*
Y93599D01*
X34499Y91599D01*
X37165D01*
X9500Y26300D02*
Y30299D01*
X11499D01*
X12166Y29632D01*
Y28299D01*
X11499Y27633D01*
X9500D01*
X16164Y30299D02*
X13499D01*
Y28299D01*
X14832Y28966D01*
X15498D01*
X16164Y28299D01*
Y26966D01*
X15498Y26300D01*
X14165D01*
X13499Y26966D01*
X36900Y83700D02*
Y87699D01*
X38899D01*
X39566Y87032D01*
Y85699D01*
X38899Y85033D01*
X36900D01*
X38233D02*
X39566Y83700D01*
X40899D02*
X42232D01*
X41565D01*
Y87699D01*
X40899Y87032D01*
X44231Y83700D02*
X45564D01*
X44897D01*
Y87699D01*
X44231Y87032D01*
X209300Y181999D02*
Y178000D01*
X211966D01*
X215965Y181999D02*
X213299D01*
Y179999D01*
X214632Y180666D01*
X215298D01*
X215965Y179999D01*
Y178666D01*
X215298Y178000D01*
X213965D01*
X213299Y178666D01*
X202500Y84700D02*
Y88699D01*
X204499D01*
X205166Y88032D01*
Y86699D01*
X204499Y86033D01*
X202500D01*
X203833D02*
X205166Y84700D01*
X206499D02*
X207832D01*
X207165D01*
Y88699D01*
X206499Y88032D01*
X212497Y84700D02*
X209831D01*
X212497Y87366D01*
Y88032D01*
X211830Y88699D01*
X210497D01*
X209831Y88032D01*
X38509Y59655D02*
X37843Y60321D01*
X36510D01*
X35843Y59655D01*
Y56989D01*
X36510Y56322D01*
X37843D01*
X38509Y56989D01*
X42508Y56322D02*
X39842D01*
X42508Y58988D01*
Y59655D01*
X41841Y60321D01*
X40508D01*
X39842Y59655D01*
X43841Y56322D02*
X45173D01*
X44507D01*
Y60321D01*
X43841Y59655D01*
X249600Y111299D02*
Y107966D01*
X250266Y107300D01*
X251599D01*
X252266Y107966D01*
Y111299D01*
X253599Y107300D02*
X254932D01*
X254265D01*
Y111299D01*
X253599Y110632D01*
X302000Y4700D02*
Y8699D01*
X303999D01*
X304666Y8032D01*
Y6699D01*
X303999Y6033D01*
X302000D01*
X305999Y8699D02*
X308664D01*
Y8032D01*
X305999Y5366D01*
Y4700D01*
X222600Y2800D02*
Y6799D01*
X224599D01*
X225266Y6132D01*
Y4799D01*
X224599Y4133D01*
X222600D01*
X226599Y6132D02*
X227265Y6799D01*
X228598D01*
X229264Y6132D01*
Y5466D01*
X228598Y4799D01*
X229264Y4133D01*
Y3466D01*
X228598Y2800D01*
X227265D01*
X226599Y3466D01*
Y4133D01*
X227265Y4799D01*
X226599Y5466D01*
Y6132D01*
X227265Y4799D02*
X228598D01*
X329900Y110899D02*
Y107566D01*
X330566Y106900D01*
X331899D01*
X332566Y107566D01*
Y110899D01*
X335898Y106900D02*
Y110899D01*
X333899Y108899D01*
X336564D01*
X269700Y90699D02*
Y87366D01*
X270366Y86700D01*
X271699D01*
X272366Y87366D01*
Y90699D01*
X276364D02*
X273699D01*
Y88699D01*
X275032Y89366D01*
X275698D01*
X276364Y88699D01*
Y87366D01*
X275698Y86700D01*
X274365D01*
X273699Y87366D01*
X97100Y168600D02*
Y172599D01*
X99099D01*
X99766Y171932D01*
Y170599D01*
X99099Y169933D01*
X97100D01*
X98433D02*
X99766Y168600D01*
X103764Y172599D02*
X101099D01*
Y168600D01*
X103764D01*
X101099Y170599D02*
X102432D01*
X105097Y172599D02*
Y168600D01*
X107763D01*
X109096D02*
Y171266D01*
X110429Y172599D01*
X111762Y171266D01*
Y168600D01*
Y170599D01*
X109096D01*
X113095Y172599D02*
Y171932D01*
X114428Y170599D01*
X115761Y171932D01*
Y172599D01*
X114428Y170599D02*
Y168600D01*
X117094D02*
X118426D01*
X117760D01*
Y172599D01*
X117094Y171932D01*
X100000Y17400D02*
Y21399D01*
X101999D01*
X102666Y20732D01*
Y19399D01*
X101999Y18733D01*
X100000D01*
X101333D02*
X102666Y17400D01*
X106665Y21399D02*
X103999D01*
Y17400D01*
X106665D01*
X103999Y19399D02*
X105332D01*
X107997Y21399D02*
Y17400D01*
X110663D01*
X111996D02*
Y20066D01*
X113329Y21399D01*
X114662Y20066D01*
Y17400D01*
Y19399D01*
X111996D01*
X115995Y21399D02*
Y20732D01*
X117328Y19399D01*
X118661Y20732D01*
Y21399D01*
X117328Y19399D02*
Y17400D01*
X122659D02*
X119994D01*
X122659Y20066D01*
Y20732D01*
X121993Y21399D01*
X120660D01*
X119994Y20732D01*
X51000Y11100D02*
X49667D01*
X50334Y10434D02*
Y11767D01*
X53900Y187099D02*
Y183100D01*
X55899D01*
X56566Y183766D01*
Y186432D01*
X55899Y187099D01*
X53900D01*
X60565Y186432D02*
X59898Y187099D01*
X58565D01*
X57899Y186432D01*
Y183766D01*
X58565Y183100D01*
X59898D01*
X60565Y183766D01*
Y185099D01*
X59232D01*
X64563Y187099D02*
X63230D01*
X63897D01*
Y183766D01*
X63230Y183100D01*
X62564D01*
X61897Y183766D01*
X65896Y182433D02*
X68562D01*
X69895Y183100D02*
X71228D01*
X70561D01*
Y187099D01*
X69895D01*
X73894Y183100D02*
X75226D01*
X75893Y183766D01*
Y185099D01*
X75226Y185766D01*
X73894D01*
X73227Y185099D01*
Y183766D01*
X73894Y183100D01*
X79892Y185766D02*
X77892D01*
X77226Y185099D01*
Y183766D01*
X77892Y183100D01*
X79892D01*
X81225D02*
Y187099D01*
Y184433D02*
X83224Y185766D01*
X81225Y184433D02*
X83224Y183100D01*
X85223Y182433D02*
X87889D01*
X89222Y183100D02*
X90555D01*
X89888D01*
Y185766D01*
X89222D01*
X92554Y183100D02*
Y185766D01*
X94554D01*
X95220Y185099D01*
Y183100D01*
D56*
X202965Y49121D02*
G03*
X202965Y49121I-492J0D01*
G01*
Y121121D02*
G03*
X202965Y121121I-492J0D01*
G01*
D57*
X53100Y176500D02*
X55600Y174000D01*
X53100Y171500D02*
X55600Y174000D01*
X53100Y171500D02*
Y176500D01*
X56100Y171500D02*
Y176500D01*
X50600Y174000D02*
X57600D01*
X42600Y180500D02*
X70000D01*
Y168000D02*
Y180500D01*
X42600Y168000D02*
X70000D01*
X42600D02*
Y180500D01*
Y94000D02*
Y106500D01*
Y94000D02*
X70000D01*
Y106500D01*
X42600D02*
X70000D01*
X50600Y100000D02*
X57600D01*
X56100Y97500D02*
Y102500D01*
X53100Y97500D02*
Y102500D01*
Y97500D02*
X55600Y100000D01*
X53100Y102500D02*
X55600Y100000D01*
X53100Y118500D02*
X55600Y116000D01*
X53100Y113500D02*
X55600Y116000D01*
X53100Y113500D02*
Y118500D01*
X56100Y113500D02*
Y118500D01*
X50600Y116000D02*
X57600D01*
X42600Y122500D02*
X70000D01*
Y110000D02*
Y122500D01*
X42600Y110000D02*
X70000D01*
X42600D02*
Y122500D01*
X179800Y127800D02*
X182300Y130300D01*
X184800Y127800D01*
X179800D02*
X184800D01*
X179800Y130800D02*
X184800D01*
X182300Y125300D02*
Y132300D01*
X175800Y117300D02*
Y144700D01*
X188300D01*
Y117300D02*
Y144700D01*
X175800Y117300D02*
X188300D01*
X179800Y51800D02*
X182300Y54300D01*
X184800Y51800D01*
X179800D02*
X184800D01*
X179800Y54800D02*
X184800D01*
X182300Y49300D02*
Y56300D01*
X175800Y41300D02*
Y68700D01*
X188300D01*
Y41300D02*
Y68700D01*
X175800Y41300D02*
X188300D01*
D58*
X66000Y83638D02*
Y88362D01*
X241000Y43000D02*
X271000D01*
X241000Y33000D02*
Y43000D01*
Y33000D02*
X271000D01*
Y43000D01*
X287100Y49779D02*
X289500D01*
X287100Y59621D02*
X289500D01*
X294599Y54300D02*
Y55402D01*
X282001Y54199D02*
Y55301D01*
X44000Y75638D02*
Y80362D01*
X184300Y95838D02*
Y100562D01*
X216300Y46338D02*
Y51062D01*
X184300Y106338D02*
Y111062D01*
X216300Y116338D02*
Y121062D01*
Y58338D02*
Y63062D01*
X184300Y84338D02*
Y89062D01*
X232000Y171441D02*
X244000D01*
Y176559D01*
X232000D02*
X244000D01*
X232000Y171441D02*
Y176559D01*
X193812Y59948D02*
Y61720D01*
Y51680D02*
Y53452D01*
Y51680D02*
X198339D01*
X193812Y61720D02*
X198339D01*
X193812Y131948D02*
Y133720D01*
Y123680D02*
Y125452D01*
Y123680D02*
X198339D01*
X193812Y133720D02*
X198339D01*
X325300Y170700D02*
Y190700D01*
X275300Y170700D02*
Y190700D01*
X325300D01*
X275300Y170700D02*
X325300D01*
X208000Y171441D02*
X220000D01*
Y176559D01*
X208000D02*
X220000D01*
X208000Y171441D02*
Y176559D01*
D59*
X51400Y158600D02*
Y162600D01*
X53200Y158500D02*
Y162600D01*
X42200Y156100D02*
X62500D01*
X42000Y156300D02*
X42200Y156100D01*
X42000Y156300D02*
Y165100D01*
X62500D01*
Y156100D02*
Y165100D01*
X53100Y127900D02*
Y131900D01*
X54900Y127800D02*
Y131900D01*
X43900Y125400D02*
X64200D01*
X43700Y125600D02*
X43900Y125400D01*
X43700Y125600D02*
Y134400D01*
X64200D01*
Y125400D02*
Y134400D01*
X230500Y175750D02*
X231500D01*
X231000Y176250D02*
Y175250D01*
X54800Y160750D02*
X53800D01*
X54300Y160250D02*
Y161250D01*
X56500Y130050D02*
X55500D01*
X56000Y129550D02*
Y130550D01*
M02*
