M48
;Layer_Color=9474304
;FILE_FORMAT=2:5
INCH,LZ
;TYPE=PLATED
T1F00S00C0.01200
T2F00S00C0.01400
T3F00S00C0.01500
T4F00S00C0.02500
T5F00S00C0.03000
T6F00S00C0.03543
T7F00S00C0.04000
T8F00S00C0.12000
%
T01
X03151Y00078
X03103Y00365
X03041Y00445
X03013Y00293
X03017Y00641
X03013Y00732
X03016Y00808
X03111Y00823
X03118Y00777
X03097Y00723
X03158Y00627
X0323Y0069
X03329Y00664
X03415Y00666
X03411Y00763
X03486Y00769
X0332Y00762
X03419Y00511
X03417Y00362
X0293Y00426
X02833Y00437
X02755Y00629
X02754Y00679
X02673Y00671
X02678Y00742
X0280929Y0076571
X02929Y00828
X024Y00649
X02396Y00587
X02335Y00568
X02334Y00642
X02303Y00727
X02248Y00767
X02098Y00769
X0205896Y0079796
X01994Y00798
X01883Y00817
Y00692
X01943Y00647
X02045Y00659
X02099Y00661
X02062Y00727
X02198Y00542
X02288Y00527
X02243Y00384
X0223Y00326
X02187Y00259
X02018Y00254
X01996Y00325
X0196Y00446
X01783Y00351
X01821Y00261
X01699Y00177
X0173Y00041
X01481Y00187
X01645Y00471
X01428Y00671
X02396Y00138
X02452Y0007
X02605Y00074
X02781Y00071
X02945Y00076
X0137Y00039
X01187Y00174
X01026Y00182
X00873Y00192
X00871Y00349
X00595Y00368
X00602Y00168
X00532Y00056
X0072Y00053
X00935Y00037
X01148Y00327
X01388Y00342
X01412Y00552
X01076Y00696
X01166Y0082
X00875Y00798
X00549Y00757
X00435Y00677
X0033Y00678
X00063Y00759
X0006Y00484
Y00286
X00291
X0041Y00311
X00335Y00868
X00336Y01033
X00334Y01167
X00388Y01342
X00387Y01395
X00386Y01461
X00475Y01411
Y0154
X00785Y01518
X00926Y01525
X01012Y01411
X01054Y01389
X01032Y01269
X00836Y01286
X00841Y01157
X00869Y0089
X00984Y00921
X01408Y00832
X01358Y01182
X01349Y01398
X01395Y01559
X01199Y01726
X01217Y0191
X00813Y01896
X00564Y01901
X00124Y01636
X00071Y0148
X00063Y01236
X0006Y00969
X00504Y00874
X01943Y00977
X01943Y01087
X02052Y01071
X02042Y01135
X01998Y01165
X02032Y01366
X02156Y01364
X02238Y01479
X0231Y01636
X02489Y01626
X02496Y01535
X02636Y0153
X02634Y01633
X02729Y014
X02679Y01168
X02633Y01101
X02683Y01052
X02721Y01089
X02808Y01137
X02811Y0102
X02757Y00945
X02944Y00974
X02973Y01022
X02941Y0147
X02679Y01922
X02444Y01921
X02185Y0192
X02201Y0174
X01972Y01746
X01734
X01746Y01918
X01435Y01908
X01429Y0174
X0183Y01625
X01906Y01559
X02003Y01496
X018992Y013558
X02343Y01346
X0229Y01183
X02287Y01041
X02364Y01026
X02438Y01137
X02303Y00897
X0215638Y0096062
X02105Y00872
X03114Y00941
X03129
Y00957
X03113
X03214Y00884
X03206Y01047
X03241Y01242
X03141Y01251
X03132Y01403
X03254Y01448
X03343Y01408
X03347Y01313
Y01232
X03352Y0114
X03465Y01145
X03466Y01058
X03478Y00922
X03459Y01233
X03462Y01397
X03459Y01553
X03343Y01556
X03214Y01561
X03022Y01566
X03037Y01327
T02
X0246394Y0082794
X0250331
X0254331
X0258206
Y00867
X0254331
Y0090668
X0258206
Y0094605
X0254331
X0250331
X0246394
Y0090668
Y0086731
X0250331Y00867
Y0090668
T03
X00411Y01731
X00712Y0174
T04
X01544Y00701
T05
X02453Y00207
X02553
X02793
X02893
X005Y0016
X004
X00183Y00437
Y00537
Y00777
Y00877
Y00977
Y01077
X0018Y013
Y014
Y015
T06
X0246Y0038
X0256
X0266
X02803Y01757
Y01857
X02903
Y01757
X03003
Y01857
X03103
Y01757
X03203
Y01857
T07
X015407Y003638
X016195Y006
X010605Y003638
X007Y003
Y007
X010605Y008362
Y010838
Y015562
X015407
X016195Y0132
X015407Y010838
Y008362
T08
X03403Y00147
X00183
X00191Y01767
X03403
M30
