M48
;Layer_Color=9474304
;FILE_FORMAT=2:5
INCH,LZ
;TYPE=PLATED
T1F00S00C0.01200
T2F00S00C0.01400
T3F00S00C0.02000
T4F00S00C0.02500
T5F00S00C0.03000
T6F00S00C0.03543
T7F00S00C0.04000
T8F00S00C0.12000
%
T01
X03151Y00078
X03103Y00365
X03041Y00445
X03013Y00293
X03021Y00677
X0316Y0075
X0323
X03304Y00745
X03384Y0075
X03454Y00751
X03504Y0075
X03505Y00805
X03438Y00818
X03421Y00631
X03424Y00537
Y0041
X0293Y00426
X02833Y00437
X02755Y00629
X02754Y00679
X02673Y00671
X02678Y00742
X0280929Y0076571
X02896Y00802
X024Y00649
X02396Y00587
X02335Y00568
X02334Y00642
X02303Y00727
X02248Y00767
X02098Y00769
X02101Y00725
X02088Y0065
X0205Y00651
X01943Y00647
X01883Y00692
Y00817
X0205896Y0079796
X02198Y00542
X02288Y00527
X02243Y00384
X0223Y00326
X02187Y00259
X02018Y00254
X01996Y00325
X0196Y00446
X01783Y00351
X01821Y00261
X01699Y00177
X0173Y00041
X01481Y00187
X01645Y00471
X01428Y00671
X02396Y00138
X02452Y0007
X02605Y00074
X02781Y00071
X02945Y00076
X0137Y00039
X01187Y00174
X01026Y00182
X00873Y00192
X00706Y00161
X00644Y00264
X00646Y00367
X0076Y00351
X00818Y0067
X01055Y00668
X0114Y0067
X01208Y00713
X01166Y0082
X01148Y00327
X01388Y00342
X01412Y00552
X00543Y00668
X00562Y00785
X00346Y00687
X00302Y00722
X00291Y00651
X00063Y00759
X0006Y00484
Y00286
X00261Y00266
X00451Y0015
X00626Y00036
X00935Y00037
X00984Y00921
X00838Y01112
Y01261
X00833Y01444
X00798Y01691
X01063Y01714
X01032Y01819
X0126
X01186Y01657
X01395Y01559
X01349Y01398
X01358Y01182
X01408Y00832
X01032Y01269
X00654Y01054
X00336Y01033
X00341Y01121
X0033Y00834
X0006Y00969
X00063Y01236
Y01451
X00059Y0166
X00315Y01687
X0047576Y0151024
Y0137624
X01459Y01815
X01625
X01513Y0196
X01918Y01951
X02068Y01946
X02445Y01939
X0269Y01931
X02668Y01652
X02781Y01647
X0255Y0164
X02502Y01571
X02444Y01624
X02566Y01742
X02539Y01468
X0249Y01367
X02489Y01279
X02438Y01137
X0229Y01183
X02278Y01063
X02303Y00897
X02211Y00929
X02151Y00977
X02057Y00923
X02052Y01071
X01943Y01087
X01943Y00977
X018992Y013558
X02032Y01366
X02003Y01496
X02109Y01492
X022Y01494
X01906Y01559
X0183Y01625
X02729Y014
X02988Y01399
X0298Y01524
X02988Y01258
X02808Y01137
X02811Y0102
X02892Y00977
X02757Y00945
X02721Y01089
X02683Y01052
X02633Y01101
X02679Y01168
X03243Y0114
X03304Y01125
X03306Y01213
X0324Y01223
X03238Y01315
Y01401
Y01493
Y01576
X03235Y01664
X03245Y01064
X03165Y01033
X03506Y0093
X03505Y00865
T02
X0246394Y0082794
X0250331
X0254331
X0258206
Y00867
X0254331
Y0090668
X0258206
Y0094605
X0254331
X0250331
X0246394
Y0090668
Y0086731
X0250331Y00867
Y0090668
T03
X00353Y01209
T04
X01544Y00701
T05
X02453Y00207
X02553
X02793
X02893
X0072Y0068
X0062
X00183Y00777
Y00537
Y00437
Y00877
Y00977
Y01077
X0018Y013
Y014
Y015
X00583Y01827
X00683
X00783
T06
X0246Y0038
X0256
X0266
X02803Y01757
Y01857
X02903
Y01757
X03003
Y01857
X03103
Y01757
X03203
Y01857
T07
X015407Y003638
X016195Y006
X010605Y003638
X0086Y0034
Y0074
X010605Y008362
Y010838
Y015562
X015407
X016195Y0132
X015407Y010838
Y008362
T08
X03403Y00147
X00183
X00191Y01767
X03403
M30
