%FSLAX25Y25*%
%MOIN*%
G70*
G01*
G75*
G04 Layer_Color=8421504*
%ADD10R,0.04724X0.05512*%
%ADD11R,0.05500X0.07700*%
%ADD12R,0.04200X0.08800*%
%ADD13R,0.04000X0.04000*%
%ADD14R,0.07200X0.16000*%
%ADD15R,0.07200X0.08000*%
%ADD16R,0.08000X0.02500*%
%ADD17R,0.02500X0.04000*%
%ADD18R,0.01400X0.04000*%
%ADD19R,0.08800X0.04200*%
%ADD20R,0.04000X0.04000*%
%ADD21R,0.07000X0.06000*%
%ADD22R,0.05512X0.04724*%
%ADD23R,0.05906X0.04724*%
%ADD24R,0.02953X0.02362*%
%ADD25R,0.04000X0.03500*%
%ADD26R,0.03937X0.07087*%
%ADD27R,0.04724X0.03150*%
%ADD28R,0.02362X0.02953*%
%ADD29R,0.02362X0.07874*%
%ADD30R,0.03150X0.04724*%
%ADD31R,0.05906X0.01969*%
%ADD32R,0.05906X0.02362*%
%ADD33R,0.05906X0.02480*%
%ADD34R,0.06000X0.07000*%
%ADD35R,0.07700X0.05500*%
%ADD36O,0.01180X0.05906*%
%ADD37O,0.05906X0.01180*%
%ADD38R,0.17716X0.17716*%
%ADD39C,0.02000*%
%ADD40C,0.01000*%
%ADD41C,0.04000*%
%ADD42C,0.08000*%
%ADD43C,0.10000*%
%ADD44C,0.08000*%
%ADD45R,0.08000X0.08000*%
%ADD46R,0.08000X0.06000*%
%ADD47O,0.08000X0.06000*%
%ADD48C,0.06000*%
%ADD49R,0.06000X0.06000*%
%ADD50R,0.05906X0.05906*%
%ADD51C,0.05906*%
%ADD52R,0.06000X0.08000*%
%ADD53O,0.06000X0.08000*%
%ADD54C,0.20000*%
%ADD55C,0.04000*%
%ADD56R,0.03000X0.03000*%
%ADD57C,0.02500*%
%ADD58C,0.05000*%
%ADD59R,0.17700X0.17700*%
%ADD60C,0.00600*%
%ADD61C,0.00984*%
%ADD62C,0.00787*%
%ADD63C,0.00800*%
%ADD64C,0.00400*%
D10*
X62457Y86000D02*
D03*
X69543D02*
D03*
X222457Y173600D02*
D03*
X229543D02*
D03*
X321543Y92000D02*
D03*
X314457D02*
D03*
X47543Y78000D02*
D03*
X40457D02*
D03*
X180757Y98200D02*
D03*
X187843D02*
D03*
X212757Y48700D02*
D03*
X219843D02*
D03*
X180757Y108700D02*
D03*
X187843D02*
D03*
X219843Y118700D02*
D03*
X212757D02*
D03*
X212757Y60700D02*
D03*
X219843D02*
D03*
X187843Y86700D02*
D03*
X180757D02*
D03*
X212757Y130700D02*
D03*
X219843D02*
D03*
D11*
X65400Y100000D02*
D03*
X46600D02*
D03*
X219400Y158000D02*
D03*
X200600D02*
D03*
X46600Y116000D02*
D03*
X65400D02*
D03*
D12*
X336000Y114000D02*
D03*
X348000D02*
D03*
D13*
X342000Y108000D02*
D03*
D14*
Y154000D02*
D03*
D15*
Y126000D02*
D03*
D16*
X204000Y189000D02*
D03*
D17*
X210000Y175000D02*
D03*
X204000D02*
D03*
X198000D02*
D03*
D18*
X286600Y85100D02*
D03*
X284000D02*
D03*
X281400D02*
D03*
Y92300D02*
D03*
X284000D02*
D03*
X286600D02*
D03*
D19*
X302000Y98000D02*
D03*
Y86000D02*
D03*
D20*
X296000Y92000D02*
D03*
D21*
X184000Y186300D02*
D03*
Y173700D02*
D03*
X242000Y186300D02*
D03*
Y173700D02*
D03*
D22*
X40000Y42457D02*
D03*
Y49543D02*
D03*
X50000Y42457D02*
D03*
Y49543D02*
D03*
D23*
X283576Y58047D02*
D03*
X293024D02*
D03*
Y51354D02*
D03*
X283576D02*
D03*
D24*
X261938Y168700D02*
D03*
X266662D02*
D03*
X220662Y76700D02*
D03*
X215938D02*
D03*
X288362Y70000D02*
D03*
X283638D02*
D03*
Y76000D02*
D03*
X288362D02*
D03*
X283638Y102000D02*
D03*
X288362D02*
D03*
Y108000D02*
D03*
X283638D02*
D03*
X261938Y152700D02*
D03*
X266662D02*
D03*
D25*
X267292Y160700D02*
D03*
X261308D02*
D03*
Y176700D02*
D03*
X267292D02*
D03*
D26*
X267379Y130700D02*
D03*
X277221D02*
D03*
D27*
X193772Y56700D02*
D03*
X202828Y52960D02*
D03*
Y60440D02*
D03*
X193772Y128700D02*
D03*
X202828Y124960D02*
D03*
Y132440D02*
D03*
X37472Y66000D02*
D03*
X46528Y62260D02*
D03*
Y69740D02*
D03*
D28*
X240300Y114338D02*
D03*
Y119062D02*
D03*
X272300Y114338D02*
D03*
Y119062D02*
D03*
X276300Y52338D02*
D03*
Y57062D02*
D03*
X300300D02*
D03*
Y52338D02*
D03*
X284300Y133062D02*
D03*
Y128338D02*
D03*
X260300Y133062D02*
D03*
Y128338D02*
D03*
X234300Y114338D02*
D03*
Y119062D02*
D03*
X262300Y52338D02*
D03*
Y57062D02*
D03*
X256300Y52338D02*
D03*
Y57062D02*
D03*
X66300Y142338D02*
D03*
Y147062D02*
D03*
X186300Y31062D02*
D03*
Y26338D02*
D03*
X178300Y31062D02*
D03*
Y26338D02*
D03*
D29*
X229583Y38739D02*
D03*
Y18661D02*
D03*
X214938D02*
D03*
X215017Y38739D02*
D03*
X193017Y18661D02*
D03*
Y38739D02*
D03*
X207662D02*
D03*
X207583Y18661D02*
D03*
X307017Y16661D02*
D03*
Y36739D02*
D03*
X321662D02*
D03*
X321583Y16661D02*
D03*
D30*
X236000Y140528D02*
D03*
X232260Y131472D02*
D03*
X239740D02*
D03*
D31*
X57024Y148243D02*
D03*
Y141157D02*
D03*
D32*
X47576Y148243D02*
D03*
Y144700D02*
D03*
D33*
Y141157D02*
D03*
D34*
X46000Y160700D02*
D03*
X58600D02*
D03*
X47700Y130000D02*
D03*
X60300D02*
D03*
D35*
X182300Y121300D02*
D03*
Y140100D02*
D03*
Y45300D02*
D03*
Y64100D02*
D03*
D36*
X243371Y101695D02*
D03*
X245339D02*
D03*
X247307D02*
D03*
X249276D02*
D03*
X251244D02*
D03*
X253213D02*
D03*
X255182D02*
D03*
X257150D02*
D03*
X259119D02*
D03*
X261087D02*
D03*
Y75705D02*
D03*
X259119D02*
D03*
X257150D02*
D03*
X255182D02*
D03*
X253213D02*
D03*
X251244D02*
D03*
X249276D02*
D03*
X247307D02*
D03*
X245339D02*
D03*
X243371D02*
D03*
D37*
X265295Y97558D02*
D03*
Y95590D02*
D03*
Y93621D02*
D03*
Y91653D02*
D03*
Y89684D02*
D03*
Y87716D02*
D03*
Y85747D02*
D03*
Y83779D02*
D03*
Y81810D02*
D03*
Y79842D02*
D03*
X239305D02*
D03*
Y81810D02*
D03*
Y83779D02*
D03*
Y85747D02*
D03*
Y87716D02*
D03*
Y89684D02*
D03*
Y91653D02*
D03*
Y93621D02*
D03*
Y95590D02*
D03*
Y97558D02*
D03*
D38*
X252395Y88605D02*
D03*
M02*
