%FSLAX25Y25*%
%MOIN*%
G70*
G01*
G75*
%ADD10C,0.01000*%
%ADD11C,0.00667*%
D10*
X1000Y100D02*
Y198900D01*
X353900D01*
Y200D02*
Y198900D01*
Y200D02*
X354000Y100D01*
X1000D02*
X354000D01*
D11*
X84000Y74000D02*
X88000D01*
X86000Y72000D02*
Y76000D01*
X84000Y34000D02*
X88000D01*
X86000Y32000D02*
Y36000D01*
X152070Y36380D02*
X156070D01*
X154070Y34380D02*
Y38380D01*
X152070Y83620D02*
X156070D01*
X154070Y81620D02*
Y85620D01*
X104050Y36380D02*
X108050D01*
X106050Y34380D02*
Y38380D01*
X104050Y83620D02*
X108050D01*
X106050Y81620D02*
Y85620D01*
X159950Y60000D02*
X163950D01*
X161950Y58000D02*
Y62000D01*
X16500Y130000D02*
X19500D01*
X18000Y128500D02*
Y131500D01*
X16500Y140000D02*
X19500D01*
X18000Y138500D02*
Y141500D01*
X16500Y150000D02*
X19500D01*
X18000Y148500D02*
Y151500D01*
X60500Y68000D02*
X63500D01*
X62000Y66500D02*
Y69500D01*
X70500Y68000D02*
X73500D01*
X72000Y66500D02*
Y69500D01*
X152070Y108380D02*
X156070D01*
X154070Y106380D02*
Y110380D01*
X152070Y155620D02*
X156070D01*
X154070Y153620D02*
Y157620D01*
X104050Y108380D02*
X108050D01*
X106050Y106380D02*
Y110380D01*
X104050Y155620D02*
X108050D01*
X106050Y153620D02*
Y157620D01*
X159950Y132000D02*
X163950D01*
X161950Y130000D02*
Y134000D01*
X264228Y38000D02*
X267772D01*
X266000Y36228D02*
Y39772D01*
X254228Y38000D02*
X257772D01*
X256000Y36228D02*
Y39772D01*
X244228Y38000D02*
X247772D01*
X246000Y36228D02*
Y39772D01*
X56800Y182700D02*
X59800D01*
X58300Y181200D02*
Y184200D01*
X66800Y182700D02*
X69800D01*
X68300Y181200D02*
Y184200D01*
X76800Y182700D02*
X79800D01*
X78300Y181200D02*
Y184200D01*
X287800Y20700D02*
X290800D01*
X289300Y19200D02*
Y22200D01*
X277800Y20700D02*
X280800D01*
X279300Y19200D02*
Y22200D01*
X253800Y20700D02*
X256800D01*
X255300Y19200D02*
Y22200D01*
X243800Y20700D02*
X246800D01*
X245300Y19200D02*
Y22200D01*
X334300Y176700D02*
X346300D01*
X340300Y170700D02*
Y182700D01*
X16800Y107700D02*
X19800D01*
X18300Y106200D02*
Y109200D01*
X16800Y97700D02*
X19800D01*
X18300Y96200D02*
Y99200D01*
X16800Y87700D02*
X19800D01*
X18300Y86200D02*
Y89200D01*
X16800Y77700D02*
X19800D01*
X18300Y76200D02*
Y79200D01*
X12300Y14700D02*
X24300D01*
X18300Y8700D02*
Y20700D01*
X16800Y53700D02*
X19800D01*
X18300Y52200D02*
Y55200D01*
X16800Y43700D02*
X19800D01*
X18300Y42200D02*
Y45200D01*
X13100Y176700D02*
X25100D01*
X19100Y170700D02*
Y182700D01*
X334300Y14700D02*
X346300D01*
X340300Y8700D02*
Y20700D01*
X278528Y175700D02*
X282072D01*
X280300Y173928D02*
Y177472D01*
X278528Y185700D02*
X282072D01*
X280300Y183928D02*
Y187472D01*
X288528Y175700D02*
X292072D01*
X290300Y173928D02*
Y177472D01*
X288528Y185700D02*
X292072D01*
X290300Y183928D02*
Y187472D01*
X298528Y175700D02*
X302072D01*
X300300Y173928D02*
Y177472D01*
X298528Y185700D02*
X302072D01*
X300300Y183928D02*
Y187472D01*
X308528Y175700D02*
X312072D01*
X310300Y173928D02*
Y177472D01*
X308528Y185700D02*
X312072D01*
X310300Y183928D02*
Y187472D01*
X318528Y175700D02*
X322072D01*
X320300Y173928D02*
Y177472D01*
X318528Y185700D02*
X322072D01*
X320300Y183928D02*
Y187472D01*
X253631Y94605D02*
X255031D01*
X254331Y93906D02*
Y95306D01*
X249632Y94605D02*
X251031D01*
X250331Y93906D02*
Y95306D01*
X257505Y82794D02*
X258906D01*
X258206Y82095D02*
Y83495D01*
X253631Y82794D02*
X255031D01*
X254331Y82095D02*
Y83495D01*
X245694Y82794D02*
X247094D01*
X246394Y82095D02*
Y83495D01*
X257505Y86700D02*
X258906D01*
X258206Y86000D02*
Y87400D01*
X253631Y86700D02*
X255031D01*
X254331Y86000D02*
Y87400D01*
X245694Y86731D02*
X247094D01*
X246394Y86032D02*
Y87432D01*
X245694Y94605D02*
X247094D01*
X246394Y93906D02*
Y95306D01*
X257505Y94605D02*
X258906D01*
X258206Y93906D02*
Y95306D01*
X249632Y86700D02*
X251031D01*
X250331Y86000D02*
Y87400D01*
X249632Y82794D02*
X251031D01*
X250331Y82095D02*
Y83495D01*
X249632Y90668D02*
X251031D01*
X250331Y89969D02*
Y91369D01*
X245694Y90668D02*
X247094D01*
X246394Y89969D02*
Y91369D01*
X253631Y90668D02*
X255031D01*
X254331Y89969D02*
Y91369D01*
X257505Y90668D02*
X258906D01*
X258206Y89969D02*
Y91369D01*
X5400Y28600D02*
X6600D01*
X6000Y28000D02*
Y29200D01*
X5400Y48400D02*
X6600D01*
X6000Y47800D02*
Y49000D01*
X5700Y75900D02*
X6900D01*
X6300Y75300D02*
Y76500D01*
X5400Y96900D02*
X6600D01*
X6000Y96300D02*
Y97500D01*
X5700Y123600D02*
X6900D01*
X6300Y123000D02*
Y124200D01*
X5700Y145100D02*
X6900D01*
X6300Y144500D02*
Y145700D01*
X53700Y66800D02*
X54900D01*
X54300Y66200D02*
Y67400D01*
X266700Y67100D02*
X267900D01*
X267300Y66500D02*
Y67700D01*
X75400Y35100D02*
X76600D01*
X76000Y34500D02*
Y35700D01*
X63800Y26400D02*
X65000D01*
X64400Y25800D02*
Y27000D01*
X64800Y105400D02*
X66000D01*
X65400Y104800D02*
Y106000D01*
X5300Y166000D02*
X6500D01*
X5900Y165400D02*
Y166600D01*
X140600Y55200D02*
X141800D01*
X141200Y54600D02*
Y55800D01*
X64000Y36700D02*
X65200D01*
X64600Y36100D02*
Y37300D01*
X113400Y67000D02*
X114600D01*
X114000Y66400D02*
Y67600D01*
X81200Y67000D02*
X82400D01*
X81800Y66400D02*
Y67600D01*
X153150Y70100D02*
X155650D01*
X154400Y68850D02*
Y71350D01*
X163900Y47100D02*
X165100D01*
X164500Y46500D02*
Y47700D01*
X102600Y126900D02*
X103800D01*
X103200Y126300D02*
Y127500D01*
X104900Y66800D02*
X106100D01*
X105500Y66200D02*
Y67400D01*
X114200Y32700D02*
X115400D01*
X114800Y32100D02*
Y33300D01*
X105700Y171400D02*
X106900D01*
X106300Y170800D02*
Y172000D01*
X120200Y71300D02*
X121400D01*
X120800Y70700D02*
Y71900D01*
X118000Y165700D02*
X119200D01*
X118600Y165100D02*
Y166300D01*
X70000Y16100D02*
X71200D01*
X70600Y15500D02*
Y16700D01*
X239000Y13800D02*
X240200D01*
X239600Y13200D02*
Y14400D01*
X34000Y68700D02*
X35200D01*
X34600Y68100D02*
Y69300D01*
X34300Y120900D02*
X36300D01*
X35300Y119900D02*
Y121900D01*
X46976Y137624D02*
X48176D01*
X47576Y137024D02*
Y138224D01*
X46976Y151024D02*
X48176D01*
X47576Y150424D02*
Y151624D01*
X314500Y7800D02*
X315700D01*
X315100Y7200D02*
Y8400D01*
X293900Y7600D02*
X295100D01*
X294500Y7000D02*
Y8200D01*
X277500Y7100D02*
X278700D01*
X278100Y6500D02*
Y7700D01*
X259900Y7400D02*
X261100D01*
X260500Y6800D02*
Y8000D01*
X341800Y41000D02*
X343000D01*
X342400Y40400D02*
Y41600D01*
X341800Y53700D02*
X343000D01*
X342400Y53100D02*
Y54300D01*
X341500Y63100D02*
X342700D01*
X342100Y62500D02*
Y63700D01*
X349800Y75000D02*
X351000D01*
X350400Y74400D02*
Y75600D01*
X344800Y75100D02*
X346000D01*
X345400Y74500D02*
Y75700D01*
X349900Y80500D02*
X351100D01*
X350500Y79900D02*
Y81100D01*
X350000Y93000D02*
X351200D01*
X350600Y92400D02*
Y93600D01*
X349900Y86500D02*
X351100D01*
X350500Y85900D02*
Y87100D01*
X343200Y81800D02*
X344400D01*
X343800Y81200D02*
Y82400D01*
X337800Y75000D02*
X339000D01*
X338400Y74400D02*
Y75600D01*
X329800Y74500D02*
X331000D01*
X330400Y73900D02*
Y75100D01*
X322400Y75000D02*
X323600D01*
X323000Y74400D02*
Y75600D01*
X315400Y75000D02*
X316600D01*
X316000Y74400D02*
Y75600D01*
X315900Y103300D02*
X317100D01*
X316500Y102700D02*
Y103900D01*
X323900Y106400D02*
X325100D01*
X324500Y105800D02*
Y107000D01*
X329800Y112500D02*
X331000D01*
X330400Y111900D02*
Y113100D01*
X330000Y121300D02*
X331200D01*
X330600Y120700D02*
Y121900D01*
X323700Y114000D02*
X324900D01*
X324300Y113400D02*
Y114600D01*
X323400Y122300D02*
X324600D01*
X324000Y121700D02*
Y122900D01*
X323200Y131500D02*
X324400D01*
X323800Y130900D02*
Y132100D01*
X323200Y140100D02*
X324400D01*
X323800Y139500D02*
Y140700D01*
X323200Y149300D02*
X324400D01*
X323800Y148700D02*
Y149900D01*
X323200Y157600D02*
X324400D01*
X323800Y157000D02*
Y158200D01*
X322900Y166400D02*
X324100D01*
X323500Y165800D02*
Y167000D01*
X147500Y18700D02*
X148700D01*
X148100Y18100D02*
Y19300D01*
X142200Y67100D02*
X143400D01*
X142800Y66500D02*
Y67700D01*
X30900Y168700D02*
X32100D01*
X31500Y168100D02*
Y169300D01*
X138900Y155900D02*
X140100D01*
X139500Y155300D02*
Y156500D01*
X79200Y169100D02*
X80400D01*
X79800Y168500D02*
Y169700D01*
X82700Y144400D02*
X83900D01*
X83300Y143800D02*
Y145000D01*
X83200Y111200D02*
X84400D01*
X83800Y110600D02*
Y111800D01*
X33500Y112100D02*
X34700D01*
X34100Y111500D02*
Y112700D01*
X28500Y65100D02*
X29700D01*
X29100Y64500D02*
Y65700D01*
X55600Y78500D02*
X56800D01*
X56200Y77900D02*
Y79100D01*
X44500Y15000D02*
X45700D01*
X45100Y14400D02*
Y15600D01*
X303500Y44500D02*
X304700D01*
X304100Y43900D02*
Y45100D01*
X274800Y67900D02*
X276000D01*
X275400Y67300D02*
Y68500D01*
X282700Y43700D02*
X283900D01*
X283300Y43100D02*
Y44300D01*
X274900Y62900D02*
X276100D01*
X275500Y62300D02*
Y63500D01*
X289000Y80200D02*
X290200D01*
X289600Y79600D02*
Y80800D01*
X288600Y97700D02*
X289800D01*
X289200Y97100D02*
Y98300D01*
X275100Y94500D02*
X276300D01*
X275700Y93900D02*
Y95100D01*
X267300Y116800D02*
X268500D01*
X267900Y116200D02*
Y117400D01*
X262700Y110100D02*
X263900D01*
X263300Y109500D02*
Y110700D01*
X271500Y108900D02*
X272700D01*
X272100Y108300D02*
Y109500D01*
X267700Y105200D02*
X268900D01*
X268300Y104600D02*
Y105800D01*
X150700Y196000D02*
X151900D01*
X151300Y195400D02*
Y196600D01*
X191200Y195100D02*
X192400D01*
X191800Y194500D02*
Y195700D01*
X206200Y194600D02*
X207400D01*
X206800Y194000D02*
Y195200D01*
X268400Y193100D02*
X269600D01*
X269000Y192500D02*
Y193700D01*
X97800Y92100D02*
X99000D01*
X98400Y91500D02*
Y92700D01*
X243900Y193900D02*
X245100D01*
X244500Y193300D02*
Y194500D01*
X116000Y82000D02*
X117200D01*
X116600Y81400D02*
Y82600D01*
X161900Y181500D02*
X163100D01*
X162500Y180900D02*
Y182100D01*
X182400Y162500D02*
X183600D01*
X183000Y161900D02*
Y163100D01*
X190000Y155900D02*
X191200D01*
X190600Y155300D02*
Y156500D01*
X219400Y149400D02*
X220600D01*
X220000Y148800D02*
Y150000D01*
X210300Y149200D02*
X211500D01*
X210900Y148600D02*
Y149800D01*
X199700Y149600D02*
X200900D01*
X200300Y149000D02*
Y150200D01*
X254400Y164000D02*
X255600D01*
X255000Y163400D02*
Y164600D01*
X249600Y157100D02*
X250800D01*
X250200Y156500D02*
Y157700D01*
X253300Y146800D02*
X254500D01*
X253900Y146200D02*
Y147400D01*
X248400Y136700D02*
X249600D01*
X249000Y136100D02*
Y137300D01*
X248300Y127900D02*
X249500D01*
X248900Y127300D02*
Y128500D01*
X220500Y92900D02*
X221700D01*
X221100Y92300D02*
Y93500D01*
X205100Y92300D02*
X206300D01*
X205700Y91700D02*
Y92900D01*
X232900Y56800D02*
X234100D01*
X233500Y56200D02*
Y57400D01*
X232800Y64200D02*
X234000D01*
X233400Y63600D02*
Y64800D01*
X239000Y58700D02*
X240200D01*
X239600Y58100D02*
Y59300D01*
X239400Y64900D02*
X240600D01*
X240000Y64300D02*
Y65500D01*
X172400Y4100D02*
X173600D01*
X173000Y3500D02*
Y4700D01*
X118100Y17400D02*
X119300D01*
X118700Y16800D02*
Y18000D01*
X169300Y17700D02*
X170500D01*
X169900Y17100D02*
Y18300D01*
X145300Y181500D02*
X146500D01*
X145900Y180900D02*
Y182100D01*
X125400Y181900D02*
X126600D01*
X126000Y181300D02*
Y182500D01*
X102600Y181900D02*
X103800D01*
X103200Y181300D02*
Y182500D01*
X134300Y139800D02*
X135500D01*
X134900Y139200D02*
Y140400D01*
X227200Y106300D02*
X228400D01*
X227800Y105700D02*
Y106900D01*
X301500Y67700D02*
X302700D01*
X302100Y67100D02*
Y68300D01*
X298200Y125800D02*
X299400D01*
X298800Y125200D02*
Y126400D01*
X298200Y139900D02*
X299400D01*
X298800Y139300D02*
Y140500D01*
X297400Y152400D02*
X298600D01*
X298000Y151800D02*
Y153000D01*
X280500Y102000D02*
X281700D01*
X281100Y101400D02*
Y102600D01*
X280329Y76571D02*
X281529D01*
X280929Y75971D02*
Y77171D01*
X243800Y162400D02*
X245000D01*
X244400Y161800D02*
Y163000D01*
X208200Y65000D02*
X209400D01*
X208800Y64400D02*
Y65600D01*
X209500Y72500D02*
X210700D01*
X210100Y71900D02*
Y73100D01*
X277500Y164700D02*
X278700D01*
X278100Y164100D02*
Y165300D01*
X309700Y36500D02*
X310900D01*
X310300Y35900D02*
Y37100D01*
X266200Y165200D02*
X267400D01*
X266800Y164600D02*
Y165800D01*
X256000Y174200D02*
X257200D01*
X256600Y173600D02*
Y174800D01*
X292400Y42600D02*
X293600D01*
X293000Y42000D02*
Y43200D01*
X244600Y7000D02*
X245800D01*
X245200Y6400D02*
Y7600D01*
X218100Y25900D02*
X219300D01*
X218700Y25300D02*
Y26500D01*
X201200Y25400D02*
X202400D01*
X201800Y24800D02*
Y26000D01*
X32400Y83400D02*
X33600D01*
X33000Y82800D02*
Y84000D01*
Y103300D02*
X34200D01*
X33600Y102700D02*
Y103900D01*
X83200Y126100D02*
X84400D01*
X83800Y125500D02*
Y126700D01*
X25500Y26600D02*
X26700D01*
X26100Y26000D02*
Y27200D01*
X243200Y113700D02*
X244400D01*
X243800Y113100D02*
Y114300D01*
X224200Y76700D02*
X225400D01*
X224800Y76100D02*
Y77300D01*
X187700Y81700D02*
X188900D01*
X188300Y81100D02*
Y82300D01*
X187700Y69200D02*
X188900D01*
X188300Y68600D02*
Y69800D01*
X193700Y64700D02*
X194900D01*
X194300Y64100D02*
Y65300D01*
X193700Y108700D02*
X194900D01*
X194300Y108100D02*
Y109300D01*
X193700Y97700D02*
X194900D01*
X194300Y97100D02*
Y98300D01*
X205296Y79796D02*
X206496D01*
X205896Y79196D02*
Y80396D01*
X280200Y113700D02*
X281400D01*
X280800Y113100D02*
Y114300D01*
X267200Y74200D02*
X268400D01*
X267800Y73600D02*
Y74800D01*
X229700Y89700D02*
X230900D01*
X230300Y89100D02*
Y90300D01*
X219200Y54200D02*
X220400D01*
X219800Y53600D02*
Y54800D01*
X229700Y72700D02*
X230900D01*
X230300Y72100D02*
Y73300D01*
X228200Y52700D02*
X229400D01*
X228800Y52100D02*
Y53300D01*
X209200Y76900D02*
X210400D01*
X209800Y76300D02*
Y77500D01*
X199000Y32500D02*
X200200D01*
X199600Y31900D02*
Y33100D01*
X222400Y32600D02*
X223600D01*
X223000Y32000D02*
Y33200D01*
X300700Y29300D02*
X301900D01*
X301300Y28700D02*
Y29900D01*
X272300Y140000D02*
X273500D01*
X272900Y139400D02*
Y140600D01*
X29600Y72200D02*
X30800D01*
X30200Y71600D02*
Y72800D01*
X62000Y3600D02*
X63200D01*
X62600Y3000D02*
Y4200D01*
X204400Y65100D02*
X205600D01*
X205000Y64500D02*
Y65700D01*
X228400Y118300D02*
X229600D01*
X229000Y117700D02*
Y118900D01*
X135200Y118200D02*
X136400D01*
X135800Y117600D02*
Y118800D01*
X140200Y83200D02*
X141400D01*
X140800Y82600D02*
Y83800D01*
X102000Y18200D02*
X103200D01*
X102600Y17600D02*
Y18800D01*
X138200Y34200D02*
X139400D01*
X138800Y33600D02*
Y34800D01*
X92900Y3700D02*
X94100D01*
X93500Y3100D02*
Y4300D01*
X204600Y107100D02*
X205800D01*
X205200Y106500D02*
Y107700D01*
X214500Y97700D02*
X215700D01*
X215100Y97100D02*
Y98300D01*
X136400Y3900D02*
X137600D01*
X137000Y3300D02*
Y4500D01*
X202600Y136600D02*
X203800D01*
X203200Y136000D02*
Y137200D01*
X195400Y44600D02*
X196600D01*
X196000Y44000D02*
Y45200D01*
X177700Y35100D02*
X178900D01*
X178300Y34500D02*
Y35700D01*
X223700Y38400D02*
X224900D01*
X224300Y37800D02*
Y39000D01*
X181500Y26100D02*
X182700D01*
X182100Y25500D02*
Y26700D01*
X189320Y135580D02*
X190520D01*
X189920Y134980D02*
Y136180D01*
X86700Y19200D02*
X87900D01*
X87300Y18600D02*
Y19800D01*
M02*
