%FSLAX25Y25*%
%MOIN*%
G70*
G01*
G75*
G04 Layer_Color=2752767*
%ADD10C,0.01000*%
%ADD11C,0.00667*%
D10*
X1000Y100D02*
Y198900D01*
X353900D01*
Y200D02*
Y198900D01*
Y200D02*
X354000Y100D01*
X1000D02*
X354000D01*
X68000Y68000D02*
Y72000D01*
X72000D01*
Y68000D01*
X68000D01*
Y28000D02*
Y32000D01*
X72000D01*
Y28000D01*
X68000D01*
X152070Y34380D02*
Y38380D01*
X156070D01*
Y34380D01*
X152070D01*
Y81620D02*
Y85620D01*
X156070D01*
Y81620D01*
X152070D01*
X104050Y34380D02*
Y38380D01*
X108050D01*
Y34380D01*
X104050D01*
Y81620D02*
Y85620D01*
X108050D01*
Y81620D01*
X104050D01*
X159950Y58000D02*
Y62000D01*
X163950D01*
Y58000D01*
X159950D01*
D11*
X20000Y130000D02*
G03*
X20000Y130000I-2000J0D01*
G01*
Y140000D02*
G03*
X20000Y140000I-2000J0D01*
G01*
Y150000D02*
G03*
X20000Y150000I-2000J0D01*
G01*
X42000Y16000D02*
G03*
X42000Y16000I-2000J0D01*
G01*
X52000D02*
G03*
X52000Y16000I-2000J0D01*
G01*
X152070Y106380D02*
Y110380D01*
X156070D01*
Y106380D01*
X152070D01*
Y153620D02*
Y157620D01*
X156070D01*
Y153620D01*
X152070D01*
X104050Y106380D02*
Y110380D01*
X108050D01*
Y106380D01*
X104050D01*
Y153620D02*
Y157620D01*
X108050D01*
Y153620D01*
X104050D01*
X159950Y130000D02*
Y134000D01*
X163950D01*
Y130000D01*
X159950D01*
X266000Y36000D02*
X264000Y40000D01*
X268000D01*
X266000Y36000D01*
X256000D02*
X254000Y40000D01*
X258000D01*
X256000Y36000D01*
X246000D02*
X244000Y40000D01*
X248000D01*
X246000Y36000D01*
X291300Y20700D02*
G03*
X291300Y20700I-2000J0D01*
G01*
X281300D02*
G03*
X281300Y20700I-2000J0D01*
G01*
X257300D02*
G03*
X257300Y20700I-2000J0D01*
G01*
X247300D02*
G03*
X247300Y20700I-2000J0D01*
G01*
X340300Y174700D02*
X341300Y175700D01*
X342300D01*
X341300Y176700D01*
X342300Y177700D01*
X341300D01*
X340300Y178700D01*
X339300Y177700D01*
X338300D01*
X339300Y176700D01*
X338300Y175700D01*
X339300D01*
X340300Y174700D01*
X20300Y107700D02*
G03*
X20300Y107700I-2000J0D01*
G01*
Y97700D02*
G03*
X20300Y97700I-2000J0D01*
G01*
Y87700D02*
G03*
X20300Y87700I-2000J0D01*
G01*
Y77700D02*
G03*
X20300Y77700I-2000J0D01*
G01*
X18300Y12700D02*
X19300Y13700D01*
X20300D01*
X19300Y14700D01*
X20300Y15700D01*
X19300D01*
X18300Y16700D01*
X17300Y15700D01*
X16300D01*
X17300Y14700D01*
X16300Y13700D01*
X17300D01*
X18300Y12700D01*
X20300Y53700D02*
G03*
X20300Y53700I-2000J0D01*
G01*
Y43700D02*
G03*
X20300Y43700I-2000J0D01*
G01*
X19100Y174700D02*
X20100Y175700D01*
X21100D01*
X20100Y176700D01*
X21100Y177700D01*
X20100D01*
X19100Y178700D01*
X18100Y177700D01*
X17100D01*
X18100Y176700D01*
X17100Y175700D01*
X18100D01*
X19100Y174700D01*
X340300Y12700D02*
X341300Y13700D01*
X342300D01*
X341300Y14700D01*
X342300Y15700D01*
X341300D01*
X340300Y16700D01*
X339300Y15700D01*
X338300D01*
X339300Y14700D01*
X338300Y13700D01*
X339300D01*
X340300Y12700D01*
X280300Y173700D02*
X278300Y177700D01*
X282300D01*
X280300Y173700D01*
Y183700D02*
X278300Y187700D01*
X282300D01*
X280300Y183700D01*
X290300Y173700D02*
X288300Y177700D01*
X292300D01*
X290300Y173700D01*
Y183700D02*
X288300Y187700D01*
X292300D01*
X290300Y183700D01*
X300300Y173700D02*
X298300Y177700D01*
X302300D01*
X300300Y173700D01*
Y183700D02*
X298300Y187700D01*
X302300D01*
X300300Y183700D01*
X310300Y173700D02*
X308300Y177700D01*
X312300D01*
X310300Y173700D01*
Y183700D02*
X308300Y187700D01*
X312300D01*
X310300Y183700D01*
X320300Y173700D02*
X318300Y177700D01*
X322300D01*
X320300Y173700D01*
Y183700D02*
X318300Y187700D01*
X322300D01*
X320300Y183700D01*
X252331Y92606D02*
X253331Y94605D01*
X252331Y96605D01*
X254331Y95605D01*
X256331Y96605D01*
X255331Y94605D01*
X256331Y92606D01*
X254331Y93606D01*
X252331Y92606D01*
X248331D02*
X249331Y94605D01*
X248331Y96605D01*
X250331Y95605D01*
X252331Y96605D01*
X251331Y94605D01*
X252331Y92606D01*
X250331Y93606D01*
X248331Y92606D01*
X256206Y80795D02*
X257206Y82794D01*
X256206Y84794D01*
X258206Y83794D01*
X260206Y84794D01*
X259206Y82794D01*
X260206Y80795D01*
X258206Y81795D01*
X256206Y80795D01*
X252331D02*
X253331Y82794D01*
X252331Y84794D01*
X254331Y83794D01*
X256331Y84794D01*
X255331Y82794D01*
X256331Y80795D01*
X254331Y81795D01*
X252331Y80795D01*
X244394D02*
X245394Y82794D01*
X244394Y84794D01*
X246394Y83794D01*
X248394Y84794D01*
X247394Y82794D01*
X248394Y80795D01*
X246394Y81795D01*
X244394Y80795D01*
X256206Y84700D02*
X257206Y86700D01*
X256206Y88700D01*
X258206Y87700D01*
X260206Y88700D01*
X259206Y86700D01*
X260206Y84700D01*
X258206Y85700D01*
X256206Y84700D01*
X252331D02*
X253331Y86700D01*
X252331Y88700D01*
X254331Y87700D01*
X256331Y88700D01*
X255331Y86700D01*
X256331Y84700D01*
X254331Y85700D01*
X252331Y84700D01*
X244394Y84732D02*
X245394Y86731D01*
X244394Y88731D01*
X246394Y87731D01*
X248394Y88731D01*
X247394Y86731D01*
X248394Y84732D01*
X246394Y85732D01*
X244394Y84732D01*
Y92606D02*
X245394Y94605D01*
X244394Y96605D01*
X246394Y95605D01*
X248394Y96605D01*
X247394Y94605D01*
X248394Y92606D01*
X246394Y93606D01*
X244394Y92606D01*
X256206D02*
X257206Y94605D01*
X256206Y96605D01*
X258206Y95605D01*
X260206Y96605D01*
X259206Y94605D01*
X260206Y92606D01*
X258206Y93606D01*
X256206Y92606D01*
X248331Y84700D02*
X249331Y86700D01*
X248331Y88700D01*
X250331Y87700D01*
X252331Y88700D01*
X251331Y86700D01*
X252331Y84700D01*
X250331Y85700D01*
X248331Y84700D01*
Y80795D02*
X249331Y82794D01*
X248331Y84794D01*
X250331Y83794D01*
X252331Y84794D01*
X251331Y82794D01*
X252331Y80795D01*
X250331Y81795D01*
X248331Y80795D01*
Y88669D02*
X249331Y90668D01*
X248331Y92668D01*
X250331Y91668D01*
X252331Y92668D01*
X251331Y90668D01*
X252331Y88669D01*
X250331Y89669D01*
X248331Y88669D01*
X244394D02*
X245394Y90668D01*
X244394Y92668D01*
X246394Y91668D01*
X248394Y92668D01*
X247394Y90668D01*
X248394Y88669D01*
X246394Y89669D01*
X244394Y88669D01*
X252331D02*
X253331Y90668D01*
X252331Y92668D01*
X254331Y91668D01*
X256331Y92668D01*
X255331Y90668D01*
X256331Y88669D01*
X254331Y89669D01*
X252331Y88669D01*
X256206D02*
X257206Y90668D01*
X256206Y92668D01*
X258206Y91668D01*
X260206Y92668D01*
X259206Y90668D01*
X260206Y88669D01*
X258206Y89669D01*
X256206Y88669D01*
X37700Y138500D02*
Y137500D01*
X39700D01*
Y138500D01*
X40700D01*
Y140500D01*
X39700D01*
Y141500D01*
X37700D01*
Y140500D01*
X36700D01*
Y138500D01*
X37700D01*
X37800Y133200D02*
Y132200D01*
X39800D01*
Y133200D01*
X40800D01*
Y135200D01*
X39800D01*
Y136200D01*
X37800D01*
Y135200D01*
X36800D01*
Y133200D01*
X37800D01*
X345500Y113500D02*
Y112500D01*
X347500D01*
Y113500D01*
X348500D01*
Y115500D01*
X347500D01*
Y116500D01*
X345500D01*
Y115500D01*
X344500D01*
Y113500D01*
X345500D01*
X334200Y113000D02*
Y112000D01*
X336200D01*
Y113000D01*
X337200D01*
Y115000D01*
X336200D01*
Y116000D01*
X334200D01*
Y115000D01*
X333200D01*
Y113000D01*
X334200D01*
X333700Y130300D02*
Y129300D01*
X335700D01*
Y130300D01*
X336700D01*
Y132300D01*
X335700D01*
Y133300D01*
X333700D01*
Y132300D01*
X332700D01*
Y130300D01*
X333700D01*
X324400Y143800D02*
Y142800D01*
X326400D01*
Y143800D01*
X327400D01*
Y145800D01*
X326400D01*
Y146800D01*
X324400D01*
Y145800D01*
X323400D01*
Y143800D01*
X324400D01*
X300700Y63100D02*
Y62100D01*
X302700D01*
Y63100D01*
X303700D01*
Y65100D01*
X302700D01*
Y66100D01*
X300700D01*
Y65100D01*
X299700D01*
Y63100D01*
X300700D01*
X293400Y96400D02*
Y95400D01*
X295400D01*
Y96400D01*
X296400D01*
Y98400D01*
X295400D01*
Y99400D01*
X293400D01*
Y98400D01*
X292400D01*
Y96400D01*
X293400D01*
X291900Y81800D02*
Y80800D01*
X293900D01*
Y81800D01*
X294900D01*
Y83800D01*
X293900D01*
Y84800D01*
X291900D01*
Y83800D01*
X290900D01*
Y81800D01*
X291900D01*
X308700Y71300D02*
Y70300D01*
X310700D01*
Y71300D01*
X311700D01*
Y73300D01*
X310700D01*
Y74300D01*
X308700D01*
Y73300D01*
X307700D01*
Y71300D01*
X308700D01*
X331000Y75200D02*
Y74200D01*
X333000D01*
Y75200D01*
X334000D01*
Y77200D01*
X333000D01*
Y78200D01*
X331000D01*
Y77200D01*
X330000D01*
Y75200D01*
X331000D01*
X322000Y68000D02*
Y67000D01*
X324000D01*
Y68000D01*
X325000D01*
Y70000D01*
X324000D01*
Y71000D01*
X322000D01*
Y70000D01*
X321000D01*
Y68000D01*
X322000D01*
X69200Y172000D02*
X70200D01*
X71200Y173000D01*
X72200Y172000D01*
X73200D01*
Y173000D01*
X72200Y174000D01*
X73200Y175000D01*
Y176000D01*
X72200D01*
X71200Y175000D01*
X70200Y176000D01*
X69200D01*
Y175000D01*
X70200Y174000D01*
X69200Y173000D01*
Y172000D01*
X39100Y171100D02*
X40100D01*
X41100Y172100D01*
X42100Y171100D01*
X43100D01*
Y172100D01*
X42100Y173100D01*
X43100Y174100D01*
Y175100D01*
X42100D01*
X41100Y174100D01*
X40100Y175100D01*
X39100D01*
Y174100D01*
X40100Y173100D01*
X39100Y172100D01*
Y171100D01*
X5000Y27600D02*
Y26600D01*
X7000D01*
Y27600D01*
X8000D01*
Y29600D01*
X7000D01*
Y30600D01*
X5000D01*
Y29600D01*
X4000D01*
Y27600D01*
X5000D01*
Y47400D02*
Y46400D01*
X7000D01*
Y47400D01*
X8000D01*
Y49400D01*
X7000D01*
Y50400D01*
X5000D01*
Y49400D01*
X4000D01*
Y47400D01*
X5000D01*
X5300Y74900D02*
Y73900D01*
X7300D01*
Y74900D01*
X8300D01*
Y76900D01*
X7300D01*
Y77900D01*
X5300D01*
Y76900D01*
X4300D01*
Y74900D01*
X5300D01*
X5000Y95900D02*
Y94900D01*
X7000D01*
Y95900D01*
X8000D01*
Y97900D01*
X7000D01*
Y98900D01*
X5000D01*
Y97900D01*
X4000D01*
Y95900D01*
X5000D01*
X5300Y122600D02*
Y121600D01*
X7300D01*
Y122600D01*
X8300D01*
Y124600D01*
X7300D01*
Y125600D01*
X5300D01*
Y124600D01*
X4300D01*
Y122600D01*
X5300D01*
X6100Y147000D02*
Y146000D01*
X8100D01*
Y147000D01*
X9100D01*
Y149000D01*
X8100D01*
Y150000D01*
X6100D01*
Y149000D01*
X5100D01*
Y147000D01*
X6100D01*
X53900Y74700D02*
Y73700D01*
X55900D01*
Y74700D01*
X56900D01*
Y76700D01*
X55900D01*
Y77700D01*
X53900D01*
Y76700D01*
X52900D01*
Y74700D01*
X53900D01*
X266300Y66100D02*
Y65100D01*
X268300D01*
Y66100D01*
X269300D01*
Y68100D01*
X268300D01*
Y69100D01*
X266300D01*
Y68100D01*
X265300D01*
Y66100D01*
X266300D01*
X52200Y4600D02*
Y3600D01*
X54200D01*
Y4600D01*
X55200D01*
Y6600D01*
X54200D01*
Y7600D01*
X52200D01*
Y6600D01*
X51200D01*
Y4600D01*
X52200D01*
X71000Y4300D02*
Y3300D01*
X73000D01*
Y4300D01*
X74000D01*
Y6300D01*
X73000D01*
Y7300D01*
X71000D01*
Y6300D01*
X70000D01*
Y4300D01*
X71000D01*
X11400Y162600D02*
Y161600D01*
X13400D01*
Y162600D01*
X14400D01*
Y164600D01*
X13400D01*
Y165600D01*
X11400D01*
Y164600D01*
X10400D01*
Y162600D01*
X11400D01*
X140200Y54200D02*
Y53200D01*
X142200D01*
Y54200D01*
X143200D01*
Y56200D01*
X142200D01*
Y57200D01*
X140200D01*
Y56200D01*
X139200D01*
Y54200D01*
X140200D01*
X86100Y33900D02*
Y32900D01*
X88100D01*
Y33900D01*
X89100D01*
Y35900D01*
X88100D01*
Y36900D01*
X86100D01*
Y35900D01*
X85100D01*
Y33900D01*
X86100D01*
X106600Y68600D02*
Y67600D01*
X108600D01*
Y68600D01*
X109600D01*
Y70600D01*
X108600D01*
Y71600D01*
X106600D01*
Y70600D01*
X105600D01*
Y68600D01*
X106600D01*
X42500Y66700D02*
Y65700D01*
X44500D01*
Y66700D01*
X45500D01*
Y68700D01*
X44500D01*
Y69700D01*
X42500D01*
Y68700D01*
X41500D01*
Y66700D01*
X42500D01*
X152400Y70100D02*
X154400Y72100D01*
X156400Y70100D01*
X154400Y68100D01*
X152400Y70100D01*
X163500Y46100D02*
Y45100D01*
X165500D01*
Y46100D01*
X166500D01*
Y48100D01*
X165500D01*
Y49100D01*
X163500D01*
Y48100D01*
X162500D01*
Y46100D01*
X163500D01*
X102200Y125900D02*
Y124900D01*
X104200D01*
Y125900D01*
X105200D01*
Y127900D01*
X104200D01*
Y128900D01*
X102200D01*
Y127900D01*
X101200D01*
Y125900D01*
X102200D01*
X85900Y88000D02*
Y87000D01*
X87900D01*
Y88000D01*
X88900D01*
Y90000D01*
X87900D01*
Y91000D01*
X85900D01*
Y90000D01*
X84900D01*
Y88000D01*
X85900D01*
X113800Y31700D02*
Y30700D01*
X115800D01*
Y31700D01*
X116800D01*
Y33700D01*
X115800D01*
Y34700D01*
X113800D01*
Y33700D01*
X112800D01*
Y31700D01*
X113800D01*
X238600Y12800D02*
Y11800D01*
X240600D01*
Y12800D01*
X241600D01*
Y14800D01*
X240600D01*
Y15800D01*
X238600D01*
Y14800D01*
X237600D01*
Y12800D01*
X238600D01*
X46500Y153000D02*
Y152000D01*
X48500D01*
Y153000D01*
X49500D01*
Y155000D01*
X48500D01*
Y156000D01*
X46500D01*
Y155000D01*
X45500D01*
Y153000D01*
X46500D01*
X314100Y6800D02*
Y5800D01*
X316100D01*
Y6800D01*
X317100D01*
Y8800D01*
X316100D01*
Y9800D01*
X314100D01*
Y8800D01*
X313100D01*
Y6800D01*
X314100D01*
X293500Y6600D02*
Y5600D01*
X295500D01*
Y6600D01*
X296500D01*
Y8600D01*
X295500D01*
Y9600D01*
X293500D01*
Y8600D01*
X292500D01*
Y6600D01*
X293500D01*
X277100Y6100D02*
Y5100D01*
X279100D01*
Y6100D01*
X280100D01*
Y8100D01*
X279100D01*
Y9100D01*
X277100D01*
Y8100D01*
X276100D01*
Y6100D01*
X277100D01*
X259500Y6400D02*
Y5400D01*
X261500D01*
Y6400D01*
X262500D01*
Y8400D01*
X261500D01*
Y9400D01*
X259500D01*
Y8400D01*
X258500D01*
Y6400D01*
X259500D01*
X302700Y131700D02*
Y130700D01*
X304700D01*
Y131700D01*
X305700D01*
Y133700D01*
X304700D01*
Y134700D01*
X302700D01*
Y133700D01*
X301700D01*
Y131700D01*
X302700D01*
X222800Y146900D02*
Y145900D01*
X224800D01*
Y146900D01*
X225800D01*
Y148900D01*
X224800D01*
Y149900D01*
X222800D01*
Y148900D01*
X221800D01*
Y146900D01*
X222800D01*
X55400Y189100D02*
Y188100D01*
X57400D01*
Y189100D01*
X58400D01*
Y191100D01*
X57400D01*
Y192100D01*
X55400D01*
Y191100D01*
X54400D01*
Y189100D01*
X55400D01*
X346800Y91200D02*
Y90200D01*
X348800D01*
Y91200D01*
X349800D01*
Y93200D01*
X348800D01*
Y94200D01*
X346800D01*
Y93200D01*
X345800D01*
Y91200D01*
X346800D01*
X345600Y104800D02*
Y103800D01*
X347600D01*
Y104800D01*
X348600D01*
Y106800D01*
X347600D01*
Y107800D01*
X345600D01*
Y106800D01*
X344600D01*
Y104800D01*
X345600D01*
X77500Y150800D02*
Y149800D01*
X79500D01*
Y150800D01*
X80500D01*
Y152800D01*
X79500D01*
Y153800D01*
X77500D01*
Y152800D01*
X76500D01*
Y150800D01*
X77500D01*
X340500Y65600D02*
Y64600D01*
X342500D01*
Y65600D01*
X343500D01*
Y67600D01*
X342500D01*
Y68600D01*
X340500D01*
Y67600D01*
X339500D01*
Y65600D01*
X340500D01*
X300600Y79800D02*
Y78800D01*
X302600D01*
Y79800D01*
X303600D01*
Y81800D01*
X302600D01*
Y82800D01*
X300600D01*
Y81800D01*
X299600D01*
Y79800D01*
X300600D01*
X340900Y50100D02*
Y49100D01*
X342900D01*
Y50100D01*
X343900D01*
Y52100D01*
X342900D01*
Y53100D01*
X340900D01*
Y52100D01*
X339900D01*
Y50100D01*
X340900D01*
X314800Y61700D02*
Y60700D01*
X316800D01*
Y61700D01*
X317800D01*
Y63700D01*
X316800D01*
Y64700D01*
X314800D01*
Y63700D01*
X313800D01*
Y61700D01*
X314800D01*
X340700Y35200D02*
Y34200D01*
X342700D01*
Y35200D01*
X343700D01*
Y37200D01*
X342700D01*
Y38200D01*
X340700D01*
Y37200D01*
X339700D01*
Y35200D01*
X340700D01*
X300300Y72200D02*
Y71200D01*
X302300D01*
Y72200D01*
X303300D01*
Y74200D01*
X302300D01*
Y75200D01*
X300300D01*
Y74200D01*
X299300D01*
Y72200D01*
X300300D01*
X320400Y87400D02*
Y86400D01*
X322400D01*
Y87400D01*
X323400D01*
Y89400D01*
X322400D01*
Y90400D01*
X320400D01*
Y89400D01*
X319400D01*
Y87400D01*
X320400D01*
X323100Y123200D02*
Y122200D01*
X325100D01*
Y123200D01*
X326100D01*
Y125200D01*
X325100D01*
Y126200D01*
X323100D01*
Y125200D01*
X322100D01*
Y123200D01*
X323100D01*
X313100Y124100D02*
Y123100D01*
X315100D01*
Y124100D01*
X316100D01*
Y126100D01*
X315100D01*
Y127100D01*
X313100D01*
Y126100D01*
X312100D01*
Y124100D01*
X313100D01*
X331900Y65400D02*
Y64400D01*
X333900D01*
Y65400D01*
X334900D01*
Y67400D01*
X333900D01*
Y68400D01*
X331900D01*
Y67400D01*
X330900D01*
Y65400D01*
X331900D01*
X233300Y133600D02*
Y132600D01*
X235300D01*
Y133600D01*
X236300D01*
Y135600D01*
X235300D01*
Y136600D01*
X233300D01*
Y135600D01*
X232300D01*
Y133600D01*
X233300D01*
X344900Y122300D02*
Y121300D01*
X346900D01*
Y122300D01*
X347900D01*
Y124300D01*
X346900D01*
Y125300D01*
X344900D01*
Y124300D01*
X343900D01*
Y122300D01*
X344900D01*
X345200Y138700D02*
Y137700D01*
X347200D01*
Y138700D01*
X348200D01*
Y140700D01*
X347200D01*
Y141700D01*
X345200D01*
Y140700D01*
X344200D01*
Y138700D01*
X345200D01*
X320400Y155100D02*
Y154100D01*
X322400D01*
Y155100D01*
X323400D01*
Y157100D01*
X322400D01*
Y158100D01*
X320400D01*
Y157100D01*
X319400D01*
Y155100D01*
X320400D01*
X333300Y154600D02*
Y153600D01*
X335300D01*
Y154600D01*
X336300D01*
Y156600D01*
X335300D01*
Y157600D01*
X333300D01*
Y156600D01*
X332300D01*
Y154600D01*
X333300D01*
X312200Y139300D02*
Y138300D01*
X314200D01*
Y139300D01*
X315200D01*
Y141300D01*
X314200D01*
Y142300D01*
X312200D01*
Y141300D01*
X311200D01*
Y139300D01*
X312200D01*
X333300Y139800D02*
Y138800D01*
X335300D01*
Y139800D01*
X336300D01*
Y141800D01*
X335300D01*
Y142800D01*
X333300D01*
Y141800D01*
X332300D01*
Y139800D01*
X333300D01*
X340100Y75300D02*
Y74300D01*
X342100D01*
Y75300D01*
X343100D01*
Y77300D01*
X342100D01*
Y78300D01*
X340100D01*
Y77300D01*
X339100D01*
Y75300D01*
X340100D01*
X147100Y17700D02*
Y16700D01*
X149100D01*
Y17700D01*
X150100D01*
Y19700D01*
X149100D01*
Y20700D01*
X147100D01*
Y19700D01*
X146100D01*
Y17700D01*
X147100D01*
X141800Y66100D02*
Y65100D01*
X143800D01*
Y66100D01*
X144800D01*
Y68100D01*
X143800D01*
Y69100D01*
X141800D01*
Y68100D01*
X140800D01*
Y66100D01*
X141800D01*
X80300Y188600D02*
Y187600D01*
X82300D01*
Y188600D01*
X83300D01*
Y190600D01*
X82300D01*
Y191600D01*
X80300D01*
Y190600D01*
X79300D01*
Y188600D01*
X80300D01*
X138500Y154900D02*
Y153900D01*
X140500D01*
Y154900D01*
X141500D01*
Y156900D01*
X140500D01*
Y157900D01*
X138500D01*
Y156900D01*
X137500D01*
Y154900D01*
X138500D01*
X196200Y173600D02*
Y172600D01*
X198200D01*
Y173600D01*
X199200D01*
Y175600D01*
X198200D01*
Y176600D01*
X196200D01*
Y175600D01*
X195200D01*
Y173600D01*
X196200D01*
X91600Y151500D02*
Y150500D01*
X93600D01*
Y151500D01*
X94600D01*
Y153500D01*
X93600D01*
Y154500D01*
X91600D01*
Y153500D01*
X90600D01*
Y151500D01*
X91600D01*
X83100Y114700D02*
Y113700D01*
X85100D01*
Y114700D01*
X86100D01*
Y116700D01*
X85100D01*
Y117700D01*
X83100D01*
Y116700D01*
X82100D01*
Y114700D01*
X83100D01*
X32400Y115700D02*
Y114700D01*
X34400D01*
Y115700D01*
X35400D01*
Y117700D01*
X34400D01*
Y118700D01*
X32400D01*
Y117700D01*
X31400D01*
Y115700D01*
X32400D01*
X32000Y66800D02*
Y65800D01*
X34000D01*
Y66800D01*
X35000D01*
Y68800D01*
X34000D01*
Y69800D01*
X32000D01*
Y68800D01*
X31000D01*
Y66800D01*
X32000D01*
X49400Y86400D02*
Y85400D01*
X51400D01*
Y86400D01*
X52400D01*
Y88400D01*
X51400D01*
Y89400D01*
X49400D01*
Y88400D01*
X48400D01*
Y86400D01*
X49400D01*
X59200Y15800D02*
Y14800D01*
X61200D01*
Y15800D01*
X62200D01*
Y17800D01*
X61200D01*
Y18800D01*
X59200D01*
Y17800D01*
X58200D01*
Y15800D01*
X59200D01*
X303100Y43500D02*
Y42500D01*
X305100D01*
Y43500D01*
X306100D01*
Y45500D01*
X305100D01*
Y46500D01*
X303100D01*
Y45500D01*
X302100D01*
Y43500D01*
X303100D01*
X274400Y66900D02*
Y65900D01*
X276400D01*
Y66900D01*
X277400D01*
Y68900D01*
X276400D01*
Y69900D01*
X274400D01*
Y68900D01*
X273400D01*
Y66900D01*
X274400D01*
X282300Y42700D02*
Y41700D01*
X284300D01*
Y42700D01*
X285300D01*
Y44700D01*
X284300D01*
Y45700D01*
X282300D01*
Y44700D01*
X281300D01*
Y42700D01*
X282300D01*
X274500Y61900D02*
Y60900D01*
X276500D01*
Y61900D01*
X277500D01*
Y63900D01*
X276500D01*
Y64900D01*
X274500D01*
Y63900D01*
X273500D01*
Y61900D01*
X274500D01*
X227700Y103100D02*
Y102100D01*
X229700D01*
Y103100D01*
X230700D01*
Y105100D01*
X229700D01*
Y106100D01*
X227700D01*
Y105100D01*
X226700D01*
Y103100D01*
X227700D01*
X296300Y101200D02*
Y100200D01*
X298300D01*
Y101200D01*
X299300D01*
Y103200D01*
X298300D01*
Y104200D01*
X296300D01*
Y103200D01*
X295300D01*
Y101200D01*
X296300D01*
X274700Y93500D02*
Y92500D01*
X276700D01*
Y93500D01*
X277700D01*
Y95500D01*
X276700D01*
Y96500D01*
X274700D01*
Y95500D01*
X273700D01*
Y93500D01*
X274700D01*
X266900Y115800D02*
Y114800D01*
X268900D01*
Y115800D01*
X269900D01*
Y117800D01*
X268900D01*
Y118800D01*
X266900D01*
Y117800D01*
X265900D01*
Y115800D01*
X266900D01*
X262300Y109100D02*
Y108100D01*
X264300D01*
Y109100D01*
X265300D01*
Y111100D01*
X264300D01*
Y112100D01*
X262300D01*
Y111100D01*
X261300D01*
Y109100D01*
X262300D01*
X271100Y107900D02*
Y106900D01*
X273100D01*
Y107900D01*
X274100D01*
Y109900D01*
X273100D01*
Y110900D01*
X271100D01*
Y109900D01*
X270100D01*
Y107900D01*
X271100D01*
X267300Y104200D02*
Y103200D01*
X269300D01*
Y104200D01*
X270300D01*
Y106200D01*
X269300D01*
Y107200D01*
X267300D01*
Y106200D01*
X266300D01*
Y104200D01*
X267300D01*
X37600Y145100D02*
Y144100D01*
X39600D01*
Y145100D01*
X40600D01*
Y147100D01*
X39600D01*
Y148100D01*
X37600D01*
Y147100D01*
X36600D01*
Y145100D01*
X37600D01*
X172400Y173600D02*
Y172600D01*
X174400D01*
Y173600D01*
X175400D01*
Y175600D01*
X174400D01*
Y176600D01*
X172400D01*
Y175600D01*
X171400D01*
Y173600D01*
X172400D01*
X217500Y191000D02*
Y190000D01*
X219500D01*
Y191000D01*
X220500D01*
Y193000D01*
X219500D01*
Y194000D01*
X217500D01*
Y193000D01*
X216500D01*
Y191000D01*
X217500D01*
X266900Y191200D02*
Y190200D01*
X268900D01*
Y191200D01*
X269900D01*
Y193200D01*
X268900D01*
Y194200D01*
X266900D01*
Y193200D01*
X265900D01*
Y191200D01*
X266900D01*
X97400Y91100D02*
Y90100D01*
X99400D01*
Y91100D01*
X100400D01*
Y93100D01*
X99400D01*
Y94100D01*
X97400D01*
Y93100D01*
X96400D01*
Y91100D01*
X97400D01*
X243400Y191100D02*
Y190100D01*
X245400D01*
Y191100D01*
X246400D01*
Y193100D01*
X245400D01*
Y194100D01*
X243400D01*
Y193100D01*
X242400D01*
Y191100D01*
X243400D01*
X115600Y81000D02*
Y80000D01*
X117600D01*
Y81000D01*
X118600D01*
Y83000D01*
X117600D01*
Y84000D01*
X115600D01*
Y83000D01*
X114600D01*
Y81000D01*
X115600D01*
X141900Y173000D02*
Y172000D01*
X143900D01*
Y173000D01*
X144900D01*
Y175000D01*
X143900D01*
Y176000D01*
X141900D01*
Y175000D01*
X140900D01*
Y173000D01*
X141900D01*
X182000Y161500D02*
Y160500D01*
X184000D01*
Y161500D01*
X185000D01*
Y163500D01*
X184000D01*
Y164500D01*
X182000D01*
Y163500D01*
X181000D01*
Y161500D01*
X182000D01*
X189600Y154900D02*
Y153900D01*
X191600D01*
Y154900D01*
X192600D01*
Y156900D01*
X191600D01*
Y157900D01*
X189600D01*
Y156900D01*
X188600D01*
Y154900D01*
X189600D01*
X230000Y162600D02*
Y161600D01*
X232000D01*
Y162600D01*
X233000D01*
Y164600D01*
X232000D01*
Y165600D01*
X230000D01*
Y164600D01*
X229000D01*
Y162600D01*
X230000D01*
X173600Y190800D02*
Y189800D01*
X175600D01*
Y190800D01*
X176600D01*
Y192800D01*
X175600D01*
Y193800D01*
X173600D01*
Y192800D01*
X172600D01*
Y190800D01*
X173600D01*
X199300Y148600D02*
Y147600D01*
X201300D01*
Y148600D01*
X202300D01*
Y150600D01*
X201300D01*
Y151600D01*
X199300D01*
Y150600D01*
X198300D01*
Y148600D01*
X199300D01*
X262400Y162300D02*
Y161300D01*
X264400D01*
Y162300D01*
X265400D01*
Y164300D01*
X264400D01*
Y165300D01*
X262400D01*
Y164300D01*
X261400D01*
Y162300D01*
X262400D01*
X247900Y161600D02*
Y160600D01*
X249900D01*
Y161600D01*
X250900D01*
Y163600D01*
X249900D01*
Y164600D01*
X247900D01*
Y163600D01*
X246900D01*
Y161600D01*
X247900D01*
X248600Y152500D02*
Y151500D01*
X250600D01*
Y152500D01*
X251600D01*
Y154500D01*
X250600D01*
Y155500D01*
X248600D01*
Y154500D01*
X247600D01*
Y152500D01*
X248600D01*
X333700Y122200D02*
Y121200D01*
X335700D01*
Y122200D01*
X336700D01*
Y124200D01*
X335700D01*
Y125200D01*
X333700D01*
Y124200D01*
X332700D01*
Y122200D01*
X333700D01*
X214600Y135400D02*
Y134400D01*
X216600D01*
Y135400D01*
X217600D01*
Y137400D01*
X216600D01*
Y138400D01*
X214600D01*
Y137400D01*
X213600D01*
Y135400D01*
X214600D01*
X198800Y115500D02*
Y114500D01*
X200800D01*
Y115500D01*
X201800D01*
Y117500D01*
X200800D01*
Y118500D01*
X198800D01*
Y117500D01*
X197800D01*
Y115500D01*
X198800D01*
X198400Y78800D02*
Y77800D01*
X200400D01*
Y78800D01*
X201400D01*
Y80800D01*
X200400D01*
Y81800D01*
X198400D01*
Y80800D01*
X197400D01*
Y78800D01*
X198400D01*
X232500Y55800D02*
Y54800D01*
X234500D01*
Y55800D01*
X235500D01*
Y57800D01*
X234500D01*
Y58800D01*
X232500D01*
Y57800D01*
X231500D01*
Y55800D01*
X232500D01*
X232400Y63200D02*
Y62200D01*
X234400D01*
Y63200D01*
X235400D01*
Y65200D01*
X234400D01*
Y66200D01*
X232400D01*
Y65200D01*
X231400D01*
Y63200D01*
X232400D01*
X238600Y57700D02*
Y56700D01*
X240600D01*
Y57700D01*
X241600D01*
Y59700D01*
X240600D01*
Y60700D01*
X238600D01*
Y59700D01*
X237600D01*
Y57700D01*
X238600D01*
X239000Y63900D02*
Y62900D01*
X241000D01*
Y63900D01*
X242000D01*
Y65900D01*
X241000D01*
Y66900D01*
X239000D01*
Y65900D01*
X238000D01*
Y63900D01*
X239000D01*
X172000Y3100D02*
Y2100D01*
X174000D01*
Y3100D01*
X175000D01*
Y5100D01*
X174000D01*
Y6100D01*
X172000D01*
Y5100D01*
X171000D01*
Y3100D01*
X172000D01*
X117700Y16400D02*
Y15400D01*
X119700D01*
Y16400D01*
X120700D01*
Y18400D01*
X119700D01*
Y19400D01*
X117700D01*
Y18400D01*
X116700D01*
Y16400D01*
X117700D01*
X168900Y16700D02*
Y15700D01*
X170900D01*
Y16700D01*
X171900D01*
Y18700D01*
X170900D01*
Y19700D01*
X168900D01*
Y18700D01*
X167900D01*
Y16700D01*
X168900D01*
X142500Y189800D02*
Y188800D01*
X144500D01*
Y189800D01*
X145500D01*
Y191800D01*
X144500D01*
Y192800D01*
X142500D01*
Y191800D01*
X141500D01*
Y189800D01*
X142500D01*
X120700Y190000D02*
Y189000D01*
X122700D01*
Y190000D01*
X123700D01*
Y192000D01*
X122700D01*
Y193000D01*
X120700D01*
Y192000D01*
X119700D01*
Y190000D01*
X120700D01*
X118900Y171600D02*
Y170600D01*
X120900D01*
Y171600D01*
X121900D01*
Y173600D01*
X120900D01*
Y174600D01*
X118900D01*
Y173600D01*
X117900D01*
Y171600D01*
X118900D01*
X133900Y138800D02*
Y137800D01*
X135900D01*
Y138800D01*
X136900D01*
Y140800D01*
X135900D01*
Y141800D01*
X133900D01*
Y140800D01*
X132900D01*
Y138800D01*
X133900D01*
X235400Y101600D02*
Y100600D01*
X237400D01*
Y101600D01*
X238400D01*
Y103600D01*
X237400D01*
Y104600D01*
X235400D01*
Y103600D01*
X234400D01*
Y101600D01*
X235400D01*
X301200Y155600D02*
Y154600D01*
X303200D01*
Y155600D01*
X304200D01*
Y157600D01*
X303200D01*
Y158600D01*
X301200D01*
Y157600D01*
X300200D01*
Y155600D01*
X301200D01*
X344900Y154300D02*
Y153300D01*
X346900D01*
Y154300D01*
X347900D01*
Y156300D01*
X346900D01*
Y157300D01*
X344900D01*
Y156300D01*
X343900D01*
Y154300D01*
X344900D01*
X319600Y103700D02*
Y102700D01*
X321600D01*
Y103700D01*
X322600D01*
Y105700D01*
X321600D01*
Y106700D01*
X319600D01*
Y105700D01*
X318600D01*
Y103700D01*
X319600D01*
X347600Y75900D02*
Y74900D01*
X349600D01*
Y75900D01*
X350600D01*
Y77900D01*
X349600D01*
Y78900D01*
X347600D01*
Y77900D01*
X346600D01*
Y75900D01*
X347600D01*
X280100Y101000D02*
Y100000D01*
X282100D01*
Y101000D01*
X283100D01*
Y103000D01*
X282100D01*
Y104000D01*
X280100D01*
Y103000D01*
X279100D01*
Y101000D01*
X280100D01*
X279929Y75571D02*
Y74571D01*
X281929D01*
Y75571D01*
X282929D01*
Y77571D01*
X281929D01*
Y78571D01*
X279929D01*
Y77571D01*
X278929D01*
Y75571D01*
X279929D01*
X208900Y65100D02*
Y64100D01*
X210900D01*
Y65100D01*
X211900D01*
Y67100D01*
X210900D01*
Y68100D01*
X208900D01*
Y67100D01*
X207900D01*
Y65100D01*
X208900D01*
X205200Y71700D02*
Y70700D01*
X207200D01*
Y71700D01*
X208200D01*
Y73700D01*
X207200D01*
Y74700D01*
X205200D01*
Y73700D01*
X204200D01*
Y71700D01*
X205200D01*
X262600Y152000D02*
Y151000D01*
X264600D01*
Y152000D01*
X265600D01*
Y154000D01*
X264600D01*
Y155000D01*
X262600D01*
Y154000D01*
X261600D01*
Y152000D01*
X262600D01*
X309300Y35500D02*
Y34500D01*
X311300D01*
Y35500D01*
X312300D01*
Y37500D01*
X311300D01*
Y38500D01*
X309300D01*
Y37500D01*
X308300D01*
Y35500D01*
X309300D01*
X292000Y41600D02*
Y40600D01*
X294000D01*
Y41600D01*
X295000D01*
Y43600D01*
X294000D01*
Y44600D01*
X292000D01*
Y43600D01*
X291000D01*
Y41600D01*
X292000D01*
X244200Y6000D02*
Y5000D01*
X246200D01*
Y6000D01*
X247200D01*
Y8000D01*
X246200D01*
Y9000D01*
X244200D01*
Y8000D01*
X243200D01*
Y6000D01*
X244200D01*
X217700Y24900D02*
Y23900D01*
X219700D01*
Y24900D01*
X220700D01*
Y26900D01*
X219700D01*
Y27900D01*
X217700D01*
Y26900D01*
X216700D01*
Y24900D01*
X217700D01*
X200800Y24400D02*
Y23400D01*
X202800D01*
Y24400D01*
X203800D01*
Y26400D01*
X202800D01*
Y27400D01*
X200800D01*
Y26400D01*
X199800D01*
Y24400D01*
X200800D01*
X32500Y85800D02*
Y84800D01*
X34500D01*
Y85800D01*
X35500D01*
Y87800D01*
X34500D01*
Y88800D01*
X32500D01*
Y87800D01*
X31500D01*
Y85800D01*
X32500D01*
X32600Y102300D02*
Y101300D01*
X34600D01*
Y102300D01*
X35600D01*
Y104300D01*
X34600D01*
Y105300D01*
X32600D01*
Y104300D01*
X31600D01*
Y102300D01*
X32600D01*
X82600Y127600D02*
Y126600D01*
X84600D01*
Y127600D01*
X85600D01*
Y129600D01*
X84600D01*
Y130600D01*
X82600D01*
Y129600D01*
X81600D01*
Y127600D01*
X82600D01*
X28100Y27600D02*
Y26600D01*
X30100D01*
Y27600D01*
X31100D01*
Y29600D01*
X30100D01*
Y30600D01*
X28100D01*
Y29600D01*
X27100D01*
Y27600D01*
X28100D01*
X242800Y112700D02*
Y111700D01*
X244800D01*
Y112700D01*
X245800D01*
Y114700D01*
X244800D01*
Y115700D01*
X242800D01*
Y114700D01*
X241800D01*
Y112700D01*
X242800D01*
X223800Y75700D02*
Y74700D01*
X225800D01*
Y75700D01*
X226800D01*
Y77700D01*
X225800D01*
Y78700D01*
X223800D01*
Y77700D01*
X222800D01*
Y75700D01*
X223800D01*
X187300Y80700D02*
Y79700D01*
X189300D01*
Y80700D01*
X190300D01*
Y82700D01*
X189300D01*
Y83700D01*
X187300D01*
Y82700D01*
X186300D01*
Y80700D01*
X187300D01*
Y68200D02*
Y67200D01*
X189300D01*
Y68200D01*
X190300D01*
Y70200D01*
X189300D01*
Y71200D01*
X187300D01*
Y70200D01*
X186300D01*
Y68200D01*
X187300D01*
X193300Y63700D02*
Y62700D01*
X195300D01*
Y63700D01*
X196300D01*
Y65700D01*
X195300D01*
Y66700D01*
X193300D01*
Y65700D01*
X192300D01*
Y63700D01*
X193300D01*
X193300Y107700D02*
Y106700D01*
X195300D01*
Y107700D01*
X196300D01*
Y109700D01*
X195300D01*
Y110700D01*
X193300D01*
Y109700D01*
X192300D01*
Y107700D01*
X193300D01*
X193300Y96700D02*
Y95700D01*
X195300D01*
Y96700D01*
X196300D01*
Y98700D01*
X195300D01*
Y99700D01*
X193300D01*
Y98700D01*
X192300D01*
Y96700D01*
X193300D01*
X204896Y78796D02*
Y77796D01*
X206896D01*
Y78796D01*
X207896D01*
Y80796D01*
X206896D01*
Y81796D01*
X204896D01*
Y80796D01*
X203896D01*
Y78796D01*
X204896D01*
X279800Y112700D02*
Y111700D01*
X281800D01*
Y112700D01*
X282800D01*
Y114700D01*
X281800D01*
Y115700D01*
X279800D01*
Y114700D01*
X278800D01*
Y112700D01*
X279800D01*
X266800Y73200D02*
Y72200D01*
X268800D01*
Y73200D01*
X269800D01*
Y75200D01*
X268800D01*
Y76200D01*
X266800D01*
Y75200D01*
X265800D01*
Y73200D01*
X266800D01*
X229300Y88700D02*
Y87700D01*
X231300D01*
Y88700D01*
X232300D01*
Y90700D01*
X231300D01*
Y91700D01*
X229300D01*
Y90700D01*
X228300D01*
Y88700D01*
X229300D01*
X218800Y53200D02*
Y52200D01*
X220800D01*
Y53200D01*
X221800D01*
Y55200D01*
X220800D01*
Y56200D01*
X218800D01*
Y55200D01*
X217800D01*
Y53200D01*
X218800D01*
X229300Y71700D02*
Y70700D01*
X231300D01*
Y71700D01*
X232300D01*
Y73700D01*
X231300D01*
Y74700D01*
X229300D01*
Y73700D01*
X228300D01*
Y71700D01*
X229300D01*
X227800Y51700D02*
Y50700D01*
X229800D01*
Y51700D01*
X230800D01*
Y53700D01*
X229800D01*
Y54700D01*
X227800D01*
Y53700D01*
X226800D01*
Y51700D01*
X227800D01*
X208800Y75900D02*
Y74900D01*
X210800D01*
Y75900D01*
X211800D01*
Y77900D01*
X210800D01*
Y78900D01*
X208800D01*
Y77900D01*
X207800D01*
Y75900D01*
X208800D01*
X198600Y31500D02*
Y30500D01*
X200600D01*
Y31500D01*
X201600D01*
Y33500D01*
X200600D01*
Y34500D01*
X198600D01*
Y33500D01*
X197600D01*
Y31500D01*
X198600D01*
X222000Y31600D02*
Y30600D01*
X224000D01*
Y31600D01*
X225000D01*
Y33600D01*
X224000D01*
Y34600D01*
X222000D01*
Y33600D01*
X221000D01*
Y31600D01*
X222000D01*
X300300Y28300D02*
Y27300D01*
X302300D01*
Y28300D01*
X303300D01*
Y30300D01*
X302300D01*
Y31300D01*
X300300D01*
Y30300D01*
X299300D01*
Y28300D01*
X300300D01*
X271900Y139000D02*
Y138000D01*
X273900D01*
Y139000D01*
X274900D01*
Y141000D01*
X273900D01*
Y142000D01*
X271900D01*
Y141000D01*
X270900D01*
Y139000D01*
X271900D01*
X86500Y78800D02*
Y77800D01*
X88500D01*
Y78800D01*
X89500D01*
Y80800D01*
X88500D01*
Y81800D01*
X86500D01*
Y80800D01*
X85500D01*
Y78800D01*
X86500D01*
X40000Y30100D02*
Y29100D01*
X42000D01*
Y30100D01*
X43000D01*
Y32100D01*
X42000D01*
Y33100D01*
X40000D01*
Y32100D01*
X39000D01*
Y30100D01*
X40000D01*
X203500Y64900D02*
Y63900D01*
X205500D01*
Y64900D01*
X206500D01*
Y66900D01*
X205500D01*
Y67900D01*
X203500D01*
Y66900D01*
X202500D01*
Y64900D01*
X203500D01*
X228000Y117300D02*
Y116300D01*
X230000D01*
Y117300D01*
X231000D01*
Y119300D01*
X230000D01*
Y120300D01*
X228000D01*
Y119300D01*
X227000D01*
Y117300D01*
X228000D01*
X134800Y117200D02*
Y116200D01*
X136800D01*
Y117200D01*
X137800D01*
Y119200D01*
X136800D01*
Y120200D01*
X134800D01*
Y119200D01*
X133800D01*
Y117200D01*
X134800D01*
X139800Y82200D02*
Y81200D01*
X141800D01*
Y82200D01*
X142800D01*
Y84200D01*
X141800D01*
Y85200D01*
X139800D01*
Y84200D01*
X138800D01*
Y82200D01*
X139800D01*
X101600Y17200D02*
Y16200D01*
X103600D01*
Y17200D01*
X104600D01*
Y19200D01*
X103600D01*
Y20200D01*
X101600D01*
Y19200D01*
X100600D01*
Y17200D01*
X101600D01*
X137800Y33200D02*
Y32200D01*
X139800D01*
Y33200D01*
X140800D01*
Y35200D01*
X139800D01*
Y36200D01*
X137800D01*
Y35200D01*
X136800D01*
Y33200D01*
X137800D01*
X92500Y2700D02*
Y1700D01*
X94500D01*
Y2700D01*
X95500D01*
Y4700D01*
X94500D01*
Y5700D01*
X92500D01*
Y4700D01*
X91500D01*
Y2700D01*
X92500D01*
X204200Y106100D02*
Y105100D01*
X206200D01*
Y106100D01*
X207200D01*
Y108100D01*
X206200D01*
Y109100D01*
X204200D01*
Y108100D01*
X203200D01*
Y106100D01*
X204200D01*
X203200Y112500D02*
Y111500D01*
X205200D01*
Y112500D01*
X206200D01*
Y114500D01*
X205200D01*
Y115500D01*
X203200D01*
Y114500D01*
X202200D01*
Y112500D01*
X203200D01*
X136000Y2900D02*
Y1900D01*
X138000D01*
Y2900D01*
X139000D01*
Y4900D01*
X138000D01*
Y5900D01*
X136000D01*
Y4900D01*
X135000D01*
Y2900D01*
X136000D01*
X202200Y135600D02*
Y134600D01*
X204200D01*
Y135600D01*
X205200D01*
Y137600D01*
X204200D01*
Y138600D01*
X202200D01*
Y137600D01*
X201200D01*
Y135600D01*
X202200D01*
X195000Y43600D02*
Y42600D01*
X197000D01*
Y43600D01*
X198000D01*
Y45600D01*
X197000D01*
Y46600D01*
X195000D01*
Y45600D01*
X194000D01*
Y43600D01*
X195000D01*
X177300Y34100D02*
Y33100D01*
X179300D01*
Y34100D01*
X180300D01*
Y36100D01*
X179300D01*
Y37100D01*
X177300D01*
Y36100D01*
X176300D01*
Y34100D01*
X177300D01*
X223300Y37400D02*
Y36400D01*
X225300D01*
Y37400D01*
X226300D01*
Y39400D01*
X225300D01*
Y40400D01*
X223300D01*
Y39400D01*
X222300D01*
Y37400D01*
X223300D01*
X181100Y25100D02*
Y24100D01*
X183100D01*
Y25100D01*
X184100D01*
Y27100D01*
X183100D01*
Y28100D01*
X181100D01*
Y27100D01*
X180100D01*
Y25100D01*
X181100D01*
X188920Y134580D02*
Y133580D01*
X190920D01*
Y134580D01*
X191920D01*
Y136580D01*
X190920D01*
Y137580D01*
X188920D01*
Y136580D01*
X187920D01*
Y134580D01*
X188920D01*
X86300Y18200D02*
Y17200D01*
X88300D01*
Y18200D01*
X89300D01*
Y20200D01*
X88300D01*
Y21200D01*
X86300D01*
Y20200D01*
X85300D01*
Y18200D01*
X86300D01*
X58500Y35800D02*
Y34800D01*
X60500D01*
Y35800D01*
X61500D01*
Y37800D01*
X60500D01*
Y38800D01*
X58500D01*
Y37800D01*
X57500D01*
Y35800D01*
X58500D01*
X311900Y94700D02*
Y93700D01*
X313900D01*
Y94700D01*
X314900D01*
Y96700D01*
X313900D01*
Y97700D01*
X311900D01*
Y96700D01*
X310900D01*
Y94700D01*
X311900D01*
X310400Y93100D02*
Y92100D01*
X312400D01*
Y93100D01*
X313400D01*
Y95100D01*
X312400D01*
Y96100D01*
X310400D01*
Y95100D01*
X309400D01*
Y93100D01*
X310400D01*
X311900D02*
Y92100D01*
X313900D01*
Y93100D01*
X314900D01*
Y95100D01*
X313900D01*
Y96100D01*
X311900D01*
Y95100D01*
X310900D01*
Y93100D01*
X311900D01*
X310300Y94700D02*
Y93700D01*
X312300D01*
Y94700D01*
X313300D01*
Y96700D01*
X312300D01*
Y97700D01*
X310300D01*
Y96700D01*
X309300D01*
Y94700D01*
X310300D01*
X214638Y95062D02*
Y94062D01*
X216638D01*
Y95062D01*
X217638D01*
Y97062D01*
X216638D01*
Y98062D01*
X214638D01*
Y97062D01*
X213638D01*
Y95062D01*
X214638D01*
X310100Y81300D02*
Y80300D01*
X312100D01*
Y81300D01*
X313100D01*
Y83300D01*
X312100D01*
Y84300D01*
X310100D01*
Y83300D01*
X309100D01*
Y81300D01*
X310100D01*
X310800Y76700D02*
Y75700D01*
X312800D01*
Y76700D01*
X313800D01*
Y78700D01*
X312800D01*
Y79700D01*
X310800D01*
Y78700D01*
X309800D01*
Y76700D01*
X310800D01*
X209500Y86200D02*
Y85200D01*
X211500D01*
Y86200D01*
X212500D01*
Y88200D01*
X211500D01*
Y89200D01*
X209500D01*
Y88200D01*
X208500D01*
Y86200D01*
X209500D01*
X100200Y140100D02*
Y139100D01*
X102200D01*
Y140100D01*
X103200D01*
Y142100D01*
X102200D01*
Y143100D01*
X100200D01*
Y142100D01*
X99200D01*
Y140100D01*
X100200D01*
X104400Y137900D02*
Y136900D01*
X106400D01*
Y137900D01*
X107400D01*
Y139900D01*
X106400D01*
Y140900D01*
X104400D01*
Y139900D01*
X103400D01*
Y137900D01*
X104400D01*
X293100Y146000D02*
Y145000D01*
X295100D01*
Y146000D01*
X296100D01*
Y148000D01*
X295100D01*
Y149000D01*
X293100D01*
Y148000D01*
X292100D01*
Y146000D01*
X293100D01*
X46500Y140100D02*
Y139100D01*
X48500D01*
Y140100D01*
X49500D01*
Y142100D01*
X48500D01*
Y143100D01*
X46500D01*
Y142100D01*
X45500D01*
Y140100D01*
X46500D01*
X219100Y173000D02*
Y172000D01*
X221100D01*
Y173000D01*
X222100D01*
Y175000D01*
X221100D01*
Y176000D01*
X219100D01*
Y175000D01*
X218100D01*
Y173000D01*
X219100D01*
M02*
