%FSLAX25Y25*%
%MOIN*%
G70*
G01*
G75*
G04 Layer_Color=8388736*
%ADD10R,0.05500X0.07700*%
%ADD11R,0.04724X0.05512*%
%ADD12R,0.01400X0.04000*%
%ADD13R,0.05512X0.04724*%
%ADD14R,0.05906X0.04724*%
%ADD15R,0.02953X0.02362*%
%ADD16R,0.04000X0.03500*%
%ADD17R,0.03937X0.07087*%
%ADD18R,0.04724X0.03150*%
%ADD19R,0.02362X0.02953*%
%ADD20R,0.02362X0.07874*%
%ADD21R,0.05906X0.01969*%
%ADD22R,0.05906X0.02362*%
%ADD23R,0.05906X0.02480*%
%ADD24R,0.06000X0.07000*%
%ADD25R,0.07700X0.05500*%
%ADD26O,0.01180X0.05906*%
%ADD27O,0.05906X0.01180*%
%ADD28R,0.17716X0.17716*%
%ADD29R,0.01000X0.02600*%
%ADD30R,0.02600X0.01000*%
%ADD31R,0.08800X0.04200*%
%ADD32R,0.04000X0.04000*%
%ADD33C,0.01000*%
%ADD34C,0.04000*%
%ADD35C,0.08000*%
%ADD36C,0.02000*%
%ADD37C,0.01200*%
%ADD38C,0.08000*%
%ADD39R,0.08000X0.08000*%
%ADD40R,0.08000X0.06000*%
%ADD41O,0.08000X0.06000*%
%ADD42C,0.06000*%
%ADD43R,0.06000X0.06000*%
%ADD44R,0.05906X0.05906*%
%ADD45C,0.05906*%
%ADD46R,0.06000X0.08000*%
%ADD47O,0.06000X0.08000*%
%ADD48C,0.20000*%
%ADD49C,0.04000*%
%ADD50R,0.03000X0.03000*%
%ADD51R,0.05000X0.05000*%
%ADD52C,0.02500*%
%ADD53C,0.05000*%
%ADD54R,0.17700X0.17700*%
%ADD55C,0.00600*%
%ADD56C,0.00984*%
%ADD57C,0.00800*%
%ADD58C,0.00787*%
%ADD59C,0.00400*%
%ADD60R,0.06300X0.08500*%
%ADD61R,0.05524X0.06312*%
%ADD62R,0.02200X0.04800*%
%ADD63R,0.06312X0.05524*%
%ADD64R,0.06706X0.05524*%
%ADD65R,0.03753X0.03162*%
%ADD66R,0.04800X0.04300*%
%ADD67R,0.04737X0.07887*%
%ADD68R,0.05524X0.03950*%
%ADD69R,0.03162X0.03753*%
%ADD70R,0.03162X0.08674*%
%ADD71R,0.06706X0.02769*%
%ADD72R,0.06706X0.03162*%
%ADD73R,0.06706X0.03280*%
%ADD74R,0.06800X0.07800*%
%ADD75R,0.08500X0.06300*%
%ADD76O,0.01580X0.06306*%
%ADD77O,0.06306X0.01580*%
%ADD78R,0.01800X0.03400*%
%ADD79R,0.03400X0.01800*%
%ADD80R,0.09600X0.05000*%
%ADD81R,0.04800X0.04800*%
%ADD82C,0.08800*%
%ADD83R,0.08800X0.08800*%
%ADD84R,0.08800X0.06800*%
%ADD85O,0.08800X0.06800*%
%ADD86C,0.06800*%
%ADD87R,0.06800X0.06800*%
%ADD88R,0.06706X0.06706*%
%ADD89C,0.06706*%
%ADD90R,0.06800X0.08800*%
%ADD91O,0.06800X0.08800*%
%ADD92C,0.20800*%
%ADD93C,0.12000*%
%ADD94R,0.05800X0.05800*%
%ADD95C,0.03300*%
%ADD96C,0.05800*%
D28*
X252395Y88605D02*
D03*
D33*
X1000Y100D02*
Y198900D01*
X353900D01*
Y200D02*
Y198900D01*
Y200D02*
X354000Y100D01*
X1000D02*
X354000D01*
D50*
X254331Y94605D02*
D03*
X250331D02*
D03*
X258206Y82794D02*
D03*
X254331D02*
D03*
X246394D02*
D03*
X258206Y86700D02*
D03*
X254331D02*
D03*
X246394Y86731D02*
D03*
Y94605D02*
D03*
X258206D02*
D03*
X250331Y86700D02*
D03*
Y82794D02*
D03*
Y90668D02*
D03*
X246394D02*
D03*
X254331D02*
D03*
X258206D02*
D03*
D60*
X46600Y174000D02*
D03*
X65400D02*
D03*
Y100000D02*
D03*
X46600D02*
D03*
Y116000D02*
D03*
X65400D02*
D03*
D61*
X62457Y86000D02*
D03*
X69543D02*
D03*
X47543Y78000D02*
D03*
X40457D02*
D03*
X180757Y98200D02*
D03*
X187843D02*
D03*
X212757Y48700D02*
D03*
X219843D02*
D03*
X180757Y108700D02*
D03*
X187843D02*
D03*
X219843Y118700D02*
D03*
X212757D02*
D03*
X212757Y60700D02*
D03*
X219843D02*
D03*
X187843Y86700D02*
D03*
X180757D02*
D03*
D62*
X286600Y85100D02*
D03*
X284000D02*
D03*
X281400D02*
D03*
Y92300D02*
D03*
X284000D02*
D03*
X286600D02*
D03*
D63*
X40000Y42457D02*
D03*
Y49543D02*
D03*
D64*
X283576Y58047D02*
D03*
X293024D02*
D03*
Y51354D02*
D03*
X283576D02*
D03*
D65*
X211638Y166000D02*
D03*
X216362D02*
D03*
X220662Y76700D02*
D03*
X215938D02*
D03*
X288362Y70000D02*
D03*
X283638D02*
D03*
Y76000D02*
D03*
X288362D02*
D03*
X283638Y102000D02*
D03*
X288362D02*
D03*
Y108000D02*
D03*
X283638D02*
D03*
X249638Y174000D02*
D03*
X254362D02*
D03*
X215638Y86000D02*
D03*
X220362D02*
D03*
X215638Y92000D02*
D03*
X220362D02*
D03*
X293638D02*
D03*
X298362D02*
D03*
D66*
X235008Y174000D02*
D03*
X240992D02*
D03*
X211008D02*
D03*
X216992D02*
D03*
D67*
X267379Y130700D02*
D03*
X277221D02*
D03*
D68*
X193772Y56700D02*
D03*
X202828Y52960D02*
D03*
Y60440D02*
D03*
X193772Y128700D02*
D03*
X202828Y124960D02*
D03*
Y132440D02*
D03*
D69*
X240300Y114338D02*
D03*
Y119062D02*
D03*
X272300Y114338D02*
D03*
Y119062D02*
D03*
X276300Y52338D02*
D03*
Y57062D02*
D03*
X300300D02*
D03*
Y52338D02*
D03*
X284300Y133062D02*
D03*
Y128338D02*
D03*
X260300Y133062D02*
D03*
Y128338D02*
D03*
X234300Y114338D02*
D03*
Y119062D02*
D03*
X262300Y52338D02*
D03*
Y57062D02*
D03*
X256300Y52338D02*
D03*
Y57062D02*
D03*
X66300Y142338D02*
D03*
Y147062D02*
D03*
X186300Y31062D02*
D03*
Y26338D02*
D03*
X178300Y31062D02*
D03*
Y26338D02*
D03*
X308000Y112362D02*
D03*
Y107638D02*
D03*
X314000D02*
D03*
Y112362D02*
D03*
D70*
X229583Y38739D02*
D03*
Y18661D02*
D03*
X214938D02*
D03*
X215017Y38739D02*
D03*
X193017Y18661D02*
D03*
Y38739D02*
D03*
X207662D02*
D03*
X207583Y18661D02*
D03*
X307017Y16661D02*
D03*
Y36739D02*
D03*
X321662D02*
D03*
X321583Y16661D02*
D03*
D71*
X56724Y149543D02*
D03*
Y142457D02*
D03*
D72*
X47276Y149543D02*
D03*
Y146000D02*
D03*
D73*
Y142457D02*
D03*
D74*
X46000Y160700D02*
D03*
X58600D02*
D03*
X47700Y130000D02*
D03*
X60300D02*
D03*
D75*
X182300Y121300D02*
D03*
Y140100D02*
D03*
Y45300D02*
D03*
Y64100D02*
D03*
D76*
X243371Y101695D02*
D03*
X245339D02*
D03*
X247307D02*
D03*
X249276D02*
D03*
X251244D02*
D03*
X253213D02*
D03*
X255182D02*
D03*
X257150D02*
D03*
X259119D02*
D03*
X261087D02*
D03*
Y75705D02*
D03*
X259119D02*
D03*
X257150D02*
D03*
X255182D02*
D03*
X253213D02*
D03*
X251244D02*
D03*
X249276D02*
D03*
X247307D02*
D03*
X245339D02*
D03*
X243371D02*
D03*
D77*
X265295Y97558D02*
D03*
Y95590D02*
D03*
Y93621D02*
D03*
Y91653D02*
D03*
Y89684D02*
D03*
Y87716D02*
D03*
Y85747D02*
D03*
Y83779D02*
D03*
Y81810D02*
D03*
Y79842D02*
D03*
X239305D02*
D03*
Y81810D02*
D03*
Y83779D02*
D03*
Y85747D02*
D03*
Y87716D02*
D03*
Y89684D02*
D03*
Y91653D02*
D03*
Y93621D02*
D03*
Y95590D02*
D03*
Y97558D02*
D03*
D78*
X309000Y100600D02*
D03*
X311000D02*
D03*
X313000D02*
D03*
X315000D02*
D03*
Y89400D02*
D03*
X313000D02*
D03*
X311000D02*
D03*
X309000D02*
D03*
D79*
X317600Y98000D02*
D03*
Y96000D02*
D03*
Y94000D02*
D03*
Y92000D02*
D03*
X306400D02*
D03*
Y94000D02*
D03*
Y96000D02*
D03*
Y97900D02*
D03*
D80*
X334000Y100000D02*
D03*
Y88000D02*
D03*
D81*
X328000Y94000D02*
D03*
D82*
X70000Y70000D02*
D03*
X154070Y36380D02*
D03*
Y83620D02*
D03*
X106050Y36380D02*
D03*
Y83620D02*
D03*
X161950Y60000D02*
D03*
X154070Y108380D02*
D03*
Y155620D02*
D03*
X106050Y108380D02*
D03*
Y155620D02*
D03*
X161950Y132000D02*
D03*
D83*
X70000Y30000D02*
D03*
D84*
X18000Y130000D02*
D03*
X18300Y77700D02*
D03*
Y43700D02*
D03*
D85*
X18000Y140000D02*
D03*
Y150000D02*
D03*
X18300Y107700D02*
D03*
Y97700D02*
D03*
Y87700D02*
D03*
Y53700D02*
D03*
D86*
X40000Y16000D02*
D03*
D87*
X50000D02*
D03*
D88*
X266000Y38000D02*
D03*
X280300Y175700D02*
D03*
D89*
X256000Y38000D02*
D03*
X246000D02*
D03*
X280300Y185700D02*
D03*
X290300Y175700D02*
D03*
Y185700D02*
D03*
X300300Y175700D02*
D03*
Y185700D02*
D03*
X310300Y175700D02*
D03*
Y185700D02*
D03*
X320300Y175700D02*
D03*
Y185700D02*
D03*
D90*
X289300Y20700D02*
D03*
X255300D02*
D03*
D91*
X279300D02*
D03*
X245300D02*
D03*
D92*
X340300Y176700D02*
D03*
X18300Y14700D02*
D03*
X19100Y176700D02*
D03*
X340300Y14700D02*
D03*
D93*
X38000Y190000D02*
D03*
X324300Y54700D02*
D03*
D94*
X312100Y94900D02*
D03*
D95*
X38700Y139500D02*
D03*
X38800Y134200D02*
D03*
X346500Y114500D02*
D03*
X335200Y114000D02*
D03*
X334700Y131300D02*
D03*
X325400Y144800D02*
D03*
X301700Y64100D02*
D03*
X294400Y97400D02*
D03*
X292900Y82800D02*
D03*
X309700Y72300D02*
D03*
X332000Y76200D02*
D03*
X323000Y69000D02*
D03*
X6000Y28600D02*
D03*
Y48400D02*
D03*
X6300Y75900D02*
D03*
X6000Y96900D02*
D03*
X6300Y123600D02*
D03*
X7100Y148000D02*
D03*
X54900Y75700D02*
D03*
X267300Y67100D02*
D03*
X53200Y5600D02*
D03*
X72000Y5300D02*
D03*
X12400Y163600D02*
D03*
X141200Y55200D02*
D03*
X87100Y34900D02*
D03*
X107600Y69600D02*
D03*
X43500Y67700D02*
D03*
X164500Y47100D02*
D03*
X103200Y126900D02*
D03*
X86900Y89000D02*
D03*
X114800Y32700D02*
D03*
X239600Y13800D02*
D03*
X47500Y154000D02*
D03*
X315100Y7800D02*
D03*
X294500Y7600D02*
D03*
X278100Y7100D02*
D03*
X260500Y7400D02*
D03*
X303700Y132700D02*
D03*
X223800Y147900D02*
D03*
X56400Y190100D02*
D03*
X347800Y92200D02*
D03*
X346600Y105800D02*
D03*
X78500Y151800D02*
D03*
X341500Y66600D02*
D03*
X301600Y80800D02*
D03*
X341900Y51100D02*
D03*
X315800Y62700D02*
D03*
X341700Y36200D02*
D03*
X301300Y73200D02*
D03*
X321400Y88400D02*
D03*
X324100Y124200D02*
D03*
X314100Y125100D02*
D03*
X332900Y66400D02*
D03*
X234300Y134600D02*
D03*
X345900Y123300D02*
D03*
X346200Y139700D02*
D03*
X321400Y156100D02*
D03*
X334300Y155600D02*
D03*
X313200Y140300D02*
D03*
X334300Y140800D02*
D03*
X341100Y76300D02*
D03*
X148100Y18700D02*
D03*
X142800Y67100D02*
D03*
X81300Y189600D02*
D03*
X139500Y155900D02*
D03*
X197200Y174600D02*
D03*
X92600Y152500D02*
D03*
X84100Y115700D02*
D03*
X33400Y116700D02*
D03*
X33000Y67800D02*
D03*
X50400Y87400D02*
D03*
X60200Y16800D02*
D03*
X304100Y44500D02*
D03*
X275400Y67900D02*
D03*
X283300Y43700D02*
D03*
X275500Y62900D02*
D03*
X228700Y104100D02*
D03*
X297300Y102200D02*
D03*
X275700Y94500D02*
D03*
X267900Y116800D02*
D03*
X263300Y110100D02*
D03*
X272100Y108900D02*
D03*
X268300Y105200D02*
D03*
X38600Y146100D02*
D03*
X173400Y174600D02*
D03*
X218500Y192000D02*
D03*
X267900Y192200D02*
D03*
X98400Y92100D02*
D03*
X244400Y192100D02*
D03*
X116600Y82000D02*
D03*
X142900Y174000D02*
D03*
X183000Y162500D02*
D03*
X190600Y155900D02*
D03*
X231000Y163600D02*
D03*
X174600Y191800D02*
D03*
X200300Y149600D02*
D03*
X263400Y163300D02*
D03*
X248900Y162600D02*
D03*
X249600Y153500D02*
D03*
X334700Y123200D02*
D03*
X215600Y136400D02*
D03*
X199800Y116500D02*
D03*
X199400Y79800D02*
D03*
X233500Y56800D02*
D03*
X233400Y64200D02*
D03*
X239600Y58700D02*
D03*
X240000Y64900D02*
D03*
X173000Y4100D02*
D03*
X118700Y17400D02*
D03*
X169900Y17700D02*
D03*
X143500Y190800D02*
D03*
X121700Y191000D02*
D03*
X119900Y172600D02*
D03*
X134900Y139800D02*
D03*
X236400Y102600D02*
D03*
X302200Y156600D02*
D03*
X345900Y155300D02*
D03*
X320600Y104700D02*
D03*
X348600Y76900D02*
D03*
X281100Y102000D02*
D03*
X280929Y76571D02*
D03*
X209900Y66100D02*
D03*
X206200Y72700D02*
D03*
X263600Y153000D02*
D03*
X310300Y36500D02*
D03*
X293000Y42600D02*
D03*
X245200Y7000D02*
D03*
X218700Y25900D02*
D03*
X201800Y25400D02*
D03*
X33500Y86800D02*
D03*
X33600Y103300D02*
D03*
X83600Y128600D02*
D03*
X29100Y28600D02*
D03*
X243800Y113700D02*
D03*
X224800Y76700D02*
D03*
X188300Y81700D02*
D03*
Y69200D02*
D03*
X194300Y64700D02*
D03*
X194300Y108700D02*
D03*
X194300Y97700D02*
D03*
X205896Y79796D02*
D03*
X280800Y113700D02*
D03*
X267800Y74200D02*
D03*
X230300Y89700D02*
D03*
X219800Y54200D02*
D03*
X230300Y72700D02*
D03*
X228800Y52700D02*
D03*
X209800Y76900D02*
D03*
X199600Y32500D02*
D03*
X223000Y32600D02*
D03*
X301300Y29300D02*
D03*
X272900Y140000D02*
D03*
X87500Y79800D02*
D03*
X41000Y31100D02*
D03*
X204500Y65900D02*
D03*
X229000Y118300D02*
D03*
X135800Y118200D02*
D03*
X140800Y83200D02*
D03*
X102600Y18200D02*
D03*
X138800Y34200D02*
D03*
X93500Y3700D02*
D03*
X205200Y107100D02*
D03*
X204200Y113500D02*
D03*
X137000Y3900D02*
D03*
X203200Y136600D02*
D03*
X196000Y44600D02*
D03*
X178300Y35100D02*
D03*
X224300Y38400D02*
D03*
X182100Y26100D02*
D03*
X189920Y135580D02*
D03*
X87300Y19200D02*
D03*
X59500Y36800D02*
D03*
X312900Y95700D02*
D03*
X311400Y94100D02*
D03*
X312900D02*
D03*
X311300Y95700D02*
D03*
X215638Y96062D02*
D03*
X311100Y82300D02*
D03*
X311800Y77700D02*
D03*
X210500Y87200D02*
D03*
X101200Y141100D02*
D03*
X105400Y138900D02*
D03*
X294100Y147000D02*
D03*
X47500Y141100D02*
D03*
X220100Y174000D02*
D03*
D96*
X71200D02*
D03*
X41100Y173100D02*
D03*
X154400Y70100D02*
D03*
M02*
