%FSLAX25Y25*%
%MOIN*%
G70*
G01*
G75*
G04 Layer_Physical_Order=1*
G04 Layer_Color=255*
%ADD10R,0.04724X0.05512*%
%ADD11R,0.05500X0.07700*%
%ADD12R,0.04200X0.08800*%
%ADD13R,0.04000X0.04000*%
%ADD14R,0.07200X0.16000*%
%ADD15R,0.07200X0.08000*%
%ADD16R,0.08000X0.02500*%
%ADD17R,0.02500X0.04000*%
%ADD18R,0.01400X0.04000*%
%ADD19R,0.08800X0.04200*%
%ADD20R,0.04000X0.04000*%
%ADD21R,0.07000X0.06000*%
%ADD22R,0.05512X0.04724*%
%ADD23R,0.05906X0.04724*%
%ADD24R,0.02953X0.02362*%
%ADD25R,0.04000X0.03500*%
%ADD26R,0.03937X0.07087*%
%ADD27R,0.04724X0.03150*%
%ADD28R,0.02362X0.02953*%
%ADD29R,0.02362X0.07874*%
%ADD30R,0.03150X0.04724*%
%ADD31R,0.05906X0.01969*%
%ADD32R,0.05906X0.02362*%
%ADD33R,0.05906X0.02480*%
%ADD34R,0.06000X0.07000*%
%ADD35R,0.07700X0.05500*%
%ADD36O,0.01180X0.05906*%
%ADD37O,0.05906X0.01180*%
%ADD38R,0.17716X0.17716*%
%ADD39C,0.02000*%
%ADD40C,0.01000*%
%ADD41C,0.04000*%
%ADD42C,0.08000*%
%ADD43C,0.10000*%
%ADD44C,0.08000*%
%ADD45R,0.08000X0.08000*%
%ADD46R,0.08000X0.06000*%
%ADD47O,0.08000X0.06000*%
%ADD48C,0.06000*%
%ADD49R,0.06000X0.06000*%
%ADD50R,0.05906X0.05906*%
%ADD51C,0.05906*%
%ADD52R,0.06000X0.08000*%
%ADD53O,0.06000X0.08000*%
%ADD54C,0.20000*%
%ADD55C,0.04000*%
%ADD56R,0.03000X0.03000*%
%ADD57C,0.02500*%
%ADD58C,0.05000*%
G36*
X327000Y125400D02*
D01*
D01*
D01*
X327000D01*
Y125400D01*
D01*
X327000Y125400D01*
X327000Y124800D01*
X327200Y124600D01*
X327500Y124900D01*
X335000Y124900D01*
Y119000D01*
X333300D01*
Y115000D01*
X336001D01*
Y113000D01*
X333300D01*
Y109000D01*
X334093D01*
X334476Y108076D01*
X329800Y103400D01*
X324000D01*
X322500Y101900D01*
X322600Y101800D01*
Y96833D01*
X321506Y95994D01*
X321016Y95356D01*
X318581D01*
Y88644D01*
X321016D01*
X321506Y88006D01*
X322600Y87167D01*
Y79900D01*
X331500D01*
X348500Y96900D01*
Y98600D01*
Y109000D01*
X347000D01*
Y113999D01*
Y119000D01*
X348500D01*
Y124800D01*
X353678D01*
Y1122D01*
X137616D01*
X137518Y2117D01*
X137000Y2014D01*
X136482Y2117D01*
X136394Y1223D01*
X136293Y1122D01*
X94693D01*
X94403Y2078D01*
X94222Y1957D01*
X93500Y1814D01*
X92778Y1957D01*
X92597Y2078D01*
X92307Y1122D01*
X63943D01*
X63653Y2079D01*
X63934Y2266D01*
X64157Y2600D01*
X61043D01*
X61266Y2266D01*
X61547Y2079D01*
X61257Y1122D01*
X1122D01*
Y197778D01*
X149203D01*
X149674Y196897D01*
X149743Y197000D01*
X150300D01*
Y197557D01*
X150578Y197743D01*
X150756Y197778D01*
X151844D01*
X152022Y197743D01*
X152025Y197778D01*
X190756D01*
X191047Y196822D01*
X191078Y196843D01*
X191800Y196986D01*
X192522Y196843D01*
X192553Y196822D01*
X192844Y197778D01*
X327000D01*
Y125400D01*
D02*
G37*
%LPC*%
G36*
X339400Y76557D02*
Y76000D01*
X339957D01*
X339734Y76334D01*
X339400Y76557D01*
D02*
G37*
G36*
X349400D02*
X349066Y76334D01*
X348843Y76000D01*
X349400D01*
Y76557D01*
D02*
G37*
G36*
X324000D02*
Y76000D01*
X324557D01*
X324334Y76334D01*
X324000Y76557D01*
D02*
G37*
G36*
X337400D02*
X337066Y76334D01*
X336843Y76000D01*
X337400D01*
Y76557D01*
D02*
G37*
G36*
X351400D02*
Y76000D01*
X351957D01*
X351734Y76334D01*
X351400Y76557D01*
D02*
G37*
G36*
X5300Y77457D02*
X4966Y77234D01*
X4743Y76900D01*
X5300D01*
Y77457D01*
D02*
G37*
G36*
X7300D02*
Y76900D01*
X7857D01*
X7634Y77234D01*
X7300Y77457D01*
D02*
G37*
G36*
X344400Y76657D02*
X344066Y76434D01*
X343843Y76100D01*
X344400D01*
Y76657D01*
D02*
G37*
G36*
X346400D02*
Y76100D01*
X346957D01*
X346734Y76434D01*
X346400Y76657D01*
D02*
G37*
G36*
X5300Y74900D02*
X4743D01*
X4966Y74566D01*
X5300Y74343D01*
Y74900D01*
D02*
G37*
G36*
X7857D02*
X7300D01*
Y74343D01*
X7634Y74566D01*
X7857Y74900D01*
D02*
G37*
G36*
X346957Y74100D02*
X346400D01*
Y73543D01*
X346734Y73766D01*
X346957Y74100D01*
D02*
G37*
G36*
X290439Y75000D02*
X289362D01*
Y74219D01*
X290439D01*
Y75000D01*
D02*
G37*
G36*
X329400Y76057D02*
X329066Y75834D01*
X328843Y75500D01*
X329400D01*
Y76057D01*
D02*
G37*
G36*
X317000Y76557D02*
Y76000D01*
X317557D01*
X317334Y76334D01*
X317000Y76557D01*
D02*
G37*
G36*
X322000D02*
X321666Y76334D01*
X321443Y76000D01*
X322000D01*
Y76557D01*
D02*
G37*
G36*
X331400Y76057D02*
Y75500D01*
X331957D01*
X331734Y75834D01*
X331400Y76057D01*
D02*
G37*
G36*
X315000Y76557D02*
X314666Y76334D01*
X314443Y76000D01*
X315000D01*
Y76557D01*
D02*
G37*
G36*
X342800Y80800D02*
X342243D01*
X342466Y80466D01*
X342800Y80243D01*
Y80800D01*
D02*
G37*
G36*
X345357D02*
X344800D01*
Y80243D01*
X345134Y80466D01*
X345357Y80800D01*
D02*
G37*
G36*
X43419Y81356D02*
X37495D01*
Y79631D01*
X22900D01*
Y81300D01*
X13700D01*
Y74100D01*
X22900D01*
Y76369D01*
X37495D01*
Y74644D01*
X43419D01*
Y81356D01*
D02*
G37*
G36*
X190805Y90056D02*
X184881D01*
Y83344D01*
X186113D01*
X186584Y82462D01*
X186557Y82422D01*
X186414Y81700D01*
X186557Y80978D01*
X186966Y80366D01*
X187578Y79957D01*
X188300Y79814D01*
X189022Y79957D01*
X189634Y80366D01*
X190043Y80978D01*
X190186Y81700D01*
X190043Y82422D01*
X189634Y83034D01*
X189422Y83176D01*
Y83344D01*
X190805D01*
Y90056D01*
D02*
G37*
G36*
X115600Y81000D02*
X115043D01*
X115266Y80666D01*
X115600Y80443D01*
Y81000D01*
D02*
G37*
G36*
X290600Y81757D02*
Y81200D01*
X291157D01*
X290934Y81534D01*
X290600Y81757D01*
D02*
G37*
G36*
X349500Y82057D02*
X349166Y81834D01*
X348943Y81500D01*
X349500D01*
Y82057D01*
D02*
G37*
G36*
X118157Y81000D02*
X117600D01*
Y80443D01*
X117934Y80666D01*
X118157Y81000D01*
D02*
G37*
G36*
X288600Y81757D02*
X288266Y81534D01*
X288043Y81200D01*
X288600D01*
Y81757D01*
D02*
G37*
G36*
X291157Y79200D02*
X290600D01*
Y78643D01*
X290934Y78866D01*
X291157Y79200D01*
D02*
G37*
G36*
X349500Y79500D02*
X348943D01*
X349166Y79166D01*
X349500Y78943D01*
Y79500D01*
D02*
G37*
G36*
X55200Y77500D02*
X54643D01*
X54866Y77166D01*
X55200Y76943D01*
Y77500D01*
D02*
G37*
G36*
X57757D02*
X57200D01*
Y76943D01*
X57534Y77166D01*
X57757Y77500D01*
D02*
G37*
G36*
X352057Y79500D02*
X351500D01*
Y78943D01*
X351834Y79166D01*
X352057Y79500D01*
D02*
G37*
G36*
X55200Y80057D02*
X54866Y79834D01*
X54643Y79500D01*
X55200D01*
Y80057D01*
D02*
G37*
G36*
X57200D02*
Y79500D01*
X57757D01*
X57534Y79834D01*
X57200Y80057D01*
D02*
G37*
G36*
X106050Y88260D02*
X104849Y88102D01*
X103730Y87638D01*
X102769Y86901D01*
X102032Y85940D01*
X101568Y84821D01*
X101410Y83620D01*
X101568Y82419D01*
X102032Y81300D01*
X102769Y80339D01*
X103730Y79602D01*
X104849Y79138D01*
X106050Y78980D01*
X107251Y79138D01*
X108370Y79602D01*
X109331Y80339D01*
X110068Y81300D01*
X110532Y82419D01*
X110690Y83620D01*
X110532Y84821D01*
X110068Y85940D01*
X109331Y86901D01*
X108370Y87638D01*
X107251Y88102D01*
X106050Y88260D01*
D02*
G37*
G36*
X154070D02*
X152869Y88102D01*
X151750Y87638D01*
X150789Y86901D01*
X150052Y85940D01*
X149588Y84821D01*
X149430Y83620D01*
X149588Y82419D01*
X150052Y81300D01*
X150789Y80339D01*
X151750Y79602D01*
X152869Y79138D01*
X154070Y78980D01*
X155271Y79138D01*
X156390Y79602D01*
X157351Y80339D01*
X158088Y81300D01*
X158552Y82419D01*
X158710Y83620D01*
X158552Y84821D01*
X158088Y85940D01*
X157351Y86901D01*
X156390Y87638D01*
X155271Y88102D01*
X154070Y88260D01*
D02*
G37*
G36*
X344400Y74100D02*
X343843D01*
X344066Y73766D01*
X344400Y73543D01*
Y74100D01*
D02*
G37*
G36*
X82800Y68557D02*
Y68000D01*
X83357D01*
X83134Y68334D01*
X82800Y68557D01*
D02*
G37*
G36*
X113000D02*
X112666Y68334D01*
X112443Y68000D01*
X113000D01*
Y68557D01*
D02*
G37*
G36*
X106500Y68357D02*
Y67800D01*
X107057D01*
X106834Y68134D01*
X106500Y68357D01*
D02*
G37*
G36*
X80800Y68557D02*
X80466Y68334D01*
X80243Y68000D01*
X80800D01*
Y68557D01*
D02*
G37*
G36*
X115000D02*
Y68000D01*
X115557D01*
X115334Y68334D01*
X115000Y68557D01*
D02*
G37*
G36*
X290439Y69000D02*
X289362D01*
Y68219D01*
X290439D01*
Y69000D01*
D02*
G37*
G36*
X301100Y69257D02*
X300766Y69034D01*
X300543Y68700D01*
X301100D01*
Y69257D01*
D02*
G37*
G36*
X266300Y68657D02*
X265966Y68434D01*
X265743Y68100D01*
X266300D01*
Y68657D01*
D02*
G37*
G36*
X268300D02*
Y68100D01*
X268857D01*
X268634Y68434D01*
X268300Y68657D01*
D02*
G37*
G36*
X301100Y66700D02*
X300543D01*
X300766Y66366D01*
X301100Y66143D01*
Y66700D01*
D02*
G37*
G36*
X303657D02*
X303100D01*
Y66143D01*
X303434Y66366D01*
X303657Y66700D01*
D02*
G37*
G36*
X28100Y66657D02*
X27766Y66434D01*
X27543Y66100D01*
X28100D01*
Y66657D01*
D02*
G37*
G36*
X30100D02*
Y66100D01*
X30657D01*
X30434Y66434D01*
X30100Y66657D01*
D02*
G37*
G36*
X276957Y66900D02*
X276400D01*
Y66343D01*
X276734Y66566D01*
X276957Y66900D01*
D02*
G37*
G36*
X55300Y68357D02*
Y67800D01*
X55857D01*
X55634Y68134D01*
X55300Y68357D01*
D02*
G37*
G36*
X104500D02*
X104166Y68134D01*
X103943Y67800D01*
X104500D01*
Y68357D01*
D02*
G37*
G36*
X50506Y81356D02*
X44581D01*
Y74644D01*
X44896D01*
Y71915D01*
X43565D01*
Y67565D01*
X49490D01*
Y71915D01*
X48159D01*
Y74644D01*
X50506D01*
Y81356D01*
D02*
G37*
G36*
X53300Y68357D02*
X52966Y68134D01*
X52743Y67800D01*
X53300D01*
Y68357D01*
D02*
G37*
G36*
X317557Y74000D02*
X317000D01*
Y73443D01*
X317334Y73666D01*
X317557Y74000D01*
D02*
G37*
G36*
X322000D02*
X321443D01*
X321666Y73666D01*
X322000Y73443D01*
Y74000D01*
D02*
G37*
G36*
X31200Y73757D02*
Y73200D01*
X31757D01*
X31534Y73534D01*
X31200Y73757D01*
D02*
G37*
G36*
X315000Y74000D02*
X314443D01*
X314666Y73666D01*
X315000Y73443D01*
Y74000D01*
D02*
G37*
G36*
X324557D02*
X324000D01*
Y73443D01*
X324334Y73666D01*
X324557Y74000D01*
D02*
G37*
G36*
X349400D02*
X348843D01*
X349066Y73666D01*
X349400Y73443D01*
Y74000D01*
D02*
G37*
G36*
X351957D02*
X351400D01*
Y73443D01*
X351734Y73666D01*
X351957Y74000D01*
D02*
G37*
G36*
X337400D02*
X336843D01*
X337066Y73666D01*
X337400Y73443D01*
Y74000D01*
D02*
G37*
G36*
X339957D02*
X339400D01*
Y73443D01*
X339734Y73666D01*
X339957Y74000D01*
D02*
G37*
G36*
X63000Y71482D02*
Y69000D01*
X65482D01*
X65145Y69815D01*
X64568Y70568D01*
X63815Y71145D01*
X63000Y71482D01*
D02*
G37*
G36*
X29200Y71200D02*
X28643D01*
X28866Y70866D01*
X29200Y70643D01*
Y71200D01*
D02*
G37*
G36*
X303100Y69257D02*
Y68700D01*
X303657D01*
X303434Y69034D01*
X303100Y69257D01*
D02*
G37*
G36*
X61000Y71482D02*
X60185Y71145D01*
X59432Y70568D01*
X58855Y69815D01*
X58518Y69000D01*
X61000D01*
Y71482D01*
D02*
G37*
G36*
X31757Y71200D02*
X31200D01*
Y70643D01*
X31534Y70866D01*
X31757Y71200D01*
D02*
G37*
G36*
X331957Y73500D02*
X331400D01*
Y72943D01*
X331734Y73166D01*
X331957Y73500D01*
D02*
G37*
G36*
X29200Y73757D02*
X28866Y73534D01*
X28643Y73200D01*
X29200D01*
Y73757D01*
D02*
G37*
G36*
X290439Y71781D02*
X289362D01*
Y71000D01*
X290439D01*
Y71781D01*
D02*
G37*
G36*
X329400Y73500D02*
X328843D01*
X329066Y73166D01*
X329400Y72943D01*
Y73500D01*
D02*
G37*
G36*
X190805Y101556D02*
X184881D01*
Y94844D01*
X190805D01*
Y96069D01*
X193412D01*
X193578Y95957D01*
X194300Y95814D01*
X195022Y95957D01*
X195634Y96366D01*
X196043Y96978D01*
X196186Y97700D01*
X196043Y98422D01*
X195634Y99034D01*
X195022Y99443D01*
X194300Y99586D01*
X193578Y99443D01*
X193412Y99331D01*
X190805D01*
Y101556D01*
D02*
G37*
G36*
X214100Y96700D02*
X213543D01*
X213766Y96366D01*
X214100Y96143D01*
Y96700D01*
D02*
G37*
G36*
X276700Y96057D02*
Y95500D01*
X277257D01*
X277034Y95834D01*
X276700Y96057D01*
D02*
G37*
G36*
X35300Y123522D02*
X34621Y123433D01*
X33989Y123171D01*
X33446Y122754D01*
X33029Y122211D01*
X32767Y121579D01*
X32678Y120900D01*
X32767Y120221D01*
X33029Y119589D01*
X33446Y119046D01*
X38346Y114146D01*
X38346Y114146D01*
X38889Y113729D01*
X39074Y113652D01*
X39521Y113467D01*
X40200Y113377D01*
X40200Y113378D01*
X43250D01*
Y111550D01*
X43978D01*
Y104450D01*
X43250D01*
Y95550D01*
X49950D01*
Y104450D01*
X49222D01*
Y111550D01*
X49950D01*
Y120450D01*
X43250D01*
Y118622D01*
X41286D01*
X37154Y122754D01*
X36611Y123171D01*
X35979Y123433D01*
X35300Y123522D01*
D02*
G37*
G36*
X216657Y96700D02*
X216100D01*
Y96143D01*
X216434Y96366D01*
X216657Y96700D01*
D02*
G37*
G36*
X5000Y98457D02*
X4666Y98234D01*
X4443Y97900D01*
X5000D01*
Y98457D01*
D02*
G37*
G36*
X7000D02*
Y97900D01*
X7557D01*
X7334Y98234D01*
X7000Y98457D01*
D02*
G37*
G36*
X288200Y96700D02*
X287643D01*
X287866Y96366D01*
X288200Y96143D01*
Y96700D01*
D02*
G37*
G36*
X290757D02*
X290200D01*
Y96143D01*
X290534Y96366D01*
X290757Y96700D01*
D02*
G37*
G36*
X222100Y94457D02*
Y93900D01*
X222657D01*
X222434Y94234D01*
X222100Y94457D01*
D02*
G37*
G36*
X349600Y94557D02*
X349266Y94334D01*
X349043Y94000D01*
X349600D01*
Y94557D01*
D02*
G37*
G36*
X301000Y97000D02*
X297000D01*
Y95307D01*
X297000D01*
X297000Y95307D01*
X297000Y95300D01*
X296300Y94600D01*
X293400D01*
Y93422D01*
X287900D01*
Y94900D01*
X285000D01*
Y92299D01*
Y89700D01*
X287900D01*
Y91178D01*
X293400D01*
Y89400D01*
X296293D01*
X297000Y88693D01*
Y87000D01*
X301000D01*
Y88700D01*
X299300D01*
X298600Y89400D01*
X298600Y89407D01*
X298600Y89407D01*
X298600D01*
Y91178D01*
X311494D01*
Y88644D01*
X317419D01*
Y95356D01*
X311494D01*
Y93422D01*
X298600D01*
Y94593D01*
X298600D01*
X298600Y94593D01*
X298600Y94600D01*
X299300Y95300D01*
X301000D01*
Y97000D01*
D02*
G37*
G36*
X220100Y94457D02*
X219766Y94234D01*
X219543Y93900D01*
X220100D01*
Y94457D01*
D02*
G37*
G36*
X351600Y94557D02*
Y94000D01*
X352157D01*
X351934Y94334D01*
X351600Y94557D01*
D02*
G37*
G36*
X7557Y95900D02*
X7000D01*
Y95343D01*
X7334Y95566D01*
X7557Y95900D01*
D02*
G37*
G36*
X274700Y96057D02*
X274366Y95834D01*
X274143Y95500D01*
X274700D01*
Y96057D01*
D02*
G37*
G36*
X307000Y97000D02*
X303000D01*
Y95300D01*
X307000D01*
Y97000D01*
D02*
G37*
G36*
X5000Y95900D02*
X4443D01*
X4666Y95566D01*
X5000Y95343D01*
Y95900D01*
D02*
G37*
G36*
X35157Y102300D02*
X34600D01*
Y101743D01*
X34934Y101966D01*
X35157Y102300D01*
D02*
G37*
G36*
X290439Y103781D02*
X289362D01*
Y103000D01*
X290439D01*
Y103781D01*
D02*
G37*
G36*
X318057Y102300D02*
X317500D01*
Y101743D01*
X317834Y101966D01*
X318057Y102300D01*
D02*
G37*
G36*
X32600D02*
X32043D01*
X32266Y101966D01*
X32600Y101743D01*
Y102300D01*
D02*
G37*
G36*
X106050Y113020D02*
X104849Y112862D01*
X103730Y112398D01*
X102769Y111661D01*
X102032Y110700D01*
X101568Y109581D01*
X101410Y108380D01*
X101568Y107179D01*
X102032Y106060D01*
X102769Y105099D01*
X103730Y104362D01*
X104849Y103898D01*
X106050Y103740D01*
X107251Y103898D01*
X108370Y104362D01*
X109331Y105099D01*
X110068Y106060D01*
X110532Y107179D01*
X110690Y108380D01*
X110532Y109581D01*
X110068Y110700D01*
X109331Y111661D01*
X108370Y112398D01*
X107251Y112862D01*
X106050Y113020D01*
D02*
G37*
G36*
X32600Y104857D02*
X32266Y104634D01*
X32043Y104300D01*
X32600D01*
Y104857D01*
D02*
G37*
G36*
X34600D02*
Y104300D01*
X35157D01*
X34934Y104634D01*
X34600Y104857D01*
D02*
G37*
G36*
X17300Y106700D02*
X13818D01*
X14155Y105885D01*
X14732Y105132D01*
X15484Y104555D01*
X16360Y104193D01*
X17300Y104069D01*
Y106700D01*
D02*
G37*
G36*
X22782D02*
X19300D01*
Y104069D01*
X20240Y104193D01*
X21115Y104555D01*
X21868Y105132D01*
X22445Y105885D01*
X22782Y106700D01*
D02*
G37*
G36*
X216100Y99257D02*
Y98700D01*
X216657D01*
X216434Y99034D01*
X216100Y99257D01*
D02*
G37*
G36*
X288200D02*
X287866Y99034D01*
X287643Y98700D01*
X288200D01*
Y99257D01*
D02*
G37*
G36*
X237521Y98772D02*
X236943D01*
X236478Y98679D01*
X236297Y98558D01*
X237521D01*
Y98772D01*
D02*
G37*
G36*
X214100Y99257D02*
X213766Y99034D01*
X213543Y98700D01*
X214100D01*
Y99257D01*
D02*
G37*
G36*
X290439Y101000D02*
X289362D01*
Y100219D01*
X287917D01*
X288208Y99262D01*
X288478Y99443D01*
X289200Y99586D01*
X289922Y99443D01*
X290200Y99257D01*
Y98700D01*
X290757D01*
X290534Y99034D01*
X290439Y99097D01*
X290439Y100219D01*
X290439D01*
Y101000D01*
D02*
G37*
G36*
X183719Y112056D02*
X177795D01*
Y105344D01*
X179125D01*
Y101556D01*
X177795D01*
Y99831D01*
X68750D01*
Y104450D01*
X67885D01*
X67251Y105223D01*
X67286Y105400D01*
X67143Y106122D01*
X66734Y106734D01*
X66122Y107143D01*
X65400Y107286D01*
X64678Y107143D01*
X64066Y106734D01*
X63657Y106122D01*
X63514Y105400D01*
X63549Y105223D01*
X62915Y104450D01*
X62050D01*
Y95550D01*
X68750D01*
Y96569D01*
X177795D01*
Y94844D01*
X179125D01*
Y90056D01*
X177795D01*
Y83344D01*
X183719D01*
Y90056D01*
X182388D01*
Y94844D01*
X183719D01*
Y101556D01*
X182388D01*
Y105344D01*
X183719D01*
Y112056D01*
D02*
G37*
G36*
X315500Y102300D02*
X314943D01*
X315166Y101966D01*
X315500Y101743D01*
Y102300D01*
D02*
G37*
G36*
X301000Y100700D02*
X297000D01*
Y99000D01*
X301000D01*
Y100700D01*
D02*
G37*
G36*
X307000D02*
X303000D01*
Y99000D01*
X307000D01*
Y100700D01*
D02*
G37*
G36*
X206700Y93857D02*
Y93300D01*
X207257D01*
X207034Y93634D01*
X206700Y93857D01*
D02*
G37*
G36*
X301000Y85000D02*
X297000D01*
Y83300D01*
X301000D01*
Y85000D01*
D02*
G37*
G36*
X307000D02*
X303000D01*
Y83300D01*
X307000D01*
Y85000D01*
D02*
G37*
G36*
X115600Y83557D02*
X115266Y83334D01*
X115043Y83000D01*
X115600D01*
Y83557D01*
D02*
G37*
G36*
X117600D02*
Y83000D01*
X118157D01*
X117934Y83334D01*
X117600Y83557D01*
D02*
G37*
G36*
X139800Y84757D02*
X139466Y84534D01*
X139243Y84200D01*
X139800D01*
Y84757D01*
D02*
G37*
G36*
X34000Y84957D02*
Y84400D01*
X34557D01*
X34334Y84734D01*
X34000Y84957D01*
D02*
G37*
G36*
X349500Y85500D02*
X348943D01*
X349166Y85166D01*
X349500Y84943D01*
Y85500D01*
D02*
G37*
G36*
X141800Y84757D02*
Y84200D01*
X142357D01*
X142134Y84534D01*
X141800Y84757D01*
D02*
G37*
G36*
X32000Y84957D02*
X31666Y84734D01*
X31443Y84400D01*
X32000D01*
Y84957D01*
D02*
G37*
G36*
X142357Y82200D02*
X141800D01*
Y81643D01*
X142134Y81866D01*
X142357Y82200D01*
D02*
G37*
G36*
X32000Y82400D02*
X31443D01*
X31666Y82066D01*
X32000Y81843D01*
Y82400D01*
D02*
G37*
G36*
X351500Y82057D02*
Y81500D01*
X352057D01*
X351834Y81834D01*
X351500Y82057D01*
D02*
G37*
G36*
X139800Y82200D02*
X139243D01*
X139466Y81866D01*
X139800Y81643D01*
Y82200D01*
D02*
G37*
G36*
X34557Y82400D02*
X34000D01*
Y81843D01*
X34334Y82066D01*
X34557Y82400D01*
D02*
G37*
G36*
X342800Y83357D02*
X342466Y83134D01*
X342243Y82800D01*
X342800D01*
Y83357D01*
D02*
G37*
G36*
X344800D02*
Y82800D01*
X345357D01*
X345134Y83134D01*
X344800Y83357D01*
D02*
G37*
G36*
X285600Y87700D02*
X285000D01*
Y85099D01*
Y82500D01*
X285600D01*
Y85099D01*
Y87700D01*
D02*
G37*
G36*
X287900Y84100D02*
X287600D01*
Y82500D01*
X287900D01*
Y84100D01*
D02*
G37*
G36*
X349600Y92000D02*
X349043D01*
X349266Y91666D01*
X349600Y91443D01*
Y92000D01*
D02*
G37*
G36*
X352157D02*
X351600D01*
Y91443D01*
X351934Y91666D01*
X352157Y92000D01*
D02*
G37*
G36*
X220100Y91900D02*
X219543D01*
X219766Y91566D01*
X220100Y91343D01*
Y91900D01*
D02*
G37*
G36*
X222657D02*
X222100D01*
Y91343D01*
X222434Y91566D01*
X222657Y91900D01*
D02*
G37*
G36*
X274700Y93500D02*
X274143D01*
X274366Y93166D01*
X274700Y92943D01*
Y93500D01*
D02*
G37*
G36*
X99400Y93657D02*
Y93100D01*
X99957D01*
X99734Y93434D01*
X99400Y93657D01*
D02*
G37*
G36*
X204700Y93857D02*
X204366Y93634D01*
X204143Y93300D01*
X204700D01*
Y93857D01*
D02*
G37*
G36*
X277257Y93500D02*
X276700D01*
Y92943D01*
X277034Y93166D01*
X277257Y93500D01*
D02*
G37*
G36*
X97400Y93657D02*
X97066Y93434D01*
X96843Y93100D01*
X97400D01*
Y93657D01*
D02*
G37*
G36*
X307000Y88700D02*
X303000D01*
Y87000D01*
X307000D01*
Y88700D01*
D02*
G37*
G36*
X349500Y88057D02*
X349166Y87834D01*
X348943Y87500D01*
X349500D01*
Y88057D01*
D02*
G37*
G36*
X352057Y85500D02*
X351500D01*
Y84943D01*
X351834Y85166D01*
X352057Y85500D01*
D02*
G37*
G36*
X287900Y87700D02*
X287600D01*
Y86100D01*
X287900D01*
Y87700D01*
D02*
G37*
G36*
X351500Y88057D02*
Y87500D01*
X352057D01*
X351834Y87834D01*
X351500Y88057D01*
D02*
G37*
G36*
X204700Y91300D02*
X204143D01*
X204366Y90966D01*
X204700Y90743D01*
Y91300D01*
D02*
G37*
G36*
X207257D02*
X206700D01*
Y90743D01*
X207034Y90966D01*
X207257Y91300D01*
D02*
G37*
G36*
X97400Y91100D02*
X96843D01*
X97066Y90766D01*
X97400Y90543D01*
Y91100D01*
D02*
G37*
G36*
X99957D02*
X99400D01*
Y90543D01*
X99734Y90766D01*
X99957Y91100D01*
D02*
G37*
G36*
X268857Y66100D02*
X268300D01*
Y65543D01*
X268634Y65766D01*
X268857Y66100D01*
D02*
G37*
G36*
X103600Y19757D02*
Y19200D01*
X104157D01*
X103934Y19534D01*
X103600Y19757D01*
D02*
G37*
G36*
X86300Y20757D02*
X85966Y20534D01*
X85743Y20200D01*
X86300D01*
Y20757D01*
D02*
G37*
G36*
X117700Y18957D02*
X117366Y18734D01*
X117143Y18400D01*
X117700D01*
Y18957D01*
D02*
G37*
G36*
X101600Y19757D02*
X101266Y19534D01*
X101043Y19200D01*
X101600D01*
Y19757D01*
D02*
G37*
G36*
X88300Y20757D02*
Y20200D01*
X88857D01*
X88634Y20534D01*
X88300Y20757D01*
D02*
G37*
G36*
X25100Y25600D02*
X24543D01*
X24766Y25266D01*
X25100Y25043D01*
Y25600D01*
D02*
G37*
G36*
X27657D02*
X27100D01*
Y25043D01*
X27434Y25266D01*
X27657Y25600D01*
D02*
G37*
G36*
X63400Y25400D02*
X62843D01*
X63066Y25066D01*
X63400Y24843D01*
Y25400D01*
D02*
G37*
G36*
X65957D02*
X65400D01*
Y24843D01*
X65734Y25066D01*
X65957Y25400D01*
D02*
G37*
G36*
X46100Y16557D02*
Y16000D01*
X46657D01*
X46434Y16334D01*
X46100Y16557D01*
D02*
G37*
G36*
X101600Y17200D02*
X101043D01*
X101266Y16866D01*
X101600Y16643D01*
Y17200D01*
D02*
G37*
G36*
X120257Y16400D02*
X119700D01*
Y15843D01*
X120034Y16066D01*
X120257Y16400D01*
D02*
G37*
G36*
X44100Y16557D02*
X43766Y16334D01*
X43543Y16000D01*
X44100D01*
Y16557D01*
D02*
G37*
G36*
X104157Y17200D02*
X103600D01*
Y16643D01*
X103934Y16866D01*
X104157Y17200D01*
D02*
G37*
G36*
X320583Y21198D02*
X319802D01*
Y17661D01*
X320583D01*
Y21198D01*
D02*
G37*
G36*
X323364D02*
X322583D01*
Y17661D01*
X323364D01*
Y21198D01*
D02*
G37*
G36*
X86300Y18200D02*
X85743D01*
X85966Y17866D01*
X86300Y17643D01*
Y18200D01*
D02*
G37*
G36*
X88857D02*
X88300D01*
Y17643D01*
X88634Y17866D01*
X88857Y18200D01*
D02*
G37*
G36*
X7000Y30157D02*
Y29600D01*
X7557D01*
X7334Y29934D01*
X7000Y30157D01*
D02*
G37*
G36*
X300300Y30857D02*
X299966Y30634D01*
X299743Y30300D01*
X300300D01*
Y30857D01*
D02*
G37*
G36*
X90600Y33000D02*
X87000D01*
Y29400D01*
X90600D01*
Y33000D01*
D02*
G37*
G36*
X5000Y30157D02*
X4666Y29934D01*
X4443Y29600D01*
X5000D01*
Y30157D01*
D02*
G37*
G36*
X302300Y30857D02*
Y30300D01*
X302857D01*
X302634Y30634D01*
X302300Y30857D01*
D02*
G37*
G36*
X72505Y89356D02*
X66581D01*
Y82644D01*
X72505D01*
Y83881D01*
X73429Y84263D01*
X81804Y75889D01*
X81518Y75201D01*
X81439Y74600D01*
X81360Y74000D01*
X81439Y73400D01*
X81518Y72799D01*
X81846Y72008D01*
X81982Y71680D01*
X82719Y70719D01*
X101410Y52028D01*
Y36380D01*
X101410Y36380D01*
X101410D01*
X101568Y35179D01*
X102032Y34060D01*
X102769Y33099D01*
X103730Y32362D01*
X104849Y31898D01*
X106050Y31740D01*
X107251Y31898D01*
X108370Y32362D01*
X109331Y33099D01*
X110068Y34060D01*
X110532Y35179D01*
X110690Y36380D01*
Y53950D01*
X110532Y55151D01*
X110260Y55806D01*
X110068Y56270D01*
X109748Y56687D01*
X109331Y57231D01*
X109331Y57231D01*
X89281Y77281D01*
X88320Y78018D01*
X87992Y78154D01*
X87201Y78482D01*
X86600Y78561D01*
X86000Y78640D01*
X85400Y78561D01*
X84799Y78482D01*
X84111Y78196D01*
X75153Y87154D01*
X74624Y87507D01*
X74000Y87631D01*
X72505D01*
Y89356D01*
D02*
G37*
G36*
X320662Y35739D02*
X319881D01*
Y32202D01*
X320662D01*
Y35739D01*
D02*
G37*
G36*
X113800Y31700D02*
X113243D01*
X113466Y31366D01*
X113800Y31143D01*
Y31700D01*
D02*
G37*
G36*
X116357D02*
X115800D01*
Y31143D01*
X116134Y31366D01*
X116357Y31700D01*
D02*
G37*
G36*
X63400Y27957D02*
X63066Y27734D01*
X62843Y27400D01*
X63400D01*
Y27957D01*
D02*
G37*
G36*
X65400D02*
Y27400D01*
X65957D01*
X65734Y27734D01*
X65400Y27957D01*
D02*
G37*
G36*
X5000Y27600D02*
X4443D01*
X4666Y27266D01*
X5000Y27043D01*
Y27600D01*
D02*
G37*
G36*
X7557D02*
X7000D01*
Y27043D01*
X7334Y27266D01*
X7557Y27600D01*
D02*
G37*
G36*
X25100Y28157D02*
X24766Y27934D01*
X24543Y27600D01*
X25100D01*
Y28157D01*
D02*
G37*
G36*
X302857Y28300D02*
X302300D01*
Y27743D01*
X302634Y27966D01*
X302857Y28300D01*
D02*
G37*
G36*
X85000Y33000D02*
X81400D01*
Y29400D01*
X85000D01*
Y33000D01*
D02*
G37*
G36*
X27100Y28157D02*
Y27600D01*
X27657D01*
X27434Y27934D01*
X27100Y28157D01*
D02*
G37*
G36*
X300300Y28300D02*
X299743D01*
X299966Y27966D01*
X300300Y27743D01*
Y28300D01*
D02*
G37*
G36*
X117700Y16400D02*
X117143D01*
X117366Y16066D01*
X117700Y15843D01*
Y16400D01*
D02*
G37*
G36*
X94500Y5257D02*
Y4700D01*
X95057D01*
X94834Y5034D01*
X94500Y5257D01*
D02*
G37*
G36*
X244200Y6000D02*
X243643D01*
X243866Y5666D01*
X244200Y5443D01*
Y6000D01*
D02*
G37*
G36*
X63600Y5157D02*
Y4600D01*
X64157D01*
X63934Y4934D01*
X63600Y5157D01*
D02*
G37*
G36*
X92500Y5257D02*
X92166Y5034D01*
X91943Y4700D01*
X92500D01*
Y5257D01*
D02*
G37*
G36*
X246757Y6000D02*
X246200D01*
Y5443D01*
X246534Y5666D01*
X246757Y6000D01*
D02*
G37*
G36*
X259500Y6400D02*
X258943D01*
X259166Y6066D01*
X259500Y5843D01*
Y6400D01*
D02*
G37*
G36*
X262057D02*
X261500D01*
Y5843D01*
X261834Y6066D01*
X262057Y6400D01*
D02*
G37*
G36*
X277100Y6100D02*
X276543D01*
X276766Y5766D01*
X277100Y5543D01*
Y6100D01*
D02*
G37*
G36*
X279657D02*
X279100D01*
Y5543D01*
X279434Y5766D01*
X279657Y6100D01*
D02*
G37*
G36*
X136000Y2900D02*
X135443D01*
X135666Y2566D01*
X136000Y2343D01*
Y2900D01*
D02*
G37*
G36*
X138557D02*
X138000D01*
Y2343D01*
X138334Y2566D01*
X138557Y2900D01*
D02*
G37*
G36*
X92500Y2700D02*
X91943D01*
X92166Y2366D01*
X92500Y2143D01*
Y2700D01*
D02*
G37*
G36*
X95057D02*
X94500D01*
Y2143D01*
X94834Y2366D01*
X95057Y2700D01*
D02*
G37*
G36*
X172000Y3100D02*
X171443D01*
X171666Y2766D01*
X172000Y2543D01*
Y3100D01*
D02*
G37*
G36*
X340300Y25333D02*
X338637Y25202D01*
X337014Y24812D01*
X335473Y24174D01*
X334050Y23302D01*
X332782Y22219D01*
X331698Y20950D01*
X330826Y19527D01*
X330188Y17986D01*
X329798Y16363D01*
X329667Y14700D01*
X329798Y13037D01*
X330188Y11414D01*
X330826Y9873D01*
X331698Y8450D01*
X332782Y7181D01*
X334050Y6098D01*
X335473Y5226D01*
X337014Y4588D01*
X338637Y4198D01*
X340300Y4067D01*
X341963Y4198D01*
X343586Y4588D01*
X345127Y5226D01*
X346550Y6098D01*
X347818Y7181D01*
X348902Y8450D01*
X349774Y9873D01*
X350412Y11414D01*
X350802Y13037D01*
X350933Y14700D01*
X350802Y16363D01*
X350412Y17986D01*
X349774Y19527D01*
X348902Y20950D01*
X347818Y22219D01*
X346550Y23302D01*
X345127Y24174D01*
X343586Y24812D01*
X341963Y25202D01*
X340300Y25333D01*
D02*
G37*
G36*
X61600Y5157D02*
X61266Y4934D01*
X61043Y4600D01*
X61600D01*
Y5157D01*
D02*
G37*
G36*
X174557Y3100D02*
X174000D01*
Y2543D01*
X174334Y2766D01*
X174557Y3100D01*
D02*
G37*
G36*
X18300Y25333D02*
X16637Y25202D01*
X15014Y24812D01*
X13473Y24174D01*
X12050Y23302D01*
X10781Y22219D01*
X9698Y20950D01*
X8826Y19527D01*
X8188Y17986D01*
X7798Y16363D01*
X7667Y14700D01*
X7798Y13037D01*
X8188Y11414D01*
X8826Y9873D01*
X9698Y8450D01*
X10781Y7181D01*
X12050Y6098D01*
X13473Y5226D01*
X15014Y4588D01*
X16637Y4198D01*
X18300Y4067D01*
X19963Y4198D01*
X21586Y4588D01*
X23127Y5226D01*
X24550Y6098D01*
X25818Y7181D01*
X26902Y8450D01*
X27774Y9873D01*
X28412Y11414D01*
X28802Y13037D01*
X28933Y14700D01*
X28802Y16363D01*
X28412Y17986D01*
X27774Y19527D01*
X26902Y20950D01*
X25818Y22219D01*
X24550Y23302D01*
X23127Y24174D01*
X21586Y24812D01*
X19963Y25202D01*
X18300Y25333D01*
D02*
G37*
G36*
X295500Y9157D02*
Y8600D01*
X296057D01*
X295834Y8934D01*
X295500Y9157D01*
D02*
G37*
G36*
X314100Y9357D02*
X313766Y9134D01*
X313543Y8800D01*
X314100D01*
Y9357D01*
D02*
G37*
G36*
X261500Y8957D02*
Y8400D01*
X262057D01*
X261834Y8734D01*
X261500Y8957D01*
D02*
G37*
G36*
X293500Y9157D02*
X293166Y8934D01*
X292943Y8600D01*
X293500D01*
Y9157D01*
D02*
G37*
G36*
X316100Y9357D02*
Y8800D01*
X316657D01*
X316434Y9134D01*
X316100Y9357D01*
D02*
G37*
G36*
X44100Y14000D02*
X43543D01*
X43766Y13666D01*
X44100Y13443D01*
Y14000D01*
D02*
G37*
G36*
X46657D02*
X46100D01*
Y13443D01*
X46434Y13666D01*
X46657Y14000D01*
D02*
G37*
G36*
X320583Y15661D02*
X319802D01*
Y12124D01*
X320583D01*
Y15661D01*
D02*
G37*
G36*
X323364D02*
X322583D01*
Y12124D01*
X323364D01*
Y15661D01*
D02*
G37*
G36*
X314100Y6800D02*
X313543D01*
X313766Y6466D01*
X314100Y6243D01*
Y6800D01*
D02*
G37*
G36*
X316657D02*
X316100D01*
Y6243D01*
X316434Y6466D01*
X316657Y6800D01*
D02*
G37*
G36*
X293500Y6600D02*
X292943D01*
X293166Y6266D01*
X293500Y6043D01*
Y6600D01*
D02*
G37*
G36*
X296057D02*
X295500D01*
Y6043D01*
X295834Y6266D01*
X296057Y6600D01*
D02*
G37*
G36*
X244200Y8557D02*
X243866Y8334D01*
X243643Y8000D01*
X244200D01*
Y8557D01*
D02*
G37*
G36*
X279100Y8657D02*
Y8100D01*
X279657D01*
X279434Y8434D01*
X279100Y8657D01*
D02*
G37*
G36*
X259500Y8957D02*
X259166Y8734D01*
X258943Y8400D01*
X259500D01*
Y8957D01*
D02*
G37*
G36*
X246200Y8557D02*
Y8000D01*
X246757D01*
X246534Y8334D01*
X246200Y8557D01*
D02*
G37*
G36*
X277100Y8657D02*
X276766Y8434D01*
X276543Y8100D01*
X277100D01*
Y8657D01*
D02*
G37*
G36*
X282576Y61009D02*
X280023D01*
Y59047D01*
X282576D01*
Y61009D01*
D02*
G37*
G36*
X287128D02*
X284576D01*
Y59047D01*
X287128D01*
Y61009D01*
D02*
G37*
G36*
X275300Y59139D02*
X274519D01*
Y58062D01*
X275300D01*
Y59139D01*
D02*
G37*
G36*
X278081D02*
X277300D01*
Y58062D01*
X278081D01*
Y59139D01*
D02*
G37*
G36*
X274500Y61900D02*
X273943D01*
X274166Y61566D01*
X274500Y61343D01*
Y61900D01*
D02*
G37*
G36*
X343657Y62100D02*
X343100D01*
Y61543D01*
X343434Y61766D01*
X343657Y62100D01*
D02*
G37*
G36*
X65419Y89356D02*
X59495D01*
Y82644D01*
X60845D01*
X60949Y82119D01*
X61303Y81590D01*
X70369Y72524D01*
X70369Y72524D01*
D01*
X69986Y71600D01*
X68400D01*
Y64400D01*
X70878D01*
Y62465D01*
X69807Y61393D01*
X69564Y61029D01*
X69478Y60600D01*
X69478Y60600D01*
Y17576D01*
X69266Y17434D01*
X68857Y16822D01*
X68714Y16100D01*
X68857Y15378D01*
X69266Y14766D01*
X69878Y14357D01*
X70600Y14214D01*
X71322Y14357D01*
X71934Y14766D01*
X72343Y15378D01*
X72486Y16100D01*
X72343Y16822D01*
X71934Y17434D01*
X71722Y17576D01*
Y60135D01*
X72793Y61207D01*
X72793Y61207D01*
X73036Y61571D01*
X73036Y61571D01*
X73036Y61571D01*
X73122Y62000D01*
X73122Y62000D01*
Y64400D01*
X75600D01*
Y71600D01*
X73631D01*
Y73200D01*
X73507Y73824D01*
X73154Y74353D01*
X65256Y82251D01*
X65419Y82644D01*
X65419D01*
X65419Y82644D01*
Y89356D01*
D02*
G37*
G36*
X277057Y61900D02*
X276500D01*
Y61343D01*
X276834Y61566D01*
X277057Y61900D01*
D02*
G37*
G36*
X341100Y62100D02*
X340543D01*
X340766Y61766D01*
X341100Y61543D01*
Y62100D01*
D02*
G37*
G36*
X7000Y49957D02*
Y49400D01*
X7557D01*
X7334Y49734D01*
X7000Y49957D01*
D02*
G37*
G36*
X299300Y51338D02*
X298519D01*
Y50261D01*
X299300D01*
Y51338D01*
D02*
G37*
G36*
X296577Y50353D02*
X294024D01*
Y48391D01*
X296577D01*
Y50353D01*
D02*
G37*
G36*
X5000Y49957D02*
X4666Y49734D01*
X4443Y49400D01*
X5000D01*
Y49957D01*
D02*
G37*
G36*
X302081Y51338D02*
X301300D01*
Y50261D01*
X302081D01*
Y51338D01*
D02*
G37*
G36*
X341400Y55257D02*
X341066Y55034D01*
X340843Y54700D01*
X341400D01*
Y55257D01*
D02*
G37*
G36*
X343400D02*
Y54700D01*
X343957D01*
X343734Y55034D01*
X343400Y55257D01*
D02*
G37*
G36*
X341400Y52700D02*
X340843D01*
X341066Y52366D01*
X341400Y52143D01*
Y52700D01*
D02*
G37*
G36*
X343957D02*
X343400D01*
Y52143D01*
X343734Y52366D01*
X343957Y52700D01*
D02*
G37*
G36*
X104500Y65800D02*
X103943D01*
X104166Y65466D01*
X104500Y65243D01*
Y65800D01*
D02*
G37*
G36*
X107057D02*
X106500D01*
Y65243D01*
X106834Y65466D01*
X107057Y65800D01*
D02*
G37*
G36*
X53300D02*
X52743D01*
X52966Y65466D01*
X53300Y65243D01*
Y65800D01*
D02*
G37*
G36*
X55857D02*
X55300D01*
Y65243D01*
X55634Y65466D01*
X55857Y65800D01*
D02*
G37*
G36*
X80800Y66000D02*
X80243D01*
X80466Y65666D01*
X80800Y65443D01*
Y66000D01*
D02*
G37*
G36*
X115557D02*
X115000D01*
Y65443D01*
X115334Y65666D01*
X115557Y66000D01*
D02*
G37*
G36*
X266300Y66100D02*
X265743D01*
X265966Y65766D01*
X266300Y65543D01*
Y66100D01*
D02*
G37*
G36*
X83357Y66000D02*
X82800D01*
Y65443D01*
X83134Y65666D01*
X83357Y66000D01*
D02*
G37*
G36*
X113000D02*
X112443D01*
X112666Y65666D01*
X113000Y65443D01*
Y66000D01*
D02*
G37*
G36*
X34600Y70586D02*
X33878Y70443D01*
X33266Y70034D01*
X32857Y69422D01*
X32714Y68700D01*
X32857Y67978D01*
X33266Y67366D01*
X33878Y66957D01*
X34075Y66918D01*
X34510Y66483D01*
Y63825D01*
X40435D01*
Y68175D01*
X37432D01*
X36382Y69225D01*
X36343Y69422D01*
X35934Y70034D01*
X35322Y70443D01*
X34600Y70586D01*
D02*
G37*
G36*
X274500Y64457D02*
X274166Y64234D01*
X273943Y63900D01*
X274500D01*
Y64457D01*
D02*
G37*
G36*
X28100Y64100D02*
X27543D01*
X27766Y63766D01*
X28100Y63543D01*
Y64100D01*
D02*
G37*
G36*
X30657D02*
X30100D01*
Y63543D01*
X30434Y63766D01*
X30657Y64100D01*
D02*
G37*
G36*
X276500Y64457D02*
Y63900D01*
X277057D01*
X276834Y64234D01*
X276500Y64457D01*
D02*
G37*
G36*
X61000Y67000D02*
X58518D01*
X58855Y66185D01*
X59432Y65432D01*
X60185Y64855D01*
X61000Y64518D01*
Y67000D01*
D02*
G37*
G36*
X65482D02*
X63000D01*
Y64518D01*
X63815Y64855D01*
X64568Y65432D01*
X65145Y66185D01*
X65482Y67000D01*
D02*
G37*
G36*
X341100Y64657D02*
X340766Y64434D01*
X340543Y64100D01*
X341100D01*
Y64657D01*
D02*
G37*
G36*
X343100D02*
Y64100D01*
X343657D01*
X343434Y64434D01*
X343100Y64657D01*
D02*
G37*
G36*
X292024Y50353D02*
X289472D01*
Y48391D01*
X292024D01*
Y50353D01*
D02*
G37*
G36*
X63600Y38257D02*
X63266Y38034D01*
X63043Y37700D01*
X63600D01*
Y38257D01*
D02*
G37*
G36*
X65600D02*
Y37700D01*
X66157D01*
X65934Y38034D01*
X65600Y38257D01*
D02*
G37*
G36*
X75000Y36657D02*
X74666Y36434D01*
X74443Y36100D01*
X75000D01*
Y36657D01*
D02*
G37*
G36*
X77000D02*
Y36100D01*
X77557D01*
X77334Y36434D01*
X77000Y36657D01*
D02*
G37*
G36*
X320662Y41276D02*
X319881D01*
Y37739D01*
X320662D01*
Y41276D01*
D02*
G37*
G36*
X343957Y40000D02*
X343400D01*
Y39443D01*
X343734Y39666D01*
X343957Y40000D01*
D02*
G37*
G36*
X22900Y47300D02*
X13700D01*
Y40100D01*
X18439D01*
X18865Y39924D01*
X19543Y39834D01*
X19543Y39834D01*
X36644D01*
Y39494D01*
X43356D01*
Y45419D01*
X36644D01*
Y45079D01*
X22900D01*
Y47300D01*
D02*
G37*
G36*
X323443Y41276D02*
X322662D01*
Y37739D01*
X323443D01*
Y41276D01*
D02*
G37*
G36*
X341400Y40000D02*
X340843D01*
X341066Y39666D01*
X341400Y39443D01*
Y40000D01*
D02*
G37*
G36*
X77557Y34100D02*
X77000D01*
Y33543D01*
X77334Y33766D01*
X77557Y34100D01*
D02*
G37*
G36*
X113800Y34257D02*
X113466Y34034D01*
X113243Y33700D01*
X113800D01*
Y34257D01*
D02*
G37*
G36*
X323443Y35739D02*
X322662D01*
Y32202D01*
X323443D01*
Y35739D01*
D02*
G37*
G36*
X75000Y34100D02*
X74443D01*
X74666Y33766D01*
X75000Y33543D01*
Y34100D01*
D02*
G37*
G36*
X115800Y34257D02*
Y33700D01*
X116357D01*
X116134Y34034D01*
X115800Y34257D01*
D02*
G37*
G36*
X63600Y35700D02*
X63043D01*
X63266Y35366D01*
X63600Y35143D01*
Y35700D01*
D02*
G37*
G36*
X66157D02*
X65600D01*
Y35143D01*
X65934Y35366D01*
X66157Y35700D01*
D02*
G37*
G36*
X85000Y38600D02*
X81400D01*
Y35000D01*
X85000D01*
Y38600D01*
D02*
G37*
G36*
X90600D02*
X87000D01*
Y35000D01*
X90600D01*
Y38600D01*
D02*
G37*
G36*
X303100Y46057D02*
X302766Y45834D01*
X302543Y45500D01*
X303100D01*
Y46057D01*
D02*
G37*
G36*
X305100D02*
Y45500D01*
X305657D01*
X305434Y45834D01*
X305100Y46057D01*
D02*
G37*
G36*
X282300Y45257D02*
X281966Y45034D01*
X281743Y44700D01*
X282300D01*
Y45257D01*
D02*
G37*
G36*
X284300D02*
Y44700D01*
X284857D01*
X284634Y45034D01*
X284300Y45257D01*
D02*
G37*
G36*
X19300Y57331D02*
X17300D01*
X16360Y57207D01*
X15484Y56845D01*
X14732Y56268D01*
X14155Y55515D01*
X13793Y54640D01*
X13669Y53700D01*
X13793Y52760D01*
X14155Y51885D01*
X14732Y51133D01*
X15484Y50555D01*
X16360Y50193D01*
X17300Y50069D01*
X19300D01*
X20240Y50193D01*
X21115Y50555D01*
X21796Y51078D01*
X34757D01*
X36644Y49191D01*
Y46581D01*
X43356D01*
Y52505D01*
X40747D01*
X37698Y55554D01*
X37154Y55971D01*
X36522Y56233D01*
X35843Y56322D01*
X35843Y56322D01*
X21796D01*
X21115Y56845D01*
X20240Y57207D01*
X19300Y57331D01*
D02*
G37*
G36*
X7557Y47400D02*
X7000D01*
Y46843D01*
X7334Y47066D01*
X7557Y47400D01*
D02*
G37*
G36*
X324300Y62239D02*
X322829Y62095D01*
X321415Y61665D01*
X320111Y60969D01*
X318969Y60031D01*
X318031Y58889D01*
X317335Y57585D01*
X316905Y56171D01*
X316761Y54700D01*
X316905Y53229D01*
X317335Y51815D01*
X318031Y50511D01*
X318969Y49369D01*
X320111Y48431D01*
X321415Y47734D01*
X322829Y47306D01*
X324300Y47161D01*
X325771Y47306D01*
X327185Y47734D01*
X328489Y48431D01*
X329631Y49369D01*
X330569Y50511D01*
X331265Y51815D01*
X331695Y53229D01*
X331839Y54700D01*
X331695Y56171D01*
X331265Y57585D01*
X330569Y58889D01*
X329631Y60031D01*
X328489Y60969D01*
X327185Y61665D01*
X325771Y62095D01*
X324300Y62239D01*
D02*
G37*
G36*
X49490Y64435D02*
X43565D01*
Y60085D01*
X47116D01*
X48878Y58323D01*
Y52505D01*
X46644D01*
Y46581D01*
X53356D01*
Y52505D01*
X51121D01*
Y58787D01*
X51122Y58787D01*
X51036Y59217D01*
X50793Y59580D01*
X50793Y59580D01*
X49490Y60884D01*
Y64435D01*
D02*
G37*
G36*
X5000Y47400D02*
X4443D01*
X4666Y47066D01*
X5000Y46843D01*
Y47400D01*
D02*
G37*
G36*
X341400Y42557D02*
X341066Y42334D01*
X340843Y42000D01*
X341400D01*
Y42557D01*
D02*
G37*
G36*
X343400D02*
Y42000D01*
X343957D01*
X343734Y42334D01*
X343400Y42557D01*
D02*
G37*
G36*
X292000Y41600D02*
X291443D01*
X291666Y41266D01*
X292000Y41043D01*
Y41600D01*
D02*
G37*
G36*
X294557D02*
X294000D01*
Y41043D01*
X294334Y41266D01*
X294557Y41600D01*
D02*
G37*
G36*
X284857Y42700D02*
X284300D01*
Y42143D01*
X284634Y42366D01*
X284857Y42700D01*
D02*
G37*
G36*
X292000Y44157D02*
X291666Y43934D01*
X291443Y43600D01*
X292000D01*
Y44157D01*
D02*
G37*
G36*
X294000D02*
Y43600D01*
X294557D01*
X294334Y43934D01*
X294000Y44157D01*
D02*
G37*
G36*
X303100Y43500D02*
X302543D01*
X302766Y43166D01*
X303100Y42943D01*
Y43500D01*
D02*
G37*
G36*
X305657D02*
X305100D01*
Y42943D01*
X305434Y43166D01*
X305657Y43500D01*
D02*
G37*
G36*
X189600Y157457D02*
X189266Y157234D01*
X189043Y156900D01*
X189600D01*
Y157457D01*
D02*
G37*
G36*
X191600D02*
Y156900D01*
X192157D01*
X191934Y157234D01*
X191600Y157457D01*
D02*
G37*
G36*
X138500D02*
X138166Y157234D01*
X137943Y156900D01*
X138500D01*
Y157457D01*
D02*
G37*
G36*
X140500D02*
Y156900D01*
X141057D01*
X140834Y157234D01*
X140500Y157457D01*
D02*
G37*
G36*
X249200Y158657D02*
X248866Y158434D01*
X248643Y158100D01*
X249200D01*
Y158657D01*
D02*
G37*
G36*
X324800Y159157D02*
Y158600D01*
X325357D01*
X325134Y158934D01*
X324800Y159157D01*
D02*
G37*
G36*
X182000Y161500D02*
X181443D01*
X181666Y161166D01*
X182000Y160943D01*
Y161500D01*
D02*
G37*
G36*
X251200Y158657D02*
Y158100D01*
X251757D01*
X251534Y158434D01*
X251200Y158657D01*
D02*
G37*
G36*
X322800Y159157D02*
X322466Y158934D01*
X322243Y158600D01*
X322800D01*
Y159157D01*
D02*
G37*
G36*
X49600Y159700D02*
X47000D01*
Y156600D01*
X49600D01*
Y159700D01*
D02*
G37*
G36*
X138500Y154900D02*
X137943D01*
X138166Y154566D01*
X138500Y154343D01*
Y154900D01*
D02*
G37*
G36*
X141057D02*
X140500D01*
Y154343D01*
X140834Y154566D01*
X141057Y154900D01*
D02*
G37*
G36*
X189600D02*
X189043D01*
X189266Y154566D01*
X189600Y154343D01*
Y154900D01*
D02*
G37*
G36*
X192157D02*
X191600D01*
Y154343D01*
X191934Y154566D01*
X192157Y154900D01*
D02*
G37*
G36*
X249200Y156100D02*
X248643D01*
X248866Y155766D01*
X249200Y155543D01*
Y156100D01*
D02*
G37*
G36*
X325357Y156600D02*
X324800D01*
Y156043D01*
X325134Y156266D01*
X325357Y156600D01*
D02*
G37*
G36*
X45000Y159700D02*
X42400D01*
Y156600D01*
X45000D01*
Y159700D01*
D02*
G37*
G36*
X251757Y156100D02*
X251200D01*
Y155543D01*
X251534Y155766D01*
X251757Y156100D01*
D02*
G37*
G36*
X322800Y156600D02*
X322243D01*
X322466Y156266D01*
X322800Y156043D01*
Y156600D01*
D02*
G37*
G36*
X322500Y165400D02*
X321943D01*
X322166Y165066D01*
X322500Y164843D01*
Y165400D01*
D02*
G37*
G36*
X325057D02*
X324500D01*
Y164843D01*
X324834Y165066D01*
X325057Y165400D01*
D02*
G37*
G36*
X4900Y165000D02*
X4343D01*
X4566Y164666D01*
X4900Y164443D01*
Y165000D01*
D02*
G37*
G36*
X7457D02*
X6900D01*
Y164443D01*
X7234Y164666D01*
X7457Y165000D01*
D02*
G37*
G36*
X254000Y165557D02*
X253666Y165334D01*
X253443Y165000D01*
X254000D01*
Y165557D01*
D02*
G37*
G36*
X279100Y166257D02*
Y165700D01*
X279657D01*
X279434Y166034D01*
X279100Y166257D01*
D02*
G37*
G36*
X19100Y187333D02*
X17437Y187202D01*
X15814Y186812D01*
X14273Y186174D01*
X12850Y185302D01*
X11581Y184219D01*
X10498Y182950D01*
X9626Y181527D01*
X8988Y179986D01*
X8598Y178363D01*
X8467Y176700D01*
X8598Y175037D01*
X8988Y173414D01*
X9626Y171873D01*
X10498Y170450D01*
X11581Y169182D01*
X12850Y168098D01*
X14273Y167226D01*
X15814Y166588D01*
X17437Y166198D01*
X19100Y166067D01*
X20763Y166198D01*
X22386Y166588D01*
X23927Y167226D01*
X25350Y168098D01*
X26618Y169182D01*
X27702Y170450D01*
X28574Y171873D01*
X29212Y173414D01*
X29602Y175037D01*
X29733Y176700D01*
X29602Y178363D01*
X29212Y179986D01*
X28574Y181527D01*
X27702Y182950D01*
X26618Y184219D01*
X25350Y185302D01*
X23927Y186174D01*
X22386Y186812D01*
X20763Y187202D01*
X19100Y187333D01*
D02*
G37*
G36*
X256000Y165557D02*
Y165000D01*
X256557D01*
X256334Y165334D01*
X256000Y165557D01*
D02*
G37*
G36*
X277100Y166257D02*
X276766Y166034D01*
X276543Y165700D01*
X277100D01*
Y166257D01*
D02*
G37*
G36*
X78101Y168313D02*
X77629Y167431D01*
X63700D01*
X63076Y167307D01*
X62546Y166954D01*
X60393Y164800D01*
X55000D01*
Y156600D01*
X56969D01*
Y150495D01*
X56302Y149828D01*
X53472D01*
Y146659D01*
X56788D01*
X57024Y146612D01*
X57261Y146659D01*
X60577D01*
Y149828D01*
X60231D01*
Y156600D01*
X62200D01*
Y161993D01*
X64376Y164169D01*
X105097D01*
X105600Y164069D01*
X117712D01*
X117878Y163957D01*
X118600Y163814D01*
X119322Y163957D01*
X119934Y164366D01*
X120343Y164978D01*
X120486Y165700D01*
X120343Y166422D01*
X119934Y167034D01*
X119322Y167443D01*
X118600Y167586D01*
X117878Y167443D01*
X117712Y167331D01*
X106003D01*
X105500Y167431D01*
X81971D01*
X81499Y168313D01*
X81357Y168100D01*
X78243D01*
X78101Y168313D01*
D02*
G37*
G36*
X49600Y164800D02*
X47000D01*
Y161700D01*
X49600D01*
Y164800D01*
D02*
G37*
G36*
X254000Y163000D02*
X253443D01*
X253666Y162666D01*
X254000Y162443D01*
Y163000D01*
D02*
G37*
G36*
X184557Y161500D02*
X184000D01*
Y160943D01*
X184334Y161166D01*
X184557Y161500D01*
D02*
G37*
G36*
X45000Y164800D02*
X42400D01*
Y161700D01*
X45000D01*
Y164800D01*
D02*
G37*
G36*
X256557Y163000D02*
X256000D01*
Y162443D01*
X256334Y162666D01*
X256557Y163000D01*
D02*
G37*
G36*
X182000Y164057D02*
X181666Y163834D01*
X181443Y163500D01*
X182000D01*
Y164057D01*
D02*
G37*
G36*
X184000D02*
Y163500D01*
X184557D01*
X184334Y163834D01*
X184000Y164057D01*
D02*
G37*
G36*
X277100Y163700D02*
X276543D01*
X276766Y163366D01*
X277100Y163143D01*
Y163700D01*
D02*
G37*
G36*
X279657D02*
X279100D01*
Y163143D01*
X279434Y163366D01*
X279657Y163700D01*
D02*
G37*
G36*
X322800Y148300D02*
X322243D01*
X322466Y147966D01*
X322800Y147743D01*
Y148300D01*
D02*
G37*
G36*
X325357D02*
X324800D01*
Y147743D01*
X325134Y147966D01*
X325357Y148300D01*
D02*
G37*
G36*
X209900Y148200D02*
X209343D01*
X209566Y147866D01*
X209900Y147643D01*
Y148200D01*
D02*
G37*
G36*
X212457D02*
X211900D01*
Y147643D01*
X212234Y147866D01*
X212457Y148200D01*
D02*
G37*
G36*
X252900Y148357D02*
X252566Y148134D01*
X252343Y147800D01*
X252900D01*
Y148357D01*
D02*
G37*
G36*
X221557Y148400D02*
X221000D01*
Y147843D01*
X221334Y148066D01*
X221557Y148400D01*
D02*
G37*
G36*
X199300Y148600D02*
X198743D01*
X198966Y148266D01*
X199300Y148043D01*
Y148600D01*
D02*
G37*
G36*
X254900Y148357D02*
Y147800D01*
X255457D01*
X255234Y148134D01*
X254900Y148357D01*
D02*
G37*
G36*
X219000Y148400D02*
X218443D01*
X218666Y148066D01*
X219000Y147843D01*
Y148400D01*
D02*
G37*
G36*
X19000Y153631D02*
X17000D01*
X16060Y153507D01*
X15184Y153145D01*
X14433Y152568D01*
X13855Y151815D01*
X13493Y150940D01*
X13369Y150000D01*
X13493Y149060D01*
X13855Y148185D01*
X14433Y147432D01*
X15184Y146855D01*
X16060Y146493D01*
X17000Y146369D01*
X19000D01*
X19940Y146493D01*
X20816Y146855D01*
X21567Y147432D01*
X22145Y148185D01*
X22507Y149060D01*
X22631Y150000D01*
X22507Y150940D01*
X22145Y151815D01*
X21567Y152568D01*
X20816Y153145D01*
X19940Y153507D01*
X19000Y153631D01*
D02*
G37*
G36*
X252900Y145800D02*
X252343D01*
X252566Y145466D01*
X252900Y145243D01*
Y145800D01*
D02*
G37*
G36*
X255457D02*
X254900D01*
Y145243D01*
X255234Y145466D01*
X255457Y145800D01*
D02*
G37*
G36*
X5300Y144100D02*
X4743D01*
X4966Y143766D01*
X5300Y143543D01*
Y144100D01*
D02*
G37*
G36*
X7857D02*
X7300D01*
Y143543D01*
X7634Y143766D01*
X7857Y144100D01*
D02*
G37*
G36*
X82300Y145957D02*
X81966Y145734D01*
X81743Y145400D01*
X82300D01*
Y145957D01*
D02*
G37*
G36*
X5300Y146657D02*
X4966Y146434D01*
X4743Y146100D01*
X5300D01*
Y146657D01*
D02*
G37*
G36*
X7300D02*
Y146100D01*
X7857D01*
X7634Y146434D01*
X7300Y146657D01*
D02*
G37*
G36*
X84300Y145957D02*
Y145400D01*
X84857D01*
X84634Y145734D01*
X84300Y145957D01*
D02*
G37*
G36*
X47576Y152911D02*
X46854Y152767D01*
X46242Y152358D01*
X45833Y151746D01*
X45689Y151024D01*
X45735Y150797D01*
X45100Y150024D01*
X44023D01*
Y146462D01*
Y145700D01*
X51128D01*
Y146462D01*
Y150024D01*
X50051D01*
X49417Y150797D01*
X49462Y151024D01*
X49318Y151746D01*
X48909Y152358D01*
X48297Y152767D01*
X47576Y152911D01*
D02*
G37*
G36*
X299557Y151400D02*
X299000D01*
Y150843D01*
X299334Y151066D01*
X299557Y151400D01*
D02*
G37*
G36*
X268739Y151700D02*
X267662D01*
Y150919D01*
X268739D01*
Y151700D01*
D02*
G37*
G36*
X201300Y151157D02*
Y150600D01*
X201857D01*
X201634Y150934D01*
X201300Y151157D01*
D02*
G37*
G36*
X297000Y151400D02*
X296443D01*
X296666Y151066D01*
X297000Y150843D01*
Y151400D01*
D02*
G37*
G36*
X106050Y160260D02*
X104849Y160102D01*
X103730Y159638D01*
X102769Y158901D01*
X102032Y157940D01*
X101568Y156821D01*
X101410Y155620D01*
X101568Y154419D01*
X102032Y153300D01*
X102769Y152339D01*
X103730Y151602D01*
X104849Y151138D01*
X106050Y150980D01*
X107251Y151138D01*
X108370Y151602D01*
X109331Y152339D01*
X110068Y153300D01*
X110532Y154419D01*
X110690Y155620D01*
X110532Y156821D01*
X110068Y157940D01*
X109331Y158901D01*
X108370Y159638D01*
X107251Y160102D01*
X106050Y160260D01*
D02*
G37*
G36*
X211850Y177600D02*
X208150D01*
Y172400D01*
X211850D01*
Y173369D01*
X219495D01*
Y170244D01*
X220825D01*
Y162450D01*
X216050D01*
Y153550D01*
X222750D01*
Y159043D01*
X223610Y159903D01*
X223964Y160432D01*
X224088Y161057D01*
Y170244D01*
X225419D01*
Y176956D01*
X219495D01*
Y176631D01*
X211850D01*
Y177600D01*
D02*
G37*
G36*
X268739Y154481D02*
X267662D01*
Y153700D01*
X268739D01*
Y154481D01*
D02*
G37*
G36*
X297000Y153957D02*
X296666Y153734D01*
X296443Y153400D01*
X297000D01*
Y153957D01*
D02*
G37*
G36*
X299000D02*
Y153400D01*
X299557D01*
X299334Y153734D01*
X299000Y153957D01*
D02*
G37*
G36*
X199300Y151157D02*
X198966Y150934D01*
X198743Y150600D01*
X199300D01*
Y151157D01*
D02*
G37*
G36*
X68081Y149139D02*
X67300D01*
Y148062D01*
X68081D01*
Y149139D01*
D02*
G37*
G36*
X209900Y150757D02*
X209566Y150534D01*
X209343Y150200D01*
X209900D01*
Y150757D01*
D02*
G37*
G36*
X201857Y148600D02*
X201300D01*
Y148043D01*
X201634Y148266D01*
X201857Y148600D01*
D02*
G37*
G36*
X65300Y149139D02*
X64519D01*
Y148062D01*
X65300D01*
Y149139D01*
D02*
G37*
G36*
X211900Y150757D02*
Y150200D01*
X212457D01*
X212234Y150534D01*
X211900Y150757D01*
D02*
G37*
G36*
X219000Y150957D02*
X218666Y150734D01*
X218443Y150400D01*
X219000D01*
Y150957D01*
D02*
G37*
G36*
X221000D02*
Y150400D01*
X221557D01*
X221334Y150734D01*
X221000Y150957D01*
D02*
G37*
G36*
X322800Y150857D02*
X322466Y150634D01*
X322243Y150300D01*
X322800D01*
Y150857D01*
D02*
G37*
G36*
X324800D02*
Y150300D01*
X325357D01*
X325134Y150634D01*
X324800Y150857D01*
D02*
G37*
G36*
X260938Y167700D02*
X259861D01*
Y166919D01*
X260938D01*
Y167700D01*
D02*
G37*
G36*
X125000Y183457D02*
X124666Y183234D01*
X124443Y182900D01*
X125000D01*
Y183457D01*
D02*
G37*
G36*
X127000D02*
Y182900D01*
X127557D01*
X127334Y183234D01*
X127000Y183457D01*
D02*
G37*
G36*
X102200D02*
X101866Y183234D01*
X101643Y182900D01*
X102200D01*
Y183457D01*
D02*
G37*
G36*
X104200D02*
Y182900D01*
X104757D01*
X104534Y183234D01*
X104200Y183457D01*
D02*
G37*
G36*
X67300Y187182D02*
X66484Y186845D01*
X65732Y186268D01*
X65155Y185515D01*
X64793Y184640D01*
X64669Y183700D01*
X67300D01*
Y187182D01*
D02*
G37*
G36*
X246100Y189900D02*
X237900D01*
Y187422D01*
X233700D01*
X233700Y187422D01*
X233271Y187336D01*
X232907Y187093D01*
X232907Y187093D01*
X228750Y182936D01*
X228507Y182572D01*
X228422Y182143D01*
X228422Y182143D01*
Y176956D01*
X226581D01*
Y170244D01*
X230592D01*
X234369Y166468D01*
Y143490D01*
X233825D01*
Y137565D01*
X238175D01*
Y143490D01*
X237631D01*
Y167143D01*
X237507Y167768D01*
X237154Y168297D01*
X232505Y172945D01*
Y176956D01*
X230665D01*
Y181679D01*
X234165Y185178D01*
X237900D01*
Y182700D01*
X246100D01*
Y189900D01*
D02*
G37*
G36*
X268000Y192100D02*
X267443D01*
X267666Y191766D01*
X268000Y191543D01*
Y192100D01*
D02*
G37*
G36*
X69300Y187182D02*
Y183700D01*
X71931D01*
X71807Y184640D01*
X71445Y185515D01*
X70868Y186268D01*
X70116Y186845D01*
X69300Y187182D01*
D02*
G37*
G36*
X280300Y189283D02*
X279373Y189161D01*
X278508Y188803D01*
X277766Y188234D01*
X277197Y187492D01*
X276919Y186822D01*
X263700D01*
X263700Y186822D01*
X263271Y186736D01*
X262907Y186493D01*
X260515Y184101D01*
X260272Y183737D01*
X260186Y183308D01*
X260186Y183308D01*
Y179050D01*
X258708D01*
Y178253D01*
X258476Y178207D01*
X257946Y177854D01*
X256075Y175982D01*
X255878Y175943D01*
X255266Y175534D01*
X254857Y174922D01*
X254714Y174200D01*
X254857Y173478D01*
X255266Y172866D01*
X255878Y172457D01*
X256600Y172314D01*
X257322Y172457D01*
X257934Y172866D01*
X258343Y173478D01*
X258382Y173675D01*
X259057Y174350D01*
X263908D01*
Y174350D01*
X263908D01*
X263908Y174350D01*
X264692D01*
D01*
X265541Y174350D01*
Y170481D01*
X264721D01*
Y170481D01*
X264721Y170481D01*
X264586Y170481D01*
X264300D01*
X264014D01*
X263879Y170481D01*
X263879Y170481D01*
Y170481D01*
X262938D01*
Y168699D01*
Y166919D01*
X264014D01*
X264014Y166919D01*
Y166919D01*
X264014D01*
X264586D01*
X264663D01*
X265134Y166037D01*
X265057Y165922D01*
X264914Y165200D01*
X265057Y164478D01*
X265422Y163932D01*
X265071Y163275D01*
X264921Y163050D01*
X264692D01*
D01*
D01*
X264692Y163050D01*
X263908D01*
Y163050D01*
X258708D01*
Y158350D01*
X260186D01*
Y154481D01*
X259861D01*
Y150919D01*
X264014D01*
Y150919D01*
X264586D01*
X264721Y150919D01*
X264721Y150919D01*
Y150919D01*
X265662D01*
Y152699D01*
Y154481D01*
X264721D01*
Y154481D01*
X264721Y154481D01*
X264586Y154481D01*
X264300D01*
X264014D01*
X263879Y154481D01*
X263879Y154481D01*
Y154481D01*
X262429D01*
Y158350D01*
X263908D01*
Y158350D01*
X263908D01*
X263908Y158350D01*
X264692D01*
Y158350D01*
X269892D01*
Y163050D01*
X268414D01*
Y164285D01*
X268543Y164478D01*
X268686Y165200D01*
X268543Y165922D01*
X268134Y166534D01*
X267921Y166676D01*
Y166919D01*
X268739D01*
Y170481D01*
X267784D01*
Y174350D01*
X269892D01*
Y179050D01*
X264692D01*
D01*
D01*
X264692Y179050D01*
X263908D01*
Y179050D01*
X262429D01*
Y182843D01*
X264165Y184578D01*
X276919D01*
X277197Y183908D01*
X277766Y183166D01*
X278508Y182597D01*
X279373Y182239D01*
X280300Y182117D01*
X281227Y182239D01*
X282092Y182597D01*
X282834Y183166D01*
X283403Y183908D01*
X283761Y184773D01*
X283883Y185700D01*
X283761Y186627D01*
X283403Y187492D01*
X282834Y188234D01*
X282092Y188803D01*
X281227Y189161D01*
X280300Y189283D01*
D02*
G37*
G36*
X163500Y183057D02*
Y182500D01*
X164057D01*
X163834Y182834D01*
X163500Y183057D01*
D02*
G37*
G36*
X290300Y189283D02*
X289373Y189161D01*
X288508Y188803D01*
X287766Y188234D01*
X287197Y187492D01*
X286839Y186627D01*
X286717Y185700D01*
X286839Y184773D01*
X287116Y184102D01*
X284907Y181893D01*
X284664Y181529D01*
X284578Y181100D01*
X284578Y181100D01*
Y179253D01*
X283853D01*
Y179253D01*
X281300D01*
Y175699D01*
Y172147D01*
X283853D01*
Y172147D01*
X283871D01*
X284578Y171440D01*
Y155365D01*
X278035Y148822D01*
X262800D01*
X262800Y148822D01*
X262371Y148736D01*
X262007Y148493D01*
X262007Y148493D01*
X252420Y138906D01*
X252177Y138542D01*
X252091Y138113D01*
X252091Y138113D01*
Y105890D01*
X251318Y105256D01*
X251244Y105271D01*
X251171Y105256D01*
X250397Y105890D01*
Y119824D01*
X250398Y119824D01*
X250312Y120253D01*
X250069Y120617D01*
X245293Y125393D01*
X244929Y125636D01*
X244500Y125722D01*
X244500Y125722D01*
X215765D01*
X215066Y126420D01*
X215449Y127344D01*
X215719D01*
Y134056D01*
X209794D01*
Y127344D01*
X210631D01*
X211635Y127143D01*
X211720Y126714D01*
X211964Y126350D01*
X214507Y123807D01*
X214871Y123564D01*
X215300Y123478D01*
X215300Y123478D01*
X244035D01*
X248154Y119359D01*
Y105890D01*
X247381Y105256D01*
X247307Y105271D01*
X247234Y105256D01*
X246461Y105890D01*
Y112161D01*
X246461Y112161D01*
X246375Y112590D01*
X246132Y112954D01*
X246132Y112954D01*
X245637Y113450D01*
X245686Y113700D01*
X245543Y114422D01*
X245134Y115034D01*
X244522Y115443D01*
X243800Y115586D01*
X243162Y115459D01*
X242081D01*
Y116279D01*
X242081D01*
X242081Y116279D01*
X242081Y116414D01*
Y116700D01*
Y116986D01*
X242081Y117121D01*
X242081Y117121D01*
X242081D01*
Y118062D01*
X238519D01*
Y117121D01*
X238519D01*
X238519Y117121D01*
X238519Y116986D01*
Y116414D01*
D01*
D01*
X238519D01*
Y112374D01*
X237595Y111991D01*
X236081Y113505D01*
Y116279D01*
X236081D01*
X236081Y116279D01*
X236081Y116414D01*
Y116700D01*
Y116986D01*
X236081Y117121D01*
X236081Y117121D01*
X236081D01*
Y118062D01*
X232519D01*
Y117121D01*
X232519D01*
X232519Y117121D01*
X232519Y116986D01*
Y116414D01*
D01*
D01*
X232519D01*
Y112261D01*
X234153D01*
X242190Y104224D01*
X242157Y104057D01*
Y99332D01*
Y99332D01*
X242249Y98867D01*
X241668Y98772D01*
X241668Y98772D01*
Y98772D01*
X239521D01*
Y97557D01*
X238522D01*
Y96803D01*
X236943D01*
X236478Y96711D01*
X236274Y96574D01*
X236085Y96700D01*
Y96448D01*
X235822Y96054D01*
X235729Y95590D01*
X235822Y95126D01*
X236085Y94732D01*
Y94479D01*
X235822Y94086D01*
X235729Y93621D01*
X235822Y93157D01*
X236066Y92791D01*
X235829Y92128D01*
X235822Y92117D01*
X235818Y92097D01*
X235729Y91850D01*
X234814Y91572D01*
X220965Y105421D01*
Y115344D01*
X222806D01*
Y122056D01*
X216881D01*
Y115344D01*
X218722D01*
Y104957D01*
X218722Y104957D01*
X218807Y104527D01*
X219050Y104164D01*
X230520Y92694D01*
X230300Y91586D01*
X229578Y91443D01*
X228966Y91034D01*
X228557Y90422D01*
X228414Y89700D01*
X228557Y88978D01*
X228966Y88366D01*
X229578Y87957D01*
X230047Y87864D01*
X229949Y86869D01*
X199847D01*
X199847Y86869D01*
X199418Y86783D01*
X199054Y86540D01*
X199054Y86540D01*
X190135Y77622D01*
X101465D01*
X89193Y89893D01*
X88829Y90136D01*
X88809Y90140D01*
X84756Y94193D01*
X84392Y94436D01*
X83963Y94522D01*
X83963Y94522D01*
X23065D01*
X22122Y95464D01*
X22445Y95885D01*
X22807Y96760D01*
X22931Y97700D01*
X22807Y98640D01*
X22445Y99515D01*
X21868Y100268D01*
X21115Y100845D01*
X20240Y101207D01*
X19300Y101331D01*
X17300D01*
X16360Y101207D01*
X15484Y100845D01*
X14732Y100268D01*
X14155Y99515D01*
X13793Y98640D01*
X13669Y97700D01*
X13793Y96760D01*
X14155Y95885D01*
X14732Y95132D01*
X15484Y94555D01*
X16360Y94193D01*
X17300Y94069D01*
X19300D01*
X20223Y94191D01*
X21626Y92788D01*
X21607Y92593D01*
X21607Y92593D01*
X20223Y91210D01*
X19300Y91331D01*
X17300D01*
X16360Y91207D01*
X15484Y90845D01*
X14732Y90268D01*
X14155Y89516D01*
X13793Y88640D01*
X13669Y87700D01*
X13793Y86760D01*
X14155Y85884D01*
X14732Y85132D01*
X15484Y84555D01*
X16360Y84193D01*
X17300Y84069D01*
X19300D01*
X20240Y84193D01*
X21115Y84555D01*
X21868Y85132D01*
X22445Y85884D01*
X22807Y86760D01*
X22931Y87700D01*
X22807Y88640D01*
X22445Y89516D01*
X22122Y89936D01*
X22865Y90678D01*
X82835D01*
X99407Y74107D01*
X99771Y73864D01*
X100200Y73778D01*
X100200Y73778D01*
X119457D01*
X119747Y72821D01*
X119466Y72634D01*
X119057Y72022D01*
X118914Y71300D01*
X119057Y70578D01*
X119466Y69966D01*
X119678Y69824D01*
Y19880D01*
X118906Y19245D01*
X119422Y19143D01*
X119700Y18957D01*
Y18400D01*
X120114D01*
X120456Y18058D01*
X120586Y17400D01*
X120467Y16800D01*
X121424Y17090D01*
X129069Y9445D01*
X128686Y8522D01*
X74065D01*
X51121Y31465D01*
Y39494D01*
X53356D01*
Y45419D01*
X46644D01*
Y39494D01*
X48878D01*
Y31000D01*
X48878Y31000D01*
X48964Y30571D01*
X49207Y30207D01*
X72807Y6607D01*
X72807Y6607D01*
X73171Y6364D01*
X73171Y6364D01*
X73171Y6364D01*
D01*
X73171Y6364D01*
X73171Y6364D01*
X73600Y6278D01*
X92307D01*
X92597Y5322D01*
X92778Y5443D01*
X93500Y5586D01*
X94222Y5443D01*
X94403Y5322D01*
X94693Y6278D01*
X135507D01*
X135798Y5322D01*
X135666Y5234D01*
X135443Y4900D01*
X138557D01*
X138334Y5234D01*
X138203Y5322D01*
X138493Y6278D01*
X171102D01*
X171442Y5769D01*
X171641Y5396D01*
X171443Y5100D01*
X174557D01*
X174359Y5396D01*
X174558Y5769D01*
X174898Y6278D01*
X229700D01*
X229700Y6278D01*
X230129Y6364D01*
X230493Y6607D01*
X235193Y11307D01*
X235193Y11307D01*
X235436Y11671D01*
X235522Y12100D01*
Y40835D01*
X237555Y42869D01*
X238478Y42486D01*
Y15276D01*
X238266Y15134D01*
X237857Y14522D01*
X237714Y13800D01*
X237857Y13078D01*
X238266Y12466D01*
X238878Y12057D01*
X239600Y11914D01*
X240322Y12057D01*
X240934Y12466D01*
X241343Y13078D01*
X241486Y13800D01*
X241343Y14522D01*
X240934Y15134D01*
X240722Y15276D01*
Y19251D01*
X241719Y19317D01*
X241793Y18760D01*
X242155Y17885D01*
X242733Y17132D01*
X243484Y16555D01*
X244360Y16193D01*
X245006Y16108D01*
X249907Y11207D01*
X249907Y11207D01*
X250271Y10964D01*
X250271Y10964D01*
X250271Y10964D01*
D01*
X250271Y10964D01*
X250271Y10964D01*
X250700Y10878D01*
X270600D01*
X270600Y10878D01*
X271029Y10964D01*
X271393Y11207D01*
X277064Y16878D01*
X277484Y16555D01*
X278360Y16193D01*
X279300Y16069D01*
X280240Y16193D01*
X281116Y16555D01*
X281868Y17132D01*
X282445Y17885D01*
X282807Y18760D01*
X282931Y19700D01*
Y21700D01*
X282807Y22640D01*
X282445Y23516D01*
X281868Y24268D01*
X281116Y24845D01*
X280240Y25207D01*
X279300Y25331D01*
X278360Y25207D01*
X277541Y24868D01*
X276986Y25700D01*
X278493Y27207D01*
X278493Y27207D01*
X278736Y27571D01*
X278736Y27571D01*
X278736Y27571D01*
X278822Y28000D01*
X278821Y28000D01*
Y37386D01*
X279745Y37769D01*
X288178Y29335D01*
Y25300D01*
X285700D01*
Y16100D01*
X292900D01*
Y25300D01*
X290422D01*
Y29800D01*
X290336Y30229D01*
X290093Y30593D01*
X290093Y30593D01*
X285992Y34694D01*
X286375Y35618D01*
X305236D01*
Y32202D01*
X305895D01*
Y21198D01*
X305236D01*
Y12124D01*
X308798D01*
Y21198D01*
X308138D01*
Y32202D01*
X308798D01*
Y33589D01*
X309578Y34757D01*
X310300Y34614D01*
X311022Y34757D01*
X311634Y35166D01*
X312043Y35778D01*
X312186Y36500D01*
X312043Y37222D01*
X311634Y37834D01*
X311022Y38243D01*
X310300Y38386D01*
X309578Y38243D01*
X308798Y39411D01*
Y41276D01*
X305236D01*
Y37861D01*
X285088D01*
X281404Y41545D01*
X282038Y42318D01*
X282038Y42318D01*
X282038D01*
X282300Y42143D01*
Y42700D01*
X281743D01*
X281918Y42438D01*
X281145Y41804D01*
X267921Y55027D01*
Y61200D01*
X267922Y61200D01*
X267836Y61629D01*
X267593Y61993D01*
X267593Y61993D01*
X262209Y67378D01*
Y72881D01*
X262300Y73343D01*
Y78068D01*
X262468Y78721D01*
D01*
X262468Y78721D01*
X262932Y78628D01*
X265707D01*
X266679Y77657D01*
Y75676D01*
X266466Y75534D01*
X266057Y74922D01*
X265914Y74200D01*
X266057Y73478D01*
X266466Y72866D01*
X267078Y72457D01*
X267800Y72314D01*
X268522Y72457D01*
X269134Y72866D01*
X269543Y73478D01*
X269683Y74185D01*
X270678Y74087D01*
Y54300D01*
X270678Y54300D01*
X270764Y53871D01*
X271007Y53507D01*
X272969Y51545D01*
X273333Y51302D01*
X273762Y51216D01*
X273762Y51216D01*
X273762Y51216D01*
X273812D01*
X274519Y50509D01*
Y50261D01*
X278081D01*
Y51216D01*
X280023D01*
Y48391D01*
X287128D01*
Y54316D01*
D01*
Y54316D01*
X287128Y54316D01*
Y55084D01*
X287128D01*
Y57047D01*
X280023D01*
Y55084D01*
X280023Y55084D01*
X280023Y54316D01*
D01*
X280023Y53459D01*
X278081D01*
Y54279D01*
X278081D01*
X278081Y54279D01*
X278081Y54414D01*
Y54700D01*
Y54986D01*
X278081Y55121D01*
X278081Y55121D01*
X278081D01*
Y56062D01*
X274519D01*
Y55121D01*
X274519D01*
X274519Y55121D01*
X274519Y54986D01*
X273947Y54414D01*
X273629Y54414D01*
X272921Y55121D01*
Y61707D01*
X273878Y61997D01*
X273757Y62178D01*
X273614Y62900D01*
X273757Y63622D01*
X273878Y63803D01*
X272921Y64093D01*
Y66557D01*
X273879Y66847D01*
X274066Y66566D01*
X274400Y66343D01*
Y67901D01*
X275399D01*
Y68900D01*
X276957D01*
X277143Y68622D01*
X277287Y67900D01*
X277250Y67717D01*
X278207Y68007D01*
X283607Y62607D01*
X283607Y62607D01*
X283971Y62364D01*
X283971Y62364D01*
X283971Y62364D01*
D01*
X283971Y62364D01*
X283971Y62364D01*
X284400Y62278D01*
X284400Y62278D01*
X287206D01*
X289472Y60013D01*
Y55084D01*
X289472Y55084D01*
X289472Y54316D01*
X289472D01*
Y52354D01*
X296577D01*
Y54316D01*
D01*
Y54316D01*
X296577Y54316D01*
Y55084D01*
D01*
X296577Y55941D01*
X298519D01*
Y55121D01*
X298519D01*
X298519Y55121D01*
X298519Y54986D01*
Y54414D01*
D01*
D01*
D01*
D01*
X298519D01*
Y53338D01*
X302081D01*
Y54279D01*
X302081D01*
X302081Y54279D01*
X302081Y54414D01*
Y54700D01*
Y54986D01*
X302081Y55121D01*
X302081Y55121D01*
X302081D01*
Y59139D01*
X298519D01*
Y58184D01*
X296577D01*
Y61009D01*
X291648D01*
X288464Y64193D01*
X288100Y64436D01*
X287671Y64522D01*
X287671Y64522D01*
X284865D01*
X281479Y67907D01*
Y68136D01*
X281561Y68219D01*
X281708Y68219D01*
X281708Y68219D01*
X281708Y68219D01*
X285714D01*
X285714Y68219D01*
Y68219D01*
X285714D01*
X286286D01*
X286421Y68219D01*
X286421Y68219D01*
Y68219D01*
X287362D01*
Y69999D01*
Y71781D01*
X286421D01*
Y71781D01*
X286421Y71781D01*
X286286Y71781D01*
X286000D01*
X285714D01*
X285579Y71781D01*
X285579Y71781D01*
Y71781D01*
X284759D01*
Y74219D01*
X285714Y74219D01*
D01*
D01*
Y74219D01*
X285714D01*
X286286D01*
X286421Y74219D01*
X286421Y74219D01*
Y74219D01*
X287362D01*
Y76001D01*
X288361D01*
Y77000D01*
X290439D01*
Y77692D01*
X290439Y77692D01*
D01*
X290439Y77693D01*
X290439Y77781D01*
X290421Y77868D01*
Y77868D01*
X290322Y78365D01*
X290305Y78454D01*
X289600Y78313D01*
X288878Y78457D01*
X288600Y78643D01*
Y79200D01*
X288043D01*
X288207Y78954D01*
X287991Y78455D01*
X287699Y78018D01*
X286286Y77781D01*
X286286D01*
X286000D01*
X285714D01*
X285579Y77781D01*
X285579Y77781D01*
Y77781D01*
X282346D01*
X282263Y77904D01*
X281651Y78313D01*
X280929Y78457D01*
X280679Y78407D01*
X272546Y86540D01*
X272618Y86778D01*
X278135D01*
X280100Y84814D01*
Y82500D01*
X283000D01*
Y85099D01*
Y87700D01*
X280386D01*
X279393Y88693D01*
Y88707D01*
X279393D01*
X280386Y89700D01*
X283000D01*
Y92299D01*
Y94900D01*
X280100D01*
Y92586D01*
X278135Y90622D01*
X270177D01*
X270029Y90720D01*
X269600Y90806D01*
X269600Y90806D01*
X269490D01*
X268856Y91579D01*
X268871Y91653D01*
X268778Y92117D01*
X268515Y92511D01*
Y92763D01*
X268778Y93157D01*
X268871Y93621D01*
X268778Y94086D01*
X268983Y94468D01*
X270890D01*
X270890Y94468D01*
X271319Y94554D01*
X271683Y94797D01*
X277765Y100878D01*
X279624D01*
X279766Y100666D01*
X280378Y100257D01*
X281100Y100114D01*
X281629Y100219D01*
X285714D01*
X285714Y100219D01*
Y100219D01*
X285714D01*
X286286D01*
X286421Y100219D01*
X286421Y100219D01*
Y100219D01*
X287362D01*
Y101999D01*
Y103781D01*
X286421D01*
Y103781D01*
X286421Y103781D01*
X286286Y103781D01*
X286000D01*
X285714D01*
X285579Y103781D01*
X285579Y103781D01*
Y103781D01*
X281629D01*
X281100Y103886D01*
X280378Y103743D01*
X279766Y103334D01*
X279624Y103122D01*
X277300D01*
X276871Y103036D01*
X276507Y102793D01*
X276507Y102793D01*
X270438Y96724D01*
X269439Y96773D01*
X268856Y97484D01*
X268871Y97558D01*
X268778Y98023D01*
X268519Y98411D01*
X276986Y106878D01*
X281561D01*
Y106219D01*
X285714D01*
Y106219D01*
X286286D01*
X286421Y106219D01*
X286421Y106219D01*
Y106219D01*
X287362D01*
Y107999D01*
Y109781D01*
X286421D01*
Y109781D01*
X286421Y109781D01*
X286286Y109781D01*
X286000D01*
X285714D01*
X285579Y109781D01*
X285579Y109781D01*
Y109781D01*
X281561D01*
Y109122D01*
X276521D01*
X276092Y109036D01*
X275728Y108793D01*
X275728Y108793D01*
X274745Y107810D01*
X273863Y108281D01*
X273843Y108178D01*
X273657Y107900D01*
X272099D01*
Y108899D01*
X271100D01*
Y110457D01*
X271378Y110643D01*
X272100Y110786D01*
X272206Y110765D01*
X271916Y111722D01*
X272455Y112261D01*
X274081D01*
Y112578D01*
X279324D01*
X279466Y112366D01*
X280078Y111957D01*
X280800Y111814D01*
X281522Y111957D01*
X282134Y112366D01*
X282543Y112978D01*
X282686Y113700D01*
X282543Y114422D01*
X282134Y115034D01*
X281522Y115443D01*
X280800Y115586D01*
X280078Y115443D01*
X279466Y115034D01*
X279324Y114822D01*
X274081D01*
Y116279D01*
X274081D01*
X274081Y116279D01*
X274081Y116414D01*
Y116700D01*
Y116986D01*
X274081Y117121D01*
X274081Y117121D01*
X274081D01*
Y118062D01*
X272299D01*
Y119061D01*
X271300D01*
Y121139D01*
X270552D01*
X270170Y122063D01*
X274664Y126557D01*
X279790D01*
Y127216D01*
X282519D01*
Y126261D01*
X286081D01*
Y130279D01*
X286081D01*
X286081Y130279D01*
X286081Y130414D01*
Y130700D01*
Y130986D01*
X286081Y131121D01*
X286081Y131121D01*
X286081D01*
Y132062D01*
X282519D01*
Y131121D01*
X282519D01*
X282519Y131121D01*
X282519Y130986D01*
Y130414D01*
X282519D01*
X282519Y129459D01*
X280048D01*
X279790Y129718D01*
Y134843D01*
X274653D01*
Y129718D01*
X259195Y114260D01*
X258272Y114643D01*
Y116585D01*
X268172Y126486D01*
X268172Y126486D01*
X268219Y126557D01*
X269947D01*
Y134843D01*
X264810D01*
Y129718D01*
X264552Y129459D01*
X262081D01*
Y130279D01*
X262081D01*
X262081Y130279D01*
X262081Y130414D01*
Y130700D01*
Y130986D01*
X262081Y131121D01*
X262081Y131121D01*
X262081D01*
Y132062D01*
X258519D01*
Y131121D01*
X258519D01*
X258519Y131121D01*
X258519Y130986D01*
Y130414D01*
D01*
D01*
X258519D01*
Y126261D01*
X262081D01*
Y127216D01*
X264424D01*
X264806Y126292D01*
X257227Y118713D01*
X256303Y119096D01*
Y137017D01*
X264165Y144878D01*
X279400D01*
X279400Y144878D01*
X279829Y144964D01*
X280193Y145207D01*
X291093Y156107D01*
X291093Y156107D01*
X291336Y156471D01*
X291336Y156471D01*
X291336Y156471D01*
X291422Y156900D01*
X291422Y156900D01*
Y172319D01*
X292092Y172597D01*
X292834Y173166D01*
X293403Y173908D01*
X293761Y174773D01*
X293883Y175700D01*
X293761Y176627D01*
X293403Y177492D01*
X292834Y178234D01*
X292092Y178803D01*
X291227Y179161D01*
X290300Y179283D01*
X289373Y179161D01*
X288508Y178803D01*
X287766Y178234D01*
X286822Y178959D01*
Y180635D01*
X288702Y182516D01*
X289373Y182239D01*
X290300Y182117D01*
X291227Y182239D01*
X292092Y182597D01*
X292834Y183166D01*
X293403Y183908D01*
X293761Y184773D01*
X293883Y185700D01*
X293761Y186627D01*
X293403Y187492D01*
X292834Y188234D01*
X292092Y188803D01*
X291227Y189161D01*
X290300Y189283D01*
D02*
G37*
G36*
X300300D02*
X299373Y189161D01*
X298508Y188803D01*
X297766Y188234D01*
X297197Y187492D01*
X296839Y186627D01*
X296717Y185700D01*
X296839Y184773D01*
X297197Y183908D01*
X297766Y183166D01*
X298508Y182597D01*
X299373Y182239D01*
X300300Y182117D01*
X301227Y182239D01*
X302092Y182597D01*
X302834Y183166D01*
X303403Y183908D01*
X303761Y184773D01*
X303883Y185700D01*
X303761Y186627D01*
X303403Y187492D01*
X302834Y188234D01*
X302092Y188803D01*
X301227Y189161D01*
X300300Y189283D01*
D02*
G37*
G36*
X125000Y180900D02*
X124443D01*
X124666Y180566D01*
X125000Y180343D01*
Y180900D01*
D02*
G37*
G36*
X127557D02*
X127000D01*
Y180343D01*
X127334Y180566D01*
X127557Y180900D01*
D02*
G37*
G36*
X310300Y189283D02*
X309373Y189161D01*
X308508Y188803D01*
X307766Y188234D01*
X307197Y187492D01*
X306839Y186627D01*
X306717Y185700D01*
X306839Y184773D01*
X307197Y183908D01*
X307766Y183166D01*
X308508Y182597D01*
X309373Y182239D01*
X310300Y182117D01*
X311227Y182239D01*
X312092Y182597D01*
X312834Y183166D01*
X313403Y183908D01*
X313761Y184773D01*
X313883Y185700D01*
X313761Y186627D01*
X313403Y187492D01*
X312834Y188234D01*
X312092Y188803D01*
X311227Y189161D01*
X310300Y189283D01*
D02*
G37*
G36*
X146900Y183057D02*
Y182500D01*
X147457D01*
X147234Y182834D01*
X146900Y183057D01*
D02*
G37*
G36*
X161500D02*
X161166Y182834D01*
X160943Y182500D01*
X161500D01*
Y183057D01*
D02*
G37*
G36*
X320300Y189283D02*
X319373Y189161D01*
X318508Y188803D01*
X317766Y188234D01*
X317197Y187492D01*
X316839Y186627D01*
X316717Y185700D01*
X316839Y184773D01*
X317197Y183908D01*
X317766Y183166D01*
X318508Y182597D01*
X319373Y182239D01*
X320300Y182117D01*
X321227Y182239D01*
X322092Y182597D01*
X322834Y183166D01*
X323403Y183908D01*
X323761Y184773D01*
X323883Y185700D01*
X323761Y186627D01*
X323403Y187492D01*
X322834Y188234D01*
X322092Y188803D01*
X321227Y189161D01*
X320300Y189283D01*
D02*
G37*
G36*
X144900Y183057D02*
X144566Y182834D01*
X144343Y182500D01*
X144900D01*
Y183057D01*
D02*
G37*
G36*
X243500Y195457D02*
X243166Y195234D01*
X242943Y194900D01*
X243500D01*
Y195457D01*
D02*
G37*
G36*
X245500D02*
Y194900D01*
X246057D01*
X245834Y195234D01*
X245500Y195457D01*
D02*
G37*
G36*
X150300Y195000D02*
X149743D01*
X149966Y194666D01*
X150300Y194443D01*
Y195000D01*
D02*
G37*
G36*
X152857D02*
X152300D01*
Y194443D01*
X152634Y194666D01*
X152857Y195000D01*
D02*
G37*
G36*
X205800Y196157D02*
X205466Y195934D01*
X205243Y195600D01*
X205800D01*
Y196157D01*
D02*
G37*
G36*
X192800Y196657D02*
Y196100D01*
X193357D01*
X193134Y196434D01*
X192800Y196657D01*
D02*
G37*
G36*
X152300Y197557D02*
Y197000D01*
X152857D01*
X152634Y197334D01*
X152300Y197557D01*
D02*
G37*
G36*
X207800Y196157D02*
Y195600D01*
X208357D01*
X208134Y195934D01*
X207800Y196157D01*
D02*
G37*
G36*
X190800Y196657D02*
X190466Y196434D01*
X190243Y196100D01*
X190800D01*
Y196657D01*
D02*
G37*
G36*
X151364Y194126D02*
X151300Y194114D01*
X151236Y194126D01*
X151138Y193131D01*
X60800D01*
X60176Y193007D01*
X59646Y192654D01*
X57147Y190154D01*
X56793Y189624D01*
X56669Y189000D01*
Y187300D01*
X54700D01*
Y178100D01*
X61900D01*
Y187300D01*
X59931D01*
Y188324D01*
X61476Y189869D01*
X178124D01*
X179900Y188093D01*
Y182700D01*
X188100D01*
Y187369D01*
X199400D01*
Y187150D01*
X202369D01*
Y177600D01*
X202150D01*
Y172400D01*
X202369D01*
Y162450D01*
X197250D01*
Y153550D01*
X203950D01*
Y159043D01*
X205153Y160247D01*
X205507Y160776D01*
X205631Y161400D01*
Y172400D01*
X205850D01*
Y177600D01*
X205631D01*
Y187150D01*
X208600D01*
Y190850D01*
X199400D01*
Y190631D01*
X186700D01*
X186076Y190507D01*
X185547Y190154D01*
X185293Y189900D01*
X182707D01*
X179954Y192654D01*
X179424Y193007D01*
X178800Y193131D01*
X151462D01*
X151364Y194126D01*
D02*
G37*
G36*
X246057Y192900D02*
X245500D01*
Y192343D01*
X245834Y192566D01*
X246057Y192900D01*
D02*
G37*
G36*
X205800Y193600D02*
X205243D01*
X205466Y193266D01*
X205800Y193043D01*
Y193600D01*
D02*
G37*
G36*
X270557Y192100D02*
X270000D01*
Y191543D01*
X270334Y191766D01*
X270557Y192100D01*
D02*
G37*
G36*
X243500Y192900D02*
X242943D01*
X243166Y192566D01*
X243500Y192343D01*
Y192900D01*
D02*
G37*
G36*
X208357Y193600D02*
X207800D01*
Y193043D01*
X208134Y193266D01*
X208357Y193600D01*
D02*
G37*
G36*
X268000Y194657D02*
X267666Y194434D01*
X267443Y194100D01*
X268000D01*
Y194657D01*
D02*
G37*
G36*
X270000D02*
Y194100D01*
X270557D01*
X270334Y194434D01*
X270000Y194657D01*
D02*
G37*
G36*
X190800Y194100D02*
X190243D01*
X190466Y193766D01*
X190800Y193543D01*
Y194100D01*
D02*
G37*
G36*
X193357D02*
X192800D01*
Y193543D01*
X193134Y193766D01*
X193357Y194100D01*
D02*
G37*
G36*
X80800Y170657D02*
Y170100D01*
X81357D01*
X81134Y170434D01*
X80800Y170657D01*
D02*
G37*
G36*
X183000Y172700D02*
X179900D01*
Y170100D01*
X183000D01*
Y172700D01*
D02*
G37*
G36*
X260938Y170481D02*
X259861D01*
Y169700D01*
X260938D01*
Y170481D01*
D02*
G37*
G36*
X78800Y170657D02*
X78466Y170434D01*
X78243Y170100D01*
X78800D01*
Y170657D01*
D02*
G37*
G36*
X188100Y172700D02*
X185000D01*
Y170100D01*
X188100D01*
Y172700D01*
D02*
G37*
G36*
X300300Y179283D02*
X299373Y179161D01*
X298508Y178803D01*
X297766Y178234D01*
X297197Y177492D01*
X296839Y176627D01*
X296717Y175700D01*
X296839Y174773D01*
X297197Y173908D01*
X297766Y173166D01*
X298508Y172597D01*
X299373Y172239D01*
X300300Y172117D01*
X301227Y172239D01*
X302092Y172597D01*
X302834Y173166D01*
X303403Y173908D01*
X303761Y174773D01*
X303883Y175700D01*
X303761Y176627D01*
X303403Y177492D01*
X302834Y178234D01*
X302092Y178803D01*
X301227Y179161D01*
X300300Y179283D01*
D02*
G37*
G36*
X310300D02*
X309373Y179161D01*
X308508Y178803D01*
X307766Y178234D01*
X307197Y177492D01*
X306839Y176627D01*
X306717Y175700D01*
X306839Y174773D01*
X307197Y173908D01*
X307766Y173166D01*
X308508Y172597D01*
X309373Y172239D01*
X310300Y172117D01*
X311227Y172239D01*
X312092Y172597D01*
X312834Y173166D01*
X313403Y173908D01*
X313761Y174773D01*
X313883Y175700D01*
X313761Y176627D01*
X313403Y177492D01*
X312834Y178234D01*
X312092Y178803D01*
X311227Y179161D01*
X310300Y179283D01*
D02*
G37*
G36*
X241000Y172700D02*
X237900D01*
Y170100D01*
X241000D01*
Y172700D01*
D02*
G37*
G36*
X246100D02*
X243000D01*
Y170100D01*
X246100D01*
Y172700D01*
D02*
G37*
G36*
X32500Y170257D02*
Y169700D01*
X33057D01*
X32834Y170034D01*
X32500Y170257D01*
D02*
G37*
G36*
X30500Y167700D02*
X29943D01*
X30166Y167366D01*
X30500Y167143D01*
Y167700D01*
D02*
G37*
G36*
X33057D02*
X32500D01*
Y167143D01*
X32834Y167366D01*
X33057Y167700D01*
D02*
G37*
G36*
X4900Y167557D02*
X4566Y167334D01*
X4343Y167000D01*
X4900D01*
Y167557D01*
D02*
G37*
G36*
X6900D02*
Y167000D01*
X7457D01*
X7234Y167334D01*
X6900Y167557D01*
D02*
G37*
G36*
X322500Y167957D02*
X322166Y167734D01*
X321943Y167400D01*
X322500D01*
Y167957D01*
D02*
G37*
G36*
X78300Y187331D02*
X77360Y187207D01*
X76485Y186845D01*
X75732Y186268D01*
X75155Y185515D01*
X74793Y184640D01*
X74669Y183700D01*
Y181700D01*
X74793Y180760D01*
X75155Y179885D01*
X75732Y179132D01*
X76485Y178555D01*
X77360Y178193D01*
X78300Y178069D01*
X79240Y178193D01*
X80115Y178555D01*
X80868Y179132D01*
X81445Y179885D01*
X81807Y180760D01*
X81915Y181578D01*
X94235D01*
X104414Y171400D01*
X104414Y171400D01*
X104557Y170678D01*
X104966Y170066D01*
X105578Y169657D01*
X106300Y169514D01*
X107022Y169657D01*
X107634Y170066D01*
X108043Y170678D01*
X108186Y171400D01*
X108043Y172122D01*
X107634Y172734D01*
X107022Y173143D01*
X106300Y173286D01*
X105799Y173187D01*
X95493Y183493D01*
X95129Y183736D01*
X94700Y183822D01*
X94700Y183822D01*
X81915D01*
X81807Y184640D01*
X81445Y185515D01*
X80868Y186268D01*
X80115Y186845D01*
X79240Y187207D01*
X78300Y187331D01*
D02*
G37*
G36*
X30500Y170257D02*
X30166Y170034D01*
X29943Y169700D01*
X30500D01*
Y170257D01*
D02*
G37*
G36*
X324500Y167957D02*
Y167400D01*
X325057D01*
X324834Y167734D01*
X324500Y167957D01*
D02*
G37*
G36*
X40000Y183539D02*
X38529Y183395D01*
X37115Y182966D01*
X35811Y182269D01*
X34669Y181331D01*
X33731Y180189D01*
X33035Y178885D01*
X32605Y177471D01*
X32461Y176000D01*
X32605Y174529D01*
X33035Y173115D01*
X33731Y171811D01*
X34669Y170669D01*
X35811Y169731D01*
X37115Y169035D01*
X38529Y168605D01*
X40000Y168461D01*
X41471Y168605D01*
X42885Y169035D01*
X44189Y169731D01*
X45331Y170669D01*
X46269Y171811D01*
X46966Y173115D01*
X47394Y174529D01*
X47539Y176000D01*
X47394Y177471D01*
X46966Y178885D01*
X46269Y180189D01*
X45331Y181331D01*
X44189Y182269D01*
X42885Y182966D01*
X41471Y183395D01*
X40000Y183539D01*
D02*
G37*
G36*
X71931Y181700D02*
X69300D01*
Y178218D01*
X70116Y178555D01*
X70868Y179132D01*
X71445Y179885D01*
X71807Y180760D01*
X71931Y181700D01*
D02*
G37*
G36*
X144900Y180500D02*
X144343D01*
X144566Y180166D01*
X144900Y179943D01*
Y180500D01*
D02*
G37*
G36*
X279300Y179253D02*
X276747D01*
Y176700D01*
X279300D01*
Y179253D01*
D02*
G37*
G36*
X67300Y181700D02*
X64669D01*
X64793Y180760D01*
X65155Y179885D01*
X65732Y179132D01*
X66484Y178555D01*
X67300Y178218D01*
Y181700D01*
D02*
G37*
G36*
X147457Y180500D02*
X146900D01*
Y179943D01*
X147234Y180166D01*
X147457Y180500D01*
D02*
G37*
G36*
X102200Y180900D02*
X101643D01*
X101866Y180566D01*
X102200Y180343D01*
Y180900D01*
D02*
G37*
G36*
X104757D02*
X104200D01*
Y180343D01*
X104534Y180566D01*
X104757Y180900D01*
D02*
G37*
G36*
X161500Y180500D02*
X160943D01*
X161166Y180166D01*
X161500Y179943D01*
Y180500D01*
D02*
G37*
G36*
X164057D02*
X163500D01*
Y179943D01*
X163834Y180166D01*
X164057Y180500D01*
D02*
G37*
G36*
X199850Y177600D02*
X199000D01*
Y176000D01*
X199850D01*
Y177600D01*
D02*
G37*
G36*
X197000Y174000D02*
X196150D01*
Y172400D01*
X197000D01*
Y174000D01*
D02*
G37*
G36*
X199850D02*
X199000D01*
Y172400D01*
X199850D01*
Y174000D01*
D02*
G37*
G36*
X320300Y179283D02*
X319373Y179161D01*
X318508Y178803D01*
X317766Y178234D01*
X317197Y177492D01*
X316839Y176627D01*
X316717Y175700D01*
X316839Y174773D01*
X317197Y173908D01*
X317766Y173166D01*
X318508Y172597D01*
X319373Y172239D01*
X320300Y172117D01*
X321227Y172239D01*
X322092Y172597D01*
X322834Y173166D01*
X323403Y173908D01*
X323761Y174773D01*
X323883Y175700D01*
X323761Y176627D01*
X323403Y177492D01*
X322834Y178234D01*
X322092Y178803D01*
X321227Y179161D01*
X320300Y179283D01*
D02*
G37*
G36*
X279300Y174700D02*
X276747D01*
Y172147D01*
X279300D01*
Y174700D01*
D02*
G37*
G36*
X183000Y177300D02*
X179900D01*
Y174700D01*
X183000D01*
Y177300D01*
D02*
G37*
G36*
X246100D02*
X243000D01*
Y174700D01*
X246100D01*
Y177300D01*
D02*
G37*
G36*
X197000Y177600D02*
X196150D01*
Y176000D01*
X197000D01*
Y177600D01*
D02*
G37*
G36*
X188100Y177300D02*
X185000D01*
Y174700D01*
X188100D01*
Y177300D01*
D02*
G37*
G36*
X241000D02*
X237900D01*
Y174700D01*
X241000D01*
Y177300D01*
D02*
G37*
G36*
X329600Y122857D02*
X329266Y122634D01*
X329043Y122300D01*
X329600D01*
Y122857D01*
D02*
G37*
G36*
X331600D02*
Y122300D01*
X332157D01*
X331934Y122634D01*
X331600Y122857D01*
D02*
G37*
G36*
X7857Y122600D02*
X7300D01*
Y122043D01*
X7634Y122266D01*
X7857Y122600D01*
D02*
G37*
G36*
X325557Y121300D02*
X325000D01*
Y120743D01*
X325334Y120966D01*
X325557Y121300D01*
D02*
G37*
G36*
X5300Y122600D02*
X4743D01*
X4966Y122266D01*
X5300Y122043D01*
Y122600D01*
D02*
G37*
G36*
X323000Y123857D02*
X322666Y123634D01*
X322443Y123300D01*
X323000D01*
Y123857D01*
D02*
G37*
G36*
X196735Y130875D02*
X190810D01*
Y128045D01*
X187221Y124455D01*
X186750Y124650D01*
Y124650D01*
X186750Y124650D01*
X177850D01*
Y122931D01*
X168590D01*
X167966Y122807D01*
X167437Y122453D01*
X156951Y111968D01*
X156390Y112398D01*
X155271Y112862D01*
X154070Y113020D01*
X152869Y112862D01*
X151750Y112398D01*
X150789Y111661D01*
X150052Y110700D01*
X149588Y109581D01*
X149430Y108380D01*
X149588Y107179D01*
X150052Y106060D01*
X150789Y105099D01*
X151750Y104362D01*
X152869Y103898D01*
X154070Y103740D01*
X155271Y103898D01*
X156390Y104362D01*
X157351Y105099D01*
X158088Y106060D01*
X158552Y107179D01*
X158710Y108380D01*
X158624Y109027D01*
X169266Y119669D01*
X177850D01*
Y117950D01*
X186750D01*
Y119744D01*
X186997Y119793D01*
X187526Y120147D01*
X193905Y126525D01*
X196735D01*
Y130875D01*
D02*
G37*
G36*
X82800Y125100D02*
X82243D01*
X82466Y124766D01*
X82800Y124543D01*
Y125100D01*
D02*
G37*
G36*
X300357Y124800D02*
X299800D01*
Y124243D01*
X300134Y124466D01*
X300357Y124800D01*
D02*
G37*
G36*
X325000Y123857D02*
Y123300D01*
X325557D01*
X325334Y123634D01*
X325000Y123857D01*
D02*
G37*
G36*
X297800Y124800D02*
X297243D01*
X297466Y124466D01*
X297800Y124243D01*
Y124800D01*
D02*
G37*
G36*
X329600Y120300D02*
X329043D01*
X329266Y119966D01*
X329600Y119743D01*
Y120300D01*
D02*
G37*
G36*
X332157D02*
X331600D01*
Y119743D01*
X331934Y119966D01*
X332157Y120300D01*
D02*
G37*
G36*
X230000Y119857D02*
Y119300D01*
X230557D01*
X230334Y119634D01*
X230000Y119857D01*
D02*
G37*
G36*
X136800Y119757D02*
Y119200D01*
X137357D01*
X137134Y119534D01*
X136800Y119757D01*
D02*
G37*
G36*
X228000Y119857D02*
X227666Y119634D01*
X227443Y119300D01*
X228000D01*
Y119857D01*
D02*
G37*
G36*
X233300Y121139D02*
X232519D01*
Y120062D01*
X233300D01*
Y121139D01*
D02*
G37*
G36*
X274081D02*
X273300D01*
Y120062D01*
X274081D01*
Y121139D01*
D02*
G37*
G36*
X323000Y121300D02*
X322443D01*
X322666Y120966D01*
X323000Y120743D01*
Y121300D01*
D02*
G37*
G36*
X242081Y121139D02*
X241300D01*
Y120062D01*
X242081D01*
Y121139D01*
D02*
G37*
G36*
X236081D02*
X235300D01*
Y120062D01*
X236081D01*
Y121139D01*
D02*
G37*
G36*
X239300D02*
X238519D01*
Y120062D01*
X239300D01*
Y121139D01*
D02*
G37*
G36*
X84800Y127657D02*
Y127100D01*
X85357D01*
X85134Y127434D01*
X84800Y127657D01*
D02*
G37*
G36*
X161950Y136640D02*
X160749Y136482D01*
X159630Y136018D01*
X158669Y135281D01*
X157932Y134320D01*
X157468Y133201D01*
X157310Y132000D01*
X157468Y130799D01*
X157932Y129680D01*
X158669Y128719D01*
X159630Y127982D01*
X160749Y127518D01*
X161950Y127360D01*
X163151Y127518D01*
X164270Y127982D01*
X165231Y128719D01*
X165968Y129680D01*
X166432Y130799D01*
X166590Y132000D01*
X166432Y133201D01*
X165968Y134320D01*
X165231Y135281D01*
X164270Y136018D01*
X163151Y136482D01*
X161950Y136640D01*
D02*
G37*
G36*
X82800Y127657D02*
X82466Y127434D01*
X82243Y127100D01*
X82800D01*
Y127657D01*
D02*
G37*
G36*
X297800Y127357D02*
X297466Y127134D01*
X297243Y126800D01*
X297800D01*
Y127357D01*
D02*
G37*
G36*
X299800D02*
Y126800D01*
X300357D01*
X300134Y127134D01*
X299800Y127357D01*
D02*
G37*
G36*
X102200Y128457D02*
X101866Y128234D01*
X101643Y127900D01*
X102200D01*
Y128457D01*
D02*
G37*
G36*
X322800Y130500D02*
X322243D01*
X322466Y130166D01*
X322800Y129943D01*
Y130500D01*
D02*
G37*
G36*
X325357D02*
X324800D01*
Y129943D01*
X325134Y130166D01*
X325357Y130500D01*
D02*
G37*
G36*
X249900Y129457D02*
Y128900D01*
X250457D01*
X250234Y129234D01*
X249900Y129457D01*
D02*
G37*
G36*
X104200Y128457D02*
Y127900D01*
X104757D01*
X104534Y128234D01*
X104200Y128457D01*
D02*
G37*
G36*
X247900Y129457D02*
X247566Y129234D01*
X247343Y128900D01*
X247900D01*
Y129457D01*
D02*
G37*
G36*
X102200Y125900D02*
X101643D01*
X101866Y125566D01*
X102200Y125343D01*
Y125900D01*
D02*
G37*
G36*
X104757D02*
X104200D01*
Y125343D01*
X104534Y125566D01*
X104757Y125900D01*
D02*
G37*
G36*
X7300Y125157D02*
Y124600D01*
X7857D01*
X7634Y124934D01*
X7300Y125157D01*
D02*
G37*
G36*
X85357Y125100D02*
X84800D01*
Y124543D01*
X85134Y124766D01*
X85357Y125100D01*
D02*
G37*
G36*
X5300Y125157D02*
X4966Y124934D01*
X4743Y124600D01*
X5300D01*
Y125157D01*
D02*
G37*
G36*
X46700Y129000D02*
X44100D01*
Y125900D01*
X46700D01*
Y129000D01*
D02*
G37*
G36*
X17000D02*
X13400D01*
Y126400D01*
X17000D01*
Y129000D01*
D02*
G37*
G36*
X22600D02*
X19000D01*
Y126400D01*
X22600D01*
Y129000D01*
D02*
G37*
G36*
X250457Y126900D02*
X249900D01*
Y126343D01*
X250234Y126566D01*
X250457Y126900D01*
D02*
G37*
G36*
X51300Y129000D02*
X48700D01*
Y125900D01*
X51300D01*
Y129000D01*
D02*
G37*
G36*
X247900Y126900D02*
X247343D01*
X247566Y126566D01*
X247900Y126343D01*
Y126900D01*
D02*
G37*
G36*
X134800Y119757D02*
X134466Y119534D01*
X134243Y119200D01*
X134800D01*
Y119757D01*
D02*
G37*
G36*
X204200Y108657D02*
X203866Y108434D01*
X203643Y108100D01*
X204200D01*
Y108657D01*
D02*
G37*
G36*
X206200D02*
Y108100D01*
X206757D01*
X206534Y108434D01*
X206200Y108657D01*
D02*
G37*
G36*
X325500Y107957D02*
Y107400D01*
X326057D01*
X325834Y107734D01*
X325500Y107957D01*
D02*
G37*
G36*
X228800Y107857D02*
Y107300D01*
X229357D01*
X229134Y107634D01*
X228800Y107857D01*
D02*
G37*
G36*
X323500Y107957D02*
X323166Y107734D01*
X322943Y107400D01*
X323500D01*
Y107957D01*
D02*
G37*
G36*
X17300Y111331D02*
X16360Y111207D01*
X15484Y110845D01*
X14732Y110268D01*
X14155Y109516D01*
X13818Y108700D01*
X17300D01*
Y111331D01*
D02*
G37*
G36*
X82800Y110200D02*
X82243D01*
X82466Y109866D01*
X82800Y109643D01*
Y110200D01*
D02*
G37*
G36*
X85357D02*
X84800D01*
Y109643D01*
X85134Y109866D01*
X85357Y110200D01*
D02*
G37*
G36*
X350700Y113000D02*
X349000D01*
Y109000D01*
X350700D01*
Y113000D01*
D02*
G37*
G36*
X19300Y111331D02*
Y108700D01*
X22782D01*
X22445Y109516D01*
X21868Y110268D01*
X21115Y110845D01*
X20240Y111207D01*
X19300Y111331D01*
D02*
G37*
G36*
X290439Y109781D02*
X289362D01*
Y109000D01*
X290439D01*
Y109781D01*
D02*
G37*
G36*
X229357Y105300D02*
X228800D01*
Y104743D01*
X229134Y104966D01*
X229357Y105300D01*
D02*
G37*
G36*
X323500Y105400D02*
X322943D01*
X323166Y105066D01*
X323500Y104843D01*
Y105400D01*
D02*
G37*
G36*
X226800Y105300D02*
X226243D01*
X226466Y104966D01*
X226800Y104743D01*
Y105300D01*
D02*
G37*
G36*
X315500Y104857D02*
X315166Y104634D01*
X314943Y104300D01*
X315500D01*
Y104857D01*
D02*
G37*
G36*
X317500D02*
Y104300D01*
X318057D01*
X317834Y104634D01*
X317500Y104857D01*
D02*
G37*
G36*
X326057Y105400D02*
X325500D01*
Y104843D01*
X325834Y105066D01*
X326057Y105400D01*
D02*
G37*
G36*
X190805Y112056D02*
X184881D01*
Y105344D01*
X190805D01*
Y107069D01*
X193412D01*
X193578Y106957D01*
X194300Y106814D01*
X195022Y106957D01*
X195634Y107366D01*
X196043Y107978D01*
X196186Y108700D01*
X196043Y109422D01*
X195634Y110034D01*
X195022Y110443D01*
X194300Y110586D01*
X193578Y110443D01*
X193412Y110331D01*
X190805D01*
Y112056D01*
D02*
G37*
G36*
X226800Y107857D02*
X226466Y107634D01*
X226243Y107300D01*
X226800D01*
Y107857D01*
D02*
G37*
G36*
X290439Y107000D02*
X289362D01*
Y106219D01*
X290439D01*
Y107000D01*
D02*
G37*
G36*
X204200Y106100D02*
X203643D01*
X203866Y105766D01*
X204200Y105543D01*
Y106100D01*
D02*
G37*
G36*
X206757D02*
X206200D01*
Y105543D01*
X206534Y105766D01*
X206757Y106100D01*
D02*
G37*
G36*
X323300Y115557D02*
X322966Y115334D01*
X322743Y115000D01*
X323300D01*
Y115557D01*
D02*
G37*
G36*
X325300D02*
Y115000D01*
X325857D01*
X325634Y115334D01*
X325300Y115557D01*
D02*
G37*
G36*
X331400Y114057D02*
Y113500D01*
X331957D01*
X331734Y113834D01*
X331400Y114057D01*
D02*
G37*
G36*
X35100Y113657D02*
Y113100D01*
X35657D01*
X35434Y113434D01*
X35100Y113657D01*
D02*
G37*
G36*
X329400Y114057D02*
X329066Y113834D01*
X328843Y113500D01*
X329400D01*
Y114057D01*
D02*
G37*
G36*
X350700Y119000D02*
X349000D01*
Y115000D01*
X350700D01*
Y119000D01*
D02*
G37*
G36*
X228000Y117300D02*
X227443D01*
X227666Y116966D01*
X228000Y116743D01*
Y117300D01*
D02*
G37*
G36*
X230557D02*
X230000D01*
Y116743D01*
X230334Y116966D01*
X230557Y117300D01*
D02*
G37*
G36*
X137357Y117200D02*
X136800D01*
Y116643D01*
X137134Y116866D01*
X137357Y117200D01*
D02*
G37*
G36*
X205790Y127135D02*
X199865D01*
Y122785D01*
X205790D01*
Y122785D01*
X207086Y122785D01*
X209794Y120076D01*
Y115344D01*
X215719D01*
Y122056D01*
X210987D01*
X207290Y125753D01*
X207290D01*
X207290Y125753D01*
X206926Y125996D01*
X206926D01*
X206497Y126081D01*
D01*
D01*
D01*
X206497D01*
D01*
X205790Y126788D01*
Y127135D01*
D02*
G37*
G36*
X134800Y117200D02*
X134243D01*
X134466Y116866D01*
X134800Y116643D01*
Y117200D01*
D02*
G37*
G36*
X329400Y111500D02*
X328843D01*
X329066Y111166D01*
X329400Y110943D01*
Y111500D01*
D02*
G37*
G36*
X331957D02*
X331400D01*
Y110943D01*
X331734Y111166D01*
X331957Y111500D01*
D02*
G37*
G36*
X35657Y111100D02*
X35100D01*
Y110543D01*
X35434Y110766D01*
X35657Y111100D01*
D02*
G37*
G36*
X273100Y110457D02*
Y109900D01*
X273657D01*
X273434Y110234D01*
X273100Y110457D01*
D02*
G37*
G36*
X33100Y111100D02*
X32543D01*
X32766Y110766D01*
X33100Y110543D01*
Y111100D01*
D02*
G37*
G36*
X51128Y143700D02*
X44023D01*
Y142919D01*
Y139316D01*
X45421D01*
X45892Y138435D01*
X45833Y138346D01*
X45689Y137624D01*
X45833Y136903D01*
X46242Y136291D01*
X46854Y135882D01*
X47050Y135843D01*
X47869Y135024D01*
X47486Y134100D01*
X48700D01*
Y131000D01*
X51300D01*
Y133661D01*
X51300D01*
X51300Y133661D01*
X51300Y134100D01*
X51569Y134369D01*
X53624D01*
X56700Y131293D01*
Y125900D01*
X62093D01*
X63769Y124224D01*
Y120450D01*
X62050D01*
Y111550D01*
X68750D01*
Y120450D01*
X67031D01*
Y124900D01*
X66907Y125524D01*
X66553Y126054D01*
X63900Y128707D01*
Y134100D01*
X58507D01*
X55453Y137153D01*
X54924Y137507D01*
X54300Y137631D01*
X49876D01*
X49357Y138150D01*
X49318Y138346D01*
X49207Y138513D01*
Y139316D01*
X51128D01*
Y142919D01*
Y143700D01*
D02*
G37*
G36*
X325857Y113000D02*
X325300D01*
Y112443D01*
X325634Y112666D01*
X325857Y113000D01*
D02*
G37*
G36*
X33100Y113657D02*
X32766Y113434D01*
X32543Y113100D01*
X33100D01*
Y113657D01*
D02*
G37*
G36*
X323300Y113000D02*
X322743D01*
X322966Y112666D01*
X323300Y112443D01*
Y113000D01*
D02*
G37*
G36*
X82800Y112757D02*
X82466Y112534D01*
X82243Y112200D01*
X82800D01*
Y112757D01*
D02*
G37*
G36*
X84800D02*
Y112200D01*
X85357D01*
X85134Y112534D01*
X84800Y112757D01*
D02*
G37*
G36*
X154070Y160260D02*
X152869Y160102D01*
X151750Y159638D01*
X150789Y158901D01*
X150052Y157940D01*
X149588Y156821D01*
X149430Y155620D01*
X149588Y154419D01*
X150052Y153300D01*
X150789Y152339D01*
X151750Y151602D01*
X152869Y151138D01*
X154070Y150980D01*
X155271Y151138D01*
X156390Y151602D01*
X157351Y152339D01*
X157619Y152689D01*
X167304D01*
X177850Y142143D01*
Y136750D01*
X186443D01*
X188138Y135055D01*
X188177Y134858D01*
X188586Y134247D01*
X189198Y133838D01*
X189920Y133694D01*
X190642Y133838D01*
X191253Y134247D01*
X191662Y134858D01*
X191806Y135580D01*
X191662Y136302D01*
X191253Y136914D01*
X190642Y137323D01*
X190445Y137362D01*
X186753Y141053D01*
X186750Y141056D01*
Y143450D01*
X181157D01*
X169133Y155473D01*
X168604Y155827D01*
X167980Y155951D01*
X158666D01*
X158552Y156821D01*
X158088Y157940D01*
X157351Y158901D01*
X156390Y159638D01*
X155271Y160102D01*
X154070Y160260D01*
D02*
G37*
G36*
X271900Y139000D02*
X271343D01*
X271566Y138666D01*
X271900Y138443D01*
Y139000D01*
D02*
G37*
G36*
X274457D02*
X273900D01*
Y138443D01*
X274234Y138666D01*
X274457Y139000D01*
D02*
G37*
G36*
X262081Y135139D02*
X261300D01*
Y134062D01*
X262081D01*
Y135139D01*
D02*
G37*
G36*
X300357Y138900D02*
X299800D01*
Y138343D01*
X300134Y138566D01*
X300357Y138900D01*
D02*
G37*
G36*
X259300Y135139D02*
X258519D01*
Y134062D01*
X259300D01*
Y135139D01*
D02*
G37*
G36*
X322800Y139100D02*
X322243D01*
X322466Y138766D01*
X322800Y138543D01*
Y139100D01*
D02*
G37*
G36*
X135900Y141357D02*
Y140800D01*
X136457D01*
X136234Y141134D01*
X135900Y141357D01*
D02*
G37*
G36*
X297800Y141457D02*
X297466Y141234D01*
X297243Y140900D01*
X297800D01*
Y141457D01*
D02*
G37*
G36*
X299800D02*
Y140900D01*
X300357D01*
X300134Y141234D01*
X299800Y141457D01*
D02*
G37*
G36*
X325357Y139100D02*
X324800D01*
Y138543D01*
X325134Y138766D01*
X325357Y139100D01*
D02*
G37*
G36*
X68081Y146062D02*
X64519D01*
Y145121D01*
X64519D01*
X64519Y145121D01*
X64519Y144986D01*
Y144414D01*
D01*
D01*
D01*
D01*
X64519D01*
Y142864D01*
X64443Y142788D01*
X57024D01*
X56788Y142741D01*
X53472D01*
Y139572D01*
X56788D01*
X57024Y139525D01*
X65119D01*
X65743Y139649D01*
X66272Y140003D01*
X66531Y140261D01*
X68081D01*
Y144279D01*
X68081D01*
X68081Y144279D01*
X68081Y144414D01*
Y144700D01*
Y144986D01*
X68081Y145121D01*
X68081Y145121D01*
X68081D01*
Y146062D01*
D02*
G37*
G36*
X133900Y141357D02*
X133566Y141134D01*
X133343Y140800D01*
X133900D01*
Y141357D01*
D02*
G37*
G36*
X297800Y138900D02*
X297243D01*
X297466Y138566D01*
X297800Y138343D01*
Y138900D01*
D02*
G37*
G36*
X250557Y135700D02*
X250000D01*
Y135143D01*
X250334Y135366D01*
X250557Y135700D01*
D02*
G37*
G36*
X248000D02*
X247443D01*
X247666Y135366D01*
X248000Y135143D01*
Y135700D01*
D02*
G37*
G36*
X202200Y138157D02*
X201866Y137934D01*
X201643Y137600D01*
X202200D01*
Y138157D01*
D02*
G37*
G36*
X17000Y139000D02*
X13518D01*
X13855Y138184D01*
X14433Y137432D01*
X15184Y136855D01*
X16060Y136493D01*
X17000Y136369D01*
Y139000D01*
D02*
G37*
G36*
X244400Y164286D02*
X243678Y164143D01*
X243066Y163734D01*
X242657Y163122D01*
X242514Y162400D01*
X242657Y161678D01*
X243066Y161066D01*
X243279Y160924D01*
Y136597D01*
X241116Y134435D01*
X237565D01*
Y128510D01*
X241915D01*
Y132061D01*
X245193Y135339D01*
X245193Y135339D01*
X245436Y135703D01*
X245436Y135703D01*
X245436Y135703D01*
X245522Y136132D01*
X245521Y136132D01*
Y160924D01*
X245734Y161066D01*
X246143Y161678D01*
X246286Y162400D01*
X246143Y163122D01*
X245734Y163734D01*
X245122Y164143D01*
X244400Y164286D01*
D02*
G37*
G36*
X22482Y139000D02*
X19000D01*
Y136369D01*
X19940Y136493D01*
X20816Y136855D01*
X21567Y137432D01*
X22145Y138184D01*
X22482Y139000D01*
D02*
G37*
G36*
X204200Y138157D02*
Y137600D01*
X204757D01*
X204534Y137934D01*
X204200Y138157D01*
D02*
G37*
G36*
X250000Y138257D02*
Y137700D01*
X250557D01*
X250334Y138034D01*
X250000Y138257D01*
D02*
G37*
G36*
X133900Y138800D02*
X133343D01*
X133566Y138466D01*
X133900Y138243D01*
Y138800D01*
D02*
G37*
G36*
X136457D02*
X135900D01*
Y138243D01*
X136234Y138466D01*
X136457Y138800D01*
D02*
G37*
G36*
X248000Y138257D02*
X247666Y138034D01*
X247443Y137700D01*
X248000D01*
Y138257D01*
D02*
G37*
G36*
X286081Y135139D02*
X285300D01*
Y134062D01*
X286081D01*
Y135139D01*
D02*
G37*
G36*
X283300D02*
X282519D01*
Y134062D01*
X283300D01*
Y135139D01*
D02*
G37*
G36*
X46700Y134100D02*
X44100D01*
Y131000D01*
X46700D01*
Y134100D01*
D02*
G37*
G36*
X22600Y133600D02*
X19000D01*
Y131000D01*
X22600D01*
Y133600D01*
D02*
G37*
G36*
X17000Y143631D02*
X16060Y143507D01*
X15184Y143145D01*
X14433Y142568D01*
X13855Y141815D01*
X13518Y141000D01*
X17000D01*
Y143631D01*
D02*
G37*
G36*
X19000D02*
Y141000D01*
X22482D01*
X22145Y141815D01*
X21567Y142568D01*
X20816Y143145D01*
X19940Y143507D01*
X19000Y143631D01*
D02*
G37*
G36*
X84857Y143400D02*
X84300D01*
Y142843D01*
X84634Y143066D01*
X84857Y143400D01*
D02*
G37*
G36*
X271900Y141557D02*
X271566Y141334D01*
X271343Y141000D01*
X271900D01*
Y141557D01*
D02*
G37*
G36*
X273900D02*
Y141000D01*
X274457D01*
X274234Y141334D01*
X273900Y141557D01*
D02*
G37*
G36*
X201828Y131440D02*
X199865D01*
Y130265D01*
X201828D01*
Y131440D01*
D02*
G37*
G36*
X82300Y143400D02*
X81743D01*
X81966Y143066D01*
X82300Y142843D01*
Y143400D01*
D02*
G37*
G36*
X324800Y141657D02*
Y141100D01*
X325357D01*
X325134Y141434D01*
X324800Y141657D01*
D02*
G37*
G36*
X17000Y133600D02*
X13400D01*
Y131000D01*
X17000D01*
Y133600D01*
D02*
G37*
G36*
X204757Y135600D02*
X201643D01*
X201712Y135497D01*
X201241Y134615D01*
X199865D01*
Y133440D01*
X205790D01*
Y134615D01*
X205159D01*
X204688Y135497D01*
X204757Y135600D01*
D02*
G37*
G36*
X322800Y141657D02*
X322466Y141434D01*
X322243Y141100D01*
X322800D01*
Y141657D01*
D02*
G37*
G36*
Y133057D02*
X322466Y132834D01*
X322243Y132500D01*
X322800D01*
Y133057D01*
D02*
G37*
G36*
X205790Y131440D02*
X203828D01*
Y130265D01*
X205790D01*
Y131440D01*
D02*
G37*
G36*
X324800Y133057D02*
Y132500D01*
X325357D01*
X325134Y132834D01*
X324800Y133057D01*
D02*
G37*
G36*
X234435Y134435D02*
X230085D01*
Y132594D01*
X222806D01*
Y134056D01*
X216881D01*
Y127344D01*
X222806D01*
Y130351D01*
X230085D01*
Y128510D01*
X234435D01*
Y134435D01*
D02*
G37*
%LPD*%
G36*
X268301Y105201D02*
X269300D01*
Y103643D01*
X269022Y103457D01*
X269571Y102636D01*
X265707Y98772D01*
X262932D01*
X262468Y98679D01*
X262300Y99332D01*
Y102107D01*
X265494Y105301D01*
X266451Y105011D01*
X266413Y105200D01*
X266557Y105922D01*
X266743Y106200D01*
X268301D01*
Y105201D01*
D02*
G37*
G36*
X205795Y81662D02*
X205174Y81539D01*
X204562Y81130D01*
X204153Y80518D01*
X204010Y79796D01*
X204153Y79074D01*
X204562Y78462D01*
X205174Y78053D01*
X205896Y77910D01*
X206618Y78053D01*
X207230Y78462D01*
X207639Y79074D01*
X207782Y79796D01*
X207732Y80046D01*
X208375Y80689D01*
X235110D01*
X235744Y79916D01*
X235729Y79842D01*
X235822Y79377D01*
X236081Y78989D01*
X234914Y77822D01*
X226276D01*
X226134Y78034D01*
X225522Y78443D01*
X224800Y78586D01*
X224078Y78443D01*
X223466Y78034D01*
X223466Y78034D01*
Y78034D01*
X222739Y78481D01*
Y78481D01*
X218721D01*
Y78481D01*
X218721Y78481D01*
X218586Y78481D01*
X218300D01*
X218014D01*
X217879Y78481D01*
X217879Y78481D01*
Y78481D01*
X216938D01*
Y76699D01*
Y74919D01*
X218014D01*
Y74919D01*
X218586D01*
X218721Y74919D01*
X218721Y74919D01*
Y74919D01*
X222739D01*
Y74919D01*
X223466Y75366D01*
Y75366D01*
X223466Y75366D01*
Y75366D01*
Y75366D01*
D01*
X224078Y74957D01*
X224800Y74814D01*
X225522Y74957D01*
X226134Y75366D01*
X226276Y75578D01*
X230187D01*
X230285Y74583D01*
X229578Y74443D01*
X228966Y74034D01*
X228557Y73422D01*
X228414Y72700D01*
X228557Y71978D01*
X228966Y71366D01*
X229162Y71235D01*
X228872Y70278D01*
X220018D01*
X219800Y70322D01*
X211998D01*
X211658Y70831D01*
X211459Y71204D01*
X211657Y71500D01*
X208543D01*
X208741Y71204D01*
X208542Y70831D01*
X208202Y70322D01*
X189776D01*
X189634Y70534D01*
X189022Y70943D01*
X188300Y71086D01*
X187578Y70943D01*
X186966Y70534D01*
X186557Y69922D01*
X186414Y69200D01*
X186557Y68478D01*
X186655Y68332D01*
X186184Y67450D01*
X181357D01*
X177954Y70854D01*
X177424Y71207D01*
X176800Y71331D01*
X157245D01*
X157108Y71663D01*
X156611Y72311D01*
X155963Y72808D01*
X156365Y73778D01*
X191600D01*
X191600Y73778D01*
X192029Y73864D01*
X192393Y74107D01*
X200943Y82657D01*
X205697D01*
X205795Y81662D01*
D02*
G37*
G36*
X269643Y117522D02*
X269787Y116800D01*
X269643Y116078D01*
X269562Y115957D01*
X270519Y115667D01*
Y113497D01*
X265856Y108835D01*
X265043Y109378D01*
X264857Y109100D01*
X264300D01*
Y108543D01*
X264022Y108357D01*
X264565Y107544D01*
X261940Y104919D01*
X261551Y105178D01*
X261087Y105271D01*
X261013Y105256D01*
X260240Y105890D01*
Y112133D01*
X265080Y116973D01*
X266037Y116683D01*
X266014Y116800D01*
X266157Y117522D01*
X266343Y117800D01*
X269457D01*
X269643Y117522D01*
D02*
G37*
G36*
X254878Y43435D02*
Y41381D01*
X254208Y41103D01*
X253466Y40534D01*
X252897Y39792D01*
X252539Y38927D01*
X252417Y38000D01*
X252539Y37073D01*
X252897Y36208D01*
X253466Y35466D01*
X254208Y34897D01*
X255073Y34539D01*
X256000Y34417D01*
X256927Y34539D01*
X257792Y34897D01*
X258534Y35466D01*
X259103Y36208D01*
X259461Y37073D01*
X259583Y38000D01*
X259461Y38927D01*
X259103Y39792D01*
X258534Y40534D01*
X257792Y41103D01*
X257121Y41381D01*
Y42845D01*
X257895Y43479D01*
X257900Y43478D01*
X257900Y43478D01*
X262835D01*
X263837Y42477D01*
X263455Y41553D01*
X262447D01*
Y34447D01*
X269553D01*
Y41553D01*
X268858D01*
X267122Y41900D01*
X267036Y42329D01*
X266793Y42693D01*
X266793Y42693D01*
X265332Y44155D01*
X265714Y45078D01*
X270135D01*
X276578Y38635D01*
Y28465D01*
X269935Y21822D01*
X258900D01*
Y25300D01*
X251700D01*
Y16100D01*
X258900D01*
Y19579D01*
X270400D01*
X270400Y19578D01*
X270829Y19664D01*
X271193Y19907D01*
X275300Y24014D01*
X276132Y23459D01*
X275793Y22640D01*
X275669Y21700D01*
Y19700D01*
X275791Y18777D01*
X270135Y13122D01*
X251165D01*
X247824Y16463D01*
X247867Y17132D01*
X248445Y17885D01*
X248807Y18760D01*
X248931Y19700D01*
Y21700D01*
X248807Y22640D01*
X248445Y23516D01*
X247867Y24268D01*
X247115Y24845D01*
X246240Y25207D01*
X245300Y25331D01*
X244360Y25207D01*
X243484Y24845D01*
X242733Y24268D01*
X242155Y23516D01*
X241793Y22640D01*
X241719Y22083D01*
X240722Y22149D01*
Y43335D01*
X246693Y49307D01*
X246693Y49307D01*
X246936Y49671D01*
X247012Y50054D01*
X247438Y50183D01*
X248015Y50299D01*
X254878Y43435D01*
D02*
G37*
G36*
X152837Y72808D02*
X152189Y72311D01*
X151692Y71663D01*
X151380Y70909D01*
X151273Y70100D01*
X151380Y69291D01*
X151692Y68537D01*
X152189Y67889D01*
X152837Y67392D01*
X153591Y67080D01*
X154400Y66973D01*
X155209Y67080D01*
X155963Y67392D01*
X156611Y67889D01*
X156749Y68069D01*
X176124D01*
X177850Y66343D01*
Y60750D01*
X186750D01*
Y62569D01*
X193800D01*
X194424Y62693D01*
X194424Y62693D01*
X194424Y62693D01*
X194735Y62900D01*
X195022Y62957D01*
X195634Y63366D01*
X196043Y63978D01*
X196186Y64700D01*
X196043Y65422D01*
X195634Y66034D01*
X195022Y66443D01*
X194300Y66586D01*
X193578Y66443D01*
X192966Y66034D01*
X192831Y65831D01*
X187552D01*
X187081Y66713D01*
X187578Y67457D01*
X188300Y67314D01*
X189022Y67457D01*
X189634Y67866D01*
X189776Y68078D01*
X218722D01*
Y64056D01*
X216881D01*
Y57344D01*
X222806D01*
Y64056D01*
X220965D01*
Y68035D01*
X241209D01*
X241476Y67535D01*
X240991Y66661D01*
X240722Y66643D01*
X241000Y66457D01*
Y64899D01*
Y63343D01*
X240722Y63157D01*
X241579Y61875D01*
Y60664D01*
X240697Y60192D01*
X240600Y60257D01*
Y58699D01*
Y57143D01*
X240697Y57208D01*
X241579Y56736D01*
Y52765D01*
X232090Y43276D01*
X231364Y43276D01*
D01*
D01*
X231364D01*
D01*
X230713Y43276D01*
X230713Y43276D01*
Y43276D01*
X229922D01*
Y51224D01*
X230134Y51366D01*
X230543Y51978D01*
X230686Y52700D01*
X230543Y53422D01*
X230134Y54034D01*
X229522Y54443D01*
X228800Y54586D01*
X228078Y54443D01*
X227466Y54034D01*
X227057Y53422D01*
X226914Y52700D01*
X227057Y51978D01*
X227466Y51366D01*
X227678Y51224D01*
Y39861D01*
X225443D01*
X225022Y40143D01*
X224300Y40286D01*
X223578Y40143D01*
X222966Y39734D01*
X222557Y39122D01*
X222414Y38400D01*
X222557Y37678D01*
X222966Y37066D01*
X223578Y36657D01*
X224300Y36514D01*
X225022Y36657D01*
X225634Y37066D01*
X226002Y37618D01*
X227802D01*
Y34202D01*
X228462D01*
Y23198D01*
X227802D01*
Y14124D01*
X230871D01*
X231161Y13834D01*
Y12834D01*
X228849Y10522D01*
X131165D01*
X121922Y19765D01*
Y69824D01*
X122134Y69966D01*
X122543Y70578D01*
X122686Y71300D01*
X122543Y72022D01*
X122134Y72634D01*
X121522Y73043D01*
X120800Y73186D01*
X121392Y73778D01*
X152435D01*
X152837Y72808D01*
D02*
G37*
%LPC*%
G36*
X269457Y115800D02*
X268900D01*
Y115243D01*
X269234Y115466D01*
X269457Y115800D01*
D02*
G37*
G36*
X147100Y17700D02*
X146543D01*
X146766Y17366D01*
X147100Y17143D01*
Y17700D01*
D02*
G37*
G36*
X149100Y20257D02*
Y19700D01*
X149657D01*
X149434Y20034D01*
X149100Y20257D01*
D02*
G37*
G36*
X149657Y17700D02*
X149100D01*
Y17143D01*
X149434Y17366D01*
X149657Y17700D01*
D02*
G37*
G36*
X210652Y64829D02*
X210543Y64278D01*
X210357Y64000D01*
X209800D01*
Y63443D01*
X209522Y63257D01*
X209022Y63158D01*
X209794Y62523D01*
Y61700D01*
X211757D01*
Y64056D01*
X211287D01*
X210652Y64829D01*
D02*
G37*
G36*
X266900Y115800D02*
X266343D01*
X266566Y115466D01*
X266900Y115243D01*
Y115800D01*
D02*
G37*
G36*
X204000Y64100D02*
X203443D01*
X203666Y63766D01*
X203957Y63572D01*
X203667Y62615D01*
X203828D01*
Y61440D01*
X205790D01*
Y62583D01*
X205790Y62583D01*
D01*
X205790Y62583D01*
X205790Y62615D01*
X205784Y62647D01*
X205784Y62647D01*
X205691Y63110D01*
X205660Y63265D01*
X205722Y63357D01*
X205000Y63213D01*
X204278Y63357D01*
X204000Y63543D01*
Y64100D01*
D02*
G37*
G36*
X213938Y23198D02*
X213157D01*
Y19661D01*
X213938D01*
Y23198D01*
D02*
G37*
G36*
X206583D02*
X205802D01*
Y19661D01*
X206583D01*
Y23198D01*
D02*
G37*
G36*
X209365D02*
X208583D01*
Y19661D01*
X209365D01*
Y23198D01*
D02*
G37*
G36*
X168900Y19257D02*
X168566Y19034D01*
X168343Y18700D01*
X168900D01*
Y19257D01*
D02*
G37*
G36*
X147100Y20257D02*
X146766Y20034D01*
X146543Y19700D01*
X147100D01*
Y20257D01*
D02*
G37*
G36*
X216719Y23198D02*
X215938D01*
Y19661D01*
X216719D01*
Y23198D01*
D02*
G37*
G36*
X170900Y19257D02*
Y18700D01*
X171457D01*
X171234Y19034D01*
X170900Y19257D01*
D02*
G37*
G36*
X239000Y66457D02*
X238666Y66234D01*
X238443Y65900D01*
X239000D01*
Y66457D01*
D02*
G37*
G36*
X262300Y111657D02*
X261966Y111434D01*
X261743Y111100D01*
X262300D01*
Y111657D01*
D02*
G37*
G36*
X144357Y66100D02*
X143800D01*
Y65543D01*
X144134Y65766D01*
X144357Y66100D01*
D02*
G37*
G36*
X206583Y17661D02*
X205802D01*
Y14124D01*
X206583D01*
Y17661D01*
D02*
G37*
G36*
X209800Y66557D02*
Y66000D01*
X210357D01*
X210134Y66334D01*
X209800Y66557D01*
D02*
G37*
G36*
X264300Y111657D02*
Y111100D01*
X264857D01*
X264634Y111434D01*
X264300Y111657D01*
D02*
G37*
G36*
X141800Y68657D02*
X141466Y68434D01*
X141243Y68100D01*
X141800D01*
Y68657D01*
D02*
G37*
G36*
X143800D02*
Y68100D01*
X144357D01*
X144134Y68434D01*
X143800Y68657D01*
D02*
G37*
G36*
X262300Y109100D02*
X261743D01*
X261966Y108766D01*
X262300Y108543D01*
Y109100D01*
D02*
G37*
G36*
X141800Y66100D02*
X141243D01*
X141466Y65766D01*
X141800Y65543D01*
Y66100D01*
D02*
G37*
G36*
X232400Y65757D02*
X232066Y65534D01*
X231843Y65200D01*
X232400D01*
Y65757D01*
D02*
G37*
G36*
X234400D02*
Y65200D01*
X234957D01*
X234734Y65534D01*
X234400Y65757D01*
D02*
G37*
G36*
X168900Y16700D02*
X168343D01*
X168566Y16366D01*
X168900Y16143D01*
Y16700D01*
D02*
G37*
G36*
X234957Y63200D02*
X234400D01*
Y62643D01*
X234734Y62866D01*
X234957Y63200D01*
D02*
G37*
G36*
X239000Y63900D02*
X238443D01*
X238666Y63566D01*
X239000Y63343D01*
Y63900D01*
D02*
G37*
G36*
X215719Y64056D02*
X213757D01*
Y61700D01*
X215719D01*
Y64056D01*
D02*
G37*
G36*
X232400Y63200D02*
X231843D01*
X232066Y62866D01*
X232400Y62643D01*
Y63200D01*
D02*
G37*
G36*
X171457Y16700D02*
X170900D01*
Y16143D01*
X171234Y16366D01*
X171457Y16700D01*
D02*
G37*
G36*
X213938Y17661D02*
X213157D01*
Y14124D01*
X213938D01*
Y17661D01*
D02*
G37*
G36*
X209365D02*
X208583D01*
Y14124D01*
X209365D01*
Y17661D01*
D02*
G37*
G36*
X267300Y104200D02*
X266743D01*
X266966Y103866D01*
X267300Y103643D01*
Y104200D01*
D02*
G37*
G36*
X206000Y66657D02*
Y65099D01*
Y63543D01*
X206334Y63766D01*
X206367Y63815D01*
X207367D01*
X207466Y63666D01*
X207800Y63443D01*
Y64999D01*
Y66557D01*
X207466Y66334D01*
X207433Y66285D01*
X206433D01*
X206334Y66434D01*
X206000Y66657D01*
D02*
G37*
G36*
X204000D02*
X203666Y66434D01*
X203443Y66100D01*
X204000D01*
Y66657D01*
D02*
G37*
G36*
X216719Y17661D02*
X215938D01*
Y14124D01*
X216719D01*
Y17661D01*
D02*
G37*
G36*
X210622Y75224D02*
X210522Y75157D01*
X209800Y75014D01*
X209083Y75156D01*
X209278Y74176D01*
X209378Y74243D01*
X210100Y74387D01*
X210817Y74244D01*
X210622Y75224D01*
D02*
G37*
G36*
X208800Y75900D02*
X208243D01*
X208466Y75566D01*
X208800Y75343D01*
Y75900D01*
D02*
G37*
G36*
X249431Y37000D02*
X247000D01*
Y34569D01*
X247792Y34897D01*
X248534Y35466D01*
X249103Y36208D01*
X249431Y37000D01*
D02*
G37*
G36*
X214938Y75700D02*
X213861D01*
Y74919D01*
X214938D01*
Y75700D01*
D02*
G37*
G36*
X139800Y35757D02*
Y35200D01*
X140357D01*
X140134Y35534D01*
X139800Y35757D01*
D02*
G37*
G36*
X165500Y48657D02*
Y48100D01*
X166057D01*
X165834Y48434D01*
X165500Y48657D01*
D02*
G37*
G36*
X211357Y75900D02*
X210800D01*
Y75343D01*
X211134Y75566D01*
X211357Y75900D01*
D02*
G37*
G36*
X137800Y35757D02*
X137466Y35534D01*
X137243Y35200D01*
X137800D01*
Y35757D01*
D02*
G37*
G36*
X224000Y34157D02*
Y33600D01*
X224557D01*
X224334Y33934D01*
X224000Y34157D01*
D02*
G37*
G36*
X206662Y37739D02*
X205881D01*
Y34202D01*
X206662D01*
Y37739D01*
D02*
G37*
G36*
X140200Y54200D02*
X139643D01*
X139866Y53866D01*
X140200Y53643D01*
Y54200D01*
D02*
G37*
G36*
X222000Y34157D02*
X221666Y33934D01*
X221443Y33600D01*
X222000D01*
Y34157D01*
D02*
G37*
G36*
X216798Y37739D02*
X216017D01*
Y34202D01*
X216798D01*
Y37739D01*
D02*
G37*
G36*
X245000Y37000D02*
X242569D01*
X242897Y36208D01*
X243466Y35466D01*
X244208Y34897D01*
X245000Y34569D01*
Y37000D01*
D02*
G37*
G36*
X209443Y37739D02*
X208662D01*
Y34202D01*
X209443D01*
Y37739D01*
D02*
G37*
G36*
X214017D02*
X213235D01*
Y34202D01*
X214017D01*
Y37739D01*
D02*
G37*
G36*
X214938Y78481D02*
X213861D01*
Y77700D01*
X214938D01*
Y78481D01*
D02*
G37*
G36*
X166057Y46100D02*
X165500D01*
Y45543D01*
X165834Y45766D01*
X166057Y46100D01*
D02*
G37*
G36*
X208800Y78457D02*
X208466Y78234D01*
X208243Y77900D01*
X208800D01*
Y78457D01*
D02*
G37*
G36*
X196735Y58875D02*
X190810D01*
Y56045D01*
X183415Y48650D01*
X177850D01*
Y46822D01*
X177776Y46807D01*
X177246Y46453D01*
X167504Y36711D01*
X158666D01*
X158552Y37581D01*
X158088Y38700D01*
X157351Y39661D01*
X156390Y40398D01*
X155271Y40862D01*
X154070Y41020D01*
X152869Y40862D01*
X151750Y40398D01*
X150789Y39661D01*
X150052Y38700D01*
X149588Y37581D01*
X149430Y36380D01*
X149588Y35179D01*
X150052Y34060D01*
X150789Y33099D01*
X151750Y32362D01*
X152869Y31898D01*
X154070Y31740D01*
X155271Y31898D01*
X156390Y32362D01*
X157351Y33099D01*
X157619Y33449D01*
X168180D01*
X168804Y33573D01*
X169334Y33926D01*
X177501Y42094D01*
X177850Y41950D01*
Y41950D01*
X177850Y41950D01*
X186750D01*
Y47370D01*
X193905Y54525D01*
X196735D01*
Y58875D01*
D02*
G37*
G36*
X219800Y56086D02*
X219078Y55943D01*
X218466Y55534D01*
X218057Y54922D01*
X217914Y54200D01*
X218057Y53478D01*
X218418Y52938D01*
X218036Y52222D01*
X217925Y52056D01*
X216881D01*
Y45344D01*
X222806D01*
Y52056D01*
X221675D01*
X221564Y52222D01*
X221182Y52938D01*
X221543Y53478D01*
X221686Y54200D01*
X221543Y54922D01*
X221134Y55534D01*
X220522Y55943D01*
X219800Y56086D01*
D02*
G37*
G36*
X205790Y55135D02*
X199865D01*
Y50785D01*
X203416D01*
X206294Y47907D01*
X206294Y47907D01*
X206658Y47664D01*
X206658Y47664D01*
X206658Y47664D01*
D01*
X206658Y47664D01*
X206658Y47664D01*
X207087Y47578D01*
X207087Y47578D01*
X209794D01*
Y45344D01*
X215719D01*
Y52056D01*
X209794D01*
Y49821D01*
X207552D01*
X205790Y51584D01*
Y55135D01*
D02*
G37*
G36*
X163500Y46100D02*
X162943D01*
X163166Y45766D01*
X163500Y45543D01*
Y46100D01*
D02*
G37*
G36*
X196000Y46486D02*
X195278Y46343D01*
X194666Y45934D01*
X194257Y45322D01*
X194114Y44600D01*
X194164Y44350D01*
X193090Y43276D01*
X191235D01*
Y34202D01*
X191895D01*
Y32184D01*
X188081D01*
Y33139D01*
X184519D01*
Y29121D01*
X184519D01*
X184519Y29121D01*
X184519Y28986D01*
Y28414D01*
D01*
D01*
D01*
D01*
X184519D01*
Y27532D01*
X183562Y27242D01*
X183434Y27434D01*
X182822Y27843D01*
X182100Y27986D01*
X181378Y27843D01*
X180963Y27565D01*
X180081Y28037D01*
Y28279D01*
X180081D01*
X180081Y28279D01*
X180081Y28414D01*
Y28700D01*
Y28986D01*
X180081Y29121D01*
X180081Y29121D01*
X180081D01*
Y33139D01*
X180081D01*
X179634Y33766D01*
X179634Y33766D01*
X180043Y34378D01*
X180186Y35100D01*
X180043Y35822D01*
X179634Y36434D01*
X179022Y36843D01*
X178300Y36986D01*
X177578Y36843D01*
X176966Y36434D01*
X176557Y35822D01*
X176414Y35100D01*
X176557Y34378D01*
X176966Y33766D01*
X176966Y33766D01*
X176519Y33139D01*
X176519D01*
Y29121D01*
X176519D01*
X176519Y29121D01*
X176519Y28986D01*
Y28414D01*
D01*
D01*
D01*
D01*
X176519D01*
Y24261D01*
X180081D01*
Y24261D01*
X180766Y24766D01*
Y24766D01*
X180766Y24766D01*
X181378Y24357D01*
X182100Y24214D01*
X182822Y24357D01*
X183434Y24766D01*
X183562Y24958D01*
X184519Y24668D01*
Y24261D01*
X188081D01*
Y28279D01*
X188081D01*
X188081Y28279D01*
X188081Y28414D01*
Y28700D01*
Y28986D01*
X188081Y29121D01*
X188081Y29121D01*
X188081D01*
Y29941D01*
X191895D01*
Y23198D01*
X191235D01*
Y14124D01*
X194798D01*
Y23198D01*
X194138D01*
Y34202D01*
X194798D01*
Y41812D01*
X195750Y42764D01*
X196000Y42714D01*
X196722Y42857D01*
X197334Y43266D01*
X197743Y43878D01*
X197886Y44600D01*
X197743Y45322D01*
X197334Y45934D01*
X196722Y46343D01*
X196000Y46486D01*
D02*
G37*
G36*
X247000Y41431D02*
Y39000D01*
X249431D01*
X249103Y39792D01*
X248534Y40534D01*
X247792Y41103D01*
X247000Y41431D01*
D02*
G37*
G36*
X210800Y78457D02*
Y77900D01*
X211357D01*
X211134Y78234D01*
X210800Y78457D01*
D02*
G37*
G36*
X163500Y48657D02*
X163166Y48434D01*
X162943Y48100D01*
X163500D01*
Y48657D01*
D02*
G37*
G36*
X245000Y41431D02*
X244208Y41103D01*
X243466Y40534D01*
X242897Y39792D01*
X242569Y39000D01*
X245000D01*
Y41431D01*
D02*
G37*
G36*
X214017Y43276D02*
X213235D01*
Y39739D01*
X214017D01*
Y43276D01*
D02*
G37*
G36*
X216798D02*
X216017D01*
Y39739D01*
X216798D01*
Y43276D01*
D02*
G37*
G36*
X206662D02*
X205881D01*
Y39739D01*
X206662D01*
Y43276D01*
D02*
G37*
G36*
X209443D02*
X208662D01*
Y39739D01*
X209443D01*
Y43276D01*
D02*
G37*
G36*
X200600Y34057D02*
Y33500D01*
X201157D01*
X200934Y33834D01*
X200600Y34057D01*
D02*
G37*
G36*
X205790Y59440D02*
X203828D01*
Y58265D01*
X205790D01*
Y59440D01*
D02*
G37*
G36*
X201828D02*
X199865D01*
Y58265D01*
X201828D01*
Y59440D01*
D02*
G37*
G36*
X217700Y27457D02*
X217366Y27234D01*
X217143Y26900D01*
X217700D01*
Y27457D01*
D02*
G37*
G36*
X219700D02*
Y26900D01*
X220257D01*
X220034Y27234D01*
X219700Y27457D01*
D02*
G37*
G36*
X234500Y58357D02*
Y57800D01*
X235057D01*
X234834Y58134D01*
X234500Y58357D01*
D02*
G37*
G36*
X232500D02*
X232166Y58134D01*
X231943Y57800D01*
X232500D01*
Y58357D01*
D02*
G37*
G36*
X209100Y74057D02*
X208766Y73834D01*
X208543Y73500D01*
X209100D01*
Y74057D01*
D02*
G37*
G36*
X211100D02*
Y73500D01*
X211657D01*
X211434Y73834D01*
X211100Y74057D01*
D02*
G37*
G36*
X203357Y24400D02*
X202800D01*
Y23843D01*
X203134Y24066D01*
X203357Y24400D01*
D02*
G37*
G36*
X217700Y24900D02*
X217143D01*
X217366Y24566D01*
X217700Y24343D01*
Y24900D01*
D02*
G37*
G36*
X201828Y62615D02*
X199865D01*
Y61440D01*
X201828D01*
Y62615D01*
D02*
G37*
G36*
X200800Y24400D02*
X200243D01*
X200466Y24066D01*
X200800Y23843D01*
Y24400D01*
D02*
G37*
G36*
Y26957D02*
X200466Y26734D01*
X200243Y26400D01*
X200800D01*
Y26957D01*
D02*
G37*
G36*
X202800D02*
Y26400D01*
X203357D01*
X203134Y26734D01*
X202800Y26957D01*
D02*
G37*
G36*
X220257Y24900D02*
X219700D01*
Y24343D01*
X220034Y24566D01*
X220257Y24900D01*
D02*
G37*
G36*
X238600Y60257D02*
X238266Y60034D01*
X238043Y59700D01*
X238600D01*
Y60257D01*
D02*
G37*
G36*
X235057Y55800D02*
X234500D01*
Y55243D01*
X234834Y55466D01*
X235057Y55800D01*
D02*
G37*
G36*
X232500D02*
X231943D01*
X232166Y55466D01*
X232500Y55243D01*
Y55800D01*
D02*
G37*
G36*
X222000Y31600D02*
X221443D01*
X221666Y31266D01*
X222000Y31043D01*
Y31600D01*
D02*
G37*
G36*
X224557D02*
X224000D01*
Y31043D01*
X224334Y31266D01*
X224557Y31600D01*
D02*
G37*
G36*
X140357Y33200D02*
X139800D01*
Y32643D01*
X140134Y32866D01*
X140357Y33200D01*
D02*
G37*
G36*
X198600Y34057D02*
X198266Y33834D01*
X198043Y33500D01*
X198600D01*
Y34057D01*
D02*
G37*
G36*
X142757Y54200D02*
X142200D01*
Y53643D01*
X142534Y53866D01*
X142757Y54200D01*
D02*
G37*
G36*
X137800Y33200D02*
X137243D01*
X137466Y32866D01*
X137800Y32643D01*
Y33200D01*
D02*
G37*
G36*
X238600Y57700D02*
X238043D01*
X238266Y57366D01*
X238600Y57143D01*
Y57700D01*
D02*
G37*
G36*
X142200Y56757D02*
Y56200D01*
X142757D01*
X142534Y56534D01*
X142200Y56757D01*
D02*
G37*
G36*
X215719Y59700D02*
X213757D01*
Y57344D01*
X215719D01*
Y59700D01*
D02*
G37*
G36*
X211757D02*
X209794D01*
Y57344D01*
X211757D01*
Y59700D01*
D02*
G37*
G36*
X198600Y31500D02*
X198043D01*
X198266Y31166D01*
X198600Y30943D01*
Y31500D01*
D02*
G37*
G36*
X201157D02*
X200600D01*
Y30943D01*
X200934Y31166D01*
X201157Y31500D01*
D02*
G37*
G36*
X140200Y56757D02*
X139866Y56534D01*
X139643Y56200D01*
X140200D01*
Y56757D01*
D02*
G37*
G36*
X161950Y64640D02*
X160749Y64482D01*
X159630Y64018D01*
X158669Y63281D01*
X157932Y62320D01*
X157468Y61201D01*
X157310Y60000D01*
X157468Y58799D01*
X157932Y57680D01*
X158669Y56719D01*
X159630Y55982D01*
X160749Y55518D01*
X161950Y55360D01*
X163151Y55518D01*
X164270Y55982D01*
X165231Y56719D01*
X165968Y57680D01*
X166432Y58799D01*
X166590Y60000D01*
X166432Y61201D01*
X165968Y62320D01*
X165231Y63281D01*
X164270Y64018D01*
X163151Y64482D01*
X161950Y64640D01*
D02*
G37*
%LPD*%
D10*
X62457Y86000D02*
D03*
X69543D02*
D03*
X222457Y173600D02*
D03*
X229543D02*
D03*
X321543Y92000D02*
D03*
X314457D02*
D03*
X47543Y78000D02*
D03*
X40457D02*
D03*
X180757Y98200D02*
D03*
X187843D02*
D03*
X212757Y48700D02*
D03*
X219843D02*
D03*
X180757Y108700D02*
D03*
X187843D02*
D03*
X219843Y118700D02*
D03*
X212757D02*
D03*
X212757Y60700D02*
D03*
X219843D02*
D03*
X187843Y86700D02*
D03*
X180757D02*
D03*
X212757Y130700D02*
D03*
X219843D02*
D03*
D11*
X65400Y100000D02*
D03*
X46600D02*
D03*
X219400Y158000D02*
D03*
X200600D02*
D03*
X46600Y116000D02*
D03*
X65400D02*
D03*
D12*
X336000Y114000D02*
D03*
X348000D02*
D03*
D13*
X342000Y108000D02*
D03*
D14*
Y154000D02*
D03*
D15*
Y126000D02*
D03*
D16*
X204000Y189000D02*
D03*
D17*
X210000Y175000D02*
D03*
X204000D02*
D03*
X198000D02*
D03*
D18*
X286600Y85100D02*
D03*
X284000D02*
D03*
X281400D02*
D03*
Y92300D02*
D03*
X284000D02*
D03*
X286600D02*
D03*
D19*
X302000Y98000D02*
D03*
Y86000D02*
D03*
D20*
X296000Y92000D02*
D03*
D21*
X184000Y186300D02*
D03*
Y173700D02*
D03*
X242000Y186300D02*
D03*
Y173700D02*
D03*
D22*
X40000Y42457D02*
D03*
Y49543D02*
D03*
X50000Y42457D02*
D03*
Y49543D02*
D03*
D23*
X283576Y58047D02*
D03*
X293024D02*
D03*
Y51354D02*
D03*
X283576D02*
D03*
D24*
X261938Y168700D02*
D03*
X266662D02*
D03*
X220662Y76700D02*
D03*
X215938D02*
D03*
X288362Y70000D02*
D03*
X283638D02*
D03*
Y76000D02*
D03*
X288362D02*
D03*
X283638Y102000D02*
D03*
X288362D02*
D03*
Y108000D02*
D03*
X283638D02*
D03*
X261938Y152700D02*
D03*
X266662D02*
D03*
D25*
X267292Y160700D02*
D03*
X261308D02*
D03*
Y176700D02*
D03*
X267292D02*
D03*
D26*
X267379Y130700D02*
D03*
X277221D02*
D03*
D27*
X193772Y56700D02*
D03*
X202828Y52960D02*
D03*
Y60440D02*
D03*
X193772Y128700D02*
D03*
X202828Y124960D02*
D03*
Y132440D02*
D03*
X37472Y66000D02*
D03*
X46528Y62260D02*
D03*
Y69740D02*
D03*
D28*
X240300Y114338D02*
D03*
Y119062D02*
D03*
X272300Y114338D02*
D03*
Y119062D02*
D03*
X276300Y52338D02*
D03*
Y57062D02*
D03*
X300300D02*
D03*
Y52338D02*
D03*
X284300Y133062D02*
D03*
Y128338D02*
D03*
X260300Y133062D02*
D03*
Y128338D02*
D03*
X234300Y114338D02*
D03*
Y119062D02*
D03*
X262300Y52338D02*
D03*
Y57062D02*
D03*
X256300Y52338D02*
D03*
Y57062D02*
D03*
X66300Y142338D02*
D03*
Y147062D02*
D03*
X186300Y31062D02*
D03*
Y26338D02*
D03*
X178300Y31062D02*
D03*
Y26338D02*
D03*
D29*
X229583Y38739D02*
D03*
Y18661D02*
D03*
X214938D02*
D03*
X215017Y38739D02*
D03*
X193017Y18661D02*
D03*
Y38739D02*
D03*
X207662D02*
D03*
X207583Y18661D02*
D03*
X307017Y16661D02*
D03*
Y36739D02*
D03*
X321662D02*
D03*
X321583Y16661D02*
D03*
D30*
X236000Y140528D02*
D03*
X232260Y131472D02*
D03*
X239740D02*
D03*
D31*
X57024Y148243D02*
D03*
Y141157D02*
D03*
D32*
X47576Y148243D02*
D03*
Y144700D02*
D03*
D33*
Y141157D02*
D03*
D34*
X46000Y160700D02*
D03*
X58600D02*
D03*
X47700Y130000D02*
D03*
X60300D02*
D03*
D35*
X182300Y121300D02*
D03*
Y140100D02*
D03*
Y45300D02*
D03*
Y64100D02*
D03*
D36*
X243371Y101695D02*
D03*
X245339D02*
D03*
X247307D02*
D03*
X249276D02*
D03*
X251244D02*
D03*
X253213D02*
D03*
X255182D02*
D03*
X257150D02*
D03*
X259119D02*
D03*
X261087D02*
D03*
Y75705D02*
D03*
X259119D02*
D03*
X257150D02*
D03*
X255182D02*
D03*
X253213D02*
D03*
X251244D02*
D03*
X249276D02*
D03*
X247307D02*
D03*
X245339D02*
D03*
X243371D02*
D03*
D37*
X265295Y97558D02*
D03*
Y95590D02*
D03*
Y93621D02*
D03*
Y91653D02*
D03*
Y89684D02*
D03*
Y87716D02*
D03*
Y85747D02*
D03*
Y83779D02*
D03*
Y81810D02*
D03*
Y79842D02*
D03*
X239305D02*
D03*
Y81810D02*
D03*
Y83779D02*
D03*
Y85747D02*
D03*
Y87716D02*
D03*
Y89684D02*
D03*
Y91653D02*
D03*
Y93621D02*
D03*
Y95590D02*
D03*
Y97558D02*
D03*
D38*
X252395Y88605D02*
D03*
D39*
X62457Y82743D02*
Y86000D01*
Y82743D02*
X72000Y73200D01*
Y68000D02*
Y73200D01*
X69543Y86000D02*
X74000D01*
X86000Y74000D01*
X65400Y100000D02*
Y105400D01*
X154400Y70100D02*
X154800Y69700D01*
X176800D01*
X105600Y165700D02*
X118600D01*
X105500Y165800D02*
X105600Y165700D01*
X63700Y165800D02*
X105500D01*
X18600Y78000D02*
X40457D01*
X46528Y76984D02*
X47543Y78000D01*
X46528Y69740D02*
Y76984D01*
X34600Y68700D02*
X37300Y66000D01*
X37472D01*
X65400Y100000D02*
X65500Y99900D01*
X54300Y136000D02*
X60300Y130000D01*
X49200Y136000D02*
X54300D01*
X47576Y137624D02*
X49200Y136000D01*
X47576Y137624D02*
Y141157D01*
Y148243D02*
Y151024D01*
X60300Y130000D02*
X65400Y124900D01*
Y116000D02*
Y124900D01*
X180757Y98200D02*
Y108700D01*
X67300Y98200D02*
X180757D01*
X180757Y98200D01*
Y86700D02*
Y98200D01*
X176800Y69700D02*
X182300Y64200D01*
X178800Y191500D02*
X184000Y186300D01*
X60800Y191500D02*
X178800D01*
X58300Y189000D02*
X60800Y191500D01*
X196700Y173700D02*
X198000Y175000D01*
X184000Y173700D02*
X196700D01*
X210000Y175000D02*
X221057D01*
X222457Y173600D01*
Y161057D02*
Y173600D01*
X219400Y158000D02*
X222457Y161057D01*
X229543Y173600D02*
X236000Y167143D01*
Y140528D02*
Y167143D01*
X204000Y175000D02*
Y189000D01*
Y173000D02*
Y175000D01*
Y161400D02*
Y175000D01*
X200600Y158000D02*
X204000Y161400D01*
X58300Y182700D02*
Y189000D01*
X186700D02*
X204000D01*
X184000Y186300D02*
X186700Y189000D01*
X342000Y108000D02*
Y126000D01*
X259100Y176700D02*
X261308D01*
X256600Y174200D02*
X259100Y176700D01*
X57024Y141157D02*
X65119D01*
X66300Y142338D01*
X58600Y149819D02*
Y160700D01*
X57024Y148243D02*
X58600Y149819D01*
X182400Y139900D02*
X185600D01*
X167980Y154320D02*
X182400Y139900D01*
X154370Y154320D02*
X167980D01*
X193800Y64200D02*
X194300Y64700D01*
X182300Y64200D02*
X193800D01*
X187843Y108700D02*
X194300D01*
X187843Y98200D02*
X188343Y97700D01*
X194300D01*
X154370Y35080D02*
X168180D01*
X178400Y45300D01*
X182300D01*
X182372D02*
X193772Y56700D01*
X154370Y107080D02*
X168590Y121300D01*
X186372D02*
X193772Y128700D01*
X168590Y121300D02*
X182300D01*
X186372D01*
X185600Y139900D02*
X189920Y135580D01*
X58600Y160700D02*
X63700Y165800D01*
D40*
X72000Y62000D02*
Y68000D01*
X83963Y93400D02*
X88263Y89100D01*
X22600Y93400D02*
X83963D01*
X18300Y97700D02*
X22600Y93400D01*
X83300Y91800D02*
X100200Y74900D01*
X22400Y91800D02*
X83300D01*
X18300Y87700D02*
X22400Y91800D01*
X73600Y7400D02*
X229700D01*
X50000Y31000D02*
X73600Y7400D01*
X50000Y31000D02*
Y42457D01*
X256000Y38000D02*
Y43900D01*
X247600Y52300D02*
X256000Y43900D01*
X247600Y52300D02*
Y62900D01*
X249400Y53100D02*
X257900Y44600D01*
X249400Y53100D02*
Y62100D01*
X259100Y46200D02*
X270600D01*
X256300Y49000D02*
X259100Y46200D01*
X256300Y49000D02*
Y52338D01*
X257900Y44600D02*
X263300D01*
X266000Y41900D01*
X270600Y46200D02*
X277700Y39100D01*
X262300Y57062D02*
Y62900D01*
X259119Y66082D02*
X262300Y62900D01*
X259119Y66082D02*
Y74920D01*
X261087Y66913D02*
X266800Y61200D01*
X261087Y66913D02*
Y74920D01*
X266800Y54563D02*
Y61200D01*
X255182Y67882D02*
Y74920D01*
X249400Y62100D02*
X255182Y67882D01*
X253213Y68513D02*
Y74920D01*
X247600Y62900D02*
X253213Y68513D01*
X46528Y62260D02*
X50000Y58787D01*
Y49543D02*
Y58787D01*
X94700Y182700D02*
X105750Y171650D01*
X78300Y182700D02*
X94700D01*
X105750Y171650D02*
X106550D01*
X120800Y19300D02*
Y71300D01*
Y19300D02*
X130700Y9400D01*
X266000Y38000D02*
Y41900D01*
X239600Y43800D02*
X245900Y50100D01*
X239600Y13800D02*
Y43800D01*
X70600Y60600D02*
X72000Y62000D01*
X70600Y16100D02*
Y60600D01*
X277700Y28000D02*
Y39100D01*
X270400Y20700D02*
X277700Y28000D01*
X266800Y54563D02*
X284623Y36739D01*
X307017D01*
X289300Y20700D02*
Y29800D01*
X266762Y52338D02*
X289300Y29800D01*
X262300Y52338D02*
X266762D01*
X251244Y69744D02*
Y74920D01*
X245900Y64400D02*
X251244Y69744D01*
X245900Y50100D02*
Y64400D01*
X242700Y66700D02*
X247307Y71307D01*
X242700Y52300D02*
Y66700D01*
X232647Y42247D02*
X242700Y52300D01*
X244300Y65700D02*
X249276Y70676D01*
X244300Y51200D02*
Y65700D01*
X234400Y41300D02*
X244300Y51200D01*
X249276Y70676D02*
Y74920D01*
X247307Y71307D02*
Y74920D01*
X245339Y71739D02*
Y74920D01*
X242757Y69157D02*
X245339Y71739D01*
X18600Y78000D02*
X19300Y78700D01*
X18300Y77700D02*
X18600Y78000D01*
X88263Y89100D02*
X88400D01*
X101000Y76500D01*
X100200Y74900D02*
X191600D01*
X101000Y76500D02*
X190600D01*
X130700Y9400D02*
X229314D01*
X234400Y12100D02*
Y41300D01*
X229700Y7400D02*
X234400Y12100D01*
X229314Y9400D02*
X232700Y12786D01*
X232647Y36359D02*
Y42247D01*
X263700Y146000D02*
X279400D01*
X255182Y137481D02*
X263700Y146000D01*
X255182Y102480D02*
Y137481D01*
X253213Y138113D02*
X262800Y147700D01*
X253213Y102480D02*
Y138113D01*
X262800Y147700D02*
X278500D01*
X279400Y146000D02*
X290300Y156900D01*
X278500Y147700D02*
X285700Y154900D01*
X290300Y156900D02*
Y175700D01*
X232700Y12786D02*
Y36306D01*
X232647Y36359D02*
X232700Y36306D01*
X255300Y20700D02*
X270400D01*
X284400Y63400D02*
X287671D01*
X273700Y74100D02*
X284400Y63400D01*
X273700Y74100D02*
Y80300D01*
X269600Y87716D02*
X269784Y87900D01*
X266079Y87716D02*
X269600D01*
X269784Y87900D02*
X278600D01*
X281400Y85100D01*
X271753Y85747D02*
X281500Y76000D01*
X266079Y85747D02*
X271753D01*
X270221Y83779D02*
X273700Y80300D01*
X266079Y83779D02*
X270221D01*
X277300Y102000D02*
X283638D01*
X270890Y95590D02*
X277300Y102000D01*
X266079Y95590D02*
X270890D01*
X276521Y108000D02*
X283638D01*
X266079Y97558D02*
X276521Y108000D01*
X281500Y76000D02*
X283638D01*
X284000Y85100D02*
Y92300D01*
X283638Y70000D02*
Y76000D01*
X287671Y63400D02*
X293024Y58047D01*
X219843Y130700D02*
X220616Y131472D01*
X232260D01*
X261308Y176700D02*
Y183308D01*
X263700Y185700D01*
X280300D01*
X244400Y136132D02*
Y162400D01*
X239740Y131472D02*
X244400Y136132D01*
X219843Y60700D02*
Y69157D01*
X205896Y79796D02*
X207910Y81810D01*
X200479Y83779D02*
X238521D01*
X191600Y74900D02*
X200479Y83779D01*
X190600Y76500D02*
X199847Y85747D01*
X238521D01*
X219843Y69157D02*
X242757D01*
X271800Y54300D02*
Y79200D01*
X269190Y81810D02*
X271800Y79200D01*
X249276Y102480D02*
Y119824D01*
X244500Y124600D02*
X249276Y119824D01*
X215300Y124600D02*
X244500D01*
X212757Y127143D02*
X215300Y124600D01*
X212757Y127143D02*
Y130700D01*
X286600Y92300D02*
X314157D01*
X314457Y92000D01*
X269784Y89500D02*
X278600D01*
X281400Y92300D01*
X266079Y89684D02*
X269600D01*
X269784Y89500D01*
X233700Y186300D02*
X242000D01*
X229543Y182143D02*
X233700Y186300D01*
X229543Y173600D02*
Y182143D01*
X261308Y153330D02*
X261938Y152700D01*
X261308Y153330D02*
Y160700D01*
X307017Y36739D02*
X307256Y36500D01*
X310300D01*
X266800Y165200D02*
X267292Y164708D01*
Y160700D02*
Y164708D01*
X266662Y168700D02*
X266800Y168562D01*
Y165200D02*
Y168562D01*
X285700Y181100D02*
X290300Y185700D01*
X285700Y154900D02*
Y181100D01*
X266662Y168700D02*
Y176700D01*
X250700Y12000D02*
X270600D01*
X245300Y17400D02*
X250700Y12000D01*
X245300Y17400D02*
Y20700D01*
X270600Y12000D02*
X279300Y20700D01*
X307017Y16661D02*
Y36739D01*
X267800Y74200D02*
Y78121D01*
X266079Y79842D02*
X267800Y78121D01*
X266079Y81810D02*
X269190D01*
X207910D02*
X238521D01*
X238479Y79800D02*
X239900D01*
X243371Y102480D02*
Y104630D01*
X233800Y114200D02*
X243371Y104630D01*
X243800Y113700D02*
X245339Y112161D01*
X240300Y114338D02*
X243162D01*
X245339Y102480D02*
Y112161D01*
X241650Y73200D02*
X243371Y74920D01*
X235379Y76700D02*
X238479Y79800D01*
X224800Y76700D02*
X235379D01*
X220662D02*
X224800D01*
X272300Y113692D02*
Y114338D01*
X261087Y102480D02*
X272300Y113692D01*
X187843Y86700D02*
X188300Y86243D01*
Y81700D02*
Y86243D01*
X202828Y124960D02*
X203087Y124700D01*
X257150Y57062D02*
Y74920D01*
X260300Y128338D02*
X265017D01*
X267379Y130700D01*
Y127279D02*
Y130700D01*
X257150Y117050D02*
X267379Y127279D01*
X257150Y102480D02*
Y117050D01*
X277221Y130700D02*
X279584Y128338D01*
X284300D01*
X259119Y112597D02*
X277221Y130700D01*
X259119Y102480D02*
Y112597D01*
X272938Y113700D02*
X280800D01*
X293024Y58047D02*
X294009Y57062D01*
X300300D01*
X291024Y58047D02*
X293024D01*
X282591Y52338D02*
X283576Y51354D01*
X266079Y93621D02*
Y95590D01*
Y91653D02*
Y93621D01*
X232284Y87716D02*
X238521D01*
X230300Y89700D02*
X232284Y87716D01*
X231300Y73200D02*
X241650D01*
X230300Y72200D02*
Y72700D01*
X212300Y130243D02*
X212757Y130700D01*
X206497Y124960D02*
X212757Y118700D01*
X202828Y124960D02*
X206497D01*
X207087Y48700D02*
X212757D01*
X202828Y52960D02*
X207087Y48700D01*
X219843D02*
Y54157D01*
X219800Y54200D02*
X219843Y54157D01*
X188300Y69200D02*
X219800D01*
X271800Y54300D02*
X273762Y52338D01*
X282591D01*
X219843Y104957D02*
X235100Y89700D01*
X238505D01*
X219843Y104957D02*
Y118700D01*
X193017Y41617D02*
X196000Y44600D01*
X193017Y38739D02*
Y41617D01*
X186300Y31062D02*
X192954D01*
X193017Y18661D02*
Y38739D01*
X178300Y31062D02*
Y35100D01*
X224300Y38400D02*
X224639Y38739D01*
X229583D01*
Y18661D02*
Y38739D01*
X228800Y39523D02*
X229583Y38739D01*
X228800Y39523D02*
Y52700D01*
X230300Y72200D02*
X231300Y73200D01*
X178538Y26100D02*
X182100D01*
X186062D01*
X182300Y45300D02*
X182372D01*
D41*
X18300Y43700D02*
X19543Y42457D01*
X40000D01*
X18300Y53700D02*
X35843D01*
X40000Y49543D01*
X46600Y100000D02*
Y116000D01*
X40200D02*
X46600D01*
X35300Y120900D02*
X40200Y116000D01*
X341200Y102900D02*
Y107200D01*
X342000Y108000D01*
X321543Y92000D02*
X325500D01*
X18300Y43700D02*
X18843Y43157D01*
D42*
X86000Y74000D02*
X106050Y53950D01*
Y36380D02*
Y53950D01*
D43*
X330300Y92000D02*
X341200Y102900D01*
X325500Y92000D02*
X330300D01*
D44*
X86000Y74000D02*
D03*
X154070Y36380D02*
D03*
Y83620D02*
D03*
X106050Y36380D02*
D03*
Y83620D02*
D03*
X161950Y60000D02*
D03*
X154070Y108380D02*
D03*
Y155620D02*
D03*
X106050Y108380D02*
D03*
Y155620D02*
D03*
X161950Y132000D02*
D03*
D45*
X86000Y34000D02*
D03*
D46*
X18000Y130000D02*
D03*
X18300Y77700D02*
D03*
Y43700D02*
D03*
D47*
X18000Y140000D02*
D03*
Y150000D02*
D03*
X18300Y107700D02*
D03*
Y97700D02*
D03*
Y87700D02*
D03*
Y53700D02*
D03*
D48*
X62000Y68000D02*
D03*
D49*
X72000D02*
D03*
D50*
X266000Y38000D02*
D03*
X280300Y175700D02*
D03*
D51*
X256000Y38000D02*
D03*
X246000D02*
D03*
X280300Y185700D02*
D03*
X290300Y175700D02*
D03*
Y185700D02*
D03*
X300300Y175700D02*
D03*
Y185700D02*
D03*
X310300Y175700D02*
D03*
Y185700D02*
D03*
X320300Y175700D02*
D03*
Y185700D02*
D03*
D52*
X58300Y182700D02*
D03*
X289300Y20700D02*
D03*
X255300D02*
D03*
D53*
X68300Y182700D02*
D03*
X78300D02*
D03*
X279300Y20700D02*
D03*
X245300D02*
D03*
D54*
X340300Y176700D02*
D03*
X18300Y14700D02*
D03*
X19100Y176700D02*
D03*
X340300Y14700D02*
D03*
D55*
X40000Y176000D02*
D03*
X324300Y54700D02*
D03*
X35300Y120900D02*
D03*
D56*
X254331Y94605D02*
D03*
X250331D02*
D03*
X258206Y82794D02*
D03*
X254331D02*
D03*
X246394D02*
D03*
X258206Y86700D02*
D03*
X254331D02*
D03*
X246394Y86731D02*
D03*
Y94605D02*
D03*
X258206D02*
D03*
X250331Y86700D02*
D03*
Y82794D02*
D03*
Y90668D02*
D03*
X246394D02*
D03*
X254331D02*
D03*
X258206D02*
D03*
D57*
X6000Y28600D02*
D03*
Y48400D02*
D03*
X6300Y75900D02*
D03*
X6000Y96900D02*
D03*
X6300Y123600D02*
D03*
Y145100D02*
D03*
X54300Y66800D02*
D03*
X267300Y67100D02*
D03*
X76000Y35100D02*
D03*
X64400Y26400D02*
D03*
X65400Y105400D02*
D03*
X5900Y166000D02*
D03*
X141200Y55200D02*
D03*
X64600Y36700D02*
D03*
X114000Y67000D02*
D03*
X81800D02*
D03*
X164500Y47100D02*
D03*
X103200Y126900D02*
D03*
X105500Y66800D02*
D03*
X114800Y32700D02*
D03*
X106300Y171400D02*
D03*
X120800Y71300D02*
D03*
X118600Y165700D02*
D03*
X70600Y16100D02*
D03*
X239600Y13800D02*
D03*
X34600Y68700D02*
D03*
X47576Y137624D02*
D03*
Y151024D02*
D03*
X315100Y7800D02*
D03*
X294500Y7600D02*
D03*
X278100Y7100D02*
D03*
X260500Y7400D02*
D03*
X342400Y41000D02*
D03*
Y53700D02*
D03*
X342100Y63100D02*
D03*
X350400Y75000D02*
D03*
X345400Y75100D02*
D03*
X350500Y80500D02*
D03*
X350600Y93000D02*
D03*
X350500Y86500D02*
D03*
X343800Y81800D02*
D03*
X338400Y75000D02*
D03*
X330400Y74500D02*
D03*
X323000Y75000D02*
D03*
X316000D02*
D03*
X316500Y103300D02*
D03*
X324500Y106400D02*
D03*
X330400Y112500D02*
D03*
X330600Y121300D02*
D03*
X324300Y114000D02*
D03*
X324000Y122300D02*
D03*
X323800Y131500D02*
D03*
Y140100D02*
D03*
Y149300D02*
D03*
Y157600D02*
D03*
X323500Y166400D02*
D03*
X148100Y18700D02*
D03*
X142800Y67100D02*
D03*
X31500Y168700D02*
D03*
X139500Y155900D02*
D03*
X79800Y169100D02*
D03*
X83300Y144400D02*
D03*
X83800Y111200D02*
D03*
X34100Y112100D02*
D03*
X29100Y65100D02*
D03*
X56200Y78500D02*
D03*
X45100Y15000D02*
D03*
X304100Y44500D02*
D03*
X275400Y67900D02*
D03*
X283300Y43700D02*
D03*
X275500Y62900D02*
D03*
X289600Y80200D02*
D03*
X289200Y97700D02*
D03*
X275700Y94500D02*
D03*
X267900Y116800D02*
D03*
X263300Y110100D02*
D03*
X272100Y108900D02*
D03*
X268300Y105200D02*
D03*
X151300Y196000D02*
D03*
X191800Y195100D02*
D03*
X206800Y194600D02*
D03*
X269000Y193100D02*
D03*
X98400Y92100D02*
D03*
X244500Y193900D02*
D03*
X116600Y82000D02*
D03*
X162500Y181500D02*
D03*
X183000Y162500D02*
D03*
X190600Y155900D02*
D03*
X220000Y149400D02*
D03*
X210900Y149200D02*
D03*
X200300Y149600D02*
D03*
X255000Y164000D02*
D03*
X250200Y157100D02*
D03*
X253900Y146800D02*
D03*
X249000Y136700D02*
D03*
X248900Y127900D02*
D03*
X221100Y92900D02*
D03*
X205700Y92300D02*
D03*
X233500Y56800D02*
D03*
X233400Y64200D02*
D03*
X239600Y58700D02*
D03*
X240000Y64900D02*
D03*
X173000Y4100D02*
D03*
X118700Y17400D02*
D03*
X169900Y17700D02*
D03*
X145900Y181500D02*
D03*
X126000Y181900D02*
D03*
X103200D02*
D03*
X134900Y139800D02*
D03*
X227800Y106300D02*
D03*
X302100Y67700D02*
D03*
X298800Y125800D02*
D03*
Y139900D02*
D03*
X298000Y152400D02*
D03*
X281100Y102000D02*
D03*
X280929Y76571D02*
D03*
X244400Y162400D02*
D03*
X208800Y65000D02*
D03*
X210100Y72500D02*
D03*
X278100Y164700D02*
D03*
X310300Y36500D02*
D03*
X266800Y165200D02*
D03*
X256600Y174200D02*
D03*
X293000Y42600D02*
D03*
X245200Y7000D02*
D03*
X218700Y25900D02*
D03*
X201800Y25400D02*
D03*
X33000Y83400D02*
D03*
X33600Y103300D02*
D03*
X83800Y126100D02*
D03*
X26100Y26600D02*
D03*
X243800Y113700D02*
D03*
X224800Y76700D02*
D03*
X188300Y81700D02*
D03*
Y69200D02*
D03*
X194300Y64700D02*
D03*
X194300Y108700D02*
D03*
X194300Y97700D02*
D03*
X205896Y79796D02*
D03*
X280800Y113700D02*
D03*
X267800Y74200D02*
D03*
X230300Y89700D02*
D03*
X219800Y54200D02*
D03*
X230300Y72700D02*
D03*
X228800Y52700D02*
D03*
X209800Y76900D02*
D03*
X199600Y32500D02*
D03*
X223000Y32600D02*
D03*
X301300Y29300D02*
D03*
X272900Y140000D02*
D03*
X30200Y72200D02*
D03*
X62600Y3600D02*
D03*
X205000Y65100D02*
D03*
X229000Y118300D02*
D03*
X135800Y118200D02*
D03*
X140800Y83200D02*
D03*
X102600Y18200D02*
D03*
X138800Y34200D02*
D03*
X93500Y3700D02*
D03*
X205200Y107100D02*
D03*
X215100Y97700D02*
D03*
X137000Y3900D02*
D03*
X203200Y136600D02*
D03*
X196000Y44600D02*
D03*
X178300Y35100D02*
D03*
X224300Y38400D02*
D03*
X182100Y26100D02*
D03*
X189920Y135580D02*
D03*
X87300Y19200D02*
D03*
D58*
X154400Y70100D02*
D03*
M02*
