%FSLAX25Y25*%
%MOIN*%
G70*
G01*
G75*
%ADD10R,0.04724X0.05512*%
%ADD11R,0.05500X0.07700*%
%ADD12R,0.04200X0.08800*%
%ADD13R,0.04000X0.04000*%
%ADD14R,0.07200X0.16000*%
%ADD15R,0.07200X0.08000*%
%ADD16R,0.08000X0.02500*%
%ADD17R,0.02500X0.04000*%
%ADD18R,0.01400X0.04000*%
%ADD19R,0.08800X0.04200*%
%ADD20R,0.04000X0.04000*%
%ADD21R,0.07000X0.06000*%
%ADD22R,0.05512X0.04724*%
%ADD23R,0.05906X0.04724*%
%ADD24R,0.02953X0.02362*%
%ADD25R,0.04000X0.03500*%
%ADD26R,0.03937X0.07087*%
%ADD27R,0.04724X0.03150*%
%ADD28R,0.02362X0.02953*%
%ADD29R,0.02362X0.07874*%
%ADD30R,0.03150X0.04724*%
%ADD31R,0.05906X0.01969*%
%ADD32R,0.05906X0.02362*%
%ADD33R,0.05906X0.02480*%
%ADD34R,0.06000X0.07000*%
%ADD35R,0.07700X0.05500*%
%ADD36O,0.01180X0.05906*%
%ADD37O,0.05906X0.01180*%
%ADD38R,0.17716X0.17716*%
%ADD39C,0.02000*%
%ADD40C,0.01000*%
%ADD41C,0.04000*%
%ADD42C,0.08000*%
%ADD43C,0.10000*%
%ADD44C,0.08000*%
%ADD45R,0.08000X0.08000*%
%ADD46R,0.08000X0.06000*%
%ADD47O,0.08000X0.06000*%
%ADD48C,0.06000*%
%ADD49R,0.06000X0.06000*%
%ADD50R,0.05906X0.05906*%
%ADD51C,0.05906*%
%ADD52R,0.06000X0.08000*%
%ADD53O,0.06000X0.08000*%
%ADD54C,0.20000*%
%ADD55C,0.04000*%
%ADD56R,0.03000X0.03000*%
%ADD57C,0.02500*%
%ADD58C,0.05000*%
%ADD59R,0.17700X0.17700*%
%ADD60C,0.00600*%
%ADD61C,0.00984*%
%ADD62C,0.00787*%
%ADD63C,0.00800*%
%ADD64C,0.00400*%
D39*
X16200Y162298D02*
X22864D01*
X19532Y165631D02*
Y158966D01*
D40*
X77171Y68200D02*
G03*
X77171Y68200I-10171J0D01*
G01*
X197916Y170000D02*
G03*
X197916Y170000I-316J0D01*
G01*
X238551Y102873D02*
G03*
X238551Y102873I-424J0D01*
G01*
X79600Y79700D02*
X91300D01*
X79600Y27500D02*
Y79700D01*
Y27500D02*
X79700Y27600D01*
X92100D01*
X92200Y27700D01*
Y79600D01*
X92100Y79700D02*
X92200Y79600D01*
X91300Y79700D02*
X92100D01*
X122450Y45500D02*
X124450Y47500D01*
X107950Y75000D02*
X124450D01*
Y70000D02*
Y75000D01*
X107950Y42500D02*
X124450D01*
Y47500D01*
X136950Y60000D01*
X153450D01*
X171950Y27500D02*
Y93500D01*
X171450Y93000D02*
X171950Y93500D01*
X96950Y93000D02*
X171450D01*
X96950Y27500D02*
Y93000D01*
Y27500D02*
X171950D01*
X23800Y148300D02*
Y152100D01*
X28000Y147400D02*
Y148300D01*
X23800D02*
X28000D01*
Y132800D02*
Y147400D01*
X23800Y152100D02*
X28200D01*
Y158600D01*
X3200D02*
X28200D01*
X2500Y157900D02*
X3200Y158600D01*
X2500Y120500D02*
Y157900D01*
Y120500D02*
X17500D01*
X23500Y132800D02*
X28000D01*
X23500Y129000D02*
Y132800D01*
Y129000D02*
X28000D01*
Y120500D02*
Y129000D01*
X17500Y120500D02*
X28000D01*
X74000Y82000D02*
Y90000D01*
X58000D02*
X74000D01*
X58000Y82000D02*
Y90000D01*
Y82000D02*
X74000D01*
X122450Y117500D02*
X124450Y119500D01*
X107950Y147000D02*
X124450D01*
Y142000D02*
Y147000D01*
X107950Y114500D02*
X124450D01*
Y119500D01*
X136950Y132000D01*
X153450D01*
X171950Y99500D02*
Y165500D01*
X171450Y165000D02*
X171950Y165500D01*
X96950Y165000D02*
X171450D01*
X96950Y99500D02*
Y165000D01*
Y99500D02*
X171950D01*
X194900Y171800D02*
X195300Y171400D01*
X194900Y171800D02*
Y191500D01*
X212900D01*
Y171500D02*
Y191500D01*
X212800Y171400D02*
X212900Y171500D01*
X195300Y171400D02*
X212800D01*
X234000Y169600D02*
Y177600D01*
X218000D02*
X234000D01*
X218000Y169600D02*
Y177600D01*
Y169600D02*
X234000D01*
X76600Y176900D02*
X80400D01*
X75700Y172700D02*
X76600D01*
Y176900D01*
X61100Y172700D02*
X75700D01*
X80400Y172500D02*
Y176900D01*
Y172500D02*
X86900D01*
Y197500D01*
X86200Y198200D02*
X86900Y197500D01*
X48800Y198200D02*
X86200D01*
X48800Y183200D02*
Y198200D01*
X61100Y172700D02*
Y177200D01*
X57300D02*
X61100D01*
X57300Y172700D02*
Y177200D01*
X48800Y172700D02*
X57300D01*
X48800D02*
Y183200D01*
X299300Y5700D02*
Y20700D01*
X269300Y7200D02*
Y25200D01*
Y30700D01*
X276800D01*
Y26700D02*
Y30700D01*
Y26700D02*
X280300D01*
Y30700D01*
X287800D01*
Y26700D02*
Y30700D01*
Y26700D02*
X291300D01*
Y30700D01*
X299300D01*
Y20700D02*
Y30700D01*
X269300Y5700D02*
X299300D01*
X269300D02*
Y7200D01*
X265300Y5700D02*
Y20700D01*
X235300Y7200D02*
Y25200D01*
Y30700D01*
X242800D01*
Y26700D02*
Y30700D01*
Y26700D02*
X246300D01*
Y30700D01*
X253800D01*
Y26700D02*
Y30700D01*
Y26700D02*
X257300D01*
Y30700D01*
X265300D01*
Y20700D02*
Y30700D01*
X235300Y5700D02*
X265300D01*
X235300D02*
Y7200D01*
X36000Y38000D02*
Y54000D01*
X44000D01*
Y38000D02*
Y54000D01*
X36000Y38000D02*
X44000D01*
X310000Y88000D02*
Y96000D01*
Y88000D02*
X326000D01*
Y96000D01*
X310000D02*
X326000D01*
X18300Y67700D02*
X28300D01*
Y76700D01*
X23800D02*
X28300D01*
X23800D02*
Y80200D01*
X28300D01*
Y106700D01*
X23800D02*
X28300D01*
X23800D02*
Y109700D01*
X28300D01*
Y117200D01*
X2800D02*
X28300D01*
X2800Y68200D02*
Y117200D01*
Y68200D02*
X3300Y67700D01*
X18300D01*
X3300Y63700D02*
X4800D01*
X3300Y33700D02*
Y63700D01*
X18300Y33700D02*
X28300D01*
Y41700D01*
X24300D02*
X28300D01*
X24300D02*
Y45200D01*
X28300D01*
Y52700D01*
X24300D02*
X28300D01*
X24300D02*
Y56200D01*
X28300D01*
Y63700D01*
X22800D02*
X28300D01*
X4800D02*
X22800D01*
X3300Y33700D02*
X18300D01*
X36000Y74000D02*
Y82000D01*
Y74000D02*
X52000D01*
Y82000D01*
X36000D02*
X52000D01*
X192300Y94200D02*
Y102200D01*
X176300D02*
X192300D01*
X176300Y94200D02*
Y102200D01*
Y94200D02*
X192300D01*
X224300Y44700D02*
Y52700D01*
X208300D02*
X224300D01*
X208300Y44700D02*
Y52700D01*
Y44700D02*
X224300D01*
X192300Y104700D02*
Y112700D01*
X176300D02*
X192300D01*
X176300Y104700D02*
Y112700D01*
Y104700D02*
X192300D01*
X208300Y114700D02*
Y122700D01*
Y114700D02*
X224300D01*
Y122700D01*
X208300D02*
X224300D01*
Y56700D02*
Y64700D01*
X208300D02*
X224300D01*
X208300Y56700D02*
Y64700D01*
Y56700D02*
X224300D01*
X176300Y82700D02*
Y90700D01*
Y82700D02*
X192300D01*
Y90700D01*
X176300D02*
X192300D01*
X293800Y170700D02*
Y171700D01*
X306800D01*
Y170700D02*
Y171700D01*
X208300Y134700D02*
X224300D01*
Y126700D02*
Y134700D01*
X208300Y126700D02*
X224300D01*
X208300D02*
Y134700D01*
X46000Y38000D02*
Y54000D01*
X54000D01*
Y38000D02*
Y54000D01*
X46000Y38000D02*
X54000D01*
X60900Y139071D02*
Y150471D01*
X43600Y139071D02*
X60900D01*
X43600D02*
Y150471D01*
X60900D01*
X52463Y139071D02*
Y150471D01*
X78700Y81800D02*
Y87798D01*
X81699D01*
X82699Y86798D01*
Y84799D01*
X81699Y83799D01*
X78700D01*
X80699D02*
X82699Y81800D01*
X84698D02*
X86697D01*
X85698D01*
Y87798D01*
X84698Y86798D01*
X89696Y87798D02*
X93695D01*
Y86798D01*
X89696Y82800D01*
Y81800D01*
X100000Y17400D02*
Y23398D01*
X102999D01*
X103999Y22398D01*
Y20399D01*
X102999Y19399D01*
X100000D01*
X101999D02*
X103999Y17400D01*
X109997Y23398D02*
X105998D01*
Y17400D01*
X109997D01*
X105998Y20399D02*
X107997D01*
X111996Y23398D02*
Y17400D01*
X115995D01*
X117994D02*
Y21399D01*
X119993Y23398D01*
X121993Y21399D01*
Y17400D01*
Y20399D01*
X117994D01*
X123992Y23398D02*
Y22398D01*
X125992Y20399D01*
X127991Y22398D01*
Y23398D01*
X125992Y20399D02*
Y17400D01*
X133989D02*
X129990D01*
X133989Y21399D01*
Y22398D01*
X132989Y23398D01*
X130990D01*
X129990Y22398D01*
X75300Y90300D02*
Y96298D01*
X78299D01*
X79299Y95298D01*
Y93299D01*
X78299Y92299D01*
X75300D01*
X77299D02*
X79299Y90300D01*
X81298D02*
X83297D01*
X82298D01*
Y96298D01*
X81298Y95298D01*
X86296D02*
X87296Y96298D01*
X89296D01*
X90295Y95298D01*
Y94299D01*
X89296Y93299D01*
X90295Y92299D01*
Y91300D01*
X89296Y90300D01*
X87296D01*
X86296Y91300D01*
Y92299D01*
X87296Y93299D01*
X86296Y94299D01*
Y95298D01*
X87296Y93299D02*
X89296D01*
X65799Y53098D02*
X64799Y54098D01*
X62800D01*
X61800Y53098D01*
Y49100D01*
X62800Y48100D01*
X64799D01*
X65799Y49100D01*
X67798D02*
X68798Y48100D01*
X70797D01*
X71797Y49100D01*
Y53098D01*
X70797Y54098D01*
X68798D01*
X67798Y53098D01*
Y52099D01*
X68798Y51099D01*
X71797D01*
X97500Y169000D02*
Y174998D01*
X100499D01*
X101499Y173998D01*
Y171999D01*
X100499Y170999D01*
X97500D01*
X99499D02*
X101499Y169000D01*
X107497Y174998D02*
X103498D01*
Y169000D01*
X107497D01*
X103498Y171999D02*
X105497D01*
X109496Y174998D02*
Y169000D01*
X113495D01*
X115494D02*
Y172999D01*
X117493Y174998D01*
X119493Y172999D01*
Y169000D01*
Y171999D01*
X115494D01*
X121492Y174998D02*
Y173998D01*
X123492Y171999D01*
X125491Y173998D01*
Y174998D01*
X123492Y171999D02*
Y169000D01*
X127490D02*
X129490D01*
X128490D01*
Y174998D01*
X127490Y173998D01*
X72000Y104198D02*
Y98200D01*
X74999D01*
X75999Y99200D01*
Y103198D01*
X74999Y104198D01*
X72000D01*
X81997D02*
X77998D01*
Y101199D01*
X79997Y102199D01*
X80997D01*
X81997Y101199D01*
Y99200D01*
X80997Y98200D01*
X78998D01*
X77998Y99200D01*
X214800Y197498D02*
Y192500D01*
X215800Y191500D01*
X217799D01*
X218799Y192500D01*
Y197498D01*
X220798Y196498D02*
X221798Y197498D01*
X223797D01*
X224797Y196498D01*
Y195499D01*
X223797Y194499D01*
X222797D01*
X223797D01*
X224797Y193499D01*
Y192500D01*
X223797Y191500D01*
X221798D01*
X220798Y192500D01*
X291600Y82398D02*
Y77400D01*
X292600Y76400D01*
X294599D01*
X295599Y77400D01*
Y82398D01*
X301597D02*
X299597Y81398D01*
X297598Y79399D01*
Y77400D01*
X298598Y76400D01*
X300597D01*
X301597Y77400D01*
Y78399D01*
X300597Y79399D01*
X297598D01*
X318800Y117898D02*
Y112900D01*
X319800Y111900D01*
X321799D01*
X322799Y112900D01*
Y117898D01*
X328797D02*
X324798D01*
Y114899D01*
X326797Y115899D01*
X327797D01*
X328797Y114899D01*
Y112900D01*
X327797Y111900D01*
X325798D01*
X324798Y112900D01*
X293450Y110648D02*
Y105650D01*
X294450Y104650D01*
X296449D01*
X297449Y105650D01*
Y110648D01*
X302447Y104650D02*
Y110648D01*
X299448Y107649D01*
X303447D01*
X321599Y159198D02*
X317600D01*
Y153200D01*
X321599D01*
X317600Y156199D02*
X319599D01*
X323598Y153200D02*
X325597D01*
X324598D01*
Y159198D01*
X323598Y158198D01*
X226800Y161098D02*
Y155100D01*
X229799D01*
X230799Y156100D01*
Y160098D01*
X229799Y161098D01*
X226800D01*
X235797Y155100D02*
Y161098D01*
X232798Y158099D01*
X236797D01*
X222600Y2800D02*
Y8798D01*
X225599D01*
X226599Y7798D01*
Y5799D01*
X225599Y4799D01*
X222600D01*
X228598Y7798D02*
X229598Y8798D01*
X231597D01*
X232597Y7798D01*
Y6799D01*
X231597Y5799D01*
X232597Y4799D01*
Y3800D01*
X231597Y2800D01*
X229598D01*
X228598Y3800D01*
Y4799D01*
X229598Y5799D01*
X228598Y6799D01*
Y7798D01*
X229598Y5799D02*
X231597D01*
X302000Y4700D02*
Y10698D01*
X304999D01*
X305999Y9698D01*
Y7699D01*
X304999Y6699D01*
X302000D01*
X307998Y10698D02*
X311997D01*
Y9698D01*
X307998Y5700D01*
Y4700D01*
X249600Y113298D02*
Y108300D01*
X250600Y107300D01*
X252599D01*
X253599Y108300D01*
Y113298D01*
X255598Y107300D02*
X257597D01*
X256598D01*
Y113298D01*
X255598Y112298D01*
X35499Y35398D02*
X34499Y36398D01*
X32500D01*
X31500Y35398D01*
Y31400D01*
X32500Y30400D01*
X34499D01*
X35499Y31400D01*
X41497Y30400D02*
X37498D01*
X41497Y34399D01*
Y35398D01*
X40497Y36398D01*
X38498D01*
X37498Y35398D01*
X43496Y30400D02*
X45496D01*
X44496D01*
Y36398D01*
X43496Y35398D01*
X310200Y79000D02*
Y84998D01*
X313199D01*
X314199Y83998D01*
Y81999D01*
X313199Y80999D01*
X310200D01*
X312199D02*
X314199Y79000D01*
X316198D02*
X318197D01*
X317198D01*
Y84998D01*
X316198Y83998D01*
X325195Y79000D02*
X321196D01*
X325195Y82999D01*
Y83998D01*
X324196Y84998D01*
X322196D01*
X321196Y83998D01*
X259600Y186698D02*
Y180700D01*
X263599D01*
X269597Y186698D02*
X265598D01*
Y183699D01*
X267597Y184699D01*
X268597D01*
X269597Y183699D01*
Y181700D01*
X268597Y180700D01*
X266598D01*
X265598Y181700D01*
X35300Y190500D02*
Y196498D01*
X38299D01*
X39299Y195498D01*
Y193499D01*
X38299Y192499D01*
X35300D01*
X45297Y196498D02*
X43297Y195498D01*
X41298Y193499D01*
Y191500D01*
X42298Y190500D01*
X44297D01*
X45297Y191500D01*
Y192499D01*
X44297Y193499D01*
X41298D01*
X36900Y83700D02*
Y89698D01*
X39899D01*
X40899Y88698D01*
Y86699D01*
X39899Y85699D01*
X36900D01*
X38899D02*
X40899Y83700D01*
X42898D02*
X44897D01*
X43898D01*
Y89698D01*
X42898Y88698D01*
X47896Y83700D02*
X49896D01*
X48896D01*
Y89698D01*
X47896Y88698D01*
X9500Y26300D02*
Y32298D01*
X12499D01*
X13499Y31298D01*
Y29299D01*
X12499Y28299D01*
X9500D01*
X19497Y32298D02*
X15498D01*
Y29299D01*
X17497Y30299D01*
X18497D01*
X19497Y29299D01*
Y27300D01*
X18497Y26300D01*
X16498D01*
X15498Y27300D01*
X30500Y89600D02*
Y95598D01*
X33499D01*
X34499Y94598D01*
Y92599D01*
X33499Y91599D01*
X30500D01*
X39497Y89600D02*
Y95598D01*
X36498Y92599D01*
X40497D01*
X64700Y157298D02*
Y152300D01*
X65700Y151300D01*
X67699D01*
X68699Y152300D01*
Y157298D01*
X74697Y151300D02*
X70698D01*
X74697Y155299D01*
Y156298D01*
X73697Y157298D01*
X71698D01*
X70698Y156298D01*
X9298Y167801D02*
Y171800D01*
X6299D01*
X7299Y169801D01*
Y168801D01*
X6299Y167801D01*
X4300D01*
X3300Y168801D01*
Y170800D01*
X4300Y171800D01*
X9298Y165802D02*
X5299D01*
X3300Y163803D01*
X5299Y161803D01*
X9298D01*
X29400Y140700D02*
Y146698D01*
X32399D01*
X33399Y145698D01*
Y143699D01*
X32399Y142699D01*
X29400D01*
X35398Y145698D02*
X36398Y146698D01*
X38397D01*
X39397Y145698D01*
Y144699D01*
X38397Y143699D01*
X37397D01*
X38397D01*
X39397Y142699D01*
Y141700D01*
X38397Y140700D01*
X36398D01*
X35398Y141700D01*
X69499Y165498D02*
X68499Y166498D01*
X66500D01*
X65500Y165498D01*
Y161500D01*
X66500Y160500D01*
X68499D01*
X69499Y161500D01*
X71498Y160500D02*
X73497D01*
X72498D01*
Y166498D01*
X71498Y165498D01*
X76496Y166498D02*
X80495D01*
Y165498D01*
X76496Y161500D01*
Y160500D01*
X197799Y137900D02*
Y141898D01*
X196799Y142898D01*
X194800D01*
X193800Y141898D01*
Y137900D01*
X194800Y136900D01*
X196799D01*
X195799Y138899D02*
X197799Y136900D01*
X196799D02*
X197799Y137900D01*
X199798Y136900D02*
X201797D01*
X200798D01*
Y142898D01*
X199798Y141898D01*
X198299Y64700D02*
Y68698D01*
X197299Y69698D01*
X195300D01*
X194300Y68698D01*
Y64700D01*
X195300Y63700D01*
X197299D01*
X196299Y65699D02*
X198299Y63700D01*
X197299D02*
X198299Y64700D01*
X204297Y63700D02*
X200298D01*
X204297Y67699D01*
Y68698D01*
X203297Y69698D01*
X201298D01*
X200298Y68698D01*
X211800Y107200D02*
Y113198D01*
X214799D01*
X215799Y112198D01*
Y110199D01*
X214799Y109199D01*
X211800D01*
X213799D02*
X215799Y107200D01*
X217798Y113198D02*
X221797D01*
Y112198D01*
X217798Y108200D01*
Y107200D01*
X195300Y104800D02*
Y110798D01*
X198299D01*
X199299Y109798D01*
Y107799D01*
X198299Y106799D01*
X195300D01*
X197299D02*
X199299Y104800D01*
X201298Y109798D02*
X202298Y110798D01*
X204297D01*
X205297Y109798D01*
Y108799D01*
X204297Y107799D01*
X205297Y106799D01*
Y105800D01*
X204297Y104800D01*
X202298D01*
X201298Y105800D01*
Y106799D01*
X202298Y107799D01*
X201298Y108799D01*
Y109798D01*
X202298Y107799D02*
X204297D01*
X226800Y45200D02*
Y51198D01*
X229799D01*
X230799Y50198D01*
Y48199D01*
X229799Y47199D01*
X226800D01*
X228799D02*
X230799Y45200D01*
X232798Y46200D02*
X233798Y45200D01*
X235797D01*
X236797Y46200D01*
Y50198D01*
X235797Y51198D01*
X233798D01*
X232798Y50198D01*
Y49199D01*
X233798Y48199D01*
X236797D01*
X195300Y94900D02*
Y100898D01*
X198299D01*
X199299Y99898D01*
Y97899D01*
X198299Y96899D01*
X195300D01*
X197299D02*
X199299Y94900D01*
X201298D02*
X203297D01*
X202298D01*
Y100898D01*
X201298Y99898D01*
X206296D02*
X207296Y100898D01*
X209296D01*
X210295Y99898D01*
Y95900D01*
X209296Y94900D01*
X207296D01*
X206296Y95900D01*
Y99898D01*
X252099Y181198D02*
X251099Y182198D01*
X249100D01*
X248100Y181198D01*
Y177200D01*
X249100Y176200D01*
X251099D01*
X252099Y177200D01*
X254098Y182198D02*
X258097D01*
Y181198D01*
X254098Y177200D01*
Y176200D01*
X170399Y181398D02*
X169399Y182398D01*
X167400D01*
X166400Y181398D01*
Y177400D01*
X167400Y176400D01*
X169399D01*
X170399Y177400D01*
X172398Y181398D02*
X173398Y182398D01*
X175397D01*
X176397Y181398D01*
Y180399D01*
X175397Y179399D01*
X176397Y178399D01*
Y177400D01*
X175397Y176400D01*
X173398D01*
X172398Y177400D01*
Y178399D01*
X173398Y179399D01*
X172398Y180399D01*
Y181398D01*
X173398Y179399D02*
X175397D01*
X218400Y18298D02*
Y12300D01*
Y14299D01*
X222399Y18298D01*
X219400Y15299D01*
X222399Y12300D01*
X224398D02*
X226397D01*
X225398D01*
Y18298D01*
X224398Y17298D01*
X195800Y17698D02*
Y11700D01*
Y13699D01*
X199799Y17698D01*
X196800Y14699D01*
X199799Y11700D01*
X205797D02*
X201798D01*
X205797Y15699D01*
Y16698D01*
X204797Y17698D01*
X202798D01*
X201798Y16698D01*
X221700Y186598D02*
Y180600D01*
X225699D01*
X227698D02*
X229697D01*
X228698D01*
Y186598D01*
X227698Y185598D01*
X273300Y155601D02*
Y161599D01*
X276299D01*
X277299Y160599D01*
Y158600D01*
X276299Y157600D01*
X273300D01*
X280298D02*
X282297D01*
X283297Y158600D01*
Y160599D01*
X282297Y161599D01*
X280298D01*
X279298Y160599D01*
Y158600D01*
X280298Y157600D01*
X285296Y161599D02*
Y158600D01*
X286296Y157600D01*
X287296Y158600D01*
X288295Y157600D01*
X289295Y158600D01*
Y161599D01*
X294293Y157600D02*
X292294D01*
X291294Y158600D01*
Y160599D01*
X292294Y161599D01*
X294293D01*
X295293Y160599D01*
Y159599D01*
X291294D01*
X297292Y161599D02*
Y157600D01*
Y159599D01*
X298292Y160599D01*
X299292Y161599D01*
X300291D01*
X285900Y197798D02*
Y191800D01*
X288899D01*
X289899Y192800D01*
Y196798D01*
X288899Y197798D01*
X285900D01*
X295897D02*
X291898D01*
Y191800D01*
X295897D01*
X291898Y194799D02*
X293897D01*
X297896Y197798D02*
Y191800D01*
X300895D01*
X301895Y192800D01*
Y193799D01*
X300895Y194799D01*
X297896D01*
X300895D01*
X301895Y195799D01*
Y196798D01*
X300895Y197798D01*
X297896D01*
X303894D02*
Y192800D01*
X304894Y191800D01*
X306893D01*
X307893Y192800D01*
Y197798D01*
X313891Y196798D02*
X312891Y197798D01*
X310892D01*
X309892Y196798D01*
Y192800D01*
X310892Y191800D01*
X312891D01*
X313891Y192800D01*
Y194799D01*
X311892D01*
X305900Y162600D02*
Y168598D01*
X308899D01*
X309899Y167598D01*
Y165599D01*
X308899Y164599D01*
X305900D01*
X311898Y162600D02*
X313897D01*
X312898D01*
Y168598D01*
X311898Y167598D01*
X277199Y40498D02*
X276199Y41498D01*
X274200D01*
X273200Y40498D01*
Y36500D01*
X274200Y35500D01*
X276199D01*
X277199Y36500D01*
Y38499D01*
X275199D01*
X279198Y35500D02*
Y39499D01*
X282197D01*
X283197Y38499D01*
Y35500D01*
X289195Y41498D02*
Y35500D01*
X286196D01*
X285196Y36500D01*
Y38499D01*
X286196Y39499D01*
X289195D01*
X291194Y41498D02*
X295193D01*
X293194D01*
Y35500D01*
X297192Y39499D02*
X301191Y35500D01*
X299192Y37499D01*
X301191Y39499D01*
X297192Y35500D01*
X303190D02*
Y41498D01*
X306189D01*
X307189Y40498D01*
Y38499D01*
X306189Y37499D01*
X303190D01*
X305190D02*
X307189Y35500D01*
X309188Y39499D02*
X313187Y35500D01*
X311188Y37499D01*
X313187Y39499D01*
X309188Y35500D01*
X241408Y45608D02*
Y51607D01*
X244408D01*
X245407Y50607D01*
Y48608D01*
X244408Y47608D01*
X241408D01*
X251405Y45608D02*
X247407D01*
X251405Y49607D01*
Y50607D01*
X250406Y51607D01*
X248406D01*
X247407Y50607D01*
X265700Y60700D02*
X259702D01*
Y63699D01*
X260702Y64699D01*
X262701D01*
X263701Y63699D01*
Y60700D01*
Y62699D02*
X265700Y64699D01*
Y70697D02*
Y66698D01*
X261701Y70697D01*
X260702D01*
X259702Y69697D01*
Y67698D01*
X260702Y66698D01*
X254800Y59700D02*
X248802D01*
Y62699D01*
X249802Y63699D01*
X251801D01*
X252801Y62699D01*
Y59700D01*
Y61699D02*
X254800Y63699D01*
X249802Y65698D02*
X248802Y66698D01*
Y68697D01*
X249802Y69697D01*
X250801D01*
X251801Y68697D01*
Y67697D01*
Y68697D01*
X252801Y69697D01*
X253800D01*
X254800Y68697D01*
Y66698D01*
X253800Y65698D01*
X259100Y142300D02*
Y148298D01*
X262099D01*
X263099Y147298D01*
Y145299D01*
X262099Y144299D01*
X259100D01*
X261099D02*
X263099Y142300D01*
X268097D02*
Y148298D01*
X265098Y145299D01*
X269097D01*
X194300Y84200D02*
Y90198D01*
X197299D01*
X198299Y89198D01*
Y87199D01*
X197299Y86199D01*
X194300D01*
X196299D02*
X198299Y84200D01*
X204297Y90198D02*
X200298D01*
Y87199D01*
X202297Y88199D01*
X203297D01*
X204297Y87199D01*
Y85200D01*
X203297Y84200D01*
X201298D01*
X200298Y85200D01*
X226800Y58200D02*
Y64198D01*
X229799D01*
X230799Y63198D01*
Y61199D01*
X229799Y60199D01*
X226800D01*
X228799D02*
X230799Y58200D01*
X236797Y64198D02*
X234797Y63198D01*
X232798Y61199D01*
Y59200D01*
X233798Y58200D01*
X235797D01*
X236797Y59200D01*
Y60199D01*
X235797Y61199D01*
X232798D01*
X325400Y27300D02*
Y33298D01*
X328399D01*
X329399Y32298D01*
Y30299D01*
X328399Y29299D01*
X325400D01*
X327399D02*
X329399Y27300D01*
X335397Y33298D02*
X331398D01*
Y27300D01*
X335397D01*
X331398Y30299D02*
X333397D01*
X341395Y32298D02*
X340395Y33298D01*
X338396D01*
X337396Y32298D01*
Y31299D01*
X338396Y30299D01*
X340395D01*
X341395Y29299D01*
Y28300D01*
X340395Y27300D01*
X338396D01*
X337396Y28300D01*
X347393Y33298D02*
X343394D01*
Y27300D01*
X347393D01*
X343394Y30299D02*
X345393D01*
X349392Y33298D02*
X353391D01*
X351392D01*
Y27300D01*
X292600Y68298D02*
Y67298D01*
X294599Y65299D01*
X296599Y67298D01*
Y68298D01*
X294599Y65299D02*
Y62300D01*
X298598D02*
X300597D01*
X299598D01*
Y68298D01*
X298598Y67298D01*
X277300Y124698D02*
Y123698D01*
X279299Y121699D01*
X281299Y123698D01*
Y124698D01*
X279299Y121699D02*
Y118700D01*
X287297D02*
X283298D01*
X287297Y122699D01*
Y123698D01*
X286297Y124698D01*
X284298D01*
X283298Y123698D01*
X232399Y147300D02*
Y151298D01*
X231399Y152298D01*
X229400D01*
X228400Y151298D01*
Y147300D01*
X229400Y146300D01*
X231399D01*
X230399Y148299D02*
X232399Y146300D01*
X231399D02*
X232399Y147300D01*
X234398Y151298D02*
X235398Y152298D01*
X237397D01*
X238397Y151298D01*
Y150299D01*
X237397Y149299D01*
X236397D01*
X237397D01*
X238397Y148299D01*
Y147300D01*
X237397Y146300D01*
X235398D01*
X234398Y147300D01*
X53999Y55400D02*
Y59398D01*
X52999Y60398D01*
X51000D01*
X50000Y59398D01*
Y55400D01*
X51000Y54400D01*
X52999D01*
X51999Y56399D02*
X53999Y54400D01*
X52999D02*
X53999Y55400D01*
X58997Y54400D02*
Y60398D01*
X55998Y57399D01*
X59997D01*
X208800Y136200D02*
Y142198D01*
X211799D01*
X212799Y141198D01*
Y139199D01*
X211799Y138199D01*
X208800D01*
X210799D02*
X212799Y136200D01*
X214798D02*
X216797D01*
X215798D01*
Y142198D01*
X214798Y141198D01*
X219796D02*
X220796Y142198D01*
X222796D01*
X223795Y141198D01*
Y140199D01*
X222796Y139199D01*
X221796D01*
X222796D01*
X223795Y138199D01*
Y137200D01*
X222796Y136200D01*
X220796D01*
X219796Y137200D01*
X48000Y29800D02*
Y35798D01*
X50999D01*
X51999Y34798D01*
Y32799D01*
X50999Y31799D01*
X48000D01*
X49999D02*
X51999Y29800D01*
X53998D02*
X55997D01*
X54998D01*
Y35798D01*
X53998Y34798D01*
X61996Y29800D02*
Y35798D01*
X58996Y32799D01*
X62995D01*
X180900Y7300D02*
X174902D01*
Y10299D01*
X175902Y11299D01*
X177901D01*
X178901Y10299D01*
Y7300D01*
Y9299D02*
X180900Y11299D01*
Y13298D02*
Y15297D01*
Y14298D01*
X174902D01*
X175902Y13298D01*
X174902Y22295D02*
Y18296D01*
X177901D01*
X176901Y20296D01*
Y21295D01*
X177901Y22295D01*
X179900D01*
X180900Y21295D01*
Y19296D01*
X179900Y18296D01*
X188600Y7100D02*
X182602D01*
Y10099D01*
X183602Y11099D01*
X185601D01*
X186601Y10099D01*
Y7100D01*
Y9099D02*
X188600Y11099D01*
Y13098D02*
Y15097D01*
Y14098D01*
X182602D01*
X183602Y13098D01*
X182602Y22095D02*
X183602Y20096D01*
X185601Y18096D01*
X187600D01*
X188600Y19096D01*
Y21095D01*
X187600Y22095D01*
X186601D01*
X185601Y21095D01*
Y18096D01*
X70699Y131998D02*
X69699Y132998D01*
X67700D01*
X66700Y131998D01*
Y128000D01*
X67700Y127000D01*
X69699D01*
X70699Y128000D01*
X76697Y127000D02*
X72698D01*
X76697Y130999D01*
Y131998D01*
X75697Y132998D01*
X73698D01*
X72698Y131998D01*
X78696D02*
X79696Y132998D01*
X81695D01*
X82695Y131998D01*
Y128000D01*
X81695Y127000D01*
X79696D01*
X78696Y128000D01*
Y131998D01*
X72000Y119498D02*
Y113500D01*
X74999D01*
X75999Y114500D01*
Y118498D01*
X74999Y119498D01*
X72000D01*
X77998Y118498D02*
X78998Y119498D01*
X80997D01*
X81997Y118498D01*
Y117499D01*
X80997Y116499D01*
X79997D01*
X80997D01*
X81997Y115499D01*
Y114500D01*
X80997Y113500D01*
X78998D01*
X77998Y114500D01*
X176350Y154148D02*
Y148150D01*
X179349D01*
X180349Y149150D01*
Y153148D01*
X179349Y154148D01*
X176350D01*
X182348Y148150D02*
X184347D01*
X183348D01*
Y154148D01*
X182348Y153148D01*
X176350Y78148D02*
Y72150D01*
X179349D01*
X180349Y73150D01*
Y77148D01*
X179349Y78148D01*
X176350D01*
X186347Y72150D02*
X182348D01*
X186347Y76149D01*
Y77148D01*
X185347Y78148D01*
X183348D01*
X182348Y77148D01*
X103100Y193598D02*
Y187600D01*
X106099D01*
X107099Y188600D01*
Y192598D01*
X106099Y193598D01*
X103100D01*
X113097Y192598D02*
X112097Y193598D01*
X110098D01*
X109098Y192598D01*
Y188600D01*
X110098Y187600D01*
X112097D01*
X113097Y188600D01*
Y190599D01*
X111097D01*
X119095Y193598D02*
X117095D01*
X118095D01*
Y188600D01*
X117095Y187600D01*
X116096D01*
X115096Y188600D01*
X121094Y186600D02*
X125093D01*
X127092Y187600D02*
X129092D01*
X128092D01*
Y193598D01*
X127092D01*
X133090Y187600D02*
X135090D01*
X136089Y188600D01*
Y190599D01*
X135090Y191599D01*
X133090D01*
X132091Y190599D01*
Y188600D01*
X133090Y187600D01*
X142087Y191599D02*
X139088D01*
X138089Y190599D01*
Y188600D01*
X139088Y187600D01*
X142087D01*
X144087D02*
Y193598D01*
Y189599D02*
X147086Y191599D01*
X144087Y189599D02*
X147086Y187600D01*
X150085Y186600D02*
X154084D01*
X156083Y187600D02*
X158082D01*
X157082D01*
Y191599D01*
X156083D01*
X161081Y187600D02*
Y191599D01*
X164080D01*
X165080Y190599D01*
Y187600D01*
D60*
X288200Y89622D02*
G03*
X288200Y87778I0J-922D01*
G01*
X332700Y104800D02*
X351300D01*
Y119800D01*
X332800D02*
X351300D01*
X332700Y119700D02*
X332800Y119800D01*
X332700Y104800D02*
Y119700D01*
X288200Y82100D02*
Y95400D01*
X279900Y82100D02*
X288200D01*
X279800Y82000D02*
X279900Y82100D01*
X279800Y82000D02*
Y95400D01*
X288200D01*
X292800Y82700D02*
Y101300D01*
Y82700D02*
X307800D01*
Y101200D01*
X307700Y101300D02*
X307800Y101200D01*
X292800Y101300D02*
X307700D01*
X38500Y46500D02*
X42000D01*
X38500Y45500D02*
X42000D01*
X268800Y166900D02*
Y170500D01*
X259800D02*
X268800D01*
X259800Y166900D02*
Y170500D01*
Y166900D02*
X268800D01*
X264812Y167755D02*
Y169527D01*
X263827Y167755D02*
Y169527D01*
X264700Y134800D02*
X267100D01*
X264700Y126500D02*
Y134800D01*
Y126500D02*
X279900D01*
Y134800D01*
X267100D02*
X279900D01*
X239355Y117173D02*
X241127D01*
X239355Y116188D02*
X241127D01*
X238500Y112200D02*
Y121200D01*
X242100D01*
Y112200D02*
Y121200D01*
X238500Y112200D02*
X242100D01*
X217828Y75755D02*
Y77527D01*
X218812Y75755D02*
Y77527D01*
X213800Y74900D02*
X222800D01*
X213800D02*
Y78500D01*
X222800D01*
Y74900D02*
Y78500D01*
X285527Y69055D02*
Y70827D01*
X286512Y69055D02*
Y70827D01*
X281500Y68200D02*
X290500D01*
X281500D02*
Y71800D01*
X290500D01*
Y68200D02*
Y71800D01*
X286473Y75173D02*
Y76945D01*
X285488Y75173D02*
Y76945D01*
X281500Y77800D02*
X290500D01*
Y74200D02*
Y77800D01*
X281500Y74200D02*
X290500D01*
X281500D02*
Y77800D01*
X286473Y101173D02*
Y102945D01*
X285488Y101173D02*
Y102945D01*
X281500Y103800D02*
X290500D01*
Y100200D02*
Y103800D01*
X281500Y100200D02*
X290500D01*
X281500D02*
Y103800D01*
X271355Y117173D02*
X273127D01*
X271355Y116188D02*
X273127D01*
X270500Y112200D02*
Y121200D01*
X274100D01*
Y112200D02*
Y121200D01*
X270500Y112200D02*
X274100D01*
X275355Y55172D02*
X277127D01*
X275355Y54188D02*
X277127D01*
X274500Y50200D02*
Y59200D01*
X278100D01*
Y50200D02*
Y59200D01*
X274500Y50200D02*
X278100D01*
X299473Y54228D02*
X301245D01*
X299473Y55212D02*
X301245D01*
X302100Y50200D02*
Y59200D01*
X298500Y50200D02*
X302100D01*
X298500D02*
Y59200D01*
X302100D01*
X283473Y130227D02*
X285245D01*
X283473Y131212D02*
X285245D01*
X286100Y126200D02*
Y135200D01*
X282500Y126200D02*
X286100D01*
X282500D02*
Y135200D01*
X286100D01*
X259473Y130227D02*
X261245D01*
X259473Y131212D02*
X261245D01*
X262100Y126200D02*
Y135200D01*
X258500Y126200D02*
X262100D01*
X258500D02*
Y135200D01*
X262100D01*
X233355Y117173D02*
X235127D01*
X233355Y116188D02*
X235127D01*
X232500Y112200D02*
Y121200D01*
X236100D01*
Y112200D02*
Y121200D01*
X232500Y112200D02*
X236100D01*
X213300Y22200D02*
X231300D01*
X213300D02*
Y35200D01*
X231300D01*
Y22200D02*
Y35200D01*
X191300D02*
X209300D01*
Y22200D02*
Y35200D01*
X191300Y22200D02*
X209300D01*
X191300D02*
Y35200D01*
X281500Y106200D02*
Y109800D01*
Y106200D02*
X290500D01*
Y109800D01*
X281500D02*
X290500D01*
X285961Y106200D02*
Y107055D01*
X285488Y107173D02*
X286473D01*
X285488D02*
Y108945D01*
X286473Y107173D02*
Y108945D01*
X285961Y108866D02*
Y109800D01*
X285488Y108945D02*
X286473D01*
X260500Y59200D02*
X264100D01*
X260500Y50200D02*
Y59200D01*
Y50200D02*
X264100D01*
Y59200D01*
X260500Y54739D02*
X261355D01*
X261473Y54228D02*
Y55212D01*
X263245D01*
X261473Y54228D02*
X263245D01*
X263166Y54739D02*
X264100D01*
X263245Y54228D02*
Y55212D01*
X254500Y59200D02*
X258100D01*
X254500Y50200D02*
Y59200D01*
Y50200D02*
X258100D01*
Y59200D01*
X254500Y54739D02*
X255355D01*
X255473Y54228D02*
Y55212D01*
X257245D01*
X255473Y54228D02*
X257245D01*
X257166Y54739D02*
X258100D01*
X257245Y54228D02*
Y55212D01*
X268800Y150900D02*
Y154500D01*
X259800D02*
X268800D01*
X259800Y150900D02*
Y154500D01*
Y150900D02*
X268800D01*
X264339Y153645D02*
Y154500D01*
X263827Y153527D02*
X264812D01*
Y151755D02*
Y153527D01*
X263827Y151755D02*
Y153527D01*
X264339Y150900D02*
Y151834D01*
X263827Y151755D02*
X264812D01*
X305300Y33200D02*
X323300D01*
Y20200D02*
Y33200D01*
X305300Y20200D02*
X323300D01*
X305300D02*
Y33200D01*
X65355Y145173D02*
X67127D01*
X65355Y144188D02*
X67127D01*
X64500Y140200D02*
Y149200D01*
X68100D01*
Y140200D02*
Y149200D01*
X64500Y140200D02*
X68100D01*
X187245Y28227D02*
Y29212D01*
X187166Y28739D02*
X188100D01*
X185473Y28227D02*
X187245D01*
X185473Y29212D02*
X187245D01*
X185473Y28227D02*
Y29212D01*
X184500Y28739D02*
X185355D01*
X188100Y24200D02*
Y33200D01*
X184500Y24200D02*
X188100D01*
X184500D02*
Y33200D01*
X188100D01*
X179245Y28227D02*
Y29212D01*
X179166Y28739D02*
X180100D01*
X177473Y28227D02*
X179245D01*
X177473Y29212D02*
X179245D01*
X177473Y28227D02*
Y29212D01*
X176500Y28739D02*
X177355D01*
X180100Y24200D02*
Y33200D01*
X176500Y24200D02*
X180100D01*
X176500D02*
Y33200D01*
X180100D01*
X240489Y98936D02*
Y100511D01*
X242064D01*
X262536D02*
X264111D01*
Y98936D02*
Y100511D01*
X240489Y76889D02*
Y78464D01*
Y76889D02*
X242064D01*
X264111D02*
Y78464D01*
X262536Y76889D02*
X264111D01*
X73000Y63100D02*
X71667D01*
X72334Y62434D02*
Y63767D01*
D61*
X202965Y49121D02*
G03*
X202965Y49121I-492J0D01*
G01*
Y121121D02*
G03*
X202965Y121121I-492J0D01*
G01*
X228913Y131827D02*
G03*
X228913Y131827I-492J0D01*
G01*
X46665Y58421D02*
G03*
X46665Y58421I-492J0D01*
G01*
D62*
X66000Y83638D02*
Y88362D01*
X241000Y43000D02*
X271000D01*
X241000Y33000D02*
Y43000D01*
Y33000D02*
X271000D01*
Y43000D01*
X318000Y89638D02*
Y94362D01*
X287100Y49779D02*
X289500D01*
X287100Y59621D02*
X289500D01*
X294599Y54300D02*
Y55402D01*
X282001Y54199D02*
Y55301D01*
X44000Y75638D02*
Y80362D01*
X184300Y95838D02*
Y100562D01*
X216300Y46338D02*
Y51062D01*
X184300Y106338D02*
Y111062D01*
X216300Y116338D02*
Y121062D01*
Y58338D02*
Y63062D01*
X184300Y84338D02*
Y89062D01*
X258300Y163259D02*
X270300D01*
X258300Y158141D02*
Y163259D01*
Y158141D02*
X270300D01*
Y163259D01*
X193812Y59948D02*
Y61720D01*
Y51680D02*
Y53452D01*
Y51680D02*
X198339D01*
X193812Y61720D02*
X198339D01*
X193812Y131948D02*
Y133720D01*
Y123680D02*
Y125452D01*
Y123680D02*
X198339D01*
X193812Y133720D02*
X198339D01*
X325300Y170700D02*
Y190700D01*
X275300Y170700D02*
Y190700D01*
X325300D01*
X275300Y170700D02*
X325300D01*
X239248Y140488D02*
X241020D01*
X230980D02*
X232752D01*
X230980Y135961D02*
Y140488D01*
X241020Y135961D02*
Y140488D01*
X216300Y128338D02*
Y133062D01*
X47638Y46000D02*
X52362D01*
X37512Y69248D02*
Y71020D01*
Y60980D02*
Y62752D01*
Y60980D02*
X42039D01*
X37512Y71020D02*
X42039D01*
X258300Y174141D02*
X270300D01*
Y179259D01*
X258300D02*
X270300D01*
X258300Y174141D02*
Y179259D01*
D63*
X42600Y94000D02*
Y106500D01*
Y94000D02*
X70000D01*
Y106500D01*
X42600D02*
X70000D01*
X50600Y100000D02*
X57600D01*
X56100Y97500D02*
Y102500D01*
X53100Y97500D02*
Y102500D01*
Y97500D02*
X55600Y100000D01*
X53100Y102500D02*
X55600Y100000D01*
X210400Y158000D02*
X212900Y155500D01*
X210400Y158000D02*
X212900Y160500D01*
Y155500D02*
Y160500D01*
X209900Y155500D02*
Y160500D01*
X208400Y158000D02*
X215400D01*
X196000Y151500D02*
X223400D01*
X196000D02*
Y164000D01*
X223400D01*
Y151500D02*
Y164000D01*
X53100Y118500D02*
X55600Y116000D01*
X53100Y113500D02*
X55600Y116000D01*
X53100Y113500D02*
Y118500D01*
X56100Y113500D02*
Y118500D01*
X50600Y116000D02*
X57600D01*
X42600Y122500D02*
X70000D01*
Y110000D02*
Y122500D01*
X42600Y110000D02*
X70000D01*
X42600D02*
Y122500D01*
X179800Y127800D02*
X182300Y130300D01*
X184800Y127800D01*
X179800D02*
X184800D01*
X179800Y130800D02*
X184800D01*
X182300Y125300D02*
Y132300D01*
X175800Y117300D02*
Y144700D01*
X188300D01*
Y117300D02*
Y144700D01*
X175800Y117300D02*
X188300D01*
X179800Y51800D02*
X182300Y54300D01*
X184800Y51800D01*
X179800D02*
X184800D01*
X179800Y54800D02*
X184800D01*
X182300Y49300D02*
Y56300D01*
X175800Y41300D02*
Y68700D01*
X188300D01*
Y41300D02*
Y68700D01*
X175800Y41300D02*
X188300D01*
D64*
X179600Y190200D02*
X188600D01*
X179600Y169700D02*
Y190200D01*
Y169700D02*
X188400D01*
X188600Y169900D01*
Y190200D01*
X182100Y180900D02*
X186200D01*
X182100Y179100D02*
X186100D01*
X237600Y190200D02*
X246600D01*
X237600Y169700D02*
Y190200D01*
Y169700D02*
X246400D01*
X246600Y169900D01*
Y190200D01*
X240100Y180900D02*
X244200D01*
X240100Y179100D02*
X244100D01*
X51400Y158600D02*
Y162600D01*
X53200Y158500D02*
Y162600D01*
X42200Y156100D02*
X62500D01*
X42000Y156300D02*
X42200Y156100D01*
X42000Y156300D02*
Y165100D01*
X62500D01*
Y156100D02*
Y165100D01*
X53100Y127900D02*
Y131900D01*
X54900Y127800D02*
Y131900D01*
X43900Y125400D02*
X64200D01*
X43700Y125600D02*
X43900Y125400D01*
X43700Y125600D02*
Y134400D01*
X64200D01*
Y125400D02*
Y134400D01*
X183950Y182500D02*
Y181500D01*
X184450Y182000D02*
X183450D01*
X241950Y182500D02*
Y181500D01*
X242450Y182000D02*
X241450D01*
X271800Y158950D02*
X270800D01*
X271300Y158450D02*
Y159450D01*
X54800Y160750D02*
X53800D01*
X54300Y160250D02*
Y161250D01*
X56500Y130050D02*
X55500D01*
X56000Y129550D02*
Y130550D01*
M02*
