%FSLAX25Y25*%
%MOIN*%
G70*
G01*
G75*
G04 Layer_Physical_Order=1*
G04 Layer_Color=255*
%ADD10R,0.05500X0.07700*%
%ADD11R,0.04724X0.05512*%
%ADD12R,0.01400X0.04000*%
%ADD13R,0.05512X0.04724*%
%ADD14R,0.05906X0.04724*%
%ADD15R,0.02953X0.02362*%
%ADD16R,0.04000X0.03500*%
%ADD17R,0.03937X0.07087*%
%ADD18R,0.04724X0.03150*%
%ADD19R,0.02362X0.02953*%
%ADD20R,0.02362X0.07874*%
%ADD21R,0.05906X0.01969*%
%ADD22R,0.05906X0.02362*%
%ADD23R,0.05906X0.02480*%
%ADD24R,0.06000X0.07000*%
%ADD25R,0.07700X0.05500*%
%ADD26O,0.01180X0.05906*%
%ADD27O,0.05906X0.01180*%
%ADD28R,0.17716X0.17716*%
%ADD29R,0.01000X0.02600*%
%ADD30R,0.02600X0.01000*%
%ADD31R,0.08800X0.04200*%
%ADD32R,0.04000X0.04000*%
%ADD33C,0.01000*%
%ADD34C,0.04000*%
%ADD35C,0.08000*%
%ADD36C,0.02000*%
%ADD37C,0.01200*%
%ADD38C,0.08000*%
%ADD39R,0.08000X0.08000*%
%ADD40R,0.08000X0.06000*%
%ADD41O,0.08000X0.06000*%
%ADD42C,0.06000*%
%ADD43R,0.06000X0.06000*%
%ADD44R,0.05906X0.05906*%
%ADD45C,0.05906*%
%ADD46R,0.06000X0.08000*%
%ADD47O,0.06000X0.08000*%
%ADD48C,0.20000*%
%ADD49C,0.04000*%
%ADD50R,0.03000X0.03000*%
%ADD51R,0.05000X0.05000*%
%ADD52C,0.02500*%
%ADD53C,0.05000*%
G36*
X353678Y1122D02*
X1122D01*
Y197778D01*
X36091D01*
X36164Y197284D01*
X35115Y196966D01*
X33811Y196269D01*
X32669Y195331D01*
X31731Y194189D01*
X31034Y192885D01*
X30606Y191471D01*
X30461Y190000D01*
X30606Y188529D01*
X31034Y187115D01*
X31731Y185811D01*
X32669Y184669D01*
X33811Y183731D01*
X35115Y183035D01*
X36529Y182605D01*
X38000Y182461D01*
X39471Y182605D01*
X40885Y183035D01*
X42189Y183731D01*
X43331Y184669D01*
X44269Y185811D01*
X44965Y187115D01*
X45395Y188529D01*
X45539Y190000D01*
X45395Y191471D01*
X44965Y192885D01*
X44269Y194189D01*
X43331Y195331D01*
X42189Y196269D01*
X40885Y196966D01*
X39836Y197284D01*
X39909Y197778D01*
X353678D01*
Y1122D01*
D02*
G37*
%LPC*%
G36*
X322000Y68000D02*
X321443D01*
X321666Y67666D01*
X322000Y67443D01*
Y68000D01*
D02*
G37*
G36*
X324557D02*
X324000D01*
Y67443D01*
X324334Y67666D01*
X324557Y68000D01*
D02*
G37*
G36*
X205500Y67457D02*
Y66900D01*
X206057D01*
X205834Y67234D01*
X205500Y67457D01*
D02*
G37*
G36*
X331900Y67957D02*
X331566Y67734D01*
X331343Y67400D01*
X331900D01*
Y67957D01*
D02*
G37*
G36*
X333900D02*
Y67400D01*
X334457D01*
X334234Y67734D01*
X333900Y67957D01*
D02*
G37*
G36*
X109157Y68600D02*
X108600D01*
Y68043D01*
X108934Y68266D01*
X109157Y68600D01*
D02*
G37*
G36*
X141800Y68657D02*
X141466Y68434D01*
X141243Y68100D01*
X141800D01*
Y68657D01*
D02*
G37*
G36*
X143800D02*
Y68100D01*
X144357D01*
X144134Y68434D01*
X143800Y68657D01*
D02*
G37*
G36*
X340500Y68157D02*
X340166Y67934D01*
X339943Y67600D01*
X340500D01*
Y68157D01*
D02*
G37*
G36*
X342500D02*
Y67600D01*
X343057D01*
X342834Y67934D01*
X342500Y68157D01*
D02*
G37*
G36*
X106600Y68600D02*
X106043D01*
X106266Y68266D01*
X106600Y68043D01*
Y68600D01*
D02*
G37*
G36*
X203500Y67457D02*
X203166Y67234D01*
X202943Y66900D01*
X203500D01*
Y67457D01*
D02*
G37*
G36*
X144357Y66100D02*
X143800D01*
Y65543D01*
X144134Y65766D01*
X144357Y66100D01*
D02*
G37*
G36*
X239000Y66457D02*
X238666Y66234D01*
X238443Y65900D01*
X239000D01*
Y66457D01*
D02*
G37*
G36*
X241000D02*
Y65900D01*
X241557D01*
X241334Y66234D01*
X241000Y66457D01*
D02*
G37*
G36*
X266300Y66100D02*
X265743D01*
X265966Y65766D01*
X266300Y65543D01*
Y66100D01*
D02*
G37*
G36*
X268857D02*
X268300D01*
Y65543D01*
X268634Y65766D01*
X268857Y66100D01*
D02*
G37*
G36*
X141800D02*
X141243D01*
X141466Y65766D01*
X141800Y65543D01*
Y66100D01*
D02*
G37*
G36*
X34557Y66800D02*
X34000D01*
Y66243D01*
X34334Y66466D01*
X34557Y66800D01*
D02*
G37*
G36*
X274400Y66900D02*
X273843D01*
X274066Y66566D01*
X274400Y66343D01*
Y66900D01*
D02*
G37*
G36*
X276957D02*
X276400D01*
Y66343D01*
X276734Y66566D01*
X276957Y66900D01*
D02*
G37*
G36*
X42500Y66700D02*
X41943D01*
X42166Y66366D01*
X42500Y66143D01*
Y66700D01*
D02*
G37*
G36*
X45057D02*
X44500D01*
Y66143D01*
X44834Y66366D01*
X45057Y66700D01*
D02*
G37*
G36*
X32000Y66800D02*
X31443D01*
X31666Y66466D01*
X32000Y66243D01*
Y66800D01*
D02*
G37*
G36*
X290439Y71781D02*
X289362D01*
Y71000D01*
X290439D01*
Y71781D01*
D02*
G37*
G36*
X205200Y71700D02*
X204643D01*
X204866Y71366D01*
X205200Y71143D01*
Y71700D01*
D02*
G37*
G36*
X207757D02*
X207200D01*
Y71143D01*
X207534Y71366D01*
X207757Y71700D01*
D02*
G37*
G36*
X308700Y71300D02*
X308143D01*
X308366Y70966D01*
X308700Y70743D01*
Y71300D01*
D02*
G37*
G36*
X311257D02*
X310700D01*
Y70743D01*
X311034Y70966D01*
X311257Y71300D01*
D02*
G37*
G36*
X287362Y71781D02*
X286286D01*
Y71000D01*
X287362D01*
Y71781D01*
D02*
G37*
G36*
X310700Y73857D02*
Y73300D01*
X311257D01*
X311034Y73634D01*
X310700Y73857D01*
D02*
G37*
G36*
X205200Y74257D02*
X204866Y74034D01*
X204643Y73700D01*
X205200D01*
Y74257D01*
D02*
G37*
G36*
X207200D02*
Y73700D01*
X207757D01*
X207534Y74034D01*
X207200Y74257D01*
D02*
G37*
G36*
X300300Y72200D02*
X299743D01*
X299966Y71866D01*
X300300Y71643D01*
Y72200D01*
D02*
G37*
G36*
X302857D02*
X302300D01*
Y71643D01*
X302634Y71866D01*
X302857Y72200D01*
D02*
G37*
G36*
X308700Y73857D02*
X308366Y73634D01*
X308143Y73300D01*
X308700D01*
Y73857D01*
D02*
G37*
G36*
X108600Y71157D02*
Y70600D01*
X109157D01*
X108934Y70934D01*
X108600Y71157D01*
D02*
G37*
G36*
X290439Y69000D02*
X289362D01*
Y68219D01*
X290439D01*
Y69000D01*
D02*
G37*
G36*
X42500Y69257D02*
X42166Y69034D01*
X41943Y68700D01*
X42500D01*
Y69257D01*
D02*
G37*
G36*
X44500D02*
Y68700D01*
X45057D01*
X44834Y69034D01*
X44500Y69257D01*
D02*
G37*
G36*
X266300Y68657D02*
X265966Y68434D01*
X265743Y68100D01*
X266300D01*
Y68657D01*
D02*
G37*
G36*
X268300D02*
Y68100D01*
X268857D01*
X268634Y68434D01*
X268300Y68657D01*
D02*
G37*
G36*
X287362Y69000D02*
X286286D01*
Y68219D01*
X287362D01*
Y69000D01*
D02*
G37*
G36*
X322000Y70557D02*
X321666Y70334D01*
X321443Y70000D01*
X322000D01*
Y70557D01*
D02*
G37*
G36*
X324000D02*
Y70000D01*
X324557D01*
X324334Y70334D01*
X324000Y70557D01*
D02*
G37*
G36*
X106600Y71157D02*
X106266Y70934D01*
X106043Y70600D01*
X106600D01*
Y71157D01*
D02*
G37*
G36*
X32000Y69357D02*
X31666Y69134D01*
X31443Y68800D01*
X32000D01*
Y69357D01*
D02*
G37*
G36*
X34000D02*
Y68800D01*
X34557D01*
X34334Y69134D01*
X34000Y69357D01*
D02*
G37*
G36*
X274400Y69457D02*
X274066Y69234D01*
X273843Y68900D01*
X274400D01*
Y69457D01*
D02*
G37*
G36*
X234400Y65757D02*
Y65200D01*
X234957D01*
X234734Y65534D01*
X234400Y65757D01*
D02*
G37*
G36*
X205790Y59440D02*
X203828D01*
Y58265D01*
X205790D01*
Y59440D01*
D02*
G37*
G36*
X282576Y61009D02*
X280023D01*
Y59047D01*
X282576D01*
Y61009D01*
D02*
G37*
G36*
X287128D02*
X284576D01*
Y59047D01*
X287128D01*
Y61009D01*
D02*
G37*
G36*
X275300Y59139D02*
X274519D01*
Y58062D01*
X275300D01*
Y59139D01*
D02*
G37*
G36*
X278081D02*
X277300D01*
Y58062D01*
X278081D01*
Y59139D01*
D02*
G37*
G36*
X201828Y59440D02*
X199865D01*
Y58265D01*
X201828D01*
Y59440D01*
D02*
G37*
G36*
X317357Y61700D02*
X316800D01*
Y61143D01*
X317134Y61366D01*
X317357Y61700D01*
D02*
G37*
G36*
X274500Y61900D02*
X273943D01*
X274166Y61566D01*
X274500Y61343D01*
Y61900D01*
D02*
G37*
G36*
X277057D02*
X276500D01*
Y61343D01*
X276834Y61566D01*
X277057Y61900D01*
D02*
G37*
G36*
X238600Y60257D02*
X238266Y60034D01*
X238043Y59700D01*
X238600D01*
Y60257D01*
D02*
G37*
G36*
X240600D02*
Y59700D01*
X241157D01*
X240934Y60034D01*
X240600Y60257D01*
D02*
G37*
G36*
X314800Y61700D02*
X314243D01*
X314466Y61366D01*
X314800Y61143D01*
Y61700D01*
D02*
G37*
G36*
X161950Y64640D02*
X160749Y64482D01*
X159630Y64018D01*
X158669Y63281D01*
X157932Y62320D01*
X157468Y61201D01*
X157310Y60000D01*
X157468Y58799D01*
X157932Y57680D01*
X158669Y56719D01*
X159630Y55982D01*
X160749Y55518D01*
X161950Y55360D01*
X163151Y55518D01*
X164270Y55982D01*
X165231Y56719D01*
X165968Y57680D01*
X166432Y58799D01*
X166590Y60000D01*
X166432Y61201D01*
X165968Y62320D01*
X165231Y63281D01*
X164270Y64018D01*
X163151Y64482D01*
X161950Y64640D01*
D02*
G37*
G36*
X140200Y56757D02*
X139866Y56534D01*
X139643Y56200D01*
X140200D01*
Y56757D01*
D02*
G37*
G36*
X142200D02*
Y56200D01*
X142757D01*
X142534Y56534D01*
X142200Y56757D01*
D02*
G37*
G36*
X287128Y57047D02*
X284576D01*
Y55084D01*
X287128D01*
Y57047D01*
D02*
G37*
G36*
X232500Y55800D02*
X231943D01*
X232166Y55466D01*
X232500Y55243D01*
Y55800D01*
D02*
G37*
G36*
X235057D02*
X234500D01*
Y55243D01*
X234834Y55466D01*
X235057Y55800D01*
D02*
G37*
G36*
X215719Y59700D02*
X213757D01*
Y57344D01*
X215719D01*
Y59700D01*
D02*
G37*
G36*
X232500Y58357D02*
X232166Y58134D01*
X231943Y57800D01*
X232500D01*
Y58357D01*
D02*
G37*
G36*
X234500D02*
Y57800D01*
X235057D01*
X234834Y58134D01*
X234500Y58357D01*
D02*
G37*
G36*
X238600Y57700D02*
X238043D01*
X238266Y57366D01*
X238600Y57143D01*
Y57700D01*
D02*
G37*
G36*
X241157D02*
X240600D01*
Y57143D01*
X240934Y57366D01*
X241157Y57700D01*
D02*
G37*
G36*
X211757Y59700D02*
X209794D01*
Y57344D01*
X211757D01*
Y59700D01*
D02*
G37*
G36*
X201828Y62615D02*
X199865D01*
Y61440D01*
X201828D01*
Y62615D01*
D02*
G37*
G36*
X208900Y65100D02*
X208343D01*
X208566Y64766D01*
X208900Y64543D01*
Y65100D01*
D02*
G37*
G36*
X211457D02*
X210900D01*
Y64543D01*
X211234Y64766D01*
X211457Y65100D01*
D02*
G37*
G36*
X331900Y65400D02*
X331343D01*
X331566Y65066D01*
X331900Y64843D01*
Y65400D01*
D02*
G37*
G36*
X210887Y64534D02*
X210622Y64357D01*
X209900Y64214D01*
X209794Y64235D01*
Y64056D01*
X209794D01*
Y61700D01*
X211757D01*
Y64056D01*
X211032D01*
X210887Y64534D01*
D02*
G37*
G36*
X203500Y64900D02*
X202943D01*
X203166Y64566D01*
X203500Y64343D01*
Y64900D01*
D02*
G37*
G36*
X206057D02*
X205500D01*
Y64343D01*
X205834Y64566D01*
X206057Y64900D01*
D02*
G37*
G36*
X300700Y65657D02*
X300366Y65434D01*
X300143Y65100D01*
X300700D01*
Y65657D01*
D02*
G37*
G36*
X302700D02*
Y65100D01*
X303257D01*
X303034Y65434D01*
X302700Y65657D01*
D02*
G37*
G36*
X232400Y65757D02*
X232066Y65534D01*
X231843Y65200D01*
X232400D01*
Y65757D01*
D02*
G37*
G36*
X334457Y65400D02*
X333900D01*
Y64843D01*
X334234Y65066D01*
X334457Y65400D01*
D02*
G37*
G36*
X340500Y65600D02*
X339943D01*
X340166Y65266D01*
X340500Y65043D01*
Y65600D01*
D02*
G37*
G36*
X343057D02*
X342500D01*
Y65043D01*
X342834Y65266D01*
X343057Y65600D01*
D02*
G37*
G36*
X303257Y63100D02*
X302700D01*
Y62543D01*
X303034Y62766D01*
X303257Y63100D01*
D02*
G37*
G36*
X232400Y63200D02*
X231843D01*
X232066Y62866D01*
X232400Y62643D01*
Y63200D01*
D02*
G37*
G36*
X234957D02*
X234400D01*
Y62643D01*
X234734Y62866D01*
X234957Y63200D01*
D02*
G37*
G36*
X205790Y62615D02*
X203828D01*
Y61440D01*
X205790D01*
Y62615D01*
D02*
G37*
G36*
X215719Y64056D02*
X213757D01*
Y61700D01*
X215719D01*
Y64056D01*
D02*
G37*
G36*
X300700Y63100D02*
X300143D01*
X300366Y62766D01*
X300700Y62543D01*
Y63100D01*
D02*
G37*
G36*
X316800Y64257D02*
Y63700D01*
X317357D01*
X317134Y64034D01*
X316800Y64257D01*
D02*
G37*
G36*
X274500Y64457D02*
X274166Y64234D01*
X273943Y63900D01*
X274500D01*
Y64457D01*
D02*
G37*
G36*
X276500D02*
Y63900D01*
X277057D01*
X276834Y64234D01*
X276500Y64457D01*
D02*
G37*
G36*
X239000Y63900D02*
X238443D01*
X238666Y63566D01*
X239000Y63343D01*
Y63900D01*
D02*
G37*
G36*
X241557D02*
X241000D01*
Y63343D01*
X241334Y63566D01*
X241557Y63900D01*
D02*
G37*
G36*
X314800Y64257D02*
X314466Y64034D01*
X314243Y63700D01*
X314800D01*
Y64257D01*
D02*
G37*
G36*
X53900Y74700D02*
X53343D01*
X53566Y74366D01*
X53900Y74143D01*
Y74700D01*
D02*
G37*
G36*
X210500Y89086D02*
X209778Y88943D01*
X209166Y88534D01*
X208757Y87922D01*
X208614Y87200D01*
X208757Y86478D01*
X209166Y85866D01*
X209778Y85457D01*
X210500Y85314D01*
X210750Y85364D01*
X210907Y85207D01*
X210907Y85207D01*
X211271Y84964D01*
X211271Y84964D01*
X211271Y84964D01*
D01*
X211271Y84964D01*
X211271Y84964D01*
X211700Y84878D01*
X211700Y84878D01*
X213561D01*
Y84219D01*
X217714D01*
Y87781D01*
X213561D01*
Y87122D01*
X212451D01*
X212386Y87200D01*
X212243Y87922D01*
X211834Y88534D01*
X211222Y88943D01*
X210500Y89086D01*
D02*
G37*
G36*
X32500Y85800D02*
X31943D01*
X32166Y85466D01*
X32500Y85243D01*
Y85800D01*
D02*
G37*
G36*
X35057D02*
X34500D01*
Y85243D01*
X34834Y85466D01*
X35057Y85800D01*
D02*
G37*
G36*
X19300Y91331D02*
X17300D01*
X16360Y91207D01*
X15484Y90845D01*
X14732Y90268D01*
X14155Y89516D01*
X13793Y88640D01*
X13669Y87700D01*
X13793Y86760D01*
X14155Y85884D01*
X14732Y85132D01*
X15484Y84555D01*
X16360Y84193D01*
X17300Y84069D01*
X19300D01*
X20240Y84193D01*
X21115Y84555D01*
X21868Y85132D01*
X22445Y85884D01*
X22807Y86760D01*
X22931Y87700D01*
X22807Y88640D01*
X22445Y89516D01*
X21868Y90268D01*
X21115Y90845D01*
X20240Y91207D01*
X19300Y91331D01*
D02*
G37*
G36*
X139800Y84757D02*
X139466Y84534D01*
X139243Y84200D01*
X139800D01*
Y84757D01*
D02*
G37*
G36*
X141800D02*
Y84200D01*
X142357D01*
X142134Y84534D01*
X141800Y84757D01*
D02*
G37*
G36*
X51957Y86400D02*
X51400D01*
Y85843D01*
X51734Y86066D01*
X51957Y86400D01*
D02*
G37*
G36*
X287900Y87700D02*
X287600D01*
Y86100D01*
X287900D01*
Y87700D01*
D02*
G37*
G36*
X320400Y87400D02*
X319843D01*
X320066Y87066D01*
X320400Y86843D01*
Y87400D01*
D02*
G37*
G36*
X333000Y87000D02*
X329000D01*
Y85300D01*
X333000D01*
Y87000D01*
D02*
G37*
G36*
X339000D02*
X335000D01*
Y85300D01*
X339000D01*
Y87000D01*
D02*
G37*
G36*
X49400Y86400D02*
X48843D01*
X49066Y86066D01*
X49400Y85843D01*
Y86400D01*
D02*
G37*
G36*
X142357Y82200D02*
X141800D01*
Y81643D01*
X142134Y81866D01*
X142357Y82200D01*
D02*
G37*
G36*
X300600Y82357D02*
X300266Y82134D01*
X300043Y81800D01*
X300600D01*
Y82357D01*
D02*
G37*
G36*
X302600D02*
Y81800D01*
X303157D01*
X302934Y82134D01*
X302600Y82357D01*
D02*
G37*
G36*
X291900Y81800D02*
X291343D01*
X291566Y81466D01*
X291900Y81243D01*
Y81800D01*
D02*
G37*
G36*
X294457D02*
X293900D01*
Y81243D01*
X294234Y81466D01*
X294457Y81800D01*
D02*
G37*
G36*
X139800Y82200D02*
X139243D01*
X139466Y81866D01*
X139800Y81643D01*
Y82200D01*
D02*
G37*
G36*
X117600Y83557D02*
Y83000D01*
X118157D01*
X117934Y83334D01*
X117600Y83557D01*
D02*
G37*
G36*
X291900Y84357D02*
X291566Y84134D01*
X291343Y83800D01*
X291900D01*
Y84357D01*
D02*
G37*
G36*
X293900D02*
Y83800D01*
X294457D01*
X294234Y84134D01*
X293900Y84357D01*
D02*
G37*
G36*
X285600Y87700D02*
X285000D01*
Y85099D01*
Y82500D01*
X285600D01*
Y85099D01*
Y87700D01*
D02*
G37*
G36*
X287900Y84100D02*
X287600D01*
Y82500D01*
X287900D01*
Y84100D01*
D02*
G37*
G36*
X115600Y83557D02*
X115266Y83334D01*
X115043Y83000D01*
X115600D01*
Y83557D01*
D02*
G37*
G36*
X322957Y87400D02*
X322400D01*
Y86843D01*
X322734Y87066D01*
X322957Y87400D01*
D02*
G37*
G36*
X316600Y91000D02*
X316000D01*
Y90400D01*
X316100D01*
Y90900D01*
X316600D01*
Y91000D01*
D02*
G37*
G36*
X97400Y91100D02*
X96843D01*
X97066Y90766D01*
X97400Y90543D01*
Y91100D01*
D02*
G37*
G36*
X99957D02*
X99400D01*
Y90543D01*
X99734Y90766D01*
X99957Y91100D01*
D02*
G37*
G36*
X87900Y90557D02*
Y90000D01*
X88457D01*
X88234Y90334D01*
X87900Y90557D01*
D02*
G37*
G36*
X215638Y97948D02*
X214916Y97805D01*
X214304Y97396D01*
X213895Y96784D01*
X213752Y96062D01*
X213895Y95340D01*
X214304Y94728D01*
X214516Y94587D01*
Y93781D01*
X213561D01*
Y90219D01*
X217714D01*
Y93781D01*
X216759D01*
Y94587D01*
X216972Y94728D01*
X217380Y95340D01*
X217524Y96062D01*
X217380Y96784D01*
X216972Y97396D01*
X216360Y97805D01*
X215638Y97948D01*
D02*
G37*
G36*
X287900Y94900D02*
X285000D01*
Y92299D01*
Y89700D01*
X287900D01*
Y91178D01*
X291561D01*
Y90219D01*
X295714D01*
Y93781D01*
X291561D01*
Y93422D01*
X287900D01*
Y94900D01*
D02*
G37*
G36*
X311100Y93900D02*
X309000D01*
Y91800D01*
X311100D01*
Y93900D01*
D02*
G37*
G36*
X315200D02*
X313100D01*
Y91800D01*
X315200D01*
Y93900D01*
D02*
G37*
G36*
X274700Y93500D02*
X274143D01*
X274366Y93166D01*
X274700Y92943D01*
Y93500D01*
D02*
G37*
G36*
X346800Y91200D02*
X346243D01*
X346466Y90866D01*
X346800Y90643D01*
Y91200D01*
D02*
G37*
G36*
X349357D02*
X348800D01*
Y90643D01*
X349134Y90866D01*
X349357Y91200D01*
D02*
G37*
G36*
X319500Y91000D02*
X318600D01*
Y90900D01*
X319500D01*
Y91000D01*
D02*
G37*
G36*
X32500Y88357D02*
X32166Y88134D01*
X31943Y87800D01*
X32500D01*
Y88357D01*
D02*
G37*
G36*
X34500D02*
Y87800D01*
X35057D01*
X34834Y88134D01*
X34500Y88357D01*
D02*
G37*
G36*
X49400Y88957D02*
X49066Y88734D01*
X48843Y88400D01*
X49400D01*
Y88957D01*
D02*
G37*
G36*
X85900Y88000D02*
X85343D01*
X85566Y87666D01*
X85900Y87443D01*
Y88000D01*
D02*
G37*
G36*
X88457D02*
X87900D01*
Y87443D01*
X88234Y87666D01*
X88457Y88000D01*
D02*
G37*
G36*
X316100Y88400D02*
X316000D01*
Y87500D01*
X316100D01*
Y88400D01*
D02*
G37*
G36*
X320400Y89957D02*
X320066Y89734D01*
X319843Y89400D01*
X320400D01*
Y89957D01*
D02*
G37*
G36*
X322400D02*
Y89400D01*
X322957D01*
X322734Y89734D01*
X322400Y89957D01*
D02*
G37*
G36*
X85900Y90557D02*
X85566Y90334D01*
X85343Y90000D01*
X85900D01*
Y90557D01*
D02*
G37*
G36*
X51400Y88957D02*
Y88400D01*
X51957D01*
X51734Y88734D01*
X51400Y88957D01*
D02*
G37*
G36*
X333000Y90700D02*
X329000D01*
Y89000D01*
X333000D01*
Y90700D01*
D02*
G37*
G36*
X339000D02*
X335000D01*
Y89000D01*
X339000D01*
Y90700D01*
D02*
G37*
G36*
X200400Y81357D02*
Y80800D01*
X200957D01*
X200734Y81134D01*
X200400Y81357D01*
D02*
G37*
G36*
X347600Y75900D02*
X347043D01*
X347266Y75566D01*
X347600Y75343D01*
Y75900D01*
D02*
G37*
G36*
X350157D02*
X349600D01*
Y75343D01*
X349934Y75566D01*
X350157Y75900D01*
D02*
G37*
G36*
X300439Y93781D02*
X296286D01*
Y90219D01*
X300439D01*
Y90878D01*
X306400D01*
X306508Y90900D01*
X307900D01*
Y88858D01*
X307754Y88640D01*
X307714Y88579D01*
X307628Y88150D01*
X307628Y88150D01*
Y80750D01*
X307628Y80750D01*
X307714Y80321D01*
X307957Y79957D01*
X309963Y77950D01*
X309914Y77700D01*
X310057Y76978D01*
X310466Y76366D01*
X311078Y75957D01*
X311800Y75814D01*
X312522Y75957D01*
X313134Y76366D01*
X313543Y76978D01*
X313686Y77700D01*
X313543Y78422D01*
X313134Y79034D01*
X312522Y79443D01*
X311800Y79586D01*
X311550Y79536D01*
X310951Y80135D01*
X311100Y80414D01*
X311822Y80557D01*
X312434Y80966D01*
X312843Y81578D01*
X312986Y82300D01*
X312843Y83022D01*
X312434Y83634D01*
X312222Y83776D01*
Y87500D01*
X312222D01*
Y88300D01*
X312136Y88729D01*
X312100Y88783D01*
Y89399D01*
Y91300D01*
X308300D01*
Y92900D01*
Y93100D01*
X306508D01*
X306401Y93122D01*
X306400Y93122D01*
X304500D01*
Y93122D01*
X300439D01*
Y93781D01*
D02*
G37*
G36*
X218014Y75700D02*
X216938D01*
Y74919D01*
X218014D01*
Y75700D01*
D02*
G37*
G36*
X208800Y75900D02*
X208243D01*
X208466Y75566D01*
X208800Y75343D01*
Y75900D01*
D02*
G37*
G36*
X211357D02*
X210800D01*
Y75343D01*
X211134Y75566D01*
X211357Y75900D01*
D02*
G37*
G36*
X7300Y77457D02*
Y76900D01*
X7857D01*
X7634Y77234D01*
X7300Y77457D01*
D02*
G37*
G36*
X287362Y77781D02*
X286286D01*
Y77000D01*
X287362D01*
Y77781D01*
D02*
G37*
G36*
X290439D02*
X289362D01*
Y77000D01*
X290439D01*
Y77781D01*
D02*
G37*
G36*
X53900Y77257D02*
X53566Y77034D01*
X53343Y76700D01*
X53900D01*
Y77257D01*
D02*
G37*
G36*
X55900D02*
Y76700D01*
X56457D01*
X56234Y77034D01*
X55900Y77257D01*
D02*
G37*
G36*
X5300Y77457D02*
X4966Y77234D01*
X4743Y76900D01*
X5300D01*
Y77457D01*
D02*
G37*
G36*
X287362Y75000D02*
X286286D01*
Y74219D01*
X287362D01*
Y75000D01*
D02*
G37*
G36*
X290439D02*
X289362D01*
Y74219D01*
X290439D01*
Y75000D01*
D02*
G37*
G36*
X5300Y74900D02*
X4743D01*
X4966Y74566D01*
X5300Y74343D01*
Y74900D01*
D02*
G37*
G36*
X56457Y74700D02*
X55900D01*
Y74143D01*
X56234Y74366D01*
X56457Y74700D01*
D02*
G37*
G36*
X300300Y74757D02*
X299966Y74534D01*
X299743Y74200D01*
X300300D01*
Y74757D01*
D02*
G37*
G36*
X302300D02*
Y74200D01*
X302857D01*
X302634Y74534D01*
X302300Y74757D01*
D02*
G37*
G36*
X340100Y75300D02*
X339543D01*
X339766Y74966D01*
X340100Y74743D01*
Y75300D01*
D02*
G37*
G36*
X342657D02*
X342100D01*
Y74743D01*
X342434Y74966D01*
X342657Y75300D01*
D02*
G37*
G36*
X214938Y75700D02*
X213861D01*
Y74919D01*
X214938D01*
Y75700D01*
D02*
G37*
G36*
X7857Y74900D02*
X7300D01*
Y74343D01*
X7634Y74566D01*
X7857Y74900D01*
D02*
G37*
G36*
X331000Y75200D02*
X330443D01*
X330666Y74866D01*
X331000Y74643D01*
Y75200D01*
D02*
G37*
G36*
X333557D02*
X333000D01*
Y74643D01*
X333334Y74866D01*
X333557Y75200D01*
D02*
G37*
G36*
X331000Y77757D02*
X330666Y77534D01*
X330443Y77200D01*
X331000D01*
Y77757D01*
D02*
G37*
G36*
X300600Y79800D02*
X300043D01*
X300266Y79466D01*
X300600Y79243D01*
Y79800D01*
D02*
G37*
G36*
X303157D02*
X302600D01*
Y79243D01*
X302934Y79466D01*
X303157Y79800D01*
D02*
G37*
G36*
X43419Y81356D02*
X37495D01*
Y79631D01*
X22900D01*
Y81300D01*
X13700D01*
Y74100D01*
X22900D01*
Y76369D01*
X37495D01*
Y74644D01*
X43419D01*
Y81356D01*
D02*
G37*
G36*
X89057Y78800D02*
X88500D01*
Y78243D01*
X88834Y78466D01*
X89057Y78800D01*
D02*
G37*
G36*
X106050Y88260D02*
X104849Y88102D01*
X103730Y87638D01*
X102769Y86901D01*
X102032Y85940D01*
X101568Y84821D01*
X101410Y83620D01*
X101568Y82419D01*
X102032Y81300D01*
X102769Y80339D01*
X103730Y79602D01*
X104849Y79138D01*
X106050Y78980D01*
X107251Y79138D01*
X108370Y79602D01*
X109331Y80339D01*
X110068Y81300D01*
X110532Y82419D01*
X110690Y83620D01*
X110532Y84821D01*
X110068Y85940D01*
X109331Y86901D01*
X108370Y87638D01*
X107251Y88102D01*
X106050Y88260D01*
D02*
G37*
G36*
X154070D02*
X152869Y88102D01*
X151750Y87638D01*
X150789Y86901D01*
X150052Y85940D01*
X149588Y84821D01*
X149430Y83620D01*
X149588Y82419D01*
X150052Y81300D01*
X150789Y80339D01*
X151750Y79602D01*
X152869Y79138D01*
X154070Y78980D01*
X155271Y79138D01*
X156390Y79602D01*
X157351Y80339D01*
X158088Y81300D01*
X158552Y82419D01*
X158710Y83620D01*
X158552Y84821D01*
X158088Y85940D01*
X157351Y86901D01*
X156390Y87638D01*
X155271Y88102D01*
X154070Y88260D01*
D02*
G37*
G36*
X86500Y81357D02*
X86166Y81134D01*
X85943Y80800D01*
X86500D01*
Y81357D01*
D02*
G37*
G36*
X88500D02*
Y80800D01*
X89057D01*
X88834Y81134D01*
X88500Y81357D01*
D02*
G37*
G36*
X198400D02*
X198066Y81134D01*
X197843Y80800D01*
X198400D01*
Y81357D01*
D02*
G37*
G36*
X190805Y90056D02*
X184881D01*
Y83344D01*
X186643D01*
X186879Y82903D01*
X186557Y82422D01*
X186414Y81700D01*
X186557Y80978D01*
X186966Y80366D01*
X187578Y79957D01*
X188300Y79814D01*
X189022Y79957D01*
X189634Y80366D01*
X190043Y80978D01*
X190186Y81700D01*
X190043Y82422D01*
X189634Y83034D01*
X189422Y83176D01*
Y83344D01*
X190805D01*
Y90056D01*
D02*
G37*
G36*
X115600Y81000D02*
X115043D01*
X115266Y80666D01*
X115600Y80443D01*
Y81000D01*
D02*
G37*
G36*
X118157D02*
X117600D01*
Y80443D01*
X117934Y80666D01*
X118157Y81000D01*
D02*
G37*
G36*
X214938Y78481D02*
X213861D01*
Y77700D01*
X214938D01*
Y78481D01*
D02*
G37*
G36*
X218014D02*
X216938D01*
Y77700D01*
X218014D01*
Y78481D01*
D02*
G37*
G36*
X208800Y78457D02*
X208466Y78234D01*
X208243Y77900D01*
X208800D01*
Y78457D01*
D02*
G37*
G36*
X333000Y77757D02*
Y77200D01*
X333557D01*
X333334Y77534D01*
X333000Y77757D01*
D02*
G37*
G36*
X340100Y77857D02*
X339766Y77634D01*
X339543Y77300D01*
X340100D01*
Y77857D01*
D02*
G37*
G36*
X342100D02*
Y77300D01*
X342657D01*
X342434Y77634D01*
X342100Y77857D01*
D02*
G37*
G36*
X198400Y78800D02*
X197843D01*
X198066Y78466D01*
X198400Y78243D01*
Y78800D01*
D02*
G37*
G36*
X200957D02*
X200400D01*
Y78243D01*
X200734Y78466D01*
X200957Y78800D01*
D02*
G37*
G36*
X86500D02*
X85943D01*
X86166Y78466D01*
X86500Y78243D01*
Y78800D01*
D02*
G37*
G36*
X210800Y78457D02*
Y77900D01*
X211357D01*
X211134Y78234D01*
X210800Y78457D01*
D02*
G37*
G36*
X347600D02*
X347266Y78234D01*
X347043Y77900D01*
X347600D01*
Y78457D01*
D02*
G37*
G36*
X349600D02*
Y77900D01*
X350157D01*
X349934Y78234D01*
X349600Y78457D01*
D02*
G37*
G36*
X282576Y57047D02*
X280023D01*
Y55084D01*
X282576D01*
Y57047D01*
D02*
G37*
G36*
X88857Y18200D02*
X88300D01*
Y17643D01*
X88634Y17866D01*
X88857Y18200D01*
D02*
G37*
G36*
X320583Y21198D02*
X319802D01*
Y17661D01*
X320583D01*
Y21198D01*
D02*
G37*
G36*
X323364D02*
X322583D01*
Y17661D01*
X323364D01*
Y21198D01*
D02*
G37*
G36*
X147100Y17700D02*
X146543D01*
X146766Y17366D01*
X147100Y17143D01*
Y17700D01*
D02*
G37*
G36*
X149657D02*
X149100D01*
Y17143D01*
X149434Y17366D01*
X149657Y17700D01*
D02*
G37*
G36*
X86300Y18200D02*
X85743D01*
X85966Y17866D01*
X86300Y17643D01*
Y18200D01*
D02*
G37*
G36*
X119700Y18957D02*
Y18400D01*
X120257D01*
X120034Y18734D01*
X119700Y18957D01*
D02*
G37*
G36*
X168900Y19257D02*
X168566Y19034D01*
X168343Y18700D01*
X168900D01*
Y19257D01*
D02*
G37*
G36*
X170900D02*
Y18700D01*
X171457D01*
X171234Y19034D01*
X170900Y19257D01*
D02*
G37*
G36*
X59200Y18357D02*
X58866Y18134D01*
X58643Y17800D01*
X59200D01*
Y18357D01*
D02*
G37*
G36*
X61200D02*
Y17800D01*
X61757D01*
X61534Y18134D01*
X61200Y18357D01*
D02*
G37*
G36*
X117700Y18957D02*
X117366Y18734D01*
X117143Y18400D01*
X117700D01*
Y18957D01*
D02*
G37*
G36*
X61757Y15800D02*
X61200D01*
Y15243D01*
X61534Y15466D01*
X61757Y15800D01*
D02*
G37*
G36*
X117700Y16400D02*
X117143D01*
X117366Y16066D01*
X117700Y15843D01*
Y16400D01*
D02*
G37*
G36*
X120257D02*
X119700D01*
Y15843D01*
X120034Y16066D01*
X120257Y16400D01*
D02*
G37*
G36*
X213938Y17661D02*
X213157D01*
Y14124D01*
X213938D01*
Y17661D01*
D02*
G37*
G36*
X216719D02*
X215938D01*
Y14124D01*
X216719D01*
Y17661D01*
D02*
G37*
G36*
X59200Y15800D02*
X58643D01*
X58866Y15466D01*
X59200Y15243D01*
Y15800D01*
D02*
G37*
G36*
X104157Y17200D02*
X103600D01*
Y16643D01*
X103934Y16866D01*
X104157Y17200D01*
D02*
G37*
G36*
X39000Y19482D02*
X38184Y19145D01*
X37433Y18567D01*
X36855Y17816D01*
X36518Y17000D01*
X39000D01*
Y19482D01*
D02*
G37*
G36*
X41000D02*
Y17000D01*
X43482D01*
X43145Y17816D01*
X42568Y18567D01*
X41816Y19145D01*
X41000Y19482D01*
D02*
G37*
G36*
X168900Y16700D02*
X168343D01*
X168566Y16366D01*
X168900Y16143D01*
Y16700D01*
D02*
G37*
G36*
X171457D02*
X170900D01*
Y16143D01*
X171234Y16366D01*
X171457Y16700D01*
D02*
G37*
G36*
X101600Y17200D02*
X101043D01*
X101266Y16866D01*
X101600Y16643D01*
Y17200D01*
D02*
G37*
G36*
Y19757D02*
X101266Y19534D01*
X101043Y19200D01*
X101600D01*
Y19757D01*
D02*
G37*
G36*
X200800Y26957D02*
X200466Y26734D01*
X200243Y26400D01*
X200800D01*
Y26957D01*
D02*
G37*
G36*
X202800D02*
Y26400D01*
X203357D01*
X203134Y26734D01*
X202800Y26957D01*
D02*
G37*
G36*
X217700Y27457D02*
X217366Y27234D01*
X217143Y26900D01*
X217700D01*
Y27457D01*
D02*
G37*
G36*
X220257Y24900D02*
X219700D01*
Y24343D01*
X220034Y24566D01*
X220257Y24900D01*
D02*
G37*
G36*
X69000Y29000D02*
X65400D01*
Y25400D01*
X69000D01*
Y29000D01*
D02*
G37*
G36*
X74600D02*
X71000D01*
Y25400D01*
X74600D01*
Y29000D01*
D02*
G37*
G36*
X28100Y27600D02*
X27543D01*
X27766Y27266D01*
X28100Y27043D01*
Y27600D01*
D02*
G37*
G36*
X30657D02*
X30100D01*
Y27043D01*
X30434Y27266D01*
X30657Y27600D01*
D02*
G37*
G36*
X188081Y28414D02*
X184519D01*
Y27222D01*
X183576D01*
X183434Y27434D01*
X182822Y27843D01*
X182100Y27986D01*
X181378Y27843D01*
X180766Y27434D01*
X180624Y27222D01*
X180081D01*
Y28414D01*
X176519D01*
Y24261D01*
X180081D01*
Y24979D01*
X180624D01*
X180766Y24766D01*
X181378Y24357D01*
X182100Y24214D01*
X182822Y24357D01*
X183434Y24766D01*
X183576Y24979D01*
X184519D01*
Y24261D01*
X188081D01*
Y28414D01*
D02*
G37*
G36*
X219700Y27457D02*
Y26900D01*
X220257D01*
X220034Y27234D01*
X219700Y27457D01*
D02*
G37*
G36*
X5000Y27600D02*
X4443D01*
X4666Y27266D01*
X5000Y27043D01*
Y27600D01*
D02*
G37*
G36*
X7557D02*
X7000D01*
Y27043D01*
X7334Y27266D01*
X7557Y27600D01*
D02*
G37*
G36*
X213938Y23198D02*
X213157D01*
Y19661D01*
X213938D01*
Y23198D01*
D02*
G37*
G36*
X216719D02*
X215938D01*
Y19661D01*
X216719D01*
Y23198D01*
D02*
G37*
G36*
X147100Y20257D02*
X146766Y20034D01*
X146543Y19700D01*
X147100D01*
Y20257D01*
D02*
G37*
G36*
X103600Y19757D02*
Y19200D01*
X104157D01*
X103934Y19534D01*
X103600Y19757D01*
D02*
G37*
G36*
X206583Y23198D02*
X205802D01*
Y19661D01*
X206583D01*
Y23198D01*
D02*
G37*
G36*
X209365D02*
X208583D01*
Y19661D01*
X209365D01*
Y23198D01*
D02*
G37*
G36*
X200800Y24400D02*
X200243D01*
X200466Y24066D01*
X200800Y23843D01*
Y24400D01*
D02*
G37*
G36*
X203357D02*
X202800D01*
Y23843D01*
X203134Y24066D01*
X203357Y24400D01*
D02*
G37*
G36*
X217700Y24900D02*
X217143D01*
X217366Y24566D01*
X217700Y24343D01*
Y24900D01*
D02*
G37*
G36*
X149100Y20257D02*
Y19700D01*
X149657D01*
X149434Y20034D01*
X149100Y20257D01*
D02*
G37*
G36*
X86300Y20757D02*
X85966Y20534D01*
X85743Y20200D01*
X86300D01*
Y20757D01*
D02*
G37*
G36*
X88300D02*
Y20200D01*
X88857D01*
X88634Y20534D01*
X88300Y20757D01*
D02*
G37*
G36*
X209365Y17661D02*
X208583D01*
Y14124D01*
X209365D01*
Y17661D01*
D02*
G37*
G36*
X138000Y5457D02*
Y4900D01*
X138557D01*
X138334Y5234D01*
X138000Y5457D01*
D02*
G37*
G36*
X172000Y5657D02*
X171666Y5434D01*
X171443Y5100D01*
X172000D01*
Y5657D01*
D02*
G37*
G36*
X174000D02*
Y5100D01*
X174557D01*
X174334Y5434D01*
X174000Y5657D01*
D02*
G37*
G36*
X92500Y5257D02*
X92166Y5034D01*
X91943Y4700D01*
X92500D01*
Y5257D01*
D02*
G37*
G36*
X94500D02*
Y4700D01*
X95057D01*
X94834Y5034D01*
X94500Y5257D01*
D02*
G37*
G36*
X136000Y5457D02*
X135666Y5234D01*
X135443Y4900D01*
X136000D01*
Y5457D01*
D02*
G37*
G36*
X279657Y6100D02*
X279100D01*
Y5543D01*
X279434Y5766D01*
X279657Y6100D01*
D02*
G37*
G36*
X259500Y6400D02*
X258943D01*
X259166Y6066D01*
X259500Y5843D01*
Y6400D01*
D02*
G37*
G36*
X262057D02*
X261500D01*
Y5843D01*
X261834Y6066D01*
X262057Y6400D01*
D02*
G37*
G36*
X244200Y6000D02*
X243643D01*
X243866Y5666D01*
X244200Y5443D01*
Y6000D01*
D02*
G37*
G36*
X246757D02*
X246200D01*
Y5443D01*
X246534Y5666D01*
X246757Y6000D01*
D02*
G37*
G36*
X277100Y6100D02*
X276543D01*
X276766Y5766D01*
X277100Y5543D01*
Y6100D01*
D02*
G37*
G36*
X138557Y2900D02*
X138000D01*
Y2343D01*
X138334Y2566D01*
X138557Y2900D01*
D02*
G37*
G36*
X172000Y3100D02*
X171443D01*
X171666Y2766D01*
X172000Y2543D01*
Y3100D01*
D02*
G37*
G36*
X174557D02*
X174000D01*
Y2543D01*
X174334Y2766D01*
X174557Y3100D01*
D02*
G37*
G36*
X92500Y2700D02*
X91943D01*
X92166Y2366D01*
X92500Y2143D01*
Y2700D01*
D02*
G37*
G36*
X95057D02*
X94500D01*
Y2143D01*
X94834Y2366D01*
X95057Y2700D01*
D02*
G37*
G36*
X136000Y2900D02*
X135443D01*
X135666Y2566D01*
X136000Y2343D01*
Y2900D01*
D02*
G37*
G36*
X54757Y4600D02*
X54200D01*
Y4043D01*
X54534Y4266D01*
X54757Y4600D01*
D02*
G37*
G36*
X18300Y25333D02*
X16637Y25202D01*
X15014Y24812D01*
X13473Y24174D01*
X12050Y23302D01*
X10781Y22219D01*
X9698Y20950D01*
X8826Y19527D01*
X8188Y17986D01*
X7798Y16363D01*
X7667Y14700D01*
X7798Y13037D01*
X8188Y11414D01*
X8826Y9873D01*
X9698Y8450D01*
X10781Y7181D01*
X12050Y6098D01*
X13473Y5226D01*
X15014Y4588D01*
X16637Y4198D01*
X18300Y4067D01*
X19963Y4198D01*
X21586Y4588D01*
X23127Y5226D01*
X24550Y6098D01*
X25818Y7181D01*
X26902Y8450D01*
X27774Y9873D01*
X28412Y11414D01*
X28802Y13037D01*
X28933Y14700D01*
X28802Y16363D01*
X28412Y17986D01*
X27774Y19527D01*
X26902Y20950D01*
X25818Y22219D01*
X24550Y23302D01*
X23127Y24174D01*
X21586Y24812D01*
X19963Y25202D01*
X18300Y25333D01*
D02*
G37*
G36*
X340300D02*
X338637Y25202D01*
X337014Y24812D01*
X335473Y24174D01*
X334050Y23302D01*
X332782Y22219D01*
X331698Y20950D01*
X330826Y19527D01*
X330188Y17986D01*
X329798Y16363D01*
X329667Y14700D01*
X329798Y13037D01*
X330188Y11414D01*
X330826Y9873D01*
X331698Y8450D01*
X332782Y7181D01*
X334050Y6098D01*
X335473Y5226D01*
X337014Y4588D01*
X338637Y4198D01*
X340300Y4067D01*
X341963Y4198D01*
X343586Y4588D01*
X345127Y5226D01*
X346550Y6098D01*
X347818Y7181D01*
X348902Y8450D01*
X349774Y9873D01*
X350412Y11414D01*
X350802Y13037D01*
X350933Y14700D01*
X350802Y16363D01*
X350412Y17986D01*
X349774Y19527D01*
X348902Y20950D01*
X347818Y22219D01*
X346550Y23302D01*
X345127Y24174D01*
X343586Y24812D01*
X341963Y25202D01*
X340300Y25333D01*
D02*
G37*
G36*
X71000Y4300D02*
X70443D01*
X70666Y3966D01*
X71000Y3743D01*
Y4300D01*
D02*
G37*
G36*
X73557D02*
X73000D01*
Y3743D01*
X73334Y3966D01*
X73557Y4300D01*
D02*
G37*
G36*
X52200Y4600D02*
X51643D01*
X51866Y4266D01*
X52200Y4043D01*
Y4600D01*
D02*
G37*
G36*
X293500Y6600D02*
X292943D01*
X293166Y6266D01*
X293500Y6043D01*
Y6600D01*
D02*
G37*
G36*
X314100Y9357D02*
X313766Y9134D01*
X313543Y8800D01*
X314100D01*
Y9357D01*
D02*
G37*
G36*
X316100D02*
Y8800D01*
X316657D01*
X316434Y9134D01*
X316100Y9357D01*
D02*
G37*
G36*
X320583Y15661D02*
X319802D01*
Y12124D01*
X320583D01*
Y15661D01*
D02*
G37*
G36*
X261500Y8957D02*
Y8400D01*
X262057D01*
X261834Y8734D01*
X261500Y8957D01*
D02*
G37*
G36*
X293500Y9157D02*
X293166Y8934D01*
X292943Y8600D01*
X293500D01*
Y9157D01*
D02*
G37*
G36*
X295500D02*
Y8600D01*
X296057D01*
X295834Y8934D01*
X295500Y9157D01*
D02*
G37*
G36*
X43482Y15000D02*
X41000D01*
Y12518D01*
X41816Y12855D01*
X42568Y13432D01*
X43145Y14185D01*
X43482Y15000D01*
D02*
G37*
G36*
X279300Y25331D02*
X278360Y25207D01*
X277484Y24845D01*
X276732Y24268D01*
X276155Y23516D01*
X275793Y22640D01*
X275669Y21700D01*
Y19700D01*
X275791Y18777D01*
X270135Y13122D01*
X251165D01*
X247732Y16554D01*
X247764Y17053D01*
X247867Y17132D01*
X248445Y17885D01*
X248807Y18760D01*
X248931Y19700D01*
Y21700D01*
X248807Y22640D01*
X248445Y23516D01*
X247867Y24268D01*
X247115Y24845D01*
X246240Y25207D01*
X245300Y25331D01*
X244360Y25207D01*
X243484Y24845D01*
X242733Y24268D01*
X242155Y23516D01*
X241793Y22640D01*
X241669Y21700D01*
Y19700D01*
X241793Y18760D01*
X242155Y17885D01*
X242733Y17132D01*
X243484Y16555D01*
X244360Y16193D01*
X245006Y16108D01*
X249907Y11207D01*
X249907Y11207D01*
X250271Y10964D01*
X250700Y10878D01*
X270600D01*
X270600Y10878D01*
X271029Y10964D01*
X271393Y11207D01*
X277064Y16878D01*
X277484Y16555D01*
X278360Y16193D01*
X279300Y16069D01*
X280240Y16193D01*
X281116Y16555D01*
X281868Y17132D01*
X282445Y17885D01*
X282807Y18760D01*
X282931Y19700D01*
Y21700D01*
X282807Y22640D01*
X282445Y23516D01*
X281868Y24268D01*
X281116Y24845D01*
X280240Y25207D01*
X279300Y25331D01*
D02*
G37*
G36*
X206583Y17661D02*
X205802D01*
Y14124D01*
X206583D01*
Y17661D01*
D02*
G37*
G36*
X323364Y15661D02*
X322583D01*
Y12124D01*
X323364D01*
Y15661D01*
D02*
G37*
G36*
X53600Y19600D02*
X46400D01*
Y12400D01*
X53600D01*
Y19600D01*
D02*
G37*
G36*
X39000Y15000D02*
X36518D01*
X36855Y14185D01*
X37433Y13432D01*
X38184Y12855D01*
X39000Y12518D01*
Y15000D01*
D02*
G37*
G36*
X71000Y6857D02*
X70666Y6634D01*
X70443Y6300D01*
X71000D01*
Y6857D01*
D02*
G37*
G36*
X73000D02*
Y6300D01*
X73557D01*
X73334Y6634D01*
X73000Y6857D01*
D02*
G37*
G36*
X52200Y7157D02*
X51866Y6934D01*
X51643Y6600D01*
X52200D01*
Y7157D01*
D02*
G37*
G36*
X296057Y6600D02*
X295500D01*
Y6043D01*
X295834Y6266D01*
X296057Y6600D01*
D02*
G37*
G36*
X314100Y6800D02*
X313543D01*
X313766Y6466D01*
X314100Y6243D01*
Y6800D01*
D02*
G37*
G36*
X316657D02*
X316100D01*
Y6243D01*
X316434Y6466D01*
X316657Y6800D01*
D02*
G37*
G36*
X277100Y8657D02*
X276766Y8434D01*
X276543Y8100D01*
X277100D01*
Y8657D01*
D02*
G37*
G36*
X279100D02*
Y8100D01*
X279657D01*
X279434Y8434D01*
X279100Y8657D01*
D02*
G37*
G36*
X259500Y8957D02*
X259166Y8734D01*
X258943Y8400D01*
X259500D01*
Y8957D01*
D02*
G37*
G36*
X54200Y7157D02*
Y6600D01*
X54757D01*
X54534Y6934D01*
X54200Y7157D01*
D02*
G37*
G36*
X244200Y8557D02*
X243866Y8334D01*
X243643Y8000D01*
X244200D01*
Y8557D01*
D02*
G37*
G36*
X246200D02*
Y8000D01*
X246757D01*
X246534Y8334D01*
X246200Y8557D01*
D02*
G37*
G36*
X300300Y28300D02*
X299743D01*
X299966Y27966D01*
X300300Y27743D01*
Y28300D01*
D02*
G37*
G36*
X292000Y44157D02*
X291666Y43934D01*
X291443Y43600D01*
X292000D01*
Y44157D01*
D02*
G37*
G36*
X294000D02*
Y43600D01*
X294557D01*
X294334Y43934D01*
X294000Y44157D01*
D02*
G37*
G36*
X282300Y45257D02*
X281966Y45034D01*
X281743Y44700D01*
X282300D01*
Y45257D01*
D02*
G37*
G36*
X196000Y46486D02*
X195278Y46343D01*
X194666Y45934D01*
X194257Y45322D01*
X194114Y44600D01*
X194164Y44350D01*
X193090Y43276D01*
X191235D01*
Y34202D01*
X191895D01*
Y32184D01*
X188081D01*
Y33139D01*
X184519D01*
Y28986D01*
X188081D01*
Y29941D01*
X191895D01*
Y23198D01*
X191235D01*
Y14124D01*
X194798D01*
Y23198D01*
X194138D01*
Y34202D01*
X194798D01*
Y41812D01*
X195750Y42764D01*
X196000Y42714D01*
X196722Y42857D01*
X197334Y43266D01*
X197743Y43878D01*
X197886Y44600D01*
X197743Y45322D01*
X197334Y45934D01*
X196722Y46343D01*
X196000Y46486D01*
D02*
G37*
G36*
X303100Y43500D02*
X302543D01*
X302766Y43166D01*
X303100Y42943D01*
Y43500D01*
D02*
G37*
G36*
X305657D02*
X305100D01*
Y42943D01*
X305434Y43166D01*
X305657Y43500D01*
D02*
G37*
G36*
X303100Y46057D02*
X302766Y45834D01*
X302543Y45500D01*
X303100D01*
Y46057D01*
D02*
G37*
G36*
X305100D02*
Y45500D01*
X305657D01*
X305434Y45834D01*
X305100Y46057D01*
D02*
G37*
G36*
X163500Y46100D02*
X162943D01*
X163166Y45766D01*
X163500Y45543D01*
Y46100D01*
D02*
G37*
G36*
X284300Y45257D02*
Y44700D01*
X284857D01*
X284634Y45034D01*
X284300Y45257D01*
D02*
G37*
G36*
X205790Y55135D02*
X199865D01*
Y50785D01*
X203416D01*
X206294Y47907D01*
X206294Y47907D01*
X206658Y47664D01*
X206658Y47664D01*
X206658Y47664D01*
D01*
X206658Y47664D01*
X206658Y47664D01*
X207087Y47578D01*
X207087Y47578D01*
X209794D01*
Y45344D01*
X215719D01*
Y52056D01*
X209794D01*
Y49821D01*
X207552D01*
X205790Y51584D01*
Y55135D01*
D02*
G37*
G36*
X219800Y56086D02*
X219078Y55943D01*
X218466Y55534D01*
X218057Y54922D01*
X217914Y54200D01*
X218057Y53478D01*
X218466Y52866D01*
X218722Y52696D01*
Y52056D01*
X216881D01*
Y45344D01*
X222806D01*
Y52056D01*
X220965D01*
Y52753D01*
X221134Y52866D01*
X221543Y53478D01*
X221686Y54200D01*
X221543Y54922D01*
X221134Y55534D01*
X220522Y55943D01*
X219800Y56086D01*
D02*
G37*
G36*
X22900Y47300D02*
X13700D01*
Y40100D01*
X18439D01*
X18865Y39924D01*
X19543Y39834D01*
X19543Y39834D01*
X36644D01*
Y39494D01*
X43356D01*
Y45419D01*
X36644D01*
Y45079D01*
X22900D01*
Y47300D01*
D02*
G37*
G36*
X206662Y43276D02*
X205881D01*
Y39739D01*
X206662D01*
Y43276D01*
D02*
G37*
G36*
X209443D02*
X208662D01*
Y39739D01*
X209443D01*
Y43276D01*
D02*
G37*
G36*
X323443Y41276D02*
X322662D01*
Y37739D01*
X323443D01*
Y41276D01*
D02*
G37*
G36*
X245000Y41431D02*
X244208Y41103D01*
X243466Y40534D01*
X242897Y39792D01*
X242569Y39000D01*
X245000D01*
Y41431D01*
D02*
G37*
G36*
X247000D02*
Y39000D01*
X249431D01*
X249103Y39792D01*
X248534Y40534D01*
X247792Y41103D01*
X247000Y41431D01*
D02*
G37*
G36*
X294557Y41600D02*
X294000D01*
Y41043D01*
X294334Y41266D01*
X294557Y41600D01*
D02*
G37*
G36*
X282300Y42700D02*
X281743D01*
X281966Y42366D01*
X282300Y42143D01*
Y42700D01*
D02*
G37*
G36*
X284857D02*
X284300D01*
Y42143D01*
X284634Y42366D01*
X284857Y42700D01*
D02*
G37*
G36*
X214017Y43276D02*
X213235D01*
Y39739D01*
X214017D01*
Y43276D01*
D02*
G37*
G36*
X216798D02*
X216017D01*
Y39739D01*
X216798D01*
Y43276D01*
D02*
G37*
G36*
X292000Y41600D02*
X291443D01*
X291666Y41266D01*
X292000Y41043D01*
Y41600D01*
D02*
G37*
G36*
X166057Y46100D02*
X165500D01*
Y45543D01*
X165834Y45766D01*
X166057Y46100D01*
D02*
G37*
G36*
X342900Y52657D02*
Y52100D01*
X343457D01*
X343234Y52434D01*
X342900Y52657D01*
D02*
G37*
G36*
X292024Y54316D02*
X289472D01*
Y52354D01*
X292024D01*
Y54316D01*
D02*
G37*
G36*
X296577D02*
X294024D01*
Y52354D01*
X296577D01*
Y54316D01*
D02*
G37*
G36*
X299300Y51338D02*
X298519D01*
Y50261D01*
X299300D01*
Y51338D01*
D02*
G37*
G36*
X302081D02*
X301300D01*
Y50261D01*
X302081D01*
Y51338D01*
D02*
G37*
G36*
X340900Y52657D02*
X340566Y52434D01*
X340343Y52100D01*
X340900D01*
Y52657D01*
D02*
G37*
G36*
X142757Y54200D02*
X142200D01*
Y53643D01*
X142534Y53866D01*
X142757Y54200D01*
D02*
G37*
G36*
X275300Y56062D02*
X274519D01*
Y54986D01*
X275300D01*
Y56062D01*
D02*
G37*
G36*
X278081D02*
X277300D01*
Y54986D01*
X278081D01*
Y56062D01*
D02*
G37*
G36*
X299300Y54414D02*
X298519D01*
Y53338D01*
X299300D01*
Y54414D01*
D02*
G37*
G36*
X302081D02*
X301300D01*
Y53338D01*
X302081D01*
Y54414D01*
D02*
G37*
G36*
X140200Y54200D02*
X139643D01*
X139866Y53866D01*
X140200Y53643D01*
Y54200D01*
D02*
G37*
G36*
X324300Y62239D02*
X322829Y62095D01*
X321415Y61665D01*
X320111Y60969D01*
X318969Y60031D01*
X318031Y58889D01*
X317335Y57585D01*
X316905Y56171D01*
X316761Y54700D01*
X316905Y53229D01*
X317335Y51815D01*
X318031Y50511D01*
X318969Y49369D01*
X320111Y48431D01*
X321415Y47734D01*
X322829Y47306D01*
X324300Y47161D01*
X325771Y47306D01*
X327185Y47734D01*
X328489Y48431D01*
X329631Y49369D01*
X330569Y50511D01*
X331265Y51815D01*
X331695Y53229D01*
X331839Y54700D01*
X331695Y56171D01*
X331265Y57585D01*
X330569Y58889D01*
X329631Y60031D01*
X328489Y60969D01*
X327185Y61665D01*
X325771Y62095D01*
X324300Y62239D01*
D02*
G37*
G36*
X163500Y48657D02*
X163166Y48434D01*
X162943Y48100D01*
X163500D01*
Y48657D01*
D02*
G37*
G36*
X165500D02*
Y48100D01*
X166057D01*
X165834Y48434D01*
X165500Y48657D01*
D02*
G37*
G36*
X19300Y57331D02*
X17300D01*
X16360Y57207D01*
X15484Y56845D01*
X14732Y56268D01*
X14155Y55515D01*
X13793Y54640D01*
X13669Y53700D01*
X13793Y52760D01*
X14155Y51885D01*
X14732Y51133D01*
X15484Y50555D01*
X16360Y50193D01*
X17300Y50069D01*
X19300D01*
X20240Y50193D01*
X21115Y50555D01*
X21796Y51078D01*
X34757D01*
X36644Y49191D01*
Y46581D01*
X43356D01*
Y52505D01*
X40747D01*
X37698Y55554D01*
X37154Y55971D01*
X36522Y56233D01*
X35843Y56322D01*
X35843Y56322D01*
X21796D01*
X21115Y56845D01*
X20240Y57207D01*
X19300Y57331D01*
D02*
G37*
G36*
X5000Y47400D02*
X4443D01*
X4666Y47066D01*
X5000Y46843D01*
Y47400D01*
D02*
G37*
G36*
X7557D02*
X7000D01*
Y46843D01*
X7334Y47066D01*
X7557Y47400D01*
D02*
G37*
G36*
X7000Y49957D02*
Y49400D01*
X7557D01*
X7334Y49734D01*
X7000Y49957D01*
D02*
G37*
G36*
X340900Y50100D02*
X340343D01*
X340566Y49766D01*
X340900Y49543D01*
Y50100D01*
D02*
G37*
G36*
X343457D02*
X342900D01*
Y49543D01*
X343234Y49766D01*
X343457Y50100D01*
D02*
G37*
G36*
X292024Y50353D02*
X289472D01*
Y48391D01*
X292024D01*
Y50353D01*
D02*
G37*
G36*
X296577D02*
X294024D01*
Y48391D01*
X296577D01*
Y50353D01*
D02*
G37*
G36*
X5000Y49957D02*
X4666Y49734D01*
X4443Y49400D01*
X5000D01*
Y49957D01*
D02*
G37*
G36*
X320662Y41276D02*
X319881D01*
Y37739D01*
X320662D01*
Y41276D01*
D02*
G37*
G36*
X224557Y31600D02*
X224000D01*
Y31043D01*
X224334Y31266D01*
X224557Y31600D01*
D02*
G37*
G36*
X113800Y31700D02*
X113243D01*
X113466Y31366D01*
X113800Y31143D01*
Y31700D01*
D02*
G37*
G36*
X116357D02*
X115800D01*
Y31143D01*
X116134Y31366D01*
X116357Y31700D01*
D02*
G37*
G36*
X69000Y34600D02*
X65400D01*
Y31000D01*
X69000D01*
Y34600D01*
D02*
G37*
G36*
X74600D02*
X71000D01*
Y31000D01*
X74600D01*
Y34600D01*
D02*
G37*
G36*
X222000Y31600D02*
X221443D01*
X221666Y31266D01*
X222000Y31043D01*
Y31600D01*
D02*
G37*
G36*
X320662Y35739D02*
X319881D01*
Y32202D01*
X320662D01*
Y35739D01*
D02*
G37*
G36*
X323443D02*
X322662D01*
Y32202D01*
X323443D01*
Y35739D01*
D02*
G37*
G36*
X137800Y33200D02*
X137243D01*
X137466Y32866D01*
X137800Y32643D01*
Y33200D01*
D02*
G37*
G36*
X72505Y89356D02*
X66581D01*
Y82644D01*
X68878D01*
Y74492D01*
X68799Y74482D01*
X67680Y74018D01*
X66719Y73281D01*
X65982Y72320D01*
X65518Y71201D01*
X65360Y70000D01*
X65518Y68799D01*
X65982Y67680D01*
X66719Y66719D01*
X67680Y65982D01*
X68799Y65518D01*
X70000Y65360D01*
X88078D01*
X101410Y52028D01*
Y36380D01*
X101410Y36380D01*
X101410D01*
X101568Y35179D01*
X102032Y34060D01*
X102769Y33099D01*
X103730Y32362D01*
X104849Y31898D01*
X106050Y31740D01*
X107251Y31898D01*
X108370Y32362D01*
X109331Y33099D01*
X110068Y34060D01*
X110532Y35179D01*
X110690Y36380D01*
Y53950D01*
X110690Y53950D01*
X110532Y55151D01*
X110068Y56270D01*
X109699Y56750D01*
X109331Y57231D01*
X109331Y57231D01*
X93281Y73281D01*
X92320Y74018D01*
X91992Y74154D01*
X91201Y74482D01*
X90600Y74561D01*
X90000Y74640D01*
X90000Y74640D01*
X71122D01*
Y82644D01*
X72505D01*
Y89356D01*
D02*
G37*
G36*
X40000Y32657D02*
X39666Y32434D01*
X39443Y32100D01*
X40000D01*
Y32657D01*
D02*
G37*
G36*
X42000D02*
Y32100D01*
X42557D01*
X42334Y32434D01*
X42000Y32657D01*
D02*
G37*
G36*
X42557Y30100D02*
X42000D01*
Y29543D01*
X42334Y29766D01*
X42557Y30100D01*
D02*
G37*
G36*
X5000Y30157D02*
X4666Y29934D01*
X4443Y29600D01*
X5000D01*
Y30157D01*
D02*
G37*
G36*
X7000D02*
Y29600D01*
X7557D01*
X7334Y29934D01*
X7000Y30157D01*
D02*
G37*
G36*
X302857Y28300D02*
X302300D01*
Y27743D01*
X302634Y27966D01*
X302857Y28300D01*
D02*
G37*
G36*
X178300Y36986D02*
X177578Y36843D01*
X176966Y36434D01*
X176557Y35822D01*
X176414Y35100D01*
X176557Y34378D01*
X176966Y33766D01*
X177178Y33624D01*
Y33139D01*
X176519D01*
Y28986D01*
X180081D01*
Y33139D01*
X179422D01*
Y33624D01*
X179634Y33766D01*
X180043Y34378D01*
X180186Y35100D01*
X180043Y35822D01*
X179634Y36434D01*
X179022Y36843D01*
X178300Y36986D01*
D02*
G37*
G36*
X40000Y30100D02*
X39443D01*
X39666Y29766D01*
X40000Y29543D01*
Y30100D01*
D02*
G37*
G36*
X302300Y30857D02*
Y30300D01*
X302857D01*
X302634Y30634D01*
X302300Y30857D01*
D02*
G37*
G36*
X198600Y31500D02*
X198043D01*
X198266Y31166D01*
X198600Y30943D01*
Y31500D01*
D02*
G37*
G36*
X201157D02*
X200600D01*
Y30943D01*
X200934Y31166D01*
X201157Y31500D01*
D02*
G37*
G36*
X28100Y30157D02*
X27766Y29934D01*
X27543Y29600D01*
X28100D01*
Y30157D01*
D02*
G37*
G36*
X30100D02*
Y29600D01*
X30657D01*
X30434Y29934D01*
X30100Y30157D01*
D02*
G37*
G36*
X300300Y30857D02*
X299966Y30634D01*
X299743Y30300D01*
X300300D01*
Y30857D01*
D02*
G37*
G36*
X140357Y33200D02*
X139800D01*
Y32643D01*
X140134Y32866D01*
X140357Y33200D01*
D02*
G37*
G36*
X343257Y35200D02*
X342700D01*
Y34643D01*
X343034Y34866D01*
X343257Y35200D01*
D02*
G37*
G36*
X65419Y89356D02*
X59495D01*
Y84624D01*
X58707Y83836D01*
X58464Y83473D01*
X58378Y83043D01*
X58378Y83043D01*
Y38276D01*
X58166Y38134D01*
X57757Y37522D01*
X57614Y36800D01*
X57757Y36078D01*
X58166Y35466D01*
X58778Y35057D01*
X59500Y34914D01*
X60222Y35057D01*
X60834Y35466D01*
X61243Y36078D01*
X61386Y36800D01*
X61243Y37522D01*
X60834Y38134D01*
X60622Y38276D01*
Y82579D01*
X60687Y82644D01*
X65419D01*
Y89356D01*
D02*
G37*
G36*
X137800Y35757D02*
X137466Y35534D01*
X137243Y35200D01*
X137800D01*
Y35757D01*
D02*
G37*
G36*
X245000Y37000D02*
X242569D01*
X242897Y36208D01*
X243466Y35466D01*
X244208Y34897D01*
X245000Y34569D01*
Y37000D01*
D02*
G37*
G36*
X249431D02*
X247000D01*
Y34569D01*
X247792Y34897D01*
X248534Y35466D01*
X249103Y36208D01*
X249431Y37000D01*
D02*
G37*
G36*
X340700Y35200D02*
X340143D01*
X340366Y34866D01*
X340700Y34643D01*
Y35200D01*
D02*
G37*
G36*
Y37757D02*
X340366Y37534D01*
X340143Y37200D01*
X340700D01*
Y37757D01*
D02*
G37*
G36*
X342700D02*
Y37200D01*
X343257D01*
X343034Y37534D01*
X342700Y37757D01*
D02*
G37*
G36*
X193772Y59322D02*
X193094Y59233D01*
X192461Y58971D01*
X192336Y58875D01*
X190810D01*
Y57446D01*
X182014Y48650D01*
X177850D01*
Y47850D01*
X177721Y47833D01*
X177089Y47571D01*
X176546Y47154D01*
X167094Y37702D01*
X158501D01*
X158088Y38700D01*
X157351Y39661D01*
X156390Y40398D01*
X155271Y40862D01*
X154070Y41020D01*
X152869Y40862D01*
X151750Y40398D01*
X150789Y39661D01*
X150052Y38700D01*
X149588Y37581D01*
X149430Y36380D01*
X149588Y35179D01*
X150052Y34060D01*
X150789Y33099D01*
X151750Y32362D01*
X152869Y31898D01*
X154070Y31740D01*
X155271Y31898D01*
X156390Y32362D01*
X156515Y32458D01*
X168180D01*
X168180Y32458D01*
X168859Y32547D01*
X169491Y32809D01*
X170034Y33226D01*
X178759Y41950D01*
X186750D01*
Y45969D01*
X195306Y54525D01*
X196735D01*
Y58875D01*
X195209D01*
X195084Y58971D01*
X194451Y59233D01*
X193772Y59322D01*
D02*
G37*
G36*
X139800Y35757D02*
Y35200D01*
X140357D01*
X140134Y35534D01*
X139800Y35757D01*
D02*
G37*
G36*
X86100Y36457D02*
X85766Y36234D01*
X85543Y35900D01*
X86100D01*
Y36457D01*
D02*
G37*
G36*
X88100D02*
Y35900D01*
X88657D01*
X88434Y36234D01*
X88100Y36457D01*
D02*
G37*
G36*
X200600Y34057D02*
Y33500D01*
X201157D01*
X200934Y33834D01*
X200600Y34057D01*
D02*
G37*
G36*
X222000Y34157D02*
X221666Y33934D01*
X221443Y33600D01*
X222000D01*
Y34157D01*
D02*
G37*
G36*
X224000D02*
Y33600D01*
X224557D01*
X224334Y33934D01*
X224000Y34157D01*
D02*
G37*
G36*
X86100Y33900D02*
X85543D01*
X85766Y33566D01*
X86100Y33343D01*
Y33900D01*
D02*
G37*
G36*
X88657D02*
X88100D01*
Y33343D01*
X88434Y33566D01*
X88657Y33900D01*
D02*
G37*
G36*
X198600Y34057D02*
X198266Y33834D01*
X198043Y33500D01*
X198600D01*
Y34057D01*
D02*
G37*
G36*
X209443Y37739D02*
X208662D01*
Y34202D01*
X209443D01*
Y37739D01*
D02*
G37*
G36*
X214017D02*
X213235D01*
Y34202D01*
X214017D01*
Y37739D01*
D02*
G37*
G36*
X216798D02*
X216017D01*
Y34202D01*
X216798D01*
Y37739D01*
D02*
G37*
G36*
X113800Y34257D02*
X113466Y34034D01*
X113243Y33700D01*
X113800D01*
Y34257D01*
D02*
G37*
G36*
X115800D02*
Y33700D01*
X116357D01*
X116134Y34034D01*
X115800Y34257D01*
D02*
G37*
G36*
X206662Y37739D02*
X205881D01*
Y34202D01*
X206662D01*
Y37739D01*
D02*
G37*
G36*
X106050Y160260D02*
X104849Y160102D01*
X103730Y159638D01*
X102769Y158901D01*
X102032Y157940D01*
X101568Y156821D01*
X101410Y155620D01*
X101568Y154419D01*
X102032Y153300D01*
X102769Y152339D01*
X103730Y151602D01*
X104849Y151138D01*
X106050Y150980D01*
X107251Y151138D01*
X108370Y151602D01*
X109331Y152339D01*
X110068Y153300D01*
X110532Y154419D01*
X110690Y155620D01*
X110532Y156821D01*
X110068Y157940D01*
X109331Y158901D01*
X108370Y159638D01*
X107251Y160102D01*
X106050Y160260D01*
D02*
G37*
G36*
X262600Y152000D02*
X262043D01*
X262266Y151666D01*
X262600Y151443D01*
Y152000D01*
D02*
G37*
G36*
X265157D02*
X264600D01*
Y151443D01*
X264934Y151666D01*
X265157Y152000D01*
D02*
G37*
G36*
X201300Y151157D02*
Y150600D01*
X201857D01*
X201634Y150934D01*
X201300Y151157D01*
D02*
G37*
G36*
X91600Y151500D02*
X91043D01*
X91266Y151166D01*
X91600Y150943D01*
Y151500D01*
D02*
G37*
G36*
X94157D02*
X93600D01*
Y150943D01*
X93934Y151166D01*
X94157Y151500D01*
D02*
G37*
G36*
X79500Y153357D02*
Y152800D01*
X80057D01*
X79834Y153134D01*
X79500Y153357D01*
D02*
G37*
G36*
X91600Y154057D02*
X91266Y153834D01*
X91043Y153500D01*
X91600D01*
Y154057D01*
D02*
G37*
G36*
X93600D02*
Y153500D01*
X94157D01*
X93934Y153834D01*
X93600Y154057D01*
D02*
G37*
G36*
X248600Y152500D02*
X248043D01*
X248266Y152166D01*
X248600Y151943D01*
Y152500D01*
D02*
G37*
G36*
X251157D02*
X250600D01*
Y151943D01*
X250934Y152166D01*
X251157Y152500D01*
D02*
G37*
G36*
X77500Y153357D02*
X77166Y153134D01*
X76943Y152800D01*
X77500D01*
Y153357D01*
D02*
G37*
G36*
X65300Y149139D02*
X64519D01*
Y148062D01*
X65300D01*
Y149139D01*
D02*
G37*
G36*
X68081D02*
X67300D01*
Y148062D01*
X68081D01*
Y149139D01*
D02*
G37*
G36*
X222800Y149457D02*
X222466Y149234D01*
X222243Y148900D01*
X222800D01*
Y149457D01*
D02*
G37*
G36*
X39600Y147657D02*
Y147100D01*
X40157D01*
X39934Y147434D01*
X39600Y147657D01*
D02*
G37*
G36*
X199300Y148600D02*
X198743D01*
X198966Y148266D01*
X199300Y148043D01*
Y148600D01*
D02*
G37*
G36*
X201857D02*
X201300D01*
Y148043D01*
X201634Y148266D01*
X201857Y148600D01*
D02*
G37*
G36*
X77500Y150800D02*
X76943D01*
X77166Y150466D01*
X77500Y150243D01*
Y150800D01*
D02*
G37*
G36*
X80057D02*
X79500D01*
Y150243D01*
X79834Y150466D01*
X80057Y150800D01*
D02*
G37*
G36*
X199300Y151157D02*
X198966Y150934D01*
X198743Y150600D01*
X199300D01*
Y151157D01*
D02*
G37*
G36*
X224800Y149457D02*
Y148900D01*
X225357D01*
X225134Y149234D01*
X224800Y149457D01*
D02*
G37*
G36*
X6100Y149557D02*
X5766Y149334D01*
X5543Y149000D01*
X6100D01*
Y149557D01*
D02*
G37*
G36*
X8100D02*
Y149000D01*
X8657D01*
X8434Y149334D01*
X8100Y149557D01*
D02*
G37*
G36*
X344900Y154300D02*
X344343D01*
X344566Y153966D01*
X344900Y153743D01*
Y154300D01*
D02*
G37*
G36*
Y156857D02*
X344566Y156634D01*
X344343Y156300D01*
X344900D01*
Y156857D01*
D02*
G37*
G36*
X346900D02*
Y156300D01*
X347457D01*
X347234Y156634D01*
X346900Y156857D01*
D02*
G37*
G36*
X45000Y159700D02*
X42400D01*
Y156600D01*
X45000D01*
Y159700D01*
D02*
G37*
G36*
X322957Y155100D02*
X322400D01*
Y154543D01*
X322734Y154766D01*
X322957Y155100D01*
D02*
G37*
G36*
X301200Y155600D02*
X300643D01*
X300866Y155266D01*
X301200Y155043D01*
Y155600D01*
D02*
G37*
G36*
X303757D02*
X303200D01*
Y155043D01*
X303534Y155266D01*
X303757Y155600D01*
D02*
G37*
G36*
X140500Y157457D02*
Y156900D01*
X141057D01*
X140834Y157234D01*
X140500Y157457D01*
D02*
G37*
G36*
X189600D02*
X189266Y157234D01*
X189043Y156900D01*
X189600D01*
Y157457D01*
D02*
G37*
G36*
X191600D02*
Y156900D01*
X192157D01*
X191934Y157234D01*
X191600Y157457D01*
D02*
G37*
G36*
X333300Y157157D02*
X332966Y156934D01*
X332743Y156600D01*
X333300D01*
Y157157D01*
D02*
G37*
G36*
X335300D02*
Y156600D01*
X335857D01*
X335634Y156934D01*
X335300Y157157D01*
D02*
G37*
G36*
X138500Y157457D02*
X138166Y157234D01*
X137943Y156900D01*
X138500D01*
Y157457D01*
D02*
G37*
G36*
X333300Y154600D02*
X332743D01*
X332966Y154266D01*
X333300Y154043D01*
Y154600D01*
D02*
G37*
G36*
X335857D02*
X335300D01*
Y154043D01*
X335634Y154266D01*
X335857Y154600D01*
D02*
G37*
G36*
X189600Y154900D02*
X189043D01*
X189266Y154566D01*
X189600Y154343D01*
Y154900D01*
D02*
G37*
G36*
X347457Y154300D02*
X346900D01*
Y153743D01*
X347234Y153966D01*
X347457Y154300D01*
D02*
G37*
G36*
X262600Y154557D02*
X262266Y154334D01*
X262043Y154000D01*
X262600D01*
Y154557D01*
D02*
G37*
G36*
X264600D02*
Y154000D01*
X265157D01*
X264934Y154334D01*
X264600Y154557D01*
D02*
G37*
G36*
X248600Y155057D02*
X248266Y154834D01*
X248043Y154500D01*
X248600D01*
Y155057D01*
D02*
G37*
G36*
X250600D02*
Y154500D01*
X251157D01*
X250934Y154834D01*
X250600Y155057D01*
D02*
G37*
G36*
X320400Y155100D02*
X319843D01*
X320066Y154766D01*
X320400Y154543D01*
Y155100D01*
D02*
G37*
G36*
X192157Y154900D02*
X191600D01*
Y154343D01*
X191934Y154566D01*
X192157Y154900D01*
D02*
G37*
G36*
X138500D02*
X137943D01*
X138166Y154566D01*
X138500Y154343D01*
Y154900D01*
D02*
G37*
G36*
X141057D02*
X140500D01*
Y154343D01*
X140834Y154566D01*
X141057Y154900D01*
D02*
G37*
G36*
X37600Y147657D02*
X37266Y147434D01*
X37043Y147100D01*
X37600D01*
Y147657D01*
D02*
G37*
G36*
X271900Y139000D02*
X271343D01*
X271566Y138666D01*
X271900Y138443D01*
Y139000D01*
D02*
G37*
G36*
X274457D02*
X273900D01*
Y138443D01*
X274234Y138666D01*
X274457Y139000D01*
D02*
G37*
G36*
X312200Y139300D02*
X311643D01*
X311866Y138966D01*
X312200Y138743D01*
Y139300D01*
D02*
G37*
G36*
X347757Y138700D02*
X347200D01*
Y138143D01*
X347534Y138366D01*
X347757Y138700D01*
D02*
G37*
G36*
X133900Y138800D02*
X133343D01*
X133566Y138466D01*
X133900Y138243D01*
Y138800D01*
D02*
G37*
G36*
X136457D02*
X135900D01*
Y138243D01*
X136234Y138466D01*
X136457Y138800D01*
D02*
G37*
G36*
X68081Y144414D02*
X64519D01*
Y144088D01*
X56724D01*
X56488Y144041D01*
X53172D01*
Y140872D01*
X56488D01*
X56724Y140825D01*
X64519D01*
Y140261D01*
X68081D01*
Y144414D01*
D02*
G37*
G36*
X37700Y141057D02*
X37366Y140834D01*
X37143Y140500D01*
X37700D01*
Y141057D01*
D02*
G37*
G36*
X39700D02*
Y140500D01*
X40257D01*
X40034Y140834D01*
X39700Y141057D01*
D02*
G37*
G36*
X314757Y139300D02*
X314200D01*
Y138743D01*
X314534Y138966D01*
X314757Y139300D01*
D02*
G37*
G36*
X333300Y139800D02*
X332743D01*
X332966Y139466D01*
X333300Y139243D01*
Y139800D01*
D02*
G37*
G36*
X335857D02*
X335300D01*
Y139243D01*
X335634Y139466D01*
X335857Y139800D01*
D02*
G37*
G36*
X17000Y139000D02*
X13518D01*
X13855Y138184D01*
X14433Y137432D01*
X15184Y136855D01*
X16060Y136493D01*
X17000Y136369D01*
Y139000D01*
D02*
G37*
G36*
X22482D02*
X19000D01*
Y136369D01*
X19940Y136493D01*
X20816Y136855D01*
X21567Y137432D01*
X22145Y138184D01*
X22482Y139000D01*
D02*
G37*
G36*
X214600Y137957D02*
X214266Y137734D01*
X214043Y137400D01*
X214600D01*
Y137957D01*
D02*
G37*
G36*
X39800Y135757D02*
Y135200D01*
X40357D01*
X40134Y135534D01*
X39800Y135757D01*
D02*
G37*
G36*
X233300Y136157D02*
X232966Y135934D01*
X232743Y135600D01*
X233300D01*
Y136157D01*
D02*
G37*
G36*
X235300D02*
Y135600D01*
X235857D01*
X235634Y135934D01*
X235300Y136157D01*
D02*
G37*
G36*
X37700Y138500D02*
X37143D01*
X37366Y138166D01*
X37700Y137943D01*
Y138500D01*
D02*
G37*
G36*
X40257D02*
X39700D01*
Y137943D01*
X40034Y138166D01*
X40257Y138500D01*
D02*
G37*
G36*
X345200Y138700D02*
X344643D01*
X344866Y138366D01*
X345200Y138143D01*
Y138700D01*
D02*
G37*
G36*
X216600Y137957D02*
Y137400D01*
X217157D01*
X216934Y137734D01*
X216600Y137957D01*
D02*
G37*
G36*
X202200Y138157D02*
X201866Y137934D01*
X201643Y137600D01*
X202200D01*
Y138157D01*
D02*
G37*
G36*
X204200D02*
Y137600D01*
X204757D01*
X204534Y137934D01*
X204200Y138157D01*
D02*
G37*
G36*
X345200Y141257D02*
X344866Y141034D01*
X344643Y140700D01*
X345200D01*
Y141257D01*
D02*
G37*
G36*
X65300Y146062D02*
X64519D01*
Y144986D01*
X65300D01*
Y146062D01*
D02*
G37*
G36*
X68081D02*
X67300D01*
Y144986D01*
X68081D01*
Y146062D01*
D02*
G37*
G36*
X324400Y146357D02*
X324066Y146134D01*
X323843Y145800D01*
X324400D01*
Y146357D01*
D02*
G37*
G36*
X326957Y143800D02*
X326400D01*
Y143243D01*
X326734Y143466D01*
X326957Y143800D01*
D02*
G37*
G36*
X37600Y145100D02*
X37043D01*
X37266Y144766D01*
X37600Y144543D01*
Y145100D01*
D02*
G37*
G36*
X40157D02*
X39600D01*
Y144543D01*
X39934Y144766D01*
X40157Y145100D01*
D02*
G37*
G36*
X6100Y147000D02*
X5543D01*
X5766Y146666D01*
X6100Y146443D01*
Y147000D01*
D02*
G37*
G36*
X8657D02*
X8100D01*
Y146443D01*
X8434Y146666D01*
X8657Y147000D01*
D02*
G37*
G36*
X49600Y159700D02*
X47000D01*
Y156600D01*
X45840D01*
X46000Y156126D01*
X45646Y155854D01*
X45229Y155311D01*
X44967Y154679D01*
X44878Y154000D01*
Y151324D01*
X43723D01*
Y147762D01*
Y147000D01*
X50828D01*
Y147762D01*
Y151324D01*
X50122D01*
Y154000D01*
X50033Y154679D01*
X49771Y155311D01*
X49354Y155854D01*
X48811Y156271D01*
X48253Y156502D01*
Y156502D01*
X48253D01*
X48179Y156533D01*
Y156533D01*
X48183Y156600D01*
X49600D01*
Y159700D01*
D02*
G37*
G36*
X326400Y146357D02*
Y145800D01*
X326957D01*
X326734Y146134D01*
X326400Y146357D01*
D02*
G37*
G36*
X222800Y146900D02*
X222243D01*
X222466Y146566D01*
X222800Y146343D01*
Y146900D01*
D02*
G37*
G36*
X225357D02*
X224800D01*
Y146343D01*
X225134Y146566D01*
X225357Y146900D01*
D02*
G37*
G36*
X17000Y143631D02*
X16060Y143507D01*
X15184Y143145D01*
X14433Y142568D01*
X13855Y141815D01*
X13518Y141000D01*
X17000D01*
Y143631D01*
D02*
G37*
G36*
X19000D02*
Y141000D01*
X22482D01*
X22145Y141815D01*
X21567Y142568D01*
X20816Y143145D01*
X19940Y143507D01*
X19000Y143631D01*
D02*
G37*
G36*
X271900Y141557D02*
X271566Y141334D01*
X271343Y141000D01*
X271900D01*
Y141557D01*
D02*
G37*
G36*
X347200Y141257D02*
Y140700D01*
X347757D01*
X347534Y141034D01*
X347200Y141257D01*
D02*
G37*
G36*
X133900Y141357D02*
X133566Y141134D01*
X133343Y140800D01*
X133900D01*
Y141357D01*
D02*
G37*
G36*
X135900D02*
Y140800D01*
X136457D01*
X136234Y141134D01*
X135900Y141357D01*
D02*
G37*
G36*
X333300Y142357D02*
X332966Y142134D01*
X332743Y141800D01*
X333300D01*
Y142357D01*
D02*
G37*
G36*
X335300D02*
Y141800D01*
X335857D01*
X335634Y142134D01*
X335300Y142357D01*
D02*
G37*
G36*
X324400Y143800D02*
X323843D01*
X324066Y143466D01*
X324400Y143243D01*
Y143800D01*
D02*
G37*
G36*
X273900Y141557D02*
Y141000D01*
X274457D01*
X274234Y141334D01*
X273900Y141557D01*
D02*
G37*
G36*
X312200Y141857D02*
X311866Y141634D01*
X311643Y141300D01*
X312200D01*
Y141857D01*
D02*
G37*
G36*
X314200D02*
Y141300D01*
X314757D01*
X314534Y141634D01*
X314200Y141857D01*
D02*
G37*
G36*
X320400Y157657D02*
X320066Y157434D01*
X319843Y157100D01*
X320400D01*
Y157657D01*
D02*
G37*
G36*
X310300Y189283D02*
X309373Y189161D01*
X308508Y188803D01*
X307766Y188234D01*
X307197Y187492D01*
X306839Y186627D01*
X306717Y185700D01*
X306839Y184773D01*
X307197Y183908D01*
X307766Y183166D01*
X308508Y182597D01*
X309373Y182239D01*
X310300Y182117D01*
X311227Y182239D01*
X312092Y182597D01*
X312834Y183166D01*
X313403Y183908D01*
X313761Y184773D01*
X313883Y185700D01*
X313761Y186627D01*
X313403Y187492D01*
X312834Y188234D01*
X312092Y188803D01*
X311227Y189161D01*
X310300Y189283D01*
D02*
G37*
G36*
X320300D02*
X319373Y189161D01*
X318508Y188803D01*
X317766Y188234D01*
X317197Y187492D01*
X316839Y186627D01*
X316717Y185700D01*
X316839Y184773D01*
X317197Y183908D01*
X317766Y183166D01*
X318508Y182597D01*
X319373Y182239D01*
X320300Y182117D01*
X321227Y182239D01*
X322092Y182597D01*
X322834Y183166D01*
X323403Y183908D01*
X323761Y184773D01*
X323883Y185700D01*
X323761Y186627D01*
X323403Y187492D01*
X322834Y188234D01*
X322092Y188803D01*
X321227Y189161D01*
X320300Y189283D01*
D02*
G37*
G36*
X80300Y188600D02*
X79743D01*
X79966Y188266D01*
X80300Y188043D01*
Y188600D01*
D02*
G37*
G36*
X280300Y189283D02*
X279373Y189161D01*
X278508Y188803D01*
X277882Y188322D01*
X119500D01*
X118821Y188233D01*
X118189Y187971D01*
X117646Y187554D01*
X117646Y187554D01*
X93714Y163622D01*
X62200D01*
Y164800D01*
X55000D01*
Y160809D01*
X54870Y160679D01*
X54453Y160136D01*
X54191Y159503D01*
X54102Y158824D01*
X54102Y158824D01*
Y151128D01*
X53172D01*
Y147959D01*
X54663D01*
X54870Y147689D01*
X55413Y147272D01*
X56046Y147010D01*
X56724Y146921D01*
X57403Y147010D01*
X58036Y147272D01*
X58579Y147689D01*
X58786Y147959D01*
X60277D01*
Y151128D01*
X59347D01*
Y156600D01*
X62200D01*
Y158378D01*
X94800D01*
X94800Y158378D01*
X95479Y158467D01*
X96111Y158729D01*
X96654Y159146D01*
X120586Y183078D01*
X207378D01*
Y172992D01*
X207378Y172992D01*
X207467Y172313D01*
X207729Y171681D01*
X208146Y171138D01*
X208689Y170721D01*
X209321Y170459D01*
X210000Y170370D01*
X210679Y170459D01*
X211311Y170721D01*
X211854Y171138D01*
X212367Y171650D01*
X213608D01*
Y173829D01*
X213630Y174000D01*
X213608Y174170D01*
Y176350D01*
X212622D01*
Y183078D01*
X277882D01*
X278508Y182597D01*
X279373Y182239D01*
X280300Y182117D01*
X281227Y182239D01*
X282092Y182597D01*
X282834Y183166D01*
X283403Y183908D01*
X283761Y184773D01*
X283883Y185700D01*
X283761Y186627D01*
X283403Y187492D01*
X282834Y188234D01*
X282092Y188803D01*
X281227Y189161D01*
X280300Y189283D01*
D02*
G37*
G36*
X290300D02*
X289373Y189161D01*
X288508Y188803D01*
X287766Y188234D01*
X287197Y187492D01*
X286839Y186627D01*
X286717Y185700D01*
X286839Y184773D01*
X287116Y184102D01*
X284907Y181893D01*
X284664Y181529D01*
X284578Y181100D01*
X284578Y181100D01*
Y155365D01*
X278035Y148822D01*
X262800D01*
X262800Y148822D01*
X262371Y148736D01*
X262007Y148493D01*
X262007Y148493D01*
X252420Y138906D01*
X252177Y138542D01*
X252091Y138113D01*
X252091Y138113D01*
Y105496D01*
X251705Y105179D01*
X251244Y105271D01*
X250784Y105179D01*
X250397Y105496D01*
Y145724D01*
X250398Y145724D01*
X250312Y146153D01*
X250069Y146517D01*
X250069Y146517D01*
X239593Y156993D01*
X239229Y157236D01*
X238800Y157322D01*
X238800Y157322D01*
X210965D01*
X199393Y168893D01*
X199029Y169136D01*
X198600Y169222D01*
X198600Y169222D01*
X128200D01*
X128200Y169222D01*
X127771Y169136D01*
X127407Y168893D01*
X127407Y168893D01*
X101450Y142936D01*
X101200Y142986D01*
X100478Y142843D01*
X99866Y142434D01*
X99457Y141822D01*
X99314Y141100D01*
X99457Y140378D01*
X99866Y139766D01*
X100478Y139357D01*
X101200Y139214D01*
X101922Y139357D01*
X102534Y139766D01*
X102943Y140378D01*
X103086Y141100D01*
X103036Y141350D01*
X128665Y166978D01*
X131239D01*
X131430Y166516D01*
X105650Y140736D01*
X105400Y140786D01*
X104678Y140643D01*
X104066Y140234D01*
X103657Y139622D01*
X103514Y138900D01*
X103657Y138178D01*
X104066Y137566D01*
X104678Y137157D01*
X105400Y137014D01*
X106122Y137157D01*
X106734Y137566D01*
X107143Y138178D01*
X107286Y138900D01*
X107236Y139150D01*
X133065Y164978D01*
X197873D01*
X209044Y153807D01*
X209044Y153807D01*
X209408Y153564D01*
X209408Y153564D01*
X209408Y153564D01*
D01*
X209408Y153564D01*
X209408Y153564D01*
X209837Y153478D01*
X209837Y153478D01*
X236235D01*
X246186Y143528D01*
Y113554D01*
X246115Y113524D01*
X245674Y113760D01*
X245543Y114422D01*
X245134Y115034D01*
X244522Y115443D01*
X243800Y115586D01*
X243162Y115459D01*
X242081D01*
Y116414D01*
X238519D01*
Y112261D01*
X242081D01*
X242081Y112261D01*
Y112261D01*
X242460Y112376D01*
X242466Y112366D01*
X243078Y111957D01*
X243800Y111814D01*
X243831Y111820D01*
X244217Y111503D01*
Y106022D01*
X243756Y105831D01*
X236081Y113505D01*
Y116414D01*
X232519D01*
Y112261D01*
X234153D01*
X242190Y104224D01*
X242157Y104057D01*
Y99332D01*
X242206Y99089D01*
X241852Y98735D01*
X241668Y98772D01*
X239521D01*
Y97557D01*
X238522D01*
Y96803D01*
X236943D01*
X236478Y96711D01*
X236274Y96574D01*
X236085Y96700D01*
Y96448D01*
X235822Y96054D01*
X235729Y95590D01*
X235822Y95126D01*
X236085Y94732D01*
Y94479D01*
X235822Y94086D01*
X235729Y93621D01*
X235822Y93157D01*
X236085Y92763D01*
Y92511D01*
X235822Y92117D01*
X235729Y91653D01*
X235809Y91254D01*
X235368Y91018D01*
X220965Y105421D01*
Y115344D01*
X222806D01*
Y122056D01*
X216881D01*
Y115344D01*
X218722D01*
Y104957D01*
X218722Y104957D01*
X218807Y104527D01*
X219050Y104164D01*
X231477Y91737D01*
X231159Y91351D01*
X231022Y91443D01*
X230300Y91586D01*
X229578Y91443D01*
X228966Y91034D01*
X228557Y90422D01*
X228414Y89700D01*
X228557Y88978D01*
X228966Y88366D01*
X229578Y87957D01*
X230300Y87814D01*
X230550Y87863D01*
X231083Y87331D01*
X230892Y86869D01*
X229417D01*
X223493Y92793D01*
X223129Y93036D01*
X222700Y93122D01*
D01*
D01*
D01*
X222700Y93122D01*
D01*
X222439Y93383D01*
Y93781D01*
X218286D01*
Y90219D01*
X222439D01*
X222439Y90219D01*
Y90219D01*
X222761Y90353D01*
X227752Y85362D01*
X227560Y84900D01*
X227086D01*
X225193Y86793D01*
X224829Y87036D01*
X224400Y87122D01*
X224400Y87122D01*
X222439D01*
Y87781D01*
X218286D01*
Y84219D01*
X222439D01*
Y84878D01*
X223935D01*
X225420Y83394D01*
X225229Y82932D01*
X207910D01*
X207910Y82932D01*
X207481Y82846D01*
X207117Y82603D01*
X207117Y82603D01*
X206146Y81632D01*
X205896Y81682D01*
X205174Y81539D01*
X204562Y81130D01*
X204153Y80518D01*
X204010Y79796D01*
X204153Y79074D01*
X204562Y78462D01*
X205174Y78053D01*
X205896Y77910D01*
X206618Y78053D01*
X207230Y78462D01*
X207639Y79074D01*
X207782Y79796D01*
X207732Y80046D01*
X208375Y80689D01*
X235504D01*
X235821Y80302D01*
X235729Y79842D01*
X235822Y79377D01*
X236081Y78989D01*
X234914Y77822D01*
X226276D01*
X226134Y78034D01*
X225522Y78443D01*
X224800Y78586D01*
X224078Y78443D01*
X223466Y78034D01*
X223324Y77822D01*
X222739D01*
Y78481D01*
X218586D01*
Y74919D01*
X222739D01*
Y75578D01*
X223324D01*
X223466Y75366D01*
X224078Y74957D01*
X224800Y74814D01*
X225522Y74957D01*
X226134Y75366D01*
X226276Y75578D01*
X235379D01*
X235379Y75578D01*
X235808Y75664D01*
X236172Y75907D01*
X238893Y78628D01*
X241668D01*
X241852Y78665D01*
X242206Y78311D01*
X242157Y78068D01*
Y75293D01*
X241185Y74322D01*
X231300D01*
X231225Y74307D01*
X231022Y74443D01*
X230300Y74586D01*
X229578Y74443D01*
X228966Y74034D01*
X228557Y73422D01*
X228414Y72700D01*
X228557Y71978D01*
X228966Y71366D01*
X229578Y70957D01*
X230300Y70814D01*
X231022Y70957D01*
X231634Y71366D01*
X232043Y71978D01*
X232063Y72078D01*
X241650D01*
X241650Y72078D01*
X242079Y72164D01*
X242443Y72407D01*
X242518Y72481D01*
X242906Y72222D01*
X243371Y72129D01*
X243491Y72153D01*
X243726Y71712D01*
X242292Y70278D01*
X220018D01*
X219800Y70322D01*
X206276D01*
X206227Y70816D01*
X206227D01*
X206227Y70819D01*
X206200Y70814D01*
X206173Y70819D01*
X206154Y70629D01*
X205846Y70322D01*
X189776D01*
X189634Y70534D01*
X189022Y70943D01*
X188300Y71086D01*
X187578Y70943D01*
X186966Y70534D01*
X186557Y69922D01*
X186414Y69200D01*
X186557Y68478D01*
X186950Y67891D01*
X186943Y67879D01*
X186943D01*
D01*
D01*
X186943Y67879D01*
X186722Y67465D01*
X186722Y67465D01*
D01*
X186714Y67450D01*
X182759D01*
X178654Y71554D01*
X178111Y71971D01*
X177479Y72233D01*
X176800Y72322D01*
X176800Y72322D01*
X156596D01*
X155963Y72808D01*
X155209Y73120D01*
X154400Y73227D01*
X153591Y73120D01*
X152837Y72808D01*
X152189Y72311D01*
X151692Y71663D01*
X151380Y70909D01*
X151273Y70100D01*
X151380Y69291D01*
X151692Y68537D01*
X152189Y67889D01*
X152837Y67392D01*
X153591Y67080D01*
X154400Y66973D01*
X155192Y67078D01*
X175714D01*
X177850Y64941D01*
Y60750D01*
X186750D01*
Y61578D01*
X193800D01*
X194479Y61667D01*
X195111Y61929D01*
X195654Y62346D01*
X196071Y62889D01*
X196333Y63521D01*
X196422Y64200D01*
X196333Y64879D01*
X196071Y65511D01*
X195654Y66054D01*
X195111Y66471D01*
X194479Y66733D01*
X193800Y66822D01*
X188592D01*
X188355Y67084D01*
X188344Y67193D01*
Y67193D01*
X188331Y67320D01*
X188331Y67320D01*
X188550Y67364D01*
X188550D01*
X189022Y67457D01*
X189634Y67866D01*
X189776Y68078D01*
X203569D01*
X203714Y67600D01*
X203778Y67643D01*
X204500Y67787D01*
X205222Y67643D01*
X205286Y67600D01*
X205431Y68078D01*
X208670D01*
X208815Y67600D01*
X208566Y67434D01*
X208343Y67100D01*
X211457D01*
X211234Y67434D01*
X210985Y67600D01*
X211130Y68078D01*
X218722D01*
Y64056D01*
X216881D01*
Y57344D01*
X222806D01*
Y64056D01*
X220965D01*
Y68035D01*
X242757D01*
X242757Y68035D01*
X243186Y68120D01*
X243550Y68364D01*
X246132Y70946D01*
X246132Y70946D01*
X246375Y71310D01*
X246375Y71310D01*
X246375Y71310D01*
X246461Y71739D01*
X246461Y71739D01*
Y71904D01*
X246847Y72221D01*
X247307Y72129D01*
X247768Y72221D01*
X248154Y71904D01*
Y71140D01*
X243507Y66493D01*
X243264Y66129D01*
X243178Y65700D01*
X243179Y65700D01*
Y51665D01*
X233607Y42093D01*
X233364Y41729D01*
X233278Y41300D01*
X233278Y41300D01*
Y37749D01*
X232892Y37431D01*
X232647Y37480D01*
X232218Y37395D01*
X231854Y37152D01*
X231843Y37135D01*
X231364Y37280D01*
Y43276D01*
X229922D01*
Y51224D01*
X230134Y51366D01*
X230543Y51978D01*
X230686Y52700D01*
X230543Y53422D01*
X230134Y54034D01*
X229522Y54443D01*
X228800Y54586D01*
X228078Y54443D01*
X227466Y54034D01*
X227057Y53422D01*
X226914Y52700D01*
X227057Y51978D01*
X227466Y51366D01*
X227678Y51224D01*
Y39861D01*
X225443D01*
X225022Y40143D01*
X224300Y40286D01*
X223578Y40143D01*
X222966Y39734D01*
X222557Y39122D01*
X222414Y38400D01*
X222557Y37678D01*
X222966Y37066D01*
X223578Y36657D01*
X224300Y36514D01*
X225022Y36657D01*
X225634Y37066D01*
X226002Y37618D01*
X227802D01*
Y34202D01*
X228462D01*
Y23198D01*
X227802D01*
Y14124D01*
X231364D01*
Y23198D01*
X230705D01*
Y34202D01*
X231364D01*
Y35437D01*
X231843Y35582D01*
X231854Y35566D01*
X231907Y35513D01*
X232271Y35270D01*
X232700Y35184D01*
X232892Y35222D01*
X233278Y34905D01*
Y12565D01*
X229235Y8522D01*
X79065D01*
X56522Y31065D01*
Y70143D01*
X56522Y70143D01*
X56436Y70573D01*
X56193Y70936D01*
X56193Y70936D01*
X50506Y76624D01*
Y81356D01*
X44581D01*
Y74644D01*
X49313D01*
X54278Y69679D01*
Y30600D01*
X54278Y30600D01*
X54364Y30171D01*
X54607Y29807D01*
X77807Y6607D01*
X77807Y6607D01*
X78171Y6364D01*
X78171Y6364D01*
X78171Y6364D01*
D01*
X78171Y6364D01*
X78171Y6364D01*
X78600Y6278D01*
X136924D01*
X136973Y5781D01*
X137000Y5786D01*
X137027Y5781D01*
X137064Y6153D01*
X137076Y6278D01*
X172069D01*
X172214Y5800D01*
X172278Y5843D01*
X173000Y5986D01*
X173722Y5843D01*
X173786Y5800D01*
X173931Y6278D01*
X229700D01*
X229700Y6278D01*
X230129Y6364D01*
X230493Y6607D01*
X235193Y11307D01*
X235193Y11307D01*
X235436Y11671D01*
X235522Y12100D01*
Y40835D01*
X238017Y43330D01*
X238478Y43139D01*
Y15276D01*
X238266Y15134D01*
X237857Y14522D01*
X237714Y13800D01*
X237857Y13078D01*
X238266Y12466D01*
X238878Y12057D01*
X239600Y11914D01*
X240322Y12057D01*
X240934Y12466D01*
X241343Y13078D01*
X241486Y13800D01*
X241343Y14522D01*
X240934Y15134D01*
X240722Y15276D01*
Y43335D01*
X246693Y49307D01*
X246693Y49307D01*
X246936Y49671D01*
X247022Y50100D01*
X247022Y50100D01*
Y50639D01*
X247483Y50830D01*
X254878Y43435D01*
Y41381D01*
X254208Y41103D01*
X253466Y40534D01*
X252897Y39792D01*
X252539Y38927D01*
X252417Y38000D01*
X252539Y37073D01*
X252897Y36208D01*
X253466Y35466D01*
X254208Y34897D01*
X255073Y34539D01*
X256000Y34417D01*
X256927Y34539D01*
X257792Y34897D01*
X258534Y35466D01*
X259103Y36208D01*
X259461Y37073D01*
X259583Y38000D01*
X259461Y38927D01*
X259103Y39792D01*
X258534Y40534D01*
X257792Y41103D01*
X257121Y41381D01*
Y43239D01*
X257508Y43556D01*
X257900Y43478D01*
X257900Y43478D01*
X262835D01*
X264299Y42015D01*
X264108Y41553D01*
X262447D01*
Y34447D01*
X269553D01*
Y41553D01*
X268858D01*
X267122Y41900D01*
X267036Y42329D01*
X266793Y42693D01*
X266793Y42693D01*
X264870Y44616D01*
X265061Y45078D01*
X270135D01*
X276578Y38635D01*
Y28465D01*
X269935Y21822D01*
X258900D01*
Y25300D01*
X251700D01*
Y16100D01*
X258900D01*
Y19579D01*
X270400D01*
X270400Y19578D01*
X270829Y19664D01*
X271193Y19907D01*
X278493Y27207D01*
X278493Y27207D01*
X278736Y27571D01*
X278736Y27571D01*
X278736Y27571D01*
X278822Y28000D01*
X278821Y28000D01*
Y38039D01*
X279283Y38230D01*
X288178Y29335D01*
Y25300D01*
X285700D01*
Y16100D01*
X292900D01*
Y25300D01*
X290422D01*
Y29800D01*
X290336Y30229D01*
X290093Y30593D01*
X290093Y30593D01*
X285530Y35156D01*
X285721Y35618D01*
X305236D01*
Y32202D01*
X305895D01*
Y21198D01*
X305236D01*
Y12124D01*
X308798D01*
Y21198D01*
X308138D01*
Y32202D01*
X308798D01*
Y34749D01*
X309239Y34984D01*
X309578Y34757D01*
X310300Y34614D01*
X311022Y34757D01*
X311634Y35166D01*
X312043Y35778D01*
X312186Y36500D01*
X312043Y37222D01*
X311634Y37834D01*
X311022Y38243D01*
X310300Y38386D01*
X309578Y38243D01*
X309239Y38016D01*
X308798Y38252D01*
Y41276D01*
X305236D01*
Y37861D01*
X285088D01*
X267921Y55027D01*
Y61200D01*
X267922Y61200D01*
X267836Y61629D01*
X267593Y61993D01*
X267593Y61993D01*
X262209Y67378D01*
Y72881D01*
X262300Y73343D01*
Y78068D01*
X262246Y78341D01*
X262600Y78694D01*
X262932Y78628D01*
X265707D01*
X266679Y77657D01*
Y75676D01*
X266466Y75534D01*
X266057Y74922D01*
X265914Y74200D01*
X266057Y73478D01*
X266466Y72866D01*
X267078Y72457D01*
X267800Y72314D01*
X268522Y72457D01*
X269134Y72866D01*
X269543Y73478D01*
X269686Y74200D01*
X269543Y74922D01*
X269134Y75534D01*
X268921Y75676D01*
Y78121D01*
X268836Y78550D01*
X268593Y78914D01*
X268593Y78914D01*
X268519Y78989D01*
X268778Y79377D01*
X268871Y79842D01*
X268864Y79873D01*
X269305Y80108D01*
X270678Y78735D01*
Y54300D01*
X270678Y54300D01*
X270764Y53871D01*
X271007Y53507D01*
X272969Y51545D01*
X273333Y51302D01*
X273762Y51216D01*
X273762Y51216D01*
X274519D01*
Y50261D01*
X278081D01*
Y51216D01*
X280023D01*
Y48391D01*
X287128D01*
Y54316D01*
X280023D01*
Y53459D01*
X278081D01*
Y54414D01*
X274519D01*
Y53821D01*
X274057Y53629D01*
X272921Y54765D01*
Y72639D01*
X273383Y72830D01*
X276074Y70140D01*
X275838Y69699D01*
X276122Y69643D01*
X276400Y69457D01*
Y68900D01*
X276957D01*
X277143Y68622D01*
X277199Y68338D01*
X277640Y68574D01*
X283607Y62607D01*
X283607Y62607D01*
X283971Y62364D01*
X283971Y62364D01*
X283971Y62364D01*
D01*
X283971Y62364D01*
X283971Y62364D01*
X284400Y62278D01*
X284400Y62278D01*
X287206D01*
X289472Y60013D01*
Y55084D01*
X296577D01*
Y55941D01*
X298519D01*
Y54986D01*
X302081D01*
Y59139D01*
X298519D01*
Y58184D01*
X296577D01*
Y61009D01*
X291648D01*
X288464Y64193D01*
X288100Y64436D01*
X287671Y64522D01*
X287671Y64522D01*
X284865D01*
X281561Y67825D01*
Y68219D01*
D01*
X281637D01*
X281915Y68219D01*
D01*
X285714D01*
Y71781D01*
X284759D01*
Y74219D01*
X285714D01*
Y77781D01*
X282346D01*
X282263Y77904D01*
X281651Y78313D01*
X280929Y78457D01*
X280679Y78407D01*
X272546Y86540D01*
X272618Y86778D01*
X278135D01*
X280100Y84814D01*
Y82500D01*
X283000D01*
Y85099D01*
Y87700D01*
X280386D01*
X279393Y88693D01*
Y88707D01*
X279393D01*
X280386Y89700D01*
X283000D01*
Y92299D01*
Y94900D01*
X280100D01*
Y92586D01*
X278135Y90622D01*
X270177D01*
X270029Y90720D01*
X269600Y90806D01*
X269600Y90806D01*
X269096D01*
X268779Y91192D01*
X268871Y91653D01*
X268778Y92117D01*
X268515Y92511D01*
Y92763D01*
X268778Y93157D01*
X268871Y93621D01*
X268778Y94086D01*
X268983Y94468D01*
X270890D01*
X270890Y94468D01*
X271319Y94554D01*
X271683Y94797D01*
X277765Y100878D01*
X279624D01*
X279766Y100666D01*
X280378Y100257D01*
X281100Y100114D01*
X281629Y100219D01*
X285714D01*
Y103781D01*
X281629D01*
X281100Y103886D01*
X280378Y103743D01*
X279766Y103334D01*
X279624Y103122D01*
X277300D01*
X276871Y103036D01*
X276507Y102793D01*
X276507Y102793D01*
X270425Y96711D01*
X269096D01*
X268779Y97098D01*
X268871Y97558D01*
X268778Y98023D01*
X268519Y98411D01*
X276986Y106878D01*
X281561D01*
Y106219D01*
X285714D01*
Y109781D01*
X281561D01*
Y109122D01*
X276521D01*
X276092Y109036D01*
X275728Y108793D01*
X275728Y108793D01*
X265707Y98772D01*
X262932D01*
X262600Y98706D01*
X262246Y99059D01*
X262300Y99332D01*
Y102107D01*
X266058Y105865D01*
X266499Y105629D01*
X266557Y105922D01*
X266743Y106200D01*
X267300D01*
Y106757D01*
X267578Y106943D01*
X267871Y107001D01*
X267635Y107442D01*
X269883Y109689D01*
X270324Y109454D01*
X270357Y109622D01*
X270543Y109900D01*
X271100D01*
Y110457D01*
X271378Y110643D01*
X271546Y110676D01*
X271311Y111117D01*
X272455Y112261D01*
X274081D01*
Y112578D01*
X279324D01*
X279466Y112366D01*
X280078Y111957D01*
X280800Y111814D01*
X281522Y111957D01*
X281688Y112069D01*
X292074D01*
X292246Y111846D01*
X298308Y105783D01*
X298308Y105783D01*
X298851Y105367D01*
X299113Y105258D01*
X299483Y105105D01*
X300162Y105015D01*
X300162Y105015D01*
X307776D01*
Y100600D01*
X307870Y100132D01*
X307900Y100086D01*
Y99000D01*
X307400D01*
Y98900D01*
X307900D01*
Y98700D01*
X308300D01*
Y98700D01*
X310100D01*
Y100086D01*
X310131Y100132D01*
X310224Y100600D01*
Y100601D01*
X311776D01*
Y100600D01*
X311869Y100132D01*
X311900Y100086D01*
Y98700D01*
X315700D01*
Y98700D01*
X316100D01*
Y99000D01*
X316600D01*
Y99100D01*
X316100D01*
Y102500D01*
X314224D01*
Y105045D01*
X314679Y105105D01*
X315311Y105367D01*
X315565Y105561D01*
X315781D01*
Y105727D01*
X315854Y105783D01*
X316271Y106327D01*
X316533Y106959D01*
X316622Y107638D01*
X316533Y108317D01*
X316271Y108949D01*
X315854Y109492D01*
X315781Y109548D01*
Y109714D01*
X315565D01*
X315311Y109909D01*
X314679Y110171D01*
X314054Y110253D01*
Y110253D01*
X314054Y110253D01*
X314000Y110260D01*
X314025Y110286D01*
X313000D01*
Y111362D01*
X312219D01*
Y110614D01*
X312219Y110614D01*
X312219D01*
X312219Y110286D01*
X312193Y110260D01*
X309781D01*
Y110260D01*
Y110286D01*
X309781Y110614D01*
X309781Y110614D01*
X309781D01*
Y111362D01*
X306219D01*
Y110614D01*
X306219Y110614D01*
X306219D01*
X306219Y110286D01*
X306193Y110260D01*
X301249D01*
X296722Y114786D01*
Y147000D01*
X296633Y147679D01*
X296371Y148311D01*
X295954Y148854D01*
X295411Y149271D01*
X294779Y149533D01*
X294100Y149622D01*
X293421Y149533D01*
X292789Y149271D01*
X292246Y148854D01*
X291829Y148311D01*
X291567Y147679D01*
X291478Y147000D01*
Y115331D01*
X281688D01*
X281522Y115443D01*
X280800Y115586D01*
X280078Y115443D01*
X279466Y115034D01*
X279324Y114822D01*
X274081D01*
Y116414D01*
X270519D01*
Y113497D01*
X261940Y104919D01*
X261551Y105178D01*
X261087Y105271D01*
X260627Y105179D01*
X260240Y105496D01*
Y112133D01*
X265680Y117572D01*
X266120Y117336D01*
X266157Y117522D01*
X266343Y117800D01*
X266900D01*
Y118357D01*
X267178Y118543D01*
X267364Y118580D01*
X267128Y119020D01*
X274664Y126557D01*
X279790D01*
Y127216D01*
X282519D01*
Y126261D01*
X286081D01*
Y130414D01*
X282519D01*
Y129459D01*
X280048D01*
X279790Y129718D01*
Y134843D01*
X274653D01*
Y129718D01*
X258734Y113798D01*
X258272Y113990D01*
Y116585D01*
X268172Y126486D01*
X268172Y126486D01*
X268219Y126557D01*
X269947D01*
Y134843D01*
X264810D01*
Y129718D01*
X264552Y129459D01*
X262081D01*
Y130414D01*
X258519D01*
Y126261D01*
X262081D01*
Y127216D01*
X264810D01*
Y126557D01*
X264810Y126557D01*
X264810D01*
X264886Y126373D01*
X256765Y118251D01*
X256303Y118442D01*
Y137017D01*
X264165Y144878D01*
X279400D01*
X279400Y144878D01*
X279829Y144964D01*
X280193Y145207D01*
X291093Y156107D01*
X291093Y156107D01*
X291336Y156471D01*
X291336Y156471D01*
X291336Y156471D01*
X291422Y156900D01*
X291422Y156900D01*
Y172319D01*
X292092Y172597D01*
X292834Y173166D01*
X293403Y173908D01*
X293761Y174773D01*
X293883Y175700D01*
X293761Y176627D01*
X293403Y177492D01*
X292834Y178234D01*
X292092Y178803D01*
X291227Y179161D01*
X290300Y179283D01*
X289373Y179161D01*
X288508Y178803D01*
X287766Y178234D01*
X287295Y177620D01*
X286822Y177781D01*
Y180635D01*
X288702Y182516D01*
X289373Y182239D01*
X290300Y182117D01*
X291227Y182239D01*
X292092Y182597D01*
X292834Y183166D01*
X293403Y183908D01*
X293761Y184773D01*
X293883Y185700D01*
X293761Y186627D01*
X293403Y187492D01*
X292834Y188234D01*
X292092Y188803D01*
X291227Y189161D01*
X290300Y189283D01*
D02*
G37*
G36*
X300300D02*
X299373Y189161D01*
X298508Y188803D01*
X297766Y188234D01*
X297197Y187492D01*
X296839Y186627D01*
X296717Y185700D01*
X296839Y184773D01*
X297197Y183908D01*
X297766Y183166D01*
X298508Y182597D01*
X299373Y182239D01*
X300300Y182117D01*
X301227Y182239D01*
X302092Y182597D01*
X302834Y183166D01*
X303403Y183908D01*
X303761Y184773D01*
X303883Y185700D01*
X303761Y186627D01*
X303403Y187492D01*
X302834Y188234D01*
X302092Y188803D01*
X301227Y189161D01*
X300300Y189283D01*
D02*
G37*
G36*
X142500Y189800D02*
X141943D01*
X142166Y189466D01*
X142500Y189243D01*
Y189800D01*
D02*
G37*
G36*
X145057D02*
X144500D01*
Y189243D01*
X144834Y189466D01*
X145057Y189800D01*
D02*
G37*
G36*
X120700Y190000D02*
X120143D01*
X120366Y189666D01*
X120700Y189443D01*
Y190000D01*
D02*
G37*
G36*
X82857Y188600D02*
X82300D01*
Y188043D01*
X82634Y188266D01*
X82857Y188600D01*
D02*
G37*
G36*
X55400Y189100D02*
X54843D01*
X55066Y188766D01*
X55400Y188543D01*
Y189100D01*
D02*
G37*
G36*
X57957D02*
X57400D01*
Y188543D01*
X57734Y188766D01*
X57957Y189100D01*
D02*
G37*
G36*
X143900Y175557D02*
Y175000D01*
X144457D01*
X144234Y175334D01*
X143900Y175557D01*
D02*
G37*
G36*
X253362Y175781D02*
X252286D01*
Y175000D01*
X253362D01*
Y175781D01*
D02*
G37*
G36*
X256439D02*
X255362D01*
Y175000D01*
X256439D01*
Y175781D01*
D02*
G37*
G36*
X118900Y174157D02*
X118566Y173934D01*
X118343Y173600D01*
X118900D01*
Y174157D01*
D02*
G37*
G36*
X120900D02*
Y173600D01*
X121457D01*
X121234Y173934D01*
X120900Y174157D01*
D02*
G37*
G36*
X141900Y175557D02*
X141566Y175334D01*
X141343Y175000D01*
X141900D01*
Y175557D01*
D02*
G37*
G36*
X198200Y176157D02*
Y175600D01*
X198757D01*
X198534Y175934D01*
X198200Y176157D01*
D02*
G37*
G36*
X279300Y179253D02*
X276747D01*
Y176700D01*
X279300D01*
Y179253D01*
D02*
G37*
G36*
X283853D02*
X281300D01*
Y176700D01*
X283853D01*
Y179253D01*
D02*
G37*
G36*
X172400Y176157D02*
X172066Y175934D01*
X171843Y175600D01*
X172400D01*
Y176157D01*
D02*
G37*
G36*
X174400D02*
Y175600D01*
X174957D01*
X174734Y175934D01*
X174400Y176157D01*
D02*
G37*
G36*
X196200D02*
X195866Y175934D01*
X195643Y175600D01*
X196200D01*
Y176157D01*
D02*
G37*
G36*
X123257Y190000D02*
X122700D01*
Y189443D01*
X123034Y189666D01*
X123257Y190000D01*
D02*
G37*
G36*
X122700Y192557D02*
Y192000D01*
X123257D01*
X123034Y192334D01*
X122700Y192557D01*
D02*
G37*
G36*
X173600Y193357D02*
X173266Y193134D01*
X173043Y192800D01*
X173600D01*
Y193357D01*
D02*
G37*
G36*
X175600D02*
Y192800D01*
X176157D01*
X175934Y193134D01*
X175600Y193357D01*
D02*
G37*
G36*
X142500Y192357D02*
X142166Y192134D01*
X141943Y191800D01*
X142500D01*
Y192357D01*
D02*
G37*
G36*
X144500D02*
Y191800D01*
X145057D01*
X144834Y192134D01*
X144500Y192357D01*
D02*
G37*
G36*
X120700Y192557D02*
X120366Y192334D01*
X120143Y192000D01*
X120700D01*
Y192557D01*
D02*
G37*
G36*
X245400Y193657D02*
Y193100D01*
X245957D01*
X245734Y193434D01*
X245400Y193657D01*
D02*
G37*
G36*
X266900Y193757D02*
X266566Y193534D01*
X266343Y193200D01*
X266900D01*
Y193757D01*
D02*
G37*
G36*
X268900D02*
Y193200D01*
X269457D01*
X269234Y193534D01*
X268900Y193757D01*
D02*
G37*
G36*
X217500Y193557D02*
X217166Y193334D01*
X216943Y193000D01*
X217500D01*
Y193557D01*
D02*
G37*
G36*
X219500D02*
Y193000D01*
X220057D01*
X219834Y193334D01*
X219500Y193557D01*
D02*
G37*
G36*
X243400Y193657D02*
X243066Y193434D01*
X242843Y193100D01*
X243400D01*
Y193657D01*
D02*
G37*
G36*
X220057Y191000D02*
X219500D01*
Y190443D01*
X219834Y190666D01*
X220057Y191000D01*
D02*
G37*
G36*
X243400Y191100D02*
X242843D01*
X243066Y190766D01*
X243400Y190543D01*
Y191100D01*
D02*
G37*
G36*
X245957D02*
X245400D01*
Y190543D01*
X245734Y190766D01*
X245957Y191100D01*
D02*
G37*
G36*
X173600Y190800D02*
X173043D01*
X173266Y190466D01*
X173600Y190243D01*
Y190800D01*
D02*
G37*
G36*
X176157D02*
X175600D01*
Y190243D01*
X175934Y190466D01*
X176157Y190800D01*
D02*
G37*
G36*
X217500Y191000D02*
X216943D01*
X217166Y190666D01*
X217500Y190443D01*
Y191000D01*
D02*
G37*
G36*
X269457Y191200D02*
X268900D01*
Y190643D01*
X269234Y190866D01*
X269457Y191200D01*
D02*
G37*
G36*
X55400Y191657D02*
X55066Y191434D01*
X54843Y191100D01*
X55400D01*
Y191657D01*
D02*
G37*
G36*
X57400D02*
Y191100D01*
X57957D01*
X57734Y191434D01*
X57400Y191657D01*
D02*
G37*
G36*
X80300Y191157D02*
X79966Y190934D01*
X79743Y190600D01*
X80300D01*
Y191157D01*
D02*
G37*
G36*
X82300D02*
Y190600D01*
X82857D01*
X82634Y190934D01*
X82300Y191157D01*
D02*
G37*
G36*
X266900Y191200D02*
X266343D01*
X266566Y190866D01*
X266900Y190643D01*
Y191200D01*
D02*
G37*
G36*
X198757Y173600D02*
X198200D01*
Y173043D01*
X198534Y173266D01*
X198757Y173600D01*
D02*
G37*
G36*
X182000Y164057D02*
X181666Y163834D01*
X181443Y163500D01*
X182000D01*
Y164057D01*
D02*
G37*
G36*
X184000D02*
Y163500D01*
X184557D01*
X184334Y163834D01*
X184000Y164057D01*
D02*
G37*
G36*
X247900Y164157D02*
X247566Y163934D01*
X247343Y163600D01*
X247900D01*
Y164157D01*
D02*
G37*
G36*
X232557Y162600D02*
X232000D01*
Y162043D01*
X232334Y162266D01*
X232557Y162600D01*
D02*
G37*
G36*
X11400D02*
X10843D01*
X11066Y162266D01*
X11400Y162043D01*
Y162600D01*
D02*
G37*
G36*
X13957D02*
X13400D01*
Y162043D01*
X13734Y162266D01*
X13957Y162600D01*
D02*
G37*
G36*
X262400Y164857D02*
X262066Y164634D01*
X261843Y164300D01*
X262400D01*
Y164857D01*
D02*
G37*
G36*
X264400D02*
Y164300D01*
X264957D01*
X264734Y164634D01*
X264400Y164857D01*
D02*
G37*
G36*
X11400Y165157D02*
X11066Y164934D01*
X10843Y164600D01*
X11400D01*
Y165157D01*
D02*
G37*
G36*
X249900Y164157D02*
Y163600D01*
X250457D01*
X250234Y163934D01*
X249900Y164157D01*
D02*
G37*
G36*
X210638Y165000D02*
X209561D01*
Y164219D01*
X210638D01*
Y165000D01*
D02*
G37*
G36*
X213714D02*
X212638D01*
Y164219D01*
X213714D01*
Y165000D01*
D02*
G37*
G36*
X182000Y161500D02*
X181443D01*
X181666Y161166D01*
X182000Y160943D01*
Y161500D01*
D02*
G37*
G36*
X184557D02*
X184000D01*
Y160943D01*
X184334Y161166D01*
X184557Y161500D01*
D02*
G37*
G36*
X247900Y161600D02*
X247343D01*
X247566Y161266D01*
X247900Y161043D01*
Y161600D01*
D02*
G37*
G36*
X322400Y157657D02*
Y157100D01*
X322957D01*
X322734Y157434D01*
X322400Y157657D01*
D02*
G37*
G36*
X301200Y158157D02*
X300866Y157934D01*
X300643Y157600D01*
X301200D01*
Y158157D01*
D02*
G37*
G36*
X303200D02*
Y157600D01*
X303757D01*
X303534Y157934D01*
X303200Y158157D01*
D02*
G37*
G36*
X262400Y162300D02*
X261843D01*
X262066Y161966D01*
X262400Y161743D01*
Y162300D01*
D02*
G37*
G36*
X264957D02*
X264400D01*
Y161743D01*
X264734Y161966D01*
X264957Y162300D01*
D02*
G37*
G36*
X230000Y162600D02*
X229443D01*
X229666Y162266D01*
X230000Y162043D01*
Y162600D01*
D02*
G37*
G36*
X250457Y161600D02*
X249900D01*
Y161043D01*
X250234Y161266D01*
X250457Y161600D01*
D02*
G37*
G36*
X45000Y164800D02*
X42400D01*
Y161700D01*
X45000D01*
Y164800D01*
D02*
G37*
G36*
X49600D02*
X47000D01*
Y161700D01*
X49600D01*
Y164800D01*
D02*
G37*
G36*
X13400Y165157D02*
Y164600D01*
X13957D01*
X13734Y164934D01*
X13400Y165157D01*
D02*
G37*
G36*
X283853Y174700D02*
X281300D01*
Y172147D01*
X283853D01*
Y174700D01*
D02*
G37*
G36*
X243592Y176350D02*
X238392D01*
Y171650D01*
X243592D01*
Y172878D01*
X247561D01*
Y172219D01*
X251714D01*
Y175781D01*
X247561D01*
Y175122D01*
X243592D01*
Y176350D01*
D02*
G37*
G36*
X253362Y173000D02*
X252286D01*
Y172219D01*
X253362D01*
Y173000D01*
D02*
G37*
G36*
X310300Y179283D02*
X309373Y179161D01*
X308508Y178803D01*
X307766Y178234D01*
X307197Y177492D01*
X306839Y176627D01*
X306717Y175700D01*
X306839Y174773D01*
X307197Y173908D01*
X307766Y173166D01*
X308508Y172597D01*
X309373Y172239D01*
X310300Y172117D01*
X311227Y172239D01*
X312092Y172597D01*
X312834Y173166D01*
X313403Y173908D01*
X313761Y174773D01*
X313883Y175700D01*
X313761Y176627D01*
X313403Y177492D01*
X312834Y178234D01*
X312092Y178803D01*
X311227Y179161D01*
X310300Y179283D01*
D02*
G37*
G36*
X320300D02*
X319373Y179161D01*
X318508Y178803D01*
X317766Y178234D01*
X317197Y177492D01*
X316839Y176627D01*
X316717Y175700D01*
X316839Y174773D01*
X317197Y173908D01*
X317766Y173166D01*
X318508Y172597D01*
X319373Y172239D01*
X320300Y172117D01*
X321227Y172239D01*
X322092Y172597D01*
X322834Y173166D01*
X323403Y173908D01*
X323761Y174773D01*
X323883Y175700D01*
X323761Y176627D01*
X323403Y177492D01*
X322834Y178234D01*
X322092Y178803D01*
X321227Y179161D01*
X320300Y179283D01*
D02*
G37*
G36*
X279300Y174700D02*
X276747D01*
Y172147D01*
X279300D01*
Y174700D01*
D02*
G37*
G36*
X172400Y173600D02*
X171843D01*
X172066Y173266D01*
X172400Y173043D01*
Y173600D01*
D02*
G37*
G36*
X174957D02*
X174400D01*
Y173043D01*
X174734Y173266D01*
X174957Y173600D01*
D02*
G37*
G36*
X196200D02*
X195643D01*
X195866Y173266D01*
X196200Y173043D01*
Y173600D01*
D02*
G37*
G36*
X256439Y173000D02*
X255362D01*
Y172219D01*
X256439D01*
Y173000D01*
D02*
G37*
G36*
X141900D02*
X141343D01*
X141566Y172666D01*
X141900Y172443D01*
Y173000D01*
D02*
G37*
G36*
X144457D02*
X143900D01*
Y172443D01*
X144234Y172666D01*
X144457Y173000D01*
D02*
G37*
G36*
X340300Y187333D02*
X338637Y187202D01*
X337014Y186812D01*
X335473Y186174D01*
X334050Y185302D01*
X332782Y184219D01*
X331698Y182950D01*
X330826Y181527D01*
X330188Y179986D01*
X329798Y178363D01*
X329667Y176700D01*
X329798Y175037D01*
X330188Y173414D01*
X330826Y171873D01*
X331698Y170450D01*
X332782Y169182D01*
X334050Y168098D01*
X335473Y167226D01*
X337014Y166588D01*
X338637Y166198D01*
X340300Y166067D01*
X341963Y166198D01*
X343586Y166588D01*
X345127Y167226D01*
X346550Y168098D01*
X347818Y169182D01*
X348902Y170450D01*
X349774Y171873D01*
X350412Y173414D01*
X350802Y175037D01*
X350933Y176700D01*
X350802Y178363D01*
X350412Y179986D01*
X349774Y181527D01*
X348902Y182950D01*
X347818Y184219D01*
X346550Y185302D01*
X345127Y186174D01*
X343586Y186812D01*
X341963Y187202D01*
X340300Y187333D01*
D02*
G37*
G36*
X210638Y167781D02*
X209561D01*
Y167000D01*
X210638D01*
Y167781D01*
D02*
G37*
G36*
X213714D02*
X212638D01*
Y167000D01*
X213714D01*
Y167781D01*
D02*
G37*
G36*
X230000Y165157D02*
X229666Y164934D01*
X229443Y164600D01*
X230000D01*
Y165157D01*
D02*
G37*
G36*
X232000D02*
Y164600D01*
X232557D01*
X232334Y164934D01*
X232000Y165157D01*
D02*
G37*
G36*
X19100Y187333D02*
X17437Y187202D01*
X15814Y186812D01*
X14273Y186174D01*
X12850Y185302D01*
X11581Y184219D01*
X10498Y182950D01*
X9626Y181527D01*
X8988Y179986D01*
X8598Y178363D01*
X8467Y176700D01*
X8598Y175037D01*
X8988Y173414D01*
X9626Y171873D01*
X10498Y170450D01*
X11581Y169182D01*
X12850Y168098D01*
X14273Y167226D01*
X15814Y166588D01*
X17437Y166198D01*
X19100Y166067D01*
X20763Y166198D01*
X22386Y166588D01*
X23927Y167226D01*
X25350Y168098D01*
X26618Y169182D01*
X27702Y170450D01*
X28574Y171873D01*
X29212Y173414D01*
X29602Y175037D01*
X29733Y176700D01*
X29602Y178363D01*
X29212Y179986D01*
X28574Y181527D01*
X27702Y182950D01*
X26618Y184219D01*
X25350Y185302D01*
X23927Y186174D01*
X22386Y186812D01*
X20763Y187202D01*
X19100Y187333D01*
D02*
G37*
G36*
X121457Y171600D02*
X120900D01*
Y171043D01*
X121234Y171266D01*
X121457Y171600D01*
D02*
G37*
G36*
X220100Y176622D02*
X216992D01*
X216313Y176533D01*
X215871Y176350D01*
X214392D01*
Y174170D01*
X214370Y174000D01*
X214392Y173830D01*
Y171650D01*
X215361D01*
Y167781D01*
X214286D01*
Y164219D01*
X218439D01*
Y165915D01*
X218499Y166006D01*
X218623Y166630D01*
Y171378D01*
X220100D01*
X220779Y171467D01*
X221411Y171729D01*
X221954Y172146D01*
X222371Y172689D01*
X222450Y172878D01*
X232408D01*
Y171650D01*
X237608D01*
Y176350D01*
X232408D01*
Y175122D01*
X222450D01*
X222371Y175311D01*
X221954Y175854D01*
X221411Y176271D01*
X220779Y176533D01*
X220100Y176622D01*
D02*
G37*
G36*
X300300Y179283D02*
X299373Y179161D01*
X298508Y178803D01*
X297766Y178234D01*
X297197Y177492D01*
X296839Y176627D01*
X296717Y175700D01*
X296839Y174773D01*
X297197Y173908D01*
X297766Y173166D01*
X298508Y172597D01*
X299373Y172239D01*
X300300Y172117D01*
X301227Y172239D01*
X302092Y172597D01*
X302834Y173166D01*
X303403Y173908D01*
X303761Y174773D01*
X303883Y175700D01*
X303761Y176627D01*
X303403Y177492D01*
X302834Y178234D01*
X302092Y178803D01*
X301227Y179161D01*
X300300Y179283D01*
D02*
G37*
G36*
X46600Y178640D02*
X42000D01*
X40799Y178482D01*
X39680Y178018D01*
X39263Y177698D01*
X38719Y177281D01*
X38719Y177281D01*
X37819Y176381D01*
X37082Y175420D01*
X36618Y174301D01*
X36460Y173100D01*
X36618Y171899D01*
X37082Y170780D01*
X37819Y169819D01*
X38780Y169082D01*
X39899Y168618D01*
X41100Y168460D01*
X42301Y168618D01*
X43420Y169082D01*
X43783Y169360D01*
X46600D01*
X47801Y169518D01*
X47877Y169550D01*
X49950D01*
Y170809D01*
X50618Y171680D01*
X51082Y172799D01*
X51240Y174000D01*
X51082Y175201D01*
X50618Y176320D01*
X49950Y177190D01*
Y178450D01*
X47877D01*
X47801Y178482D01*
X46600Y178640D01*
D02*
G37*
G36*
X71200D02*
X65400D01*
X64199Y178482D01*
X64123Y178450D01*
X62050D01*
Y177190D01*
X61382Y176320D01*
X60918Y175201D01*
X60760Y174000D01*
X60918Y172799D01*
X61382Y171680D01*
X62050Y170809D01*
Y169550D01*
X64123D01*
X64199Y169518D01*
X65400Y169360D01*
X71200D01*
X72401Y169518D01*
X73520Y169982D01*
X74481Y170719D01*
X75218Y171680D01*
X75682Y172799D01*
X75840Y174000D01*
X75682Y175201D01*
X75218Y176320D01*
X74481Y177281D01*
X73520Y178018D01*
X72401Y178482D01*
X71200Y178640D01*
D02*
G37*
G36*
X118900Y171600D02*
X118343D01*
X118566Y171266D01*
X118900Y171043D01*
Y171600D01*
D02*
G37*
G36*
X37800Y135757D02*
X37466Y135534D01*
X37243Y135200D01*
X37800D01*
Y135757D01*
D02*
G37*
G36*
X290439Y107000D02*
X289362D01*
Y106219D01*
X290439D01*
Y107000D01*
D02*
G37*
G36*
X345600Y107357D02*
X345266Y107134D01*
X345043Y106800D01*
X345600D01*
Y107357D01*
D02*
G37*
G36*
X347600D02*
Y106800D01*
X348157D01*
X347934Y107134D01*
X347600Y107357D01*
D02*
G37*
G36*
X321600Y106257D02*
Y105700D01*
X322157D01*
X321934Y106034D01*
X321600Y106257D01*
D02*
G37*
G36*
X269300Y106757D02*
Y106200D01*
X269857D01*
X269634Y106534D01*
X269300Y106757D01*
D02*
G37*
G36*
X287362Y107000D02*
X286286D01*
Y106219D01*
X287362D01*
Y107000D01*
D02*
G37*
G36*
X206200Y108657D02*
Y108100D01*
X206757D01*
X206534Y108434D01*
X206200Y108657D01*
D02*
G37*
G36*
X262300Y109100D02*
X261743D01*
X261966Y108766D01*
X262300Y108543D01*
Y109100D01*
D02*
G37*
G36*
X264857D02*
X264300D01*
Y108543D01*
X264634Y108766D01*
X264857Y109100D01*
D02*
G37*
G36*
X271100Y107900D02*
X270543D01*
X270766Y107566D01*
X271100Y107343D01*
Y107900D01*
D02*
G37*
G36*
X273657D02*
X273100D01*
Y107343D01*
X273434Y107566D01*
X273657Y107900D01*
D02*
G37*
G36*
X204200Y108657D02*
X203866Y108434D01*
X203643Y108100D01*
X204200D01*
Y108657D01*
D02*
G37*
G36*
X348157Y104800D02*
X347600D01*
Y104243D01*
X347934Y104466D01*
X348157Y104800D01*
D02*
G37*
G36*
X32600Y104857D02*
X32266Y104634D01*
X32043Y104300D01*
X32600D01*
Y104857D01*
D02*
G37*
G36*
X34600D02*
Y104300D01*
X35157D01*
X34934Y104634D01*
X34600Y104857D01*
D02*
G37*
G36*
X17300Y106700D02*
X13818D01*
X14155Y105885D01*
X14732Y105132D01*
X15484Y104555D01*
X16360Y104193D01*
X17300Y104069D01*
Y106700D01*
D02*
G37*
G36*
X22782D02*
X19300D01*
Y104069D01*
X20240Y104193D01*
X21115Y104555D01*
X21868Y105132D01*
X22445Y105885D01*
X22782Y106700D01*
D02*
G37*
G36*
X345600Y104800D02*
X345043D01*
X345266Y104466D01*
X345600Y104243D01*
Y104800D01*
D02*
G37*
G36*
X204200Y106100D02*
X203643D01*
X203866Y105766D01*
X204200Y105543D01*
Y106100D01*
D02*
G37*
G36*
X206757D02*
X206200D01*
Y105543D01*
X206534Y105766D01*
X206757Y106100D01*
D02*
G37*
G36*
X319600Y106257D02*
X319266Y106034D01*
X319043Y105700D01*
X319600D01*
Y106257D01*
D02*
G37*
G36*
X227700Y105657D02*
X227366Y105434D01*
X227143Y105100D01*
X227700D01*
Y105657D01*
D02*
G37*
G36*
X229700D02*
Y105100D01*
X230257D01*
X230034Y105434D01*
X229700Y105657D01*
D02*
G37*
G36*
X190805Y112056D02*
X184881D01*
Y105344D01*
X190805D01*
Y106078D01*
X194300D01*
X194979Y106167D01*
X195611Y106429D01*
X196154Y106846D01*
X196571Y107389D01*
X196833Y108021D01*
X196922Y108700D01*
X196833Y109379D01*
X196571Y110011D01*
X196154Y110554D01*
X195611Y110971D01*
X194979Y111233D01*
X194300Y111322D01*
X190805D01*
Y112056D01*
D02*
G37*
G36*
X17300Y111331D02*
X16360Y111207D01*
X15484Y110845D01*
X14732Y110268D01*
X14155Y109516D01*
X13818Y108700D01*
X17300D01*
Y111331D01*
D02*
G37*
G36*
X309781Y114439D02*
X309000D01*
Y113362D01*
X309781D01*
Y114439D01*
D02*
G37*
G36*
X313000D02*
X312219D01*
Y113362D01*
X313000D01*
Y114439D01*
D02*
G37*
G36*
X315781D02*
X315000D01*
Y113362D01*
X315781D01*
Y114439D01*
D02*
G37*
G36*
X345500Y113500D02*
X344943D01*
X345166Y113166D01*
X345500Y112943D01*
Y113500D01*
D02*
G37*
G36*
X348057D02*
X347500D01*
Y112943D01*
X347834Y113166D01*
X348057Y113500D01*
D02*
G37*
G36*
X307000Y114439D02*
X306219D01*
Y113362D01*
X307000D01*
Y114439D01*
D02*
G37*
G36*
X205200Y115057D02*
Y114500D01*
X205757D01*
X205534Y114834D01*
X205200Y115057D01*
D02*
G37*
G36*
X198800Y115500D02*
X198243D01*
X198466Y115166D01*
X198800Y114943D01*
Y115500D01*
D02*
G37*
G36*
X201357D02*
X200800D01*
Y114943D01*
X201134Y115166D01*
X201357Y115500D01*
D02*
G37*
G36*
X83100Y114700D02*
X82543D01*
X82766Y114366D01*
X83100Y114143D01*
Y114700D01*
D02*
G37*
G36*
X85657D02*
X85100D01*
Y114143D01*
X85434Y114366D01*
X85657Y114700D01*
D02*
G37*
G36*
X203200Y115057D02*
X202866Y114834D01*
X202643Y114500D01*
X203200D01*
Y115057D01*
D02*
G37*
G36*
X273100Y110457D02*
Y109900D01*
X273657D01*
X273434Y110234D01*
X273100Y110457D01*
D02*
G37*
G36*
X315781Y111362D02*
X315000D01*
Y110286D01*
X315781D01*
Y111362D01*
D02*
G37*
G36*
X262300Y111657D02*
X261966Y111434D01*
X261743Y111100D01*
X262300D01*
Y111657D01*
D02*
G37*
G36*
X19300Y111331D02*
Y108700D01*
X22782D01*
X22445Y109516D01*
X21868Y110268D01*
X21115Y110845D01*
X20240Y111207D01*
X19300Y111331D01*
D02*
G37*
G36*
X287362Y109781D02*
X286286D01*
Y109000D01*
X287362D01*
Y109781D01*
D02*
G37*
G36*
X290439D02*
X289362D01*
Y109000D01*
X290439D01*
Y109781D01*
D02*
G37*
G36*
X205757Y112500D02*
X205200D01*
Y111943D01*
X205534Y112166D01*
X205757Y112500D01*
D02*
G37*
G36*
X334200Y113000D02*
X333643D01*
X333866Y112666D01*
X334200Y112443D01*
Y113000D01*
D02*
G37*
G36*
X336757D02*
X336200D01*
Y112443D01*
X336534Y112666D01*
X336757Y113000D01*
D02*
G37*
G36*
X264300Y111657D02*
Y111100D01*
X264857D01*
X264634Y111434D01*
X264300Y111657D01*
D02*
G37*
G36*
X50828Y145000D02*
X43723D01*
Y144219D01*
Y140617D01*
X44941D01*
X44967Y140421D01*
X45229Y139789D01*
X45646Y139246D01*
X49546Y135346D01*
X49546Y135346D01*
X50089Y134929D01*
X50721Y134667D01*
X51238Y134599D01*
X51205Y134100D01*
X48700D01*
Y131000D01*
X51300D01*
Y134100D01*
X51300D01*
X51363Y134582D01*
X51400Y134578D01*
X56448D01*
X56726Y134162D01*
X56700Y134100D01*
X56700D01*
X56700Y134100D01*
Y125900D01*
X60691D01*
X62778Y123814D01*
Y120450D01*
X62050D01*
Y111550D01*
X68750D01*
Y120450D01*
X68022D01*
Y124900D01*
X68023Y124900D01*
X67933Y125579D01*
X67671Y126211D01*
X67254Y126754D01*
X67254Y126754D01*
X63900Y130109D01*
Y134100D01*
X62922D01*
Y134500D01*
X62923Y134500D01*
X62833Y135179D01*
X62648Y135626D01*
X62571Y135811D01*
X62154Y136354D01*
X62154Y136354D01*
X59454Y139054D01*
X58911Y139471D01*
X58279Y139733D01*
X57600Y139822D01*
X57600Y139822D01*
X52486D01*
X50828Y141480D01*
Y144219D01*
Y145000D01*
D02*
G37*
G36*
X203200Y112500D02*
X202643D01*
X202866Y112166D01*
X203200Y111943D01*
Y112500D01*
D02*
G37*
G36*
X106050Y113020D02*
X104849Y112862D01*
X103730Y112398D01*
X102769Y111661D01*
X102032Y110700D01*
X101568Y109581D01*
X101410Y108380D01*
X101568Y107179D01*
X102032Y106060D01*
X102769Y105099D01*
X103730Y104362D01*
X104849Y103898D01*
X106050Y103740D01*
X107251Y103898D01*
X108370Y104362D01*
X109331Y105099D01*
X110068Y106060D01*
X110532Y107179D01*
X110690Y108380D01*
X110532Y109581D01*
X110068Y110700D01*
X109331Y111661D01*
X108370Y112398D01*
X107251Y112862D01*
X106050Y113020D01*
D02*
G37*
G36*
X311100Y98000D02*
X309000D01*
Y95900D01*
X311100D01*
Y98000D01*
D02*
G37*
G36*
X315200D02*
X313100D01*
Y95900D01*
X315200D01*
Y98000D01*
D02*
G37*
G36*
X333000Y99000D02*
X329000D01*
Y97300D01*
X333000D01*
Y99000D01*
D02*
G37*
G36*
X19000Y153631D02*
X17000D01*
X16060Y153507D01*
X15184Y153145D01*
X14433Y152568D01*
X13855Y151815D01*
X13493Y150940D01*
X13369Y150000D01*
X13493Y149060D01*
X13855Y148185D01*
X14433Y147432D01*
X15184Y146855D01*
X16060Y146493D01*
X17000Y146369D01*
X19000D01*
X19940Y146493D01*
X20816Y146855D01*
X21496Y147378D01*
X27614D01*
X29578Y145414D01*
Y130400D01*
X29578Y130400D01*
X29667Y129721D01*
X29929Y129089D01*
X30346Y128546D01*
X43250Y115641D01*
Y111550D01*
X43978D01*
Y104450D01*
X43250D01*
Y95550D01*
X49950D01*
Y104450D01*
X49222D01*
Y111550D01*
X49950D01*
Y120450D01*
X45859D01*
X34822Y131486D01*
Y146500D01*
X34822Y146500D01*
X34733Y147179D01*
X34471Y147811D01*
X34054Y148354D01*
X34054Y148354D01*
X30554Y151854D01*
X30011Y152271D01*
X29379Y152533D01*
X28700Y152622D01*
X28700Y152622D01*
X21496D01*
X20816Y153145D01*
X19940Y153507D01*
X19000Y153631D01*
D02*
G37*
G36*
X293400Y96400D02*
X292843D01*
X293066Y96066D01*
X293400Y95843D01*
Y96400D01*
D02*
G37*
G36*
X295957D02*
X295400D01*
Y95843D01*
X295734Y96066D01*
X295957Y96400D01*
D02*
G37*
G36*
X293400Y98957D02*
X293066Y98734D01*
X292843Y98400D01*
X293400D01*
Y98957D01*
D02*
G37*
G36*
X295400D02*
Y98400D01*
X295957D01*
X295734Y98734D01*
X295400Y98957D01*
D02*
G37*
G36*
X237521Y98772D02*
X236943D01*
X236478Y98679D01*
X236297Y98558D01*
X237521D01*
Y98772D01*
D02*
G37*
G36*
X339000Y99000D02*
X335000D01*
Y97300D01*
X339000D01*
Y99000D01*
D02*
G37*
G36*
X5000Y98457D02*
X4666Y98234D01*
X4443Y97900D01*
X5000D01*
Y98457D01*
D02*
G37*
G36*
X7000D02*
Y97900D01*
X7557D01*
X7334Y98234D01*
X7000Y98457D01*
D02*
G37*
G36*
X346800Y93757D02*
X346466Y93534D01*
X346243Y93200D01*
X346800D01*
Y93757D01*
D02*
G37*
G36*
X348800D02*
Y93200D01*
X349357D01*
X349134Y93534D01*
X348800Y93757D01*
D02*
G37*
G36*
X19300Y101331D02*
X17300D01*
X16360Y101207D01*
X15484Y100845D01*
X14732Y100268D01*
X14155Y99515D01*
X13793Y98640D01*
X13669Y97700D01*
X13793Y96760D01*
X14155Y95885D01*
X14732Y95132D01*
X15484Y94555D01*
X16360Y94193D01*
X17300Y94069D01*
X19300D01*
X20240Y94193D01*
X21115Y94555D01*
X21868Y95132D01*
X22445Y95885D01*
X22807Y96760D01*
X22931Y97700D01*
X22807Y98640D01*
X22445Y99515D01*
X21868Y100268D01*
X21115Y100845D01*
X20240Y101207D01*
X19300Y101331D01*
D02*
G37*
G36*
X277257Y93500D02*
X276700D01*
Y92943D01*
X277034Y93166D01*
X277257Y93500D01*
D02*
G37*
G36*
X97400Y93657D02*
X97066Y93434D01*
X96843Y93100D01*
X97400D01*
Y93657D01*
D02*
G37*
G36*
X99400D02*
Y93100D01*
X99957D01*
X99734Y93434D01*
X99400Y93657D01*
D02*
G37*
G36*
X7557Y95900D02*
X7000D01*
Y95343D01*
X7334Y95566D01*
X7557Y95900D01*
D02*
G37*
G36*
X274700Y96057D02*
X274366Y95834D01*
X274143Y95500D01*
X274700D01*
Y96057D01*
D02*
G37*
G36*
X276700D02*
Y95500D01*
X277257D01*
X277034Y95834D01*
X276700Y96057D01*
D02*
G37*
G36*
X190805Y101556D02*
X184881D01*
Y94844D01*
X190805D01*
Y95078D01*
X194300D01*
X194979Y95167D01*
X195611Y95429D01*
X196154Y95846D01*
X196571Y96389D01*
X196833Y97021D01*
X196922Y97700D01*
X196833Y98379D01*
X196571Y99011D01*
X196154Y99554D01*
X195611Y99971D01*
X194979Y100233D01*
X194300Y100322D01*
X190805D01*
Y101556D01*
D02*
G37*
G36*
X330600Y96600D02*
X325400D01*
Y95122D01*
X319500D01*
Y95122D01*
X317600D01*
X317599Y95122D01*
X317492Y95100D01*
X315700D01*
Y94900D01*
Y92900D01*
Y92900D01*
X317492D01*
X317599Y92878D01*
X317600Y92878D01*
X319500D01*
Y92878D01*
X325400D01*
Y91400D01*
X330600D01*
Y96600D01*
D02*
G37*
G36*
X5000Y95900D02*
X4443D01*
X4666Y95566D01*
X5000Y95343D01*
Y95900D01*
D02*
G37*
G36*
X305400Y99000D02*
X304500D01*
Y98900D01*
X305400D01*
Y99000D01*
D02*
G37*
G36*
X290439Y103781D02*
X289362D01*
Y103000D01*
X290439D01*
Y103781D01*
D02*
G37*
G36*
X319600Y103700D02*
X319043D01*
X319266Y103366D01*
X319600Y103143D01*
Y103700D01*
D02*
G37*
G36*
X322157D02*
X321600D01*
Y103143D01*
X321934Y103366D01*
X322157Y103700D01*
D02*
G37*
G36*
X227700Y103100D02*
X227143D01*
X227366Y102766D01*
X227700Y102543D01*
Y103100D01*
D02*
G37*
G36*
X230257D02*
X229700D01*
Y102543D01*
X230034Y102766D01*
X230257Y103100D01*
D02*
G37*
G36*
X287362Y103781D02*
X286286D01*
Y103000D01*
X287362D01*
Y103781D01*
D02*
G37*
G36*
X237400Y104157D02*
Y103600D01*
X237957D01*
X237734Y103934D01*
X237400Y104157D01*
D02*
G37*
G36*
X267300Y104200D02*
X266743D01*
X266966Y103866D01*
X267300Y103643D01*
Y104200D01*
D02*
G37*
G36*
X269857D02*
X269300D01*
Y103643D01*
X269634Y103866D01*
X269857Y104200D01*
D02*
G37*
G36*
X296300Y103757D02*
X295966Y103534D01*
X295743Y103200D01*
X296300D01*
Y103757D01*
D02*
G37*
G36*
X298300D02*
Y103200D01*
X298857D01*
X298634Y103534D01*
X298300Y103757D01*
D02*
G37*
G36*
X235400Y104157D02*
X235066Y103934D01*
X234843Y103600D01*
X235400D01*
Y104157D01*
D02*
G37*
G36*
X296300Y101200D02*
X295743D01*
X295966Y100866D01*
X296300Y100643D01*
Y101200D01*
D02*
G37*
G36*
X298857D02*
X298300D01*
Y100643D01*
X298634Y100866D01*
X298857Y101200D01*
D02*
G37*
G36*
X183719Y112056D02*
X177795D01*
Y105344D01*
X178134D01*
Y101556D01*
X177795D01*
Y100822D01*
X68750D01*
Y104450D01*
X62050D01*
Y95550D01*
X68750D01*
Y95578D01*
X177795D01*
Y94844D01*
X178134D01*
Y90056D01*
X177795D01*
Y83344D01*
X183719D01*
Y90056D01*
X183379D01*
Y94844D01*
X183719D01*
Y101556D01*
X183379D01*
Y105344D01*
X183719D01*
Y112056D01*
D02*
G37*
G36*
X319500Y99100D02*
X318600D01*
Y99000D01*
X319500D01*
Y99100D01*
D02*
G37*
G36*
X287362Y101000D02*
X286286D01*
Y100219D01*
X287362D01*
Y101000D01*
D02*
G37*
G36*
X290439D02*
X289362D01*
Y100219D01*
X290439D01*
Y101000D01*
D02*
G37*
G36*
X237957Y101600D02*
X237400D01*
Y101043D01*
X237734Y101266D01*
X237957Y101600D01*
D02*
G37*
G36*
X32600Y102300D02*
X32043D01*
X32266Y101966D01*
X32600Y101743D01*
Y102300D01*
D02*
G37*
G36*
X35157D02*
X34600D01*
Y101743D01*
X34934Y101966D01*
X35157Y102300D01*
D02*
G37*
G36*
X333000Y102700D02*
X329000D01*
Y101000D01*
X333000D01*
Y102700D01*
D02*
G37*
G36*
X339000D02*
X335000D01*
Y101000D01*
X339000D01*
Y102700D01*
D02*
G37*
G36*
X235400Y101600D02*
X234843D01*
X235066Y101266D01*
X235400Y101043D01*
Y101600D01*
D02*
G37*
G36*
X334200Y115557D02*
X333866Y115334D01*
X333643Y115000D01*
X334200D01*
Y115557D01*
D02*
G37*
G36*
X102200Y128457D02*
X101866Y128234D01*
X101643Y127900D01*
X102200D01*
Y128457D01*
D02*
G37*
G36*
X104200D02*
Y127900D01*
X104757D01*
X104534Y128234D01*
X104200Y128457D01*
D02*
G37*
G36*
X82600Y130157D02*
X82266Y129934D01*
X82043Y129600D01*
X82600D01*
Y130157D01*
D02*
G37*
G36*
Y127600D02*
X82043D01*
X82266Y127266D01*
X82600Y127043D01*
Y127600D01*
D02*
G37*
G36*
X85157D02*
X84600D01*
Y127043D01*
X84934Y127266D01*
X85157Y127600D01*
D02*
G37*
G36*
X161950Y136640D02*
X160749Y136482D01*
X159630Y136018D01*
X158669Y135281D01*
X157932Y134320D01*
X157468Y133201D01*
X157310Y132000D01*
X157468Y130799D01*
X157932Y129680D01*
X158669Y128719D01*
X159630Y127982D01*
X160749Y127518D01*
X161950Y127360D01*
X163151Y127518D01*
X164270Y127982D01*
X165231Y128719D01*
X165968Y129680D01*
X166432Y130799D01*
X166590Y132000D01*
X166432Y133201D01*
X165968Y134320D01*
X165231Y135281D01*
X164270Y136018D01*
X163151Y136482D01*
X161950Y136640D01*
D02*
G37*
G36*
X201828Y131440D02*
X199865D01*
Y130265D01*
X201828D01*
Y131440D01*
D02*
G37*
G36*
X205790D02*
X203828D01*
Y130265D01*
X205790D01*
Y131440D01*
D02*
G37*
G36*
X259300Y132062D02*
X258519D01*
Y130986D01*
X259300D01*
Y132062D01*
D02*
G37*
G36*
X84600Y130157D02*
Y129600D01*
X85157D01*
X84934Y129934D01*
X84600Y130157D01*
D02*
G37*
G36*
X333700Y130300D02*
X333143D01*
X333366Y129966D01*
X333700Y129743D01*
Y130300D01*
D02*
G37*
G36*
X336257D02*
X335700D01*
Y129743D01*
X336034Y129966D01*
X336257Y130300D01*
D02*
G37*
G36*
X325100Y125757D02*
Y125200D01*
X325657D01*
X325434Y125534D01*
X325100Y125757D01*
D02*
G37*
G36*
X102200Y125900D02*
X101643D01*
X101866Y125566D01*
X102200Y125343D01*
Y125900D01*
D02*
G37*
G36*
X104757D02*
X104200D01*
Y125343D01*
X104534Y125566D01*
X104757Y125900D01*
D02*
G37*
G36*
X5300Y125157D02*
X4966Y124934D01*
X4743Y124600D01*
X5300D01*
Y125157D01*
D02*
G37*
G36*
X7300D02*
Y124600D01*
X7857D01*
X7634Y124934D01*
X7300Y125157D01*
D02*
G37*
G36*
X323100Y125757D02*
X322766Y125534D01*
X322543Y125200D01*
X323100D01*
Y125757D01*
D02*
G37*
G36*
X315100Y126657D02*
Y126100D01*
X315657D01*
X315434Y126434D01*
X315100Y126657D01*
D02*
G37*
G36*
X17000Y129000D02*
X13400D01*
Y126400D01*
X17000D01*
Y129000D01*
D02*
G37*
G36*
X22600D02*
X19000D01*
Y126400D01*
X22600D01*
Y129000D01*
D02*
G37*
G36*
X46700D02*
X44100D01*
Y125900D01*
X46700D01*
Y129000D01*
D02*
G37*
G36*
X51300D02*
X48700D01*
Y125900D01*
X51300D01*
Y129000D01*
D02*
G37*
G36*
X313100Y126657D02*
X312766Y126434D01*
X312543Y126100D01*
X313100D01*
Y126657D01*
D02*
G37*
G36*
X262081Y132062D02*
X261300D01*
Y130986D01*
X262081D01*
Y132062D01*
D02*
G37*
G36*
X204757Y135600D02*
X201643D01*
X201866Y135266D01*
X202125Y135093D01*
X201980Y134615D01*
X203828D01*
Y133440D01*
X205790D01*
Y134615D01*
X204420D01*
X204275Y135093D01*
X204534Y135266D01*
X204757Y135600D01*
D02*
G37*
G36*
X302700Y134257D02*
X302366Y134034D01*
X302143Y133700D01*
X302700D01*
Y134257D01*
D02*
G37*
G36*
X304700D02*
Y133700D01*
X305257D01*
X305034Y134034D01*
X304700Y134257D01*
D02*
G37*
G36*
X233300Y133600D02*
X232743D01*
X232966Y133266D01*
X233300Y133043D01*
Y133600D01*
D02*
G37*
G36*
X235857D02*
X235300D01*
Y133043D01*
X235634Y133266D01*
X235857Y133600D01*
D02*
G37*
G36*
X201828Y134615D02*
X199865D01*
Y133440D01*
X201828D01*
Y134615D01*
D02*
G37*
G36*
X286081Y135139D02*
X285300D01*
Y134062D01*
X286081D01*
Y135139D01*
D02*
G37*
G36*
X214600Y135400D02*
X214043D01*
X214266Y135066D01*
X214600Y134843D01*
Y135400D01*
D02*
G37*
G36*
X217157D02*
X216600D01*
Y134843D01*
X216934Y135066D01*
X217157Y135400D01*
D02*
G37*
G36*
X259300Y135139D02*
X258519D01*
Y134062D01*
X259300D01*
Y135139D01*
D02*
G37*
G36*
X262081D02*
X261300D01*
Y134062D01*
X262081D01*
Y135139D01*
D02*
G37*
G36*
X283300D02*
X282519D01*
Y134062D01*
X283300D01*
Y135139D01*
D02*
G37*
G36*
X22600Y133600D02*
X19000D01*
Y131000D01*
X22600D01*
Y133600D01*
D02*
G37*
G36*
X46700Y134100D02*
X44100D01*
Y131000D01*
X46700D01*
Y134100D01*
D02*
G37*
G36*
X302700Y131700D02*
X302143D01*
X302366Y131366D01*
X302700Y131143D01*
Y131700D01*
D02*
G37*
G36*
X283300Y132062D02*
X282519D01*
Y130986D01*
X283300D01*
Y132062D01*
D02*
G37*
G36*
X286081D02*
X285300D01*
Y130986D01*
X286081D01*
Y132062D01*
D02*
G37*
G36*
X17000Y133600D02*
X13400D01*
Y131000D01*
X17000D01*
Y133600D01*
D02*
G37*
G36*
X37800Y133200D02*
X37243D01*
X37466Y132866D01*
X37800Y132643D01*
Y133200D01*
D02*
G37*
G36*
X40357D02*
X39800D01*
Y132643D01*
X40134Y132866D01*
X40357Y133200D01*
D02*
G37*
G36*
X154070Y160260D02*
X152869Y160102D01*
X151750Y159638D01*
X150789Y158901D01*
X150052Y157940D01*
X149588Y156821D01*
X149430Y155620D01*
X149588Y154419D01*
X150052Y153300D01*
X150789Y152339D01*
X151750Y151602D01*
X152869Y151138D01*
X154070Y150980D01*
X155271Y151138D01*
X156390Y151602D01*
X156515Y151698D01*
X166894D01*
X177850Y140741D01*
Y136750D01*
X185041D01*
X188065Y133726D01*
X188609Y133309D01*
X189241Y133047D01*
X189920Y132958D01*
X190598Y133047D01*
X191231Y133309D01*
X191774Y133726D01*
X192191Y134269D01*
X192453Y134901D01*
X192542Y135580D01*
X192453Y136259D01*
X192191Y136891D01*
X191774Y137435D01*
X187454Y141754D01*
X186911Y142171D01*
X186750Y142238D01*
Y143450D01*
X182559D01*
X169834Y156174D01*
X169291Y156591D01*
X168659Y156853D01*
X167980Y156942D01*
X167980Y156942D01*
X158501D01*
X158088Y157940D01*
X157351Y158901D01*
X156390Y159638D01*
X155271Y160102D01*
X154070Y160260D01*
D02*
G37*
G36*
X305257Y131700D02*
X304700D01*
Y131143D01*
X305034Y131366D01*
X305257Y131700D01*
D02*
G37*
G36*
X333700Y132857D02*
X333366Y132634D01*
X333143Y132300D01*
X333700D01*
Y132857D01*
D02*
G37*
G36*
X335700D02*
Y132300D01*
X336257D01*
X336034Y132634D01*
X335700Y132857D01*
D02*
G37*
G36*
X346900Y124857D02*
Y124300D01*
X347457D01*
X347234Y124634D01*
X346900Y124857D01*
D02*
G37*
G36*
X236081Y118062D02*
X235300D01*
Y116986D01*
X236081D01*
Y118062D01*
D02*
G37*
G36*
X239300D02*
X238519D01*
Y116986D01*
X239300D01*
Y118062D01*
D02*
G37*
G36*
X242081D02*
X241300D01*
Y116986D01*
X242081D01*
Y118062D01*
D02*
G37*
G36*
X228000Y117300D02*
X227443D01*
X227666Y116966D01*
X228000Y116743D01*
Y117300D01*
D02*
G37*
G36*
X230557D02*
X230000D01*
Y116743D01*
X230334Y116966D01*
X230557Y117300D01*
D02*
G37*
G36*
X233300Y118062D02*
X232519D01*
Y116986D01*
X233300D01*
Y118062D01*
D02*
G37*
G36*
X200800Y118057D02*
Y117500D01*
X201357D01*
X201134Y117834D01*
X200800Y118057D01*
D02*
G37*
G36*
X32400Y118257D02*
X32066Y118034D01*
X31843Y117700D01*
X32400D01*
Y118257D01*
D02*
G37*
G36*
X34400D02*
Y117700D01*
X34957D01*
X34734Y118034D01*
X34400Y118257D01*
D02*
G37*
G36*
X271300Y118062D02*
X270519D01*
Y116986D01*
X271300D01*
Y118062D01*
D02*
G37*
G36*
X274081D02*
X273300D01*
Y116986D01*
X274081D01*
Y118062D01*
D02*
G37*
G36*
X198800Y118057D02*
X198466Y117834D01*
X198243Y117500D01*
X198800D01*
Y118057D01*
D02*
G37*
G36*
X266900Y115800D02*
X266343D01*
X266566Y115466D01*
X266900Y115243D01*
Y115800D01*
D02*
G37*
G36*
X269457D02*
X268900D01*
Y115243D01*
X269234Y115466D01*
X269457Y115800D01*
D02*
G37*
G36*
X205790Y127135D02*
X199865D01*
Y122785D01*
X205790D01*
Y123427D01*
X206252Y123619D01*
X209794Y120076D01*
Y115344D01*
X215719D01*
Y122056D01*
X210987D01*
X207290Y125753D01*
X206926Y125996D01*
X206497Y126081D01*
X206497Y126081D01*
X205790D01*
Y127135D01*
D02*
G37*
G36*
X336200Y115557D02*
Y115000D01*
X336757D01*
X336534Y115334D01*
X336200Y115557D01*
D02*
G37*
G36*
X32400Y115700D02*
X31843D01*
X32066Y115366D01*
X32400Y115143D01*
Y115700D01*
D02*
G37*
G36*
X34957D02*
X34400D01*
Y115143D01*
X34734Y115366D01*
X34957Y115700D01*
D02*
G37*
G36*
X137357Y117200D02*
X136800D01*
Y116643D01*
X137134Y116866D01*
X137357Y117200D01*
D02*
G37*
G36*
X83100Y117257D02*
X82766Y117034D01*
X82543Y116700D01*
X83100D01*
Y117257D01*
D02*
G37*
G36*
X85100D02*
Y116700D01*
X85657D01*
X85434Y117034D01*
X85100Y117257D01*
D02*
G37*
G36*
X345500Y116057D02*
X345166Y115834D01*
X344943Y115500D01*
X345500D01*
Y116057D01*
D02*
G37*
G36*
X347500D02*
Y115500D01*
X348057D01*
X347834Y115834D01*
X347500Y116057D01*
D02*
G37*
G36*
X134800Y117200D02*
X134243D01*
X134466Y116866D01*
X134800Y116643D01*
Y117200D01*
D02*
G37*
G36*
X268900Y118357D02*
Y117800D01*
X269457D01*
X269234Y118134D01*
X268900Y118357D01*
D02*
G37*
G36*
X7857Y122600D02*
X7300D01*
Y122043D01*
X7634Y122266D01*
X7857Y122600D01*
D02*
G37*
G36*
X323100Y123200D02*
X322543D01*
X322766Y122866D01*
X323100Y122643D01*
Y123200D01*
D02*
G37*
G36*
X325657D02*
X325100D01*
Y122643D01*
X325434Y122866D01*
X325657Y123200D01*
D02*
G37*
G36*
X344900Y122300D02*
X344343D01*
X344566Y121966D01*
X344900Y121743D01*
Y122300D01*
D02*
G37*
G36*
X347457D02*
X346900D01*
Y121743D01*
X347234Y121966D01*
X347457Y122300D01*
D02*
G37*
G36*
X5300Y122600D02*
X4743D01*
X4966Y122266D01*
X5300Y122043D01*
Y122600D01*
D02*
G37*
G36*
X333700Y124757D02*
X333366Y124534D01*
X333143Y124200D01*
X333700D01*
Y124757D01*
D02*
G37*
G36*
X335700D02*
Y124200D01*
X336257D01*
X336034Y124534D01*
X335700Y124757D01*
D02*
G37*
G36*
X344900Y124857D02*
X344566Y124634D01*
X344343Y124300D01*
X344900D01*
Y124857D01*
D02*
G37*
G36*
X313100Y124100D02*
X312543D01*
X312766Y123766D01*
X313100Y123543D01*
Y124100D01*
D02*
G37*
G36*
X315657D02*
X315100D01*
Y123543D01*
X315434Y123766D01*
X315657Y124100D01*
D02*
G37*
G36*
X193772Y131323D02*
X193094Y131233D01*
X192461Y130971D01*
X192336Y130875D01*
X190810D01*
Y129446D01*
X186014Y124650D01*
X177850D01*
Y123922D01*
X168590D01*
X168590Y123923D01*
X167911Y123833D01*
X167279Y123571D01*
X166736Y123154D01*
X166736Y123154D01*
X156100Y112518D01*
X155271Y112862D01*
X154070Y113020D01*
X152869Y112862D01*
X151750Y112398D01*
X150789Y111661D01*
X150052Y110700D01*
X149588Y109581D01*
X149430Y108380D01*
X149588Y107179D01*
X150052Y106060D01*
X150789Y105099D01*
X151750Y104362D01*
X152869Y103898D01*
X154070Y103740D01*
X155271Y103898D01*
X156390Y104362D01*
X157351Y105099D01*
X158088Y106060D01*
X158552Y107179D01*
X158608Y107610D01*
X169676Y118678D01*
X177850D01*
Y117950D01*
X186750D01*
Y118727D01*
X187051Y118767D01*
X187684Y119029D01*
X188227Y119446D01*
X195306Y126525D01*
X196735D01*
Y130875D01*
X195209D01*
X195084Y130971D01*
X194451Y131233D01*
X193772Y131323D01*
D02*
G37*
G36*
X230000Y119857D02*
Y119300D01*
X230557D01*
X230334Y119634D01*
X230000Y119857D01*
D02*
G37*
G36*
X233300Y121139D02*
X232519D01*
Y120062D01*
X233300D01*
Y121139D01*
D02*
G37*
G36*
X236081D02*
X235300D01*
Y120062D01*
X236081D01*
Y121139D01*
D02*
G37*
G36*
X134800Y119757D02*
X134466Y119534D01*
X134243Y119200D01*
X134800D01*
Y119757D01*
D02*
G37*
G36*
X136800D02*
Y119200D01*
X137357D01*
X137134Y119534D01*
X136800Y119757D01*
D02*
G37*
G36*
X228000Y119857D02*
X227666Y119634D01*
X227443Y119300D01*
X228000D01*
Y119857D01*
D02*
G37*
G36*
X274081Y121139D02*
X273300D01*
Y120062D01*
X274081D01*
Y121139D01*
D02*
G37*
G36*
X333700Y122200D02*
X333143D01*
X333366Y121866D01*
X333700Y121643D01*
Y122200D01*
D02*
G37*
G36*
X336257D02*
X335700D01*
Y121643D01*
X336034Y121866D01*
X336257Y122200D01*
D02*
G37*
G36*
X239300Y121139D02*
X238519D01*
Y120062D01*
X239300D01*
Y121139D01*
D02*
G37*
G36*
X242081D02*
X241300D01*
Y120062D01*
X242081D01*
Y121139D01*
D02*
G37*
G36*
X271300D02*
X270519D01*
Y120062D01*
X271300D01*
Y121139D01*
D02*
G37*
%LPD*%
D10*
X46600Y174000D02*
D03*
X65400D02*
D03*
Y100000D02*
D03*
X46600D02*
D03*
Y116000D02*
D03*
X65400D02*
D03*
D11*
X62457Y86000D02*
D03*
X69543D02*
D03*
X47543Y78000D02*
D03*
X40457D02*
D03*
X180757Y98200D02*
D03*
X187843D02*
D03*
X212757Y48700D02*
D03*
X219843D02*
D03*
X180757Y108700D02*
D03*
X187843D02*
D03*
X219843Y118700D02*
D03*
X212757D02*
D03*
X212757Y60700D02*
D03*
X219843D02*
D03*
X187843Y86700D02*
D03*
X180757D02*
D03*
D12*
X286600Y85100D02*
D03*
X284000D02*
D03*
X281400D02*
D03*
Y92300D02*
D03*
X284000D02*
D03*
X286600D02*
D03*
D13*
X40000Y42457D02*
D03*
Y49543D02*
D03*
D14*
X283576Y58047D02*
D03*
X293024D02*
D03*
Y51354D02*
D03*
X283576D02*
D03*
D15*
X211638Y166000D02*
D03*
X216362D02*
D03*
X220662Y76700D02*
D03*
X215938D02*
D03*
X288362Y70000D02*
D03*
X283638D02*
D03*
Y76000D02*
D03*
X288362D02*
D03*
X283638Y102000D02*
D03*
X288362D02*
D03*
Y108000D02*
D03*
X283638D02*
D03*
X249638Y174000D02*
D03*
X254362D02*
D03*
X215638Y86000D02*
D03*
X220362D02*
D03*
X215638Y92000D02*
D03*
X220362D02*
D03*
X293638D02*
D03*
X298362D02*
D03*
D16*
X235008Y174000D02*
D03*
X240992D02*
D03*
X211008D02*
D03*
X216992D02*
D03*
D17*
X267379Y130700D02*
D03*
X277221D02*
D03*
D18*
X193772Y56700D02*
D03*
X202828Y52960D02*
D03*
Y60440D02*
D03*
X193772Y128700D02*
D03*
X202828Y124960D02*
D03*
Y132440D02*
D03*
D19*
X240300Y114338D02*
D03*
Y119062D02*
D03*
X272300Y114338D02*
D03*
Y119062D02*
D03*
X276300Y52338D02*
D03*
Y57062D02*
D03*
X300300D02*
D03*
Y52338D02*
D03*
X284300Y133062D02*
D03*
Y128338D02*
D03*
X260300Y133062D02*
D03*
Y128338D02*
D03*
X234300Y114338D02*
D03*
Y119062D02*
D03*
X262300Y52338D02*
D03*
Y57062D02*
D03*
X256300Y52338D02*
D03*
Y57062D02*
D03*
X66300Y142338D02*
D03*
Y147062D02*
D03*
X186300Y31062D02*
D03*
Y26338D02*
D03*
X178300Y31062D02*
D03*
Y26338D02*
D03*
X308000Y112362D02*
D03*
Y107638D02*
D03*
X314000D02*
D03*
Y112362D02*
D03*
D20*
X229583Y38739D02*
D03*
Y18661D02*
D03*
X214938D02*
D03*
X215017Y38739D02*
D03*
X193017Y18661D02*
D03*
Y38739D02*
D03*
X207662D02*
D03*
X207583Y18661D02*
D03*
X307017Y16661D02*
D03*
Y36739D02*
D03*
X321662D02*
D03*
X321583Y16661D02*
D03*
D21*
X56724Y149543D02*
D03*
Y142457D02*
D03*
D22*
X47276Y149543D02*
D03*
Y146000D02*
D03*
D23*
Y142457D02*
D03*
D24*
X46000Y160700D02*
D03*
X58600D02*
D03*
X47700Y130000D02*
D03*
X60300D02*
D03*
D25*
X182300Y121300D02*
D03*
Y140100D02*
D03*
Y45300D02*
D03*
Y64100D02*
D03*
D26*
X243371Y101695D02*
D03*
X245339D02*
D03*
X247307D02*
D03*
X249276D02*
D03*
X251244D02*
D03*
X253213D02*
D03*
X255182D02*
D03*
X257150D02*
D03*
X259119D02*
D03*
X261087D02*
D03*
Y75705D02*
D03*
X259119D02*
D03*
X257150D02*
D03*
X255182D02*
D03*
X253213D02*
D03*
X251244D02*
D03*
X249276D02*
D03*
X247307D02*
D03*
X245339D02*
D03*
X243371D02*
D03*
D27*
X265295Y97558D02*
D03*
Y95590D02*
D03*
Y93621D02*
D03*
Y91653D02*
D03*
Y89684D02*
D03*
Y87716D02*
D03*
Y85747D02*
D03*
Y83779D02*
D03*
Y81810D02*
D03*
Y79842D02*
D03*
X239305D02*
D03*
Y81810D02*
D03*
Y83779D02*
D03*
Y85747D02*
D03*
Y87716D02*
D03*
Y89684D02*
D03*
Y91653D02*
D03*
Y93621D02*
D03*
Y95590D02*
D03*
Y97558D02*
D03*
D28*
X252395Y88605D02*
D03*
D29*
X309000Y100600D02*
D03*
X311000D02*
D03*
X313000D02*
D03*
X315000D02*
D03*
Y89400D02*
D03*
X313000D02*
D03*
X311000D02*
D03*
X309000D02*
D03*
D30*
X317600Y98000D02*
D03*
Y96000D02*
D03*
Y94000D02*
D03*
Y92000D02*
D03*
X306400D02*
D03*
Y94000D02*
D03*
Y96000D02*
D03*
Y97900D02*
D03*
D31*
X334000Y100000D02*
D03*
Y88000D02*
D03*
D32*
X328000Y94000D02*
D03*
D33*
X47543Y78000D02*
X55400Y70143D01*
Y30600D02*
Y70143D01*
Y30600D02*
X78600Y7400D01*
X256000Y38000D02*
Y43900D01*
X247600Y52300D02*
X256000Y43900D01*
X247600Y52300D02*
Y62900D01*
X249400Y53100D02*
X257900Y44600D01*
X249400Y53100D02*
Y62100D01*
X259100Y46200D02*
X270600D01*
X256300Y49000D02*
X259100Y46200D01*
X256300Y49000D02*
Y52338D01*
X257900Y44600D02*
X263300D01*
X266000Y41900D01*
X270600Y46200D02*
X277700Y39100D01*
X262300Y57062D02*
Y62900D01*
X259119Y66082D02*
X262300Y62900D01*
X259119Y66082D02*
Y74920D01*
X261087Y66913D02*
X266800Y61200D01*
X261087Y66913D02*
Y74920D01*
X266800Y54563D02*
Y61200D01*
X255182Y67882D02*
Y74920D01*
X249400Y62100D02*
X255182Y67882D01*
X253213Y68513D02*
Y74920D01*
X247600Y62900D02*
X253213Y68513D01*
X266000Y38000D02*
Y41900D01*
X239600Y43800D02*
X245900Y50100D01*
X239600Y13800D02*
Y43800D01*
X277700Y28000D02*
Y39100D01*
X270400Y20700D02*
X277700Y28000D01*
X266800Y54563D02*
X284623Y36739D01*
X307017D01*
X289300Y20700D02*
Y29800D01*
X266762Y52338D02*
X289300Y29800D01*
X262300Y52338D02*
X266762D01*
X251244Y69744D02*
Y74920D01*
X245900Y64400D02*
X251244Y69744D01*
X245900Y50100D02*
Y64400D01*
X244300Y65700D02*
X249276Y70676D01*
X244300Y51200D02*
Y65700D01*
X234400Y41300D02*
X244300Y51200D01*
X249276Y70676D02*
Y74920D01*
X245339Y71739D02*
Y74920D01*
X242757Y69157D02*
X245339Y71739D01*
X18600Y78000D02*
X19300Y78700D01*
X18300Y77700D02*
X18600Y78000D01*
X234400Y12100D02*
Y41300D01*
X229700Y7400D02*
X234400Y12100D01*
X263700Y146000D02*
X279400D01*
X255182Y137481D02*
X263700Y146000D01*
X255182Y102480D02*
Y137481D01*
X253213Y138113D02*
X262800Y147700D01*
X253213Y102480D02*
Y138113D01*
X262800Y147700D02*
X278500D01*
X279400Y146000D02*
X290300Y156900D01*
X278500Y147700D02*
X285700Y154900D01*
X290300Y156900D02*
Y175700D01*
X232647Y36359D02*
X232700Y36306D01*
X255300Y20700D02*
X270400D01*
X284400Y63400D02*
X287671D01*
X273700Y74100D02*
X284400Y63400D01*
X273700Y74100D02*
Y80300D01*
X269600Y87716D02*
X269784Y87900D01*
X266079Y87716D02*
X269600D01*
X269784Y87900D02*
X278600D01*
X281400Y85100D01*
X266079Y85747D02*
X271753D01*
X270221Y83779D02*
X273700Y80300D01*
X266079Y83779D02*
X270221D01*
X277300Y102000D02*
X283638D01*
X270890Y95590D02*
X277300Y102000D01*
X266079Y95590D02*
X270890D01*
X276521Y108000D02*
X283638D01*
X266079Y97558D02*
X276521Y108000D01*
X281500Y76000D02*
X283638D01*
X284000Y85100D02*
Y92300D01*
X283638Y70000D02*
Y76000D01*
X287671Y63400D02*
X293024Y58047D01*
X219843Y60700D02*
Y69157D01*
X205896Y79796D02*
X207910Y81810D01*
X219843Y69157D02*
X242757D01*
X271800Y54300D02*
Y79200D01*
X269190Y81810D02*
X271800Y79200D01*
X269784Y89500D02*
X278600D01*
X281400Y92300D01*
X266079Y89684D02*
X269600D01*
X269784Y89500D01*
X307017Y36739D02*
X307256Y36500D01*
X310300D01*
X285700Y181100D02*
X290300Y185700D01*
X285700Y154900D02*
Y181100D01*
X250700Y12000D02*
X270600D01*
X245300Y17400D02*
X250700Y12000D01*
X245300Y17400D02*
Y20700D01*
X270600Y12000D02*
X279300Y20700D01*
X307017Y16661D02*
Y36739D01*
X267800Y74200D02*
Y78121D01*
X266079Y79842D02*
X267800Y78121D01*
X266079Y81810D02*
X269190D01*
X207910D02*
X238521D01*
X238479Y79800D02*
X239900D01*
X243371Y102480D02*
Y104630D01*
X233800Y114200D02*
X243371Y104630D01*
X243800Y113700D02*
X245339Y112161D01*
X240300Y114338D02*
X243162D01*
X245339Y102480D02*
Y112161D01*
X241650Y73200D02*
X243371Y74920D01*
X235379Y76700D02*
X238479Y79800D01*
X224800Y76700D02*
X235379D01*
X220662D02*
X224800D01*
X272300Y113692D02*
Y114338D01*
X261087Y102480D02*
X272300Y113692D01*
X187843Y86700D02*
X188300Y86243D01*
Y81700D02*
Y86243D01*
X202828Y124960D02*
X203087Y124700D01*
X257150Y57062D02*
Y74920D01*
X260300Y128338D02*
X265017D01*
X267379Y130700D01*
Y127279D02*
Y130700D01*
X257150Y117050D02*
X267379Y127279D01*
X257150Y102480D02*
Y117050D01*
X277221Y130700D02*
X279584Y128338D01*
X284300D01*
X259119Y112597D02*
X277221Y130700D01*
X259119Y102480D02*
Y112597D01*
X272938Y113700D02*
X280800D01*
X293024Y58047D02*
X294009Y57062D01*
X300300D01*
X291024Y58047D02*
X293024D01*
X282591Y52338D02*
X283576Y51354D01*
X266079Y93621D02*
Y95590D01*
Y91653D02*
Y93621D01*
X232284Y87716D02*
X238521D01*
X230300Y89700D02*
X232284Y87716D01*
X231300Y73200D02*
X241650D01*
X230300Y72200D02*
Y72700D01*
X206497Y124960D02*
X212757Y118700D01*
X202828Y124960D02*
X206497D01*
X207087Y48700D02*
X212757D01*
X202828Y52960D02*
X207087Y48700D01*
X219843D02*
Y54157D01*
X219800Y54200D02*
X219843Y54157D01*
X188300Y69200D02*
X219800D01*
X271800Y54300D02*
X273762Y52338D01*
X282591D01*
X219843Y104957D02*
X235100Y89700D01*
X238505D01*
X219843Y104957D02*
Y118700D01*
X193017Y41617D02*
X196000Y44600D01*
X193017Y38739D02*
Y41617D01*
X186300Y31062D02*
X192954D01*
X193017Y18661D02*
Y38739D01*
X178300Y31062D02*
Y35100D01*
X224300Y38400D02*
X224639Y38739D01*
X229583D01*
Y18661D02*
Y38739D01*
X228800Y39523D02*
X229583Y38739D01*
X228800Y39523D02*
Y52700D01*
X230300Y72200D02*
X231300Y73200D01*
X178538Y26100D02*
X182100D01*
X186062D01*
X182300Y45300D02*
X182372D01*
X78600Y7400D02*
X229700D01*
X70000Y70000D02*
Y85543D01*
X69543Y86000D02*
X70000Y85543D01*
X59500Y83043D02*
X62457Y86000D01*
X59500Y36800D02*
Y83043D01*
X280929Y76571D02*
X281500Y76000D01*
X271753Y85747D02*
X280929Y76571D01*
X226621Y83779D02*
X238521D01*
X224400Y86000D02*
X226621Y83779D01*
X220362Y86000D02*
X224400D01*
X228953Y85747D02*
X238521D01*
X222700Y92000D02*
X228953Y85747D01*
X220362Y92000D02*
X222700D01*
X215638D02*
Y96062D01*
X311100Y82300D02*
Y88300D01*
X311000Y88400D02*
X311100Y88300D01*
X308750Y88150D02*
X309000Y88400D01*
X308750Y80750D02*
Y88150D01*
Y80750D02*
X311800Y77700D01*
X210500Y87200D02*
X211700Y86000D01*
X215638D01*
X101200Y141100D02*
X128200Y168100D01*
X198600D01*
X210500Y156200D01*
X238800D01*
X249276Y102480D02*
Y145724D01*
X238800Y156200D02*
X249276Y145724D01*
X105400Y138900D02*
X132600Y166100D01*
X198337D01*
X209837Y154600D01*
X236700D01*
X247307Y143992D01*
Y102480D02*
Y143992D01*
X286600Y92300D02*
X293338D01*
X298362Y92000D02*
X306400D01*
Y94000D02*
Y96000D01*
Y97900D01*
X313000Y89400D02*
X315000D01*
X317600Y96000D02*
Y98000D01*
X308000Y107638D02*
X309000Y106638D01*
X313000D02*
X314000Y107638D01*
X311000Y96000D02*
Y100600D01*
X306400Y96000D02*
X311000D01*
X311300Y95700D02*
X312100Y94900D01*
X311000Y96000D02*
X311300Y95700D01*
X313000Y89400D02*
Y94000D01*
X312900Y94100D02*
X313000Y94000D01*
X313200Y96000D02*
X317600D01*
X308000Y112362D02*
X314000D01*
X317600Y94000D02*
X328000D01*
X240992Y174000D02*
X249638D01*
X220100D02*
X235008D01*
X1000Y100D02*
Y198900D01*
X353900D01*
Y200D02*
Y198900D01*
Y200D02*
X354000Y100D01*
X1000D02*
X354000D01*
D34*
X28700Y150000D02*
X32200Y146500D01*
Y130400D02*
Y146500D01*
Y130400D02*
X46600Y116000D01*
X18000Y150000D02*
X28700D01*
X46600Y100000D02*
Y116000D01*
X57800Y161000D02*
X94800D01*
X119500Y185700D01*
X154800Y69700D02*
X176800D01*
X18300Y43700D02*
X19543Y42457D01*
X40000D01*
X18300Y53700D02*
X35843D01*
X40000Y49543D01*
X60300Y130000D02*
X65400Y124900D01*
Y116000D02*
Y124900D01*
X180757Y86700D02*
Y98200D01*
X176800Y69700D02*
X182300Y64200D01*
X18300Y43700D02*
X18843Y43157D01*
X167980Y154320D02*
X182400Y139900D01*
X154370Y154320D02*
X167980D01*
X182300Y64200D02*
X193800D01*
X187843Y108700D02*
X194300D01*
X188343Y97700D02*
X194300D01*
X154370Y35080D02*
X168180D01*
X178400Y45300D01*
X182372D02*
X193772Y56700D01*
X154370Y107080D02*
X168590Y121300D01*
X186372D02*
X193772Y128700D01*
X168590Y121300D02*
X182300D01*
X185600Y139900D02*
X189920Y135580D01*
X210000Y172992D02*
X211008Y174000D01*
X308000Y107638D02*
X314000D01*
X294100Y113700D02*
Y147000D01*
Y113700D02*
X300162Y107638D01*
X308000D01*
X67300Y98200D02*
X180757D01*
Y108700D01*
X47500Y141100D02*
X51400Y137200D01*
X57600D01*
X60300Y134500D01*
Y130000D02*
Y134500D01*
X47500Y150305D02*
Y154000D01*
X56724Y149543D02*
Y158824D01*
X58600Y160700D01*
X216992Y174000D02*
X220100D01*
X119500Y185700D02*
X280300D01*
X210000Y172992D02*
Y185700D01*
D35*
X65400Y174000D02*
X71200D01*
X42000D02*
X46600D01*
X41100Y173100D02*
X42000Y174000D01*
X90000Y70000D02*
X106050Y53950D01*
Y36380D02*
Y53950D01*
X70000Y70000D02*
X90000D01*
D36*
X154400Y70100D02*
X154800Y69700D01*
X18600Y78000D02*
X40457D01*
X46528Y76984D02*
X47543Y78000D01*
X65400Y100000D02*
X65500Y99900D01*
X180757Y98200D02*
X180757Y98200D01*
X182400Y139900D02*
X185600D01*
X193800Y64200D02*
X194300Y64700D01*
X187843Y98200D02*
X188343Y97700D01*
X178400Y45300D02*
X182300D01*
Y121300D02*
X186372D01*
X280800Y113700D02*
X294100D01*
X56724Y142457D02*
X66181D01*
X66300Y142338D01*
X216992Y166630D02*
Y174000D01*
X216362Y166000D02*
X216992Y166630D01*
D37*
X309000Y100600D02*
Y106638D01*
X313000Y100600D02*
Y106638D01*
D38*
X70000Y70000D02*
D03*
X154070Y36380D02*
D03*
Y83620D02*
D03*
X106050Y36380D02*
D03*
Y83620D02*
D03*
X161950Y60000D02*
D03*
X154070Y108380D02*
D03*
Y155620D02*
D03*
X106050Y108380D02*
D03*
Y155620D02*
D03*
X161950Y132000D02*
D03*
D39*
X70000Y30000D02*
D03*
D40*
X18000Y130000D02*
D03*
X18300Y77700D02*
D03*
Y43700D02*
D03*
D41*
X18000Y140000D02*
D03*
Y150000D02*
D03*
X18300Y107700D02*
D03*
Y97700D02*
D03*
Y87700D02*
D03*
Y53700D02*
D03*
D42*
X40000Y16000D02*
D03*
D43*
X50000D02*
D03*
D44*
X266000Y38000D02*
D03*
X280300Y175700D02*
D03*
D45*
X256000Y38000D02*
D03*
X246000D02*
D03*
X280300Y185700D02*
D03*
X290300Y175700D02*
D03*
Y185700D02*
D03*
X300300Y175700D02*
D03*
Y185700D02*
D03*
X310300Y175700D02*
D03*
Y185700D02*
D03*
X320300Y175700D02*
D03*
Y185700D02*
D03*
D46*
X289300Y20700D02*
D03*
X255300D02*
D03*
D47*
X279300D02*
D03*
X245300D02*
D03*
D48*
X340300Y176700D02*
D03*
X18300Y14700D02*
D03*
X19100Y176700D02*
D03*
X340300Y14700D02*
D03*
D49*
X38000Y190000D02*
D03*
X324300Y54700D02*
D03*
D50*
X254331Y94605D02*
D03*
X250331D02*
D03*
X258206Y82794D02*
D03*
X254331D02*
D03*
X246394D02*
D03*
X258206Y86700D02*
D03*
X254331D02*
D03*
X246394Y86731D02*
D03*
Y94605D02*
D03*
X258206D02*
D03*
X250331Y86700D02*
D03*
Y82794D02*
D03*
Y90668D02*
D03*
X246394D02*
D03*
X254331D02*
D03*
X258206D02*
D03*
D51*
X312100Y94900D02*
D03*
D52*
X38700Y139500D02*
D03*
X38800Y134200D02*
D03*
X346500Y114500D02*
D03*
X335200Y114000D02*
D03*
X334700Y131300D02*
D03*
X325400Y144800D02*
D03*
X301700Y64100D02*
D03*
X294400Y97400D02*
D03*
X292900Y82800D02*
D03*
X309700Y72300D02*
D03*
X332000Y76200D02*
D03*
X323000Y69000D02*
D03*
X6000Y28600D02*
D03*
Y48400D02*
D03*
X6300Y75900D02*
D03*
X6000Y96900D02*
D03*
X6300Y123600D02*
D03*
X7100Y148000D02*
D03*
X54900Y75700D02*
D03*
X267300Y67100D02*
D03*
X53200Y5600D02*
D03*
X72000Y5300D02*
D03*
X12400Y163600D02*
D03*
X141200Y55200D02*
D03*
X87100Y34900D02*
D03*
X107600Y69600D02*
D03*
X43500Y67700D02*
D03*
X164500Y47100D02*
D03*
X103200Y126900D02*
D03*
X86900Y89000D02*
D03*
X114800Y32700D02*
D03*
X239600Y13800D02*
D03*
X47500Y154000D02*
D03*
X315100Y7800D02*
D03*
X294500Y7600D02*
D03*
X278100Y7100D02*
D03*
X260500Y7400D02*
D03*
X303700Y132700D02*
D03*
X223800Y147900D02*
D03*
X56400Y190100D02*
D03*
X347800Y92200D02*
D03*
X346600Y105800D02*
D03*
X78500Y151800D02*
D03*
X341500Y66600D02*
D03*
X301600Y80800D02*
D03*
X341900Y51100D02*
D03*
X315800Y62700D02*
D03*
X341700Y36200D02*
D03*
X301300Y73200D02*
D03*
X321400Y88400D02*
D03*
X324100Y124200D02*
D03*
X314100Y125100D02*
D03*
X332900Y66400D02*
D03*
X234300Y134600D02*
D03*
X345900Y123300D02*
D03*
X346200Y139700D02*
D03*
X321400Y156100D02*
D03*
X334300Y155600D02*
D03*
X313200Y140300D02*
D03*
X334300Y140800D02*
D03*
X341100Y76300D02*
D03*
X148100Y18700D02*
D03*
X142800Y67100D02*
D03*
X81300Y189600D02*
D03*
X139500Y155900D02*
D03*
X197200Y174600D02*
D03*
X92600Y152500D02*
D03*
X84100Y115700D02*
D03*
X33400Y116700D02*
D03*
X33000Y67800D02*
D03*
X50400Y87400D02*
D03*
X60200Y16800D02*
D03*
X304100Y44500D02*
D03*
X275400Y67900D02*
D03*
X283300Y43700D02*
D03*
X275500Y62900D02*
D03*
X228700Y104100D02*
D03*
X297300Y102200D02*
D03*
X275700Y94500D02*
D03*
X267900Y116800D02*
D03*
X263300Y110100D02*
D03*
X272100Y108900D02*
D03*
X268300Y105200D02*
D03*
X38600Y146100D02*
D03*
X173400Y174600D02*
D03*
X218500Y192000D02*
D03*
X267900Y192200D02*
D03*
X98400Y92100D02*
D03*
X244400Y192100D02*
D03*
X116600Y82000D02*
D03*
X142900Y174000D02*
D03*
X183000Y162500D02*
D03*
X190600Y155900D02*
D03*
X231000Y163600D02*
D03*
X174600Y191800D02*
D03*
X200300Y149600D02*
D03*
X263400Y163300D02*
D03*
X248900Y162600D02*
D03*
X249600Y153500D02*
D03*
X334700Y123200D02*
D03*
X215600Y136400D02*
D03*
X199800Y116500D02*
D03*
X199400Y79800D02*
D03*
X233500Y56800D02*
D03*
X233400Y64200D02*
D03*
X239600Y58700D02*
D03*
X240000Y64900D02*
D03*
X173000Y4100D02*
D03*
X118700Y17400D02*
D03*
X169900Y17700D02*
D03*
X143500Y190800D02*
D03*
X121700Y191000D02*
D03*
X119900Y172600D02*
D03*
X134900Y139800D02*
D03*
X236400Y102600D02*
D03*
X302200Y156600D02*
D03*
X345900Y155300D02*
D03*
X320600Y104700D02*
D03*
X348600Y76900D02*
D03*
X281100Y102000D02*
D03*
X280929Y76571D02*
D03*
X209900Y66100D02*
D03*
X206200Y72700D02*
D03*
X263600Y153000D02*
D03*
X310300Y36500D02*
D03*
X293000Y42600D02*
D03*
X245200Y7000D02*
D03*
X218700Y25900D02*
D03*
X201800Y25400D02*
D03*
X33500Y86800D02*
D03*
X33600Y103300D02*
D03*
X83600Y128600D02*
D03*
X29100Y28600D02*
D03*
X243800Y113700D02*
D03*
X224800Y76700D02*
D03*
X188300Y81700D02*
D03*
Y69200D02*
D03*
X194300Y64700D02*
D03*
X194300Y108700D02*
D03*
X194300Y97700D02*
D03*
X205896Y79796D02*
D03*
X280800Y113700D02*
D03*
X267800Y74200D02*
D03*
X230300Y89700D02*
D03*
X219800Y54200D02*
D03*
X230300Y72700D02*
D03*
X228800Y52700D02*
D03*
X209800Y76900D02*
D03*
X199600Y32500D02*
D03*
X223000Y32600D02*
D03*
X301300Y29300D02*
D03*
X272900Y140000D02*
D03*
X87500Y79800D02*
D03*
X41000Y31100D02*
D03*
X204500Y65900D02*
D03*
X229000Y118300D02*
D03*
X135800Y118200D02*
D03*
X140800Y83200D02*
D03*
X102600Y18200D02*
D03*
X138800Y34200D02*
D03*
X93500Y3700D02*
D03*
X205200Y107100D02*
D03*
X204200Y113500D02*
D03*
X137000Y3900D02*
D03*
X203200Y136600D02*
D03*
X196000Y44600D02*
D03*
X178300Y35100D02*
D03*
X224300Y38400D02*
D03*
X182100Y26100D02*
D03*
X189920Y135580D02*
D03*
X87300Y19200D02*
D03*
X59500Y36800D02*
D03*
X312900Y95700D02*
D03*
X311400Y94100D02*
D03*
X312900D02*
D03*
X311300Y95700D02*
D03*
X215638Y96062D02*
D03*
X311100Y82300D02*
D03*
X311800Y77700D02*
D03*
X210500Y87200D02*
D03*
X101200Y141100D02*
D03*
X105400Y138900D02*
D03*
X294100Y147000D02*
D03*
X47500Y141100D02*
D03*
X220100Y174000D02*
D03*
D53*
X71200D02*
D03*
X41100Y173100D02*
D03*
X154400Y70100D02*
D03*
M02*
