%FSLAX25Y25*%
%MOIN*%
G70*
G01*
G75*
G04 Layer_Physical_Order=2*
G04 Layer_Color=16711680*
%ADD10R,0.05500X0.07700*%
%ADD11R,0.04724X0.05512*%
%ADD12R,0.01400X0.04000*%
%ADD13R,0.05512X0.04724*%
%ADD14R,0.05906X0.04724*%
%ADD15R,0.02953X0.02362*%
%ADD16R,0.04000X0.03500*%
%ADD17R,0.03937X0.07087*%
%ADD18R,0.04724X0.03150*%
%ADD19R,0.02362X0.02953*%
%ADD20R,0.02362X0.07874*%
%ADD21R,0.05906X0.01969*%
%ADD22R,0.05906X0.02362*%
%ADD23R,0.05906X0.02480*%
%ADD24R,0.06000X0.07000*%
%ADD25R,0.07700X0.05500*%
%ADD26O,0.01180X0.05906*%
%ADD27O,0.05906X0.01180*%
%ADD28R,0.17716X0.17716*%
%ADD29R,0.01000X0.02600*%
%ADD30R,0.02600X0.01000*%
%ADD31R,0.08800X0.04200*%
%ADD32R,0.04000X0.04000*%
%ADD33C,0.01000*%
%ADD34C,0.04000*%
%ADD35C,0.08000*%
%ADD36C,0.02000*%
%ADD37C,0.01200*%
%ADD38C,0.08000*%
%ADD39R,0.08000X0.08000*%
%ADD40R,0.08000X0.06000*%
%ADD41O,0.08000X0.06000*%
%ADD42C,0.06000*%
%ADD43R,0.06000X0.06000*%
%ADD44R,0.05906X0.05906*%
%ADD45C,0.05906*%
%ADD46R,0.06000X0.08000*%
%ADD47O,0.06000X0.08000*%
%ADD48C,0.20000*%
%ADD49C,0.04000*%
%ADD50R,0.03000X0.03000*%
%ADD51R,0.05000X0.05000*%
%ADD52C,0.02500*%
%ADD53C,0.05000*%
%ADD54R,0.17700X0.17700*%
G36*
X353678Y1122D02*
X1122D01*
Y197778D01*
X36091D01*
X36164Y197284D01*
X35115Y196966D01*
X33811Y196269D01*
X32669Y195331D01*
X31731Y194189D01*
X31034Y192885D01*
X30606Y191471D01*
X30461Y190000D01*
X30606Y188529D01*
X31034Y187115D01*
X31731Y185811D01*
X32669Y184669D01*
X33811Y183731D01*
X35115Y183035D01*
X36529Y182605D01*
X38000Y182461D01*
X39471Y182605D01*
X40885Y183035D01*
X42189Y183731D01*
X43331Y184669D01*
X44269Y185811D01*
X44965Y187115D01*
X45395Y188529D01*
X45539Y190000D01*
X45395Y191471D01*
X44965Y192885D01*
X44269Y194189D01*
X43331Y195331D01*
X42189Y196269D01*
X40885Y196966D01*
X39836Y197284D01*
X39909Y197778D01*
X353678D01*
Y1122D01*
D02*
G37*
%LPC*%
G36*
X210900Y67657D02*
Y67100D01*
X211457D01*
X211234Y67434D01*
X210900Y67657D01*
D02*
G37*
G36*
X188300Y83586D02*
X187578Y83443D01*
X186966Y83034D01*
X186557Y82422D01*
X186414Y81700D01*
X186557Y80978D01*
X186966Y80366D01*
X187178Y80224D01*
Y70676D01*
X186966Y70534D01*
X186557Y69922D01*
X186414Y69200D01*
X186557Y68478D01*
X186966Y67866D01*
X187578Y67457D01*
X188300Y67314D01*
X189022Y67457D01*
X189634Y67866D01*
X190043Y68478D01*
X190186Y69200D01*
X190043Y69922D01*
X189634Y70534D01*
X189422Y70676D01*
Y80224D01*
X189634Y80366D01*
X190043Y80978D01*
X190186Y81700D01*
X190043Y82422D01*
X189634Y83034D01*
X189022Y83443D01*
X188300Y83586D01*
D02*
G37*
G36*
X154070Y88260D02*
X152869Y88102D01*
X151750Y87638D01*
X150789Y86901D01*
X150052Y85940D01*
X149588Y84821D01*
X149430Y83620D01*
X149588Y82419D01*
X150052Y81300D01*
X150789Y80339D01*
X151448Y79834D01*
Y71073D01*
X151380Y70909D01*
X151273Y70100D01*
X151380Y69291D01*
X151692Y68537D01*
X152189Y67889D01*
X152837Y67392D01*
X153591Y67080D01*
X154400Y66973D01*
X155209Y67080D01*
X155963Y67392D01*
X156611Y67889D01*
X157108Y68537D01*
X157420Y69291D01*
X157527Y70100D01*
X157420Y70909D01*
X157108Y71663D01*
X156692Y72205D01*
Y79834D01*
X157351Y80339D01*
X158088Y81300D01*
X158552Y82419D01*
X158710Y83620D01*
X158552Y84821D01*
X158088Y85940D01*
X157351Y86901D01*
X156390Y87638D01*
X155271Y88102D01*
X154070Y88260D01*
D02*
G37*
G36*
X208900Y67657D02*
X208566Y67434D01*
X208343Y67100D01*
X208900D01*
Y67657D01*
D02*
G37*
G36*
X331900Y67957D02*
X331566Y67734D01*
X331343Y67400D01*
X331900D01*
Y67957D01*
D02*
G37*
G36*
X340500Y68157D02*
X340166Y67934D01*
X339943Y67600D01*
X340500D01*
Y68157D01*
D02*
G37*
G36*
X342500D02*
Y67600D01*
X343057D01*
X342834Y67934D01*
X342500Y68157D01*
D02*
G37*
G36*
X324557Y68000D02*
X324000D01*
Y67443D01*
X324334Y67666D01*
X324557Y68000D01*
D02*
G37*
G36*
X333900Y67957D02*
Y67400D01*
X334457D01*
X334234Y67734D01*
X333900Y67957D01*
D02*
G37*
G36*
X322000Y68000D02*
X321443D01*
X321666Y67666D01*
X322000Y67443D01*
Y68000D01*
D02*
G37*
G36*
X45057Y66700D02*
X44500D01*
Y66143D01*
X44834Y66366D01*
X45057Y66700D01*
D02*
G37*
G36*
X32000Y66800D02*
X31443D01*
X31666Y66466D01*
X32000Y66243D01*
Y66800D01*
D02*
G37*
G36*
X42500Y66700D02*
X41943D01*
X42166Y66366D01*
X42500Y66143D01*
Y66700D01*
D02*
G37*
G36*
X239000Y66457D02*
X238666Y66234D01*
X238443Y65900D01*
X239000D01*
Y66457D01*
D02*
G37*
G36*
X241000D02*
Y65900D01*
X241557D01*
X241334Y66234D01*
X241000Y66457D01*
D02*
G37*
G36*
X203500Y67457D02*
X203166Y67234D01*
X202943Y66900D01*
X203500D01*
Y67457D01*
D02*
G37*
G36*
X205500D02*
Y66900D01*
X206057D01*
X205834Y67234D01*
X205500Y67457D01*
D02*
G37*
G36*
X276957Y66900D02*
X276400D01*
Y66343D01*
X276734Y66566D01*
X276957Y66900D01*
D02*
G37*
G36*
X34557Y66800D02*
X34000D01*
Y66243D01*
X34334Y66466D01*
X34557Y66800D01*
D02*
G37*
G36*
X274400Y66900D02*
X273843D01*
X274066Y66566D01*
X274400Y66343D01*
Y66900D01*
D02*
G37*
G36*
X106600Y71157D02*
X106266Y70934D01*
X106043Y70600D01*
X106600D01*
Y71157D01*
D02*
G37*
G36*
X108600D02*
Y70600D01*
X109157D01*
X108934Y70934D01*
X108600Y71157D01*
D02*
G37*
G36*
X324000Y70557D02*
Y70000D01*
X324557D01*
X324334Y70334D01*
X324000Y70557D01*
D02*
G37*
G36*
X276400Y69457D02*
Y68900D01*
X276957D01*
X276734Y69234D01*
X276400Y69457D01*
D02*
G37*
G36*
X322000Y70557D02*
X321666Y70334D01*
X321443Y70000D01*
X322000D01*
Y70557D01*
D02*
G37*
G36*
X207757Y71700D02*
X207200D01*
Y71143D01*
X207534Y71366D01*
X207757Y71700D01*
D02*
G37*
G36*
X300300Y72200D02*
X299743D01*
X299966Y71866D01*
X300300Y71643D01*
Y72200D01*
D02*
G37*
G36*
X205200Y71700D02*
X204643D01*
X204866Y71366D01*
X205200Y71143D01*
Y71700D01*
D02*
G37*
G36*
X308700Y71300D02*
X308143D01*
X308366Y70966D01*
X308700Y70743D01*
Y71300D01*
D02*
G37*
G36*
X311257D02*
X310700D01*
Y70743D01*
X311034Y70966D01*
X311257Y71300D01*
D02*
G37*
G36*
X274400Y69457D02*
X274066Y69234D01*
X273843Y68900D01*
X274400D01*
Y69457D01*
D02*
G37*
G36*
X143800Y68657D02*
Y68100D01*
X144357D01*
X144134Y68434D01*
X143800Y68657D01*
D02*
G37*
G36*
X266300D02*
X265966Y68434D01*
X265743Y68100D01*
X266300D01*
Y68657D01*
D02*
G37*
G36*
X141800D02*
X141466Y68434D01*
X141243Y68100D01*
X141800D01*
Y68657D01*
D02*
G37*
G36*
X106600Y68600D02*
X106043D01*
X106266Y68266D01*
X106600Y68043D01*
Y68600D01*
D02*
G37*
G36*
X109157D02*
X108600D01*
Y68043D01*
X108934Y68266D01*
X109157Y68600D01*
D02*
G37*
G36*
X32000Y69357D02*
X31666Y69134D01*
X31443Y68800D01*
X32000D01*
Y69357D01*
D02*
G37*
G36*
X34000D02*
Y68800D01*
X34557D01*
X34334Y69134D01*
X34000Y69357D01*
D02*
G37*
G36*
X44500Y69257D02*
Y68700D01*
X45057D01*
X44834Y69034D01*
X44500Y69257D01*
D02*
G37*
G36*
X268300Y68657D02*
Y68100D01*
X268857D01*
X268634Y68434D01*
X268300Y68657D01*
D02*
G37*
G36*
X42500Y69257D02*
X42166Y69034D01*
X41943Y68700D01*
X42500D01*
Y69257D01*
D02*
G37*
G36*
X277057Y61900D02*
X276500D01*
Y61343D01*
X276834Y61566D01*
X277057Y61900D01*
D02*
G37*
G36*
X194300Y100322D02*
X193621Y100233D01*
X192989Y99971D01*
X192446Y99554D01*
X192029Y99011D01*
X191767Y98379D01*
X191678Y97700D01*
Y64700D01*
X191767Y64021D01*
X192029Y63389D01*
X192446Y62846D01*
X192989Y62429D01*
X193621Y62167D01*
X194300Y62078D01*
X194979Y62167D01*
X195611Y62429D01*
X196154Y62846D01*
X196571Y63389D01*
X196833Y64021D01*
X196922Y64700D01*
Y97700D01*
X196833Y98379D01*
X196571Y99011D01*
X196154Y99554D01*
X195611Y99971D01*
X194979Y100233D01*
X194300Y100322D01*
D02*
G37*
G36*
X274500Y61900D02*
X273943D01*
X274166Y61566D01*
X274500Y61343D01*
Y61900D01*
D02*
G37*
G36*
X314800Y61700D02*
X314243D01*
X314466Y61366D01*
X314800Y61143D01*
Y61700D01*
D02*
G37*
G36*
X317357D02*
X316800D01*
Y61143D01*
X317134Y61366D01*
X317357Y61700D01*
D02*
G37*
G36*
X234957Y63200D02*
X234400D01*
Y62643D01*
X234734Y62866D01*
X234957Y63200D01*
D02*
G37*
G36*
X239000Y63900D02*
X238443D01*
X238666Y63566D01*
X239000Y63343D01*
Y63900D01*
D02*
G37*
G36*
X232400Y63200D02*
X231843D01*
X232066Y62866D01*
X232400Y62643D01*
Y63200D01*
D02*
G37*
G36*
X300700Y63100D02*
X300143D01*
X300366Y62766D01*
X300700Y62543D01*
Y63100D01*
D02*
G37*
G36*
X303257D02*
X302700D01*
Y62543D01*
X303034Y62766D01*
X303257Y63100D01*
D02*
G37*
G36*
X142200Y56757D02*
Y56200D01*
X142757D01*
X142534Y56534D01*
X142200Y56757D01*
D02*
G37*
G36*
X238600Y57700D02*
X238043D01*
X238266Y57366D01*
X238600Y57143D01*
Y57700D01*
D02*
G37*
G36*
X140200Y56757D02*
X139866Y56534D01*
X139643Y56200D01*
X140200D01*
Y56757D01*
D02*
G37*
G36*
X232500Y55800D02*
X231943D01*
X232166Y55466D01*
X232500Y55243D01*
Y55800D01*
D02*
G37*
G36*
X235057D02*
X234500D01*
Y55243D01*
X234834Y55466D01*
X235057Y55800D01*
D02*
G37*
G36*
X238600Y60257D02*
X238266Y60034D01*
X238043Y59700D01*
X238600D01*
Y60257D01*
D02*
G37*
G36*
X240600D02*
Y59700D01*
X241157D01*
X240934Y60034D01*
X240600Y60257D01*
D02*
G37*
G36*
X234500Y58357D02*
Y57800D01*
X235057D01*
X234834Y58134D01*
X234500Y58357D01*
D02*
G37*
G36*
X241157Y57700D02*
X240600D01*
Y57143D01*
X240934Y57366D01*
X241157Y57700D01*
D02*
G37*
G36*
X232500Y58357D02*
X232166Y58134D01*
X231943Y57800D01*
X232500D01*
Y58357D01*
D02*
G37*
G36*
X241557Y63900D02*
X241000D01*
Y63343D01*
X241334Y63566D01*
X241557Y63900D01*
D02*
G37*
G36*
X302700Y65657D02*
Y65100D01*
X303257D01*
X303034Y65434D01*
X302700Y65657D01*
D02*
G37*
G36*
X232400Y65757D02*
X232066Y65534D01*
X231843Y65200D01*
X232400D01*
Y65757D01*
D02*
G37*
G36*
X300700Y65657D02*
X300366Y65434D01*
X300143Y65100D01*
X300700D01*
Y65657D01*
D02*
G37*
G36*
X340500Y65600D02*
X339943D01*
X340166Y65266D01*
X340500Y65043D01*
Y65600D01*
D02*
G37*
G36*
X343057D02*
X342500D01*
Y65043D01*
X342834Y65266D01*
X343057Y65600D01*
D02*
G37*
G36*
X141800Y66100D02*
X141243D01*
X141466Y65766D01*
X141800Y65543D01*
Y66100D01*
D02*
G37*
G36*
X144357D02*
X143800D01*
Y65543D01*
X144134Y65766D01*
X144357Y66100D01*
D02*
G37*
G36*
X268857D02*
X268300D01*
Y65543D01*
X268634Y65766D01*
X268857Y66100D01*
D02*
G37*
G36*
X234400Y65757D02*
Y65200D01*
X234957D01*
X234734Y65534D01*
X234400Y65757D01*
D02*
G37*
G36*
X266300Y66100D02*
X265743D01*
X265966Y65766D01*
X266300Y65543D01*
Y66100D01*
D02*
G37*
G36*
X276500Y64457D02*
Y63900D01*
X277057D01*
X276834Y64234D01*
X276500Y64457D01*
D02*
G37*
G36*
X203500Y64900D02*
X202943D01*
X203166Y64566D01*
X203500Y64343D01*
Y64900D01*
D02*
G37*
G36*
X274500Y64457D02*
X274166Y64234D01*
X273943Y63900D01*
X274500D01*
Y64457D01*
D02*
G37*
G36*
X314800Y64257D02*
X314466Y64034D01*
X314243Y63700D01*
X314800D01*
Y64257D01*
D02*
G37*
G36*
X316800D02*
Y63700D01*
X317357D01*
X317134Y64034D01*
X316800Y64257D01*
D02*
G37*
G36*
X331900Y65400D02*
X331343D01*
X331566Y65066D01*
X331900Y64843D01*
Y65400D01*
D02*
G37*
G36*
X334457D02*
X333900D01*
Y64843D01*
X334234Y65066D01*
X334457Y65400D01*
D02*
G37*
G36*
X211457Y65100D02*
X210900D01*
Y64543D01*
X211234Y64766D01*
X211457Y65100D01*
D02*
G37*
G36*
X206057Y64900D02*
X205500D01*
Y64343D01*
X205834Y64566D01*
X206057Y64900D01*
D02*
G37*
G36*
X208900Y65100D02*
X208343D01*
X208566Y64766D01*
X208900Y64543D01*
Y65100D01*
D02*
G37*
G36*
X117600Y83557D02*
Y83000D01*
X118157D01*
X117934Y83334D01*
X117600Y83557D01*
D02*
G37*
G36*
X291900Y84357D02*
X291566Y84134D01*
X291343Y83800D01*
X291900D01*
Y84357D01*
D02*
G37*
G36*
X115600Y83557D02*
X115266Y83334D01*
X115043Y83000D01*
X115600D01*
Y83557D01*
D02*
G37*
G36*
X300600Y82357D02*
X300266Y82134D01*
X300043Y81800D01*
X300600D01*
Y82357D01*
D02*
G37*
G36*
X302600D02*
Y81800D01*
X303157D01*
X302934Y82134D01*
X302600Y82357D01*
D02*
G37*
G36*
X32500Y85800D02*
X31943D01*
X32166Y85466D01*
X32500Y85243D01*
Y85800D01*
D02*
G37*
G36*
X35057D02*
X34500D01*
Y85243D01*
X34834Y85466D01*
X35057Y85800D01*
D02*
G37*
G36*
X141800Y84757D02*
Y84200D01*
X142357D01*
X142134Y84534D01*
X141800Y84757D01*
D02*
G37*
G36*
X293900Y84357D02*
Y83800D01*
X294457D01*
X294234Y84134D01*
X293900Y84357D01*
D02*
G37*
G36*
X139800Y84757D02*
X139466Y84534D01*
X139243Y84200D01*
X139800D01*
Y84757D01*
D02*
G37*
G36*
X88500Y81357D02*
Y80800D01*
X89057D01*
X88834Y81134D01*
X88500Y81357D01*
D02*
G37*
G36*
X198400D02*
X198066Y81134D01*
X197843Y80800D01*
X198400D01*
Y81357D01*
D02*
G37*
G36*
X86500D02*
X86166Y81134D01*
X85943Y80800D01*
X86500D01*
Y81357D01*
D02*
G37*
G36*
X115600Y81000D02*
X115043D01*
X115266Y80666D01*
X115600Y80443D01*
Y81000D01*
D02*
G37*
G36*
X118157D02*
X117600D01*
Y80443D01*
X117934Y80666D01*
X118157Y81000D01*
D02*
G37*
G36*
X139800Y82200D02*
X139243D01*
X139466Y81866D01*
X139800Y81643D01*
Y82200D01*
D02*
G37*
G36*
X142357D02*
X141800D01*
Y81643D01*
X142134Y81866D01*
X142357Y82200D01*
D02*
G37*
G36*
X294457Y81800D02*
X293900D01*
Y81243D01*
X294234Y81466D01*
X294457Y81800D01*
D02*
G37*
G36*
X200400Y81357D02*
Y80800D01*
X200957D01*
X200734Y81134D01*
X200400Y81357D01*
D02*
G37*
G36*
X291900Y81800D02*
X291343D01*
X291566Y81466D01*
X291900Y81243D01*
Y81800D01*
D02*
G37*
G36*
X49400Y86400D02*
X48843D01*
X49066Y86066D01*
X49400Y85843D01*
Y86400D01*
D02*
G37*
G36*
X97400Y91100D02*
X96843D01*
X97066Y90766D01*
X97400Y90543D01*
Y91100D01*
D02*
G37*
G36*
X99957D02*
X99400D01*
Y90543D01*
X99734Y90766D01*
X99957Y91100D01*
D02*
G37*
G36*
X87900Y90557D02*
Y90000D01*
X88457D01*
X88234Y90334D01*
X87900Y90557D01*
D02*
G37*
G36*
X261850Y98150D02*
X253400D01*
Y89700D01*
X261850D01*
Y98150D01*
D02*
G37*
G36*
X85900Y90557D02*
X85566Y90334D01*
X85343Y90000D01*
X85900D01*
Y90557D01*
D02*
G37*
G36*
X315200Y93900D02*
X313100D01*
Y91800D01*
X315200D01*
Y93900D01*
D02*
G37*
G36*
X274700Y93500D02*
X274143D01*
X274366Y93166D01*
X274700Y92943D01*
Y93500D01*
D02*
G37*
G36*
X311100Y93900D02*
X309000D01*
Y91800D01*
X311100D01*
Y93900D01*
D02*
G37*
G36*
X346800Y91200D02*
X346243D01*
X346466Y90866D01*
X346800Y90643D01*
Y91200D01*
D02*
G37*
G36*
X349357D02*
X348800D01*
Y90643D01*
X349134Y90866D01*
X349357Y91200D01*
D02*
G37*
G36*
X88457Y88000D02*
X87900D01*
Y87443D01*
X88234Y87666D01*
X88457Y88000D01*
D02*
G37*
G36*
X32500Y88357D02*
X32166Y88134D01*
X31943Y87800D01*
X32500D01*
Y88357D01*
D02*
G37*
G36*
X85900Y88000D02*
X85343D01*
X85566Y87666D01*
X85900Y87443D01*
Y88000D01*
D02*
G37*
G36*
X51957Y86400D02*
X51400D01*
Y85843D01*
X51734Y86066D01*
X51957Y86400D01*
D02*
G37*
G36*
X320400Y87400D02*
X319843D01*
X320066Y87066D01*
X320400Y86843D01*
Y87400D01*
D02*
G37*
G36*
Y89957D02*
X320066Y89734D01*
X319843Y89400D01*
X320400D01*
Y89957D01*
D02*
G37*
G36*
X251400Y98150D02*
X242950D01*
Y89700D01*
X251400D01*
Y98150D01*
D02*
G37*
G36*
X51400Y88957D02*
Y88400D01*
X51957D01*
X51734Y88734D01*
X51400Y88957D01*
D02*
G37*
G36*
X34500Y88357D02*
Y87800D01*
X35057D01*
X34834Y88134D01*
X34500Y88357D01*
D02*
G37*
G36*
X49400Y88957D02*
X49066Y88734D01*
X48843Y88400D01*
X49400D01*
Y88957D01*
D02*
G37*
G36*
X333557Y75200D02*
X333000D01*
Y74643D01*
X333334Y74866D01*
X333557Y75200D01*
D02*
G37*
G36*
X340100Y75300D02*
X339543D01*
X339766Y74966D01*
X340100Y74743D01*
Y75300D01*
D02*
G37*
G36*
X331000Y75200D02*
X330443D01*
X330666Y74866D01*
X331000Y74643D01*
Y75200D01*
D02*
G37*
G36*
X5300Y74900D02*
X4743D01*
X4966Y74566D01*
X5300Y74343D01*
Y74900D01*
D02*
G37*
G36*
X7857D02*
X7300D01*
Y74343D01*
X7634Y74566D01*
X7857Y74900D01*
D02*
G37*
G36*
X347600Y75900D02*
X347043D01*
X347266Y75566D01*
X347600Y75343D01*
Y75900D01*
D02*
G37*
G36*
X350157D02*
X349600D01*
Y75343D01*
X349934Y75566D01*
X350157Y75900D01*
D02*
G37*
G36*
X211357D02*
X210800D01*
Y75343D01*
X211134Y75566D01*
X211357Y75900D01*
D02*
G37*
G36*
X342657Y75300D02*
X342100D01*
Y74743D01*
X342434Y74966D01*
X342657Y75300D01*
D02*
G37*
G36*
X208800Y75900D02*
X208243D01*
X208466Y75566D01*
X208800Y75343D01*
Y75900D01*
D02*
G37*
G36*
X205200Y74257D02*
X204866Y74034D01*
X204643Y73700D01*
X205200D01*
Y74257D01*
D02*
G37*
G36*
X207200D02*
Y73700D01*
X207757D01*
X207534Y74034D01*
X207200Y74257D01*
D02*
G37*
G36*
X310700Y73857D02*
Y73300D01*
X311257D01*
X311034Y73634D01*
X310700Y73857D01*
D02*
G37*
G36*
X302857Y72200D02*
X302300D01*
Y71643D01*
X302634Y71866D01*
X302857Y72200D01*
D02*
G37*
G36*
X308700Y73857D02*
X308366Y73634D01*
X308143Y73300D01*
X308700D01*
Y73857D01*
D02*
G37*
G36*
X300300Y74757D02*
X299966Y74534D01*
X299743Y74200D01*
X300300D01*
Y74757D01*
D02*
G37*
G36*
X302300D02*
Y74200D01*
X302857D01*
X302634Y74534D01*
X302300Y74757D01*
D02*
G37*
G36*
X56457Y74700D02*
X55900D01*
Y74143D01*
X56234Y74366D01*
X56457Y74700D01*
D02*
G37*
G36*
X22900Y81300D02*
X13700D01*
Y74100D01*
X22900D01*
Y81300D01*
D02*
G37*
G36*
X53900Y74700D02*
X53343D01*
X53566Y74366D01*
X53900Y74143D01*
Y74700D01*
D02*
G37*
G36*
Y77257D02*
X53566Y77034D01*
X53343Y76700D01*
X53900D01*
Y77257D01*
D02*
G37*
G36*
X200957Y78800D02*
X200400D01*
Y78243D01*
X200734Y78466D01*
X200957Y78800D01*
D02*
G37*
G36*
X86500D02*
X85943D01*
X86166Y78466D01*
X86500Y78243D01*
Y78800D01*
D02*
G37*
G36*
X198400D02*
X197843D01*
X198066Y78466D01*
X198400Y78243D01*
Y78800D01*
D02*
G37*
G36*
X349600Y78457D02*
Y77900D01*
X350157D01*
X349934Y78234D01*
X349600Y78457D01*
D02*
G37*
G36*
X205896Y81682D02*
X205174Y81539D01*
X204562Y81130D01*
X204153Y80518D01*
X204010Y79796D01*
X204060Y79546D01*
X200007Y75493D01*
X199764Y75129D01*
X199678Y74700D01*
X199678Y74700D01*
Y50165D01*
X196000Y46486D01*
X196000Y46486D01*
X195278Y46343D01*
X194666Y45934D01*
X194257Y45322D01*
X194114Y44600D01*
X194257Y43878D01*
X194666Y43266D01*
X195278Y42857D01*
X196000Y42714D01*
X196722Y42857D01*
X197334Y43266D01*
X197743Y43878D01*
X197886Y44600D01*
X197787Y45101D01*
X201593Y48907D01*
X201836Y49271D01*
X201922Y49700D01*
X201922Y49700D01*
Y74235D01*
X205646Y77960D01*
X205896Y77910D01*
X206618Y78053D01*
X207230Y78462D01*
X207639Y79074D01*
X207782Y79796D01*
X207639Y80518D01*
X207230Y81130D01*
X206618Y81539D01*
X205896Y81682D01*
D02*
G37*
G36*
X251400Y87700D02*
X242950D01*
Y79250D01*
X251400D01*
Y87700D01*
D02*
G37*
G36*
X261850D02*
X253400D01*
Y79250D01*
X261850D01*
Y87700D01*
D02*
G37*
G36*
X303157Y79800D02*
X302600D01*
Y79243D01*
X302934Y79466D01*
X303157Y79800D01*
D02*
G37*
G36*
X89057Y78800D02*
X88500D01*
Y78243D01*
X88834Y78466D01*
X89057Y78800D01*
D02*
G37*
G36*
X300600Y79800D02*
X300043D01*
X300266Y79466D01*
X300600Y79243D01*
Y79800D01*
D02*
G37*
G36*
X331000Y77757D02*
X330666Y77534D01*
X330443Y77200D01*
X331000D01*
Y77757D01*
D02*
G37*
G36*
X333000D02*
Y77200D01*
X333557D01*
X333334Y77534D01*
X333000Y77757D01*
D02*
G37*
G36*
X7300Y77457D02*
Y76900D01*
X7857D01*
X7634Y77234D01*
X7300Y77457D01*
D02*
G37*
G36*
X55900Y77257D02*
Y76700D01*
X56457D01*
X56234Y77034D01*
X55900Y77257D01*
D02*
G37*
G36*
X5300Y77457D02*
X4966Y77234D01*
X4743Y76900D01*
X5300D01*
Y77457D01*
D02*
G37*
G36*
X210800Y78457D02*
Y77900D01*
X211357D01*
X211134Y78234D01*
X210800Y78457D01*
D02*
G37*
G36*
X347600D02*
X347266Y78234D01*
X347043Y77900D01*
X347600D01*
Y78457D01*
D02*
G37*
G36*
X208800D02*
X208466Y78234D01*
X208243Y77900D01*
X208800D01*
Y78457D01*
D02*
G37*
G36*
X340100Y77857D02*
X339766Y77634D01*
X339543Y77300D01*
X340100D01*
Y77857D01*
D02*
G37*
G36*
X342100D02*
Y77300D01*
X342657D01*
X342434Y77634D01*
X342100Y77857D01*
D02*
G37*
G36*
X104157Y17200D02*
X103600D01*
Y16643D01*
X103934Y16866D01*
X104157Y17200D01*
D02*
G37*
G36*
X39000Y19482D02*
X38184Y19145D01*
X37433Y18567D01*
X36855Y17816D01*
X36518Y17000D01*
X39000D01*
Y19482D01*
D02*
G37*
G36*
X101600Y17200D02*
X101043D01*
X101266Y16866D01*
X101600Y16643D01*
Y17200D01*
D02*
G37*
G36*
X168900Y16700D02*
X168343D01*
X168566Y16366D01*
X168900Y16143D01*
Y16700D01*
D02*
G37*
G36*
X171457D02*
X170900D01*
Y16143D01*
X171234Y16366D01*
X171457Y16700D01*
D02*
G37*
G36*
X86300Y18200D02*
X85743D01*
X85966Y17866D01*
X86300Y17643D01*
Y18200D01*
D02*
G37*
G36*
X88857D02*
X88300D01*
Y17643D01*
X88634Y17866D01*
X88857Y18200D01*
D02*
G37*
G36*
X149657Y17700D02*
X149100D01*
Y17143D01*
X149434Y17366D01*
X149657Y17700D01*
D02*
G37*
G36*
X41000Y19482D02*
Y17000D01*
X43482D01*
X43145Y17816D01*
X42568Y18567D01*
X41816Y19145D01*
X41000Y19482D01*
D02*
G37*
G36*
X147100Y17700D02*
X146543D01*
X146766Y17366D01*
X147100Y17143D01*
Y17700D01*
D02*
G37*
G36*
X59200Y15800D02*
X58643D01*
X58866Y15466D01*
X59200Y15243D01*
Y15800D01*
D02*
G37*
G36*
X61757D02*
X61200D01*
Y15243D01*
X61534Y15466D01*
X61757Y15800D01*
D02*
G37*
G36*
X43482Y15000D02*
X41000D01*
Y12518D01*
X41816Y12855D01*
X42568Y13432D01*
X43145Y14185D01*
X43482Y15000D01*
D02*
G37*
G36*
X316100Y9357D02*
Y8800D01*
X316657D01*
X316434Y9134D01*
X316100Y9357D01*
D02*
G37*
G36*
X39000Y15000D02*
X36518D01*
X36855Y14185D01*
X37433Y13432D01*
X38184Y12855D01*
X39000Y12518D01*
Y15000D01*
D02*
G37*
G36*
X258900Y25300D02*
X251700D01*
Y16100D01*
X258900D01*
Y25300D01*
D02*
G37*
G36*
X292900D02*
X285700D01*
Y16100D01*
X292900D01*
Y25300D01*
D02*
G37*
G36*
X279300Y25331D02*
X278360Y25207D01*
X277484Y24845D01*
X276732Y24268D01*
X276155Y23516D01*
X275793Y22640D01*
X275669Y21700D01*
Y19700D01*
X275793Y18760D01*
X276155Y17885D01*
X276732Y17132D01*
X277484Y16555D01*
X278360Y16193D01*
X279300Y16069D01*
X280240Y16193D01*
X281116Y16555D01*
X281868Y17132D01*
X282445Y17885D01*
X282807Y18760D01*
X282931Y19700D01*
Y21700D01*
X282807Y22640D01*
X282445Y23516D01*
X281868Y24268D01*
X281116Y24845D01*
X280240Y25207D01*
X279300Y25331D01*
D02*
G37*
G36*
X117700Y16400D02*
X117143D01*
X117366Y16066D01*
X117700Y15843D01*
Y16400D01*
D02*
G37*
G36*
X120257D02*
X119700D01*
Y15843D01*
X120034Y16066D01*
X120257Y16400D01*
D02*
G37*
G36*
X59200Y18357D02*
X58866Y18134D01*
X58643Y17800D01*
X59200D01*
Y18357D01*
D02*
G37*
G36*
X217700Y24900D02*
X217143D01*
X217366Y24566D01*
X217700Y24343D01*
Y24900D01*
D02*
G37*
G36*
X220257D02*
X219700D01*
Y24343D01*
X220034Y24566D01*
X220257Y24900D01*
D02*
G37*
G36*
X203357Y24400D02*
X202800D01*
Y23843D01*
X203134Y24066D01*
X203357Y24400D01*
D02*
G37*
G36*
X88300Y20757D02*
Y20200D01*
X88857D01*
X88634Y20534D01*
X88300Y20757D01*
D02*
G37*
G36*
X200800Y24400D02*
X200243D01*
X200466Y24066D01*
X200800Y23843D01*
Y24400D01*
D02*
G37*
G36*
X202800Y26957D02*
Y26400D01*
X203357D01*
X203134Y26734D01*
X202800Y26957D01*
D02*
G37*
G36*
X217700Y27457D02*
X217366Y27234D01*
X217143Y26900D01*
X217700D01*
Y27457D01*
D02*
G37*
G36*
X200800Y26957D02*
X200466Y26734D01*
X200243Y26400D01*
X200800D01*
Y26957D01*
D02*
G37*
G36*
X69000Y29000D02*
X65400D01*
Y25400D01*
X69000D01*
Y29000D01*
D02*
G37*
G36*
X74600D02*
X71000D01*
Y25400D01*
X74600D01*
Y29000D01*
D02*
G37*
G36*
X168900Y19257D02*
X168566Y19034D01*
X168343Y18700D01*
X168900D01*
Y19257D01*
D02*
G37*
G36*
X170900D02*
Y18700D01*
X171457D01*
X171234Y19034D01*
X170900Y19257D01*
D02*
G37*
G36*
X119700Y18957D02*
Y18400D01*
X120257D01*
X120034Y18734D01*
X119700Y18957D01*
D02*
G37*
G36*
X61200Y18357D02*
Y17800D01*
X61757D01*
X61534Y18134D01*
X61200Y18357D01*
D02*
G37*
G36*
X117700Y18957D02*
X117366Y18734D01*
X117143Y18400D01*
X117700D01*
Y18957D01*
D02*
G37*
G36*
X149100Y20257D02*
Y19700D01*
X149657D01*
X149434Y20034D01*
X149100Y20257D01*
D02*
G37*
G36*
X86300Y20757D02*
X85966Y20534D01*
X85743Y20200D01*
X86300D01*
Y20757D01*
D02*
G37*
G36*
X147100Y20257D02*
X146766Y20034D01*
X146543Y19700D01*
X147100D01*
Y20257D01*
D02*
G37*
G36*
X101600Y19757D02*
X101266Y19534D01*
X101043Y19200D01*
X101600D01*
Y19757D01*
D02*
G37*
G36*
X103600D02*
Y19200D01*
X104157D01*
X103934Y19534D01*
X103600Y19757D01*
D02*
G37*
G36*
X94500Y5257D02*
Y4700D01*
X95057D01*
X94834Y5034D01*
X94500Y5257D01*
D02*
G37*
G36*
X136000Y5457D02*
X135666Y5234D01*
X135443Y4900D01*
X136000D01*
Y5457D01*
D02*
G37*
G36*
X92500Y5257D02*
X92166Y5034D01*
X91943Y4700D01*
X92500D01*
Y5257D01*
D02*
G37*
G36*
X18300Y25333D02*
X16637Y25202D01*
X15014Y24812D01*
X13473Y24174D01*
X12050Y23302D01*
X10781Y22219D01*
X9698Y20950D01*
X8826Y19527D01*
X8188Y17986D01*
X7798Y16363D01*
X7667Y14700D01*
X7798Y13037D01*
X8188Y11414D01*
X8826Y9873D01*
X9698Y8450D01*
X10781Y7181D01*
X12050Y6098D01*
X13473Y5226D01*
X15014Y4588D01*
X16637Y4198D01*
X18300Y4067D01*
X19963Y4198D01*
X21586Y4588D01*
X23127Y5226D01*
X24550Y6098D01*
X25818Y7181D01*
X26902Y8450D01*
X27774Y9873D01*
X28412Y11414D01*
X28802Y13037D01*
X28933Y14700D01*
X28802Y16363D01*
X28412Y17986D01*
X27774Y19527D01*
X26902Y20950D01*
X25818Y22219D01*
X24550Y23302D01*
X23127Y24174D01*
X21586Y24812D01*
X19963Y25202D01*
X18300Y25333D01*
D02*
G37*
G36*
X340300D02*
X338637Y25202D01*
X337014Y24812D01*
X335473Y24174D01*
X334050Y23302D01*
X332782Y22219D01*
X331698Y20950D01*
X330826Y19527D01*
X330188Y17986D01*
X329798Y16363D01*
X329667Y14700D01*
X329798Y13037D01*
X330188Y11414D01*
X330826Y9873D01*
X331698Y8450D01*
X332782Y7181D01*
X334050Y6098D01*
X335473Y5226D01*
X337014Y4588D01*
X338637Y4198D01*
X340300Y4067D01*
X341963Y4198D01*
X343586Y4588D01*
X345127Y5226D01*
X346550Y6098D01*
X347818Y7181D01*
X348902Y8450D01*
X349774Y9873D01*
X350412Y11414D01*
X350802Y13037D01*
X350933Y14700D01*
X350802Y16363D01*
X350412Y17986D01*
X349774Y19527D01*
X348902Y20950D01*
X347818Y22219D01*
X346550Y23302D01*
X345127Y24174D01*
X343586Y24812D01*
X341963Y25202D01*
X340300Y25333D01*
D02*
G37*
G36*
X244200Y6000D02*
X243643D01*
X243866Y5666D01*
X244200Y5443D01*
Y6000D01*
D02*
G37*
G36*
X246757D02*
X246200D01*
Y5443D01*
X246534Y5666D01*
X246757Y6000D01*
D02*
G37*
G36*
X174000Y5657D02*
Y5100D01*
X174557D01*
X174334Y5434D01*
X174000Y5657D01*
D02*
G37*
G36*
X138000Y5457D02*
Y4900D01*
X138557D01*
X138334Y5234D01*
X138000Y5457D01*
D02*
G37*
G36*
X172000Y5657D02*
X171666Y5434D01*
X171443Y5100D01*
X172000D01*
Y5657D01*
D02*
G37*
G36*
X138557Y2900D02*
X138000D01*
Y2343D01*
X138334Y2566D01*
X138557Y2900D01*
D02*
G37*
G36*
X172000Y3100D02*
X171443D01*
X171666Y2766D01*
X172000Y2543D01*
Y3100D01*
D02*
G37*
G36*
X136000Y2900D02*
X135443D01*
X135666Y2566D01*
X136000Y2343D01*
Y2900D01*
D02*
G37*
G36*
X92500Y2700D02*
X91943D01*
X92166Y2366D01*
X92500Y2143D01*
Y2700D01*
D02*
G37*
G36*
X95057D02*
X94500D01*
Y2143D01*
X94834Y2366D01*
X95057Y2700D01*
D02*
G37*
G36*
X52200Y4600D02*
X51643D01*
X51866Y4266D01*
X52200Y4043D01*
Y4600D01*
D02*
G37*
G36*
X54757D02*
X54200D01*
Y4043D01*
X54534Y4266D01*
X54757Y4600D01*
D02*
G37*
G36*
X73557Y4300D02*
X73000D01*
Y3743D01*
X73334Y3966D01*
X73557Y4300D01*
D02*
G37*
G36*
X174557Y3100D02*
X174000D01*
Y2543D01*
X174334Y2766D01*
X174557Y3100D01*
D02*
G37*
G36*
X71000Y4300D02*
X70443D01*
X70666Y3966D01*
X71000Y3743D01*
Y4300D01*
D02*
G37*
G36*
X277100Y6100D02*
X276543D01*
X276766Y5766D01*
X277100Y5543D01*
Y6100D01*
D02*
G37*
G36*
Y8657D02*
X276766Y8434D01*
X276543Y8100D01*
X277100D01*
Y8657D01*
D02*
G37*
G36*
X279100D02*
Y8100D01*
X279657D01*
X279434Y8434D01*
X279100Y8657D01*
D02*
G37*
G36*
X246200Y8557D02*
Y8000D01*
X246757D01*
X246534Y8334D01*
X246200Y8557D01*
D02*
G37*
G36*
X54200Y7157D02*
Y6600D01*
X54757D01*
X54534Y6934D01*
X54200Y7157D01*
D02*
G37*
G36*
X244200Y8557D02*
X243866Y8334D01*
X243643Y8000D01*
X244200D01*
Y8557D01*
D02*
G37*
G36*
X295500Y9157D02*
Y8600D01*
X296057D01*
X295834Y8934D01*
X295500Y9157D01*
D02*
G37*
G36*
X314100Y9357D02*
X313766Y9134D01*
X313543Y8800D01*
X314100D01*
Y9357D01*
D02*
G37*
G36*
X293500Y9157D02*
X293166Y8934D01*
X292943Y8600D01*
X293500D01*
Y9157D01*
D02*
G37*
G36*
X259500Y8957D02*
X259166Y8734D01*
X258943Y8400D01*
X259500D01*
Y8957D01*
D02*
G37*
G36*
X261500D02*
Y8400D01*
X262057D01*
X261834Y8734D01*
X261500Y8957D01*
D02*
G37*
G36*
X293500Y6600D02*
X292943D01*
X293166Y6266D01*
X293500Y6043D01*
Y6600D01*
D02*
G37*
G36*
X296057D02*
X295500D01*
Y6043D01*
X295834Y6266D01*
X296057Y6600D01*
D02*
G37*
G36*
X262057Y6400D02*
X261500D01*
Y5843D01*
X261834Y6066D01*
X262057Y6400D01*
D02*
G37*
G36*
X279657Y6100D02*
X279100D01*
Y5543D01*
X279434Y5766D01*
X279657Y6100D01*
D02*
G37*
G36*
X259500Y6400D02*
X258943D01*
X259166Y6066D01*
X259500Y5843D01*
Y6400D01*
D02*
G37*
G36*
X73000Y6857D02*
Y6300D01*
X73557D01*
X73334Y6634D01*
X73000Y6857D01*
D02*
G37*
G36*
X52200Y7157D02*
X51866Y6934D01*
X51643Y6600D01*
X52200D01*
Y7157D01*
D02*
G37*
G36*
X71000Y6857D02*
X70666Y6634D01*
X70443Y6300D01*
X71000D01*
Y6857D01*
D02*
G37*
G36*
X314100Y6800D02*
X313543D01*
X313766Y6466D01*
X314100Y6243D01*
Y6800D01*
D02*
G37*
G36*
X316657D02*
X316100D01*
Y6243D01*
X316434Y6466D01*
X316657Y6800D01*
D02*
G37*
G36*
X161950Y64640D02*
X160749Y64482D01*
X159630Y64018D01*
X158669Y63281D01*
X146128Y50740D01*
X25100D01*
X23899Y50582D01*
X22780Y50118D01*
X22363Y49798D01*
X21819Y49381D01*
X21819Y49381D01*
X20778Y48340D01*
X18300D01*
X17099Y48182D01*
X15980Y47718D01*
X15435Y47300D01*
X13700D01*
Y44001D01*
X13660Y43700D01*
X13700Y43398D01*
Y40100D01*
X15435D01*
X15980Y39682D01*
X17099Y39218D01*
X18300Y39060D01*
X22700D01*
X22700Y39060D01*
X23300Y39139D01*
X23901Y39218D01*
X24692Y39546D01*
X25020Y39682D01*
X25981Y40419D01*
X27022Y41460D01*
X105574D01*
X105607Y40961D01*
X104849Y40862D01*
X103730Y40398D01*
X102769Y39661D01*
X102032Y38700D01*
X101568Y37581D01*
X101410Y36380D01*
X101568Y35179D01*
X102032Y34060D01*
X102769Y33099D01*
X103730Y32362D01*
X104849Y31898D01*
X106050Y31740D01*
X107251Y31898D01*
X108370Y32362D01*
X109331Y33099D01*
X110068Y34060D01*
X110532Y35179D01*
X110690Y36380D01*
X110532Y37581D01*
X110068Y38700D01*
X109331Y39661D01*
X108370Y40398D01*
X107251Y40862D01*
X106493Y40961D01*
X106526Y41460D01*
X148050D01*
X148050Y41460D01*
X148650Y41539D01*
X149251Y41618D01*
X150042Y41946D01*
X150370Y42082D01*
X151331Y42819D01*
X165231Y56719D01*
X165968Y57680D01*
X166432Y58799D01*
X166590Y60000D01*
X166505Y60643D01*
X166432Y61201D01*
X166160Y61856D01*
X165968Y62320D01*
X165231Y63281D01*
X164270Y64018D01*
X163806Y64210D01*
X163151Y64482D01*
X162593Y64555D01*
X161950Y64640D01*
D02*
G37*
G36*
X282300Y42700D02*
X281743D01*
X281966Y42366D01*
X282300Y42143D01*
Y42700D01*
D02*
G37*
G36*
X294557Y41600D02*
X294000D01*
Y41043D01*
X294334Y41266D01*
X294557Y41600D01*
D02*
G37*
G36*
X247000Y41431D02*
Y39000D01*
X249431D01*
X249103Y39792D01*
X248534Y40534D01*
X247792Y41103D01*
X247000Y41431D01*
D02*
G37*
G36*
X292000Y41600D02*
X291443D01*
X291666Y41266D01*
X292000Y41043D01*
Y41600D01*
D02*
G37*
G36*
Y44157D02*
X291666Y43934D01*
X291443Y43600D01*
X292000D01*
Y44157D01*
D02*
G37*
G36*
X294000D02*
Y43600D01*
X294557D01*
X294334Y43934D01*
X294000Y44157D01*
D02*
G37*
G36*
X305657Y43500D02*
X305100D01*
Y42943D01*
X305434Y43166D01*
X305657Y43500D01*
D02*
G37*
G36*
X284857Y42700D02*
X284300D01*
Y42143D01*
X284634Y42366D01*
X284857Y42700D01*
D02*
G37*
G36*
X303100Y43500D02*
X302543D01*
X302766Y43166D01*
X303100Y42943D01*
Y43500D01*
D02*
G37*
G36*
X139800Y35757D02*
Y35200D01*
X140357D01*
X140134Y35534D01*
X139800Y35757D01*
D02*
G37*
G36*
X86100Y36457D02*
X85766Y36234D01*
X85543Y35900D01*
X86100D01*
Y36457D01*
D02*
G37*
G36*
X137800Y35757D02*
X137466Y35534D01*
X137243Y35200D01*
X137800D01*
Y35757D01*
D02*
G37*
G36*
X343257Y35200D02*
X342700D01*
Y34643D01*
X343034Y34866D01*
X343257Y35200D01*
D02*
G37*
G36*
X59500Y38686D02*
X58778Y38543D01*
X58166Y38134D01*
X57757Y37522D01*
X57614Y36800D01*
X57664Y36550D01*
X49207Y28093D01*
X48964Y27729D01*
X48878Y27300D01*
X48878Y27300D01*
Y19600D01*
X46400D01*
Y12400D01*
X52014D01*
X54207Y10207D01*
X54207Y10207D01*
X54571Y9964D01*
X54571Y9964D01*
X54571Y9964D01*
D01*
X54571Y9964D01*
X54571Y9964D01*
X55000Y9878D01*
X55000Y9878D01*
X236800D01*
X236800Y9878D01*
X237229Y9964D01*
X237593Y10207D01*
X239350Y11964D01*
X239600Y11914D01*
X240322Y12057D01*
X240934Y12466D01*
X241343Y13078D01*
X241486Y13800D01*
X241343Y14522D01*
X240934Y15134D01*
X240322Y15543D01*
X239600Y15686D01*
X238878Y15543D01*
X238266Y15134D01*
X237857Y14522D01*
X237714Y13800D01*
X237764Y13550D01*
X236335Y12122D01*
X55465D01*
X53600Y13986D01*
Y19600D01*
X51122D01*
Y26835D01*
X59250Y34964D01*
X59500Y34914D01*
X60222Y35057D01*
X60834Y35466D01*
X61243Y36078D01*
X61386Y36800D01*
X61243Y37522D01*
X60834Y38134D01*
X60222Y38543D01*
X59500Y38686D01*
D02*
G37*
G36*
X342700Y37757D02*
Y37200D01*
X343257D01*
X343034Y37534D01*
X342700Y37757D01*
D02*
G37*
G36*
X245000Y41431D02*
X244208Y41103D01*
X243466Y40534D01*
X242897Y39792D01*
X242569Y39000D01*
X245000D01*
Y41431D01*
D02*
G37*
G36*
X340700Y37757D02*
X340366Y37534D01*
X340143Y37200D01*
X340700D01*
Y37757D01*
D02*
G37*
G36*
X88100Y36457D02*
Y35900D01*
X88657D01*
X88434Y36234D01*
X88100Y36457D01*
D02*
G37*
G36*
X224300Y40286D02*
X223578Y40143D01*
X222966Y39734D01*
X222824Y39522D01*
X181600D01*
X181171Y39436D01*
X180807Y39193D01*
X180807Y39193D01*
X178550Y36937D01*
X178300Y36986D01*
X177578Y36843D01*
X176966Y36434D01*
X176557Y35822D01*
X176414Y35100D01*
X176557Y34378D01*
X176966Y33766D01*
X177578Y33357D01*
X178300Y33214D01*
X179022Y33357D01*
X179634Y33766D01*
X180043Y34378D01*
X180186Y35100D01*
X180136Y35350D01*
X182065Y37278D01*
X222824D01*
X222966Y37066D01*
X223578Y36657D01*
X224300Y36514D01*
X225022Y36657D01*
X225634Y37066D01*
X226043Y37678D01*
X226186Y38400D01*
X226043Y39122D01*
X225634Y39734D01*
X225022Y40143D01*
X224300Y40286D01*
D02*
G37*
G36*
X282300Y45257D02*
X281966Y45034D01*
X281743Y44700D01*
X282300D01*
Y45257D01*
D02*
G37*
G36*
X343457Y50100D02*
X342900D01*
Y49543D01*
X343234Y49766D01*
X343457Y50100D01*
D02*
G37*
G36*
X230300Y74586D02*
X229578Y74443D01*
X228966Y74034D01*
X228557Y73422D01*
X228414Y72700D01*
X228547Y72033D01*
X228007Y71493D01*
X227764Y71129D01*
X227678Y70700D01*
X227678Y70700D01*
Y54176D01*
X227466Y54034D01*
X227057Y53422D01*
X226914Y52700D01*
X227057Y51978D01*
X227466Y51366D01*
X228078Y50957D01*
X228800Y50814D01*
X229522Y50957D01*
X230134Y51366D01*
X230543Y51978D01*
X230686Y52700D01*
X230543Y53422D01*
X230134Y54034D01*
X229922Y54176D01*
Y70235D01*
X230550Y70863D01*
X231022Y70957D01*
X231634Y71366D01*
X232043Y71978D01*
X232186Y72700D01*
X232043Y73422D01*
X231634Y74034D01*
X231022Y74443D01*
X230300Y74586D01*
D02*
G37*
G36*
X340900Y50100D02*
X340343D01*
X340566Y49766D01*
X340900Y49543D01*
Y50100D01*
D02*
G37*
G36*
X5000Y49957D02*
X4666Y49734D01*
X4443Y49400D01*
X5000D01*
Y49957D01*
D02*
G37*
G36*
X7000D02*
Y49400D01*
X7557D01*
X7334Y49734D01*
X7000Y49957D01*
D02*
G37*
G36*
X140200Y54200D02*
X139643D01*
X139866Y53866D01*
X140200Y53643D01*
Y54200D01*
D02*
G37*
G36*
X142757D02*
X142200D01*
Y53643D01*
X142534Y53866D01*
X142757Y54200D01*
D02*
G37*
G36*
X342900Y52657D02*
Y52100D01*
X343457D01*
X343234Y52434D01*
X342900Y52657D01*
D02*
G37*
G36*
X161950Y136640D02*
X160749Y136482D01*
X159630Y136018D01*
X158669Y135281D01*
X157932Y134320D01*
X157468Y133201D01*
X157359Y132371D01*
X129519Y104531D01*
X128782Y103570D01*
X128646Y103242D01*
X128318Y102451D01*
X128239Y101850D01*
X128160Y101250D01*
X128160Y101250D01*
Y70522D01*
X118978Y61340D01*
X21300D01*
X20099Y61182D01*
X19308Y60854D01*
X18980Y60718D01*
X18019Y59981D01*
X15019Y56981D01*
X14282Y56020D01*
X13818Y54901D01*
X13660Y53700D01*
X13818Y52499D01*
X14282Y51380D01*
X15019Y50419D01*
X15980Y49682D01*
X17099Y49218D01*
X18300Y49060D01*
X19501Y49218D01*
X20620Y49682D01*
X21581Y50419D01*
X23222Y52060D01*
X120900D01*
X120900Y52060D01*
X121500Y52139D01*
X122101Y52218D01*
X122892Y52546D01*
X123220Y52682D01*
X124181Y53419D01*
X136081Y65319D01*
X136818Y66280D01*
X137010Y66744D01*
X137282Y67399D01*
X137440Y68600D01*
Y99328D01*
X166006Y127894D01*
X166743Y128855D01*
X167207Y129974D01*
X167365Y131175D01*
X167207Y132376D01*
X166743Y133495D01*
X166006Y134456D01*
X165661Y134721D01*
X165231Y135281D01*
X164270Y136018D01*
X163151Y136482D01*
X161950Y136640D01*
D02*
G37*
G36*
X340900Y52657D02*
X340566Y52434D01*
X340343Y52100D01*
X340900D01*
Y52657D01*
D02*
G37*
G36*
X163500Y46100D02*
X162943D01*
X163166Y45766D01*
X163500Y45543D01*
Y46100D01*
D02*
G37*
G36*
X166057D02*
X165500D01*
Y45543D01*
X165834Y45766D01*
X166057Y46100D01*
D02*
G37*
G36*
X305100Y46057D02*
Y45500D01*
X305657D01*
X305434Y45834D01*
X305100Y46057D01*
D02*
G37*
G36*
X284300Y45257D02*
Y44700D01*
X284857D01*
X284634Y45034D01*
X284300Y45257D01*
D02*
G37*
G36*
X303100Y46057D02*
X302766Y45834D01*
X302543Y45500D01*
X303100D01*
Y46057D01*
D02*
G37*
G36*
X163500Y48657D02*
X163166Y48434D01*
X162943Y48100D01*
X163500D01*
Y48657D01*
D02*
G37*
G36*
X165500D02*
Y48100D01*
X166057D01*
X165834Y48434D01*
X165500Y48657D01*
D02*
G37*
G36*
X324300Y62239D02*
X322829Y62095D01*
X321415Y61665D01*
X320111Y60969D01*
X318969Y60031D01*
X318031Y58889D01*
X317335Y57585D01*
X316905Y56171D01*
X316761Y54700D01*
X316905Y53229D01*
X317335Y51815D01*
X318031Y50511D01*
X318969Y49369D01*
X320111Y48431D01*
X321415Y47734D01*
X322829Y47306D01*
X324300Y47161D01*
X325771Y47306D01*
X327185Y47734D01*
X328489Y48431D01*
X329631Y49369D01*
X330569Y50511D01*
X331265Y51815D01*
X331695Y53229D01*
X331839Y54700D01*
X331695Y56171D01*
X331265Y57585D01*
X330569Y58889D01*
X329631Y60031D01*
X328489Y60969D01*
X327185Y61665D01*
X325771Y62095D01*
X324300Y62239D01*
D02*
G37*
G36*
X5000Y47400D02*
X4443D01*
X4666Y47066D01*
X5000Y46843D01*
Y47400D01*
D02*
G37*
G36*
X7557D02*
X7000D01*
Y46843D01*
X7334Y47066D01*
X7557Y47400D01*
D02*
G37*
G36*
X300300Y30857D02*
X299966Y30634D01*
X299743Y30300D01*
X300300D01*
Y30857D01*
D02*
G37*
G36*
X302300D02*
Y30300D01*
X302857D01*
X302634Y30634D01*
X302300Y30857D01*
D02*
G37*
G36*
X30100Y30157D02*
Y29600D01*
X30657D01*
X30434Y29934D01*
X30100Y30157D01*
D02*
G37*
G36*
X7000D02*
Y29600D01*
X7557D01*
X7334Y29934D01*
X7000Y30157D01*
D02*
G37*
G36*
X28100D02*
X27766Y29934D01*
X27543Y29600D01*
X28100D01*
Y30157D01*
D02*
G37*
G36*
X74600Y34600D02*
X71000D01*
Y31000D01*
X74600D01*
Y34600D01*
D02*
G37*
G36*
X222000Y31600D02*
X221443D01*
X221666Y31266D01*
X222000Y31043D01*
Y31600D01*
D02*
G37*
G36*
X69000Y34600D02*
X65400D01*
Y31000D01*
X69000D01*
Y34600D01*
D02*
G37*
G36*
X198600Y31500D02*
X198043D01*
X198266Y31166D01*
X198600Y30943D01*
Y31500D01*
D02*
G37*
G36*
X201157D02*
X200600D01*
Y30943D01*
X200934Y31166D01*
X201157Y31500D01*
D02*
G37*
G36*
X28100Y27600D02*
X27543D01*
X27766Y27266D01*
X28100Y27043D01*
Y27600D01*
D02*
G37*
G36*
X30657D02*
X30100D01*
Y27043D01*
X30434Y27266D01*
X30657Y27600D01*
D02*
G37*
G36*
X7557D02*
X7000D01*
Y27043D01*
X7334Y27266D01*
X7557Y27600D01*
D02*
G37*
G36*
X219700Y27457D02*
Y26900D01*
X220257D01*
X220034Y27234D01*
X219700Y27457D01*
D02*
G37*
G36*
X5000Y27600D02*
X4443D01*
X4666Y27266D01*
X5000Y27043D01*
Y27600D01*
D02*
G37*
G36*
X42557Y30100D02*
X42000D01*
Y29543D01*
X42334Y29766D01*
X42557Y30100D01*
D02*
G37*
G36*
X5000Y30157D02*
X4666Y29934D01*
X4443Y29600D01*
X5000D01*
Y30157D01*
D02*
G37*
G36*
X40000Y30100D02*
X39443D01*
X39666Y29766D01*
X40000Y29543D01*
Y30100D01*
D02*
G37*
G36*
X300300Y28300D02*
X299743D01*
X299966Y27966D01*
X300300Y27743D01*
Y28300D01*
D02*
G37*
G36*
X302857D02*
X302300D01*
Y27743D01*
X302634Y27966D01*
X302857Y28300D01*
D02*
G37*
G36*
X224557Y31600D02*
X224000D01*
Y31043D01*
X224334Y31266D01*
X224557Y31600D01*
D02*
G37*
G36*
X113800Y34257D02*
X113466Y34034D01*
X113243Y33700D01*
X113800D01*
Y34257D01*
D02*
G37*
G36*
X115800D02*
Y33700D01*
X116357D01*
X116134Y34034D01*
X115800Y34257D01*
D02*
G37*
G36*
X224000Y34157D02*
Y33600D01*
X224557D01*
X224334Y33934D01*
X224000Y34157D01*
D02*
G37*
G36*
X200600Y34057D02*
Y33500D01*
X201157D01*
X200934Y33834D01*
X200600Y34057D01*
D02*
G37*
G36*
X222000Y34157D02*
X221666Y33934D01*
X221443Y33600D01*
X222000D01*
Y34157D01*
D02*
G37*
G36*
X249431Y37000D02*
X247000D01*
Y34569D01*
X247792Y34897D01*
X248534Y35466D01*
X249103Y36208D01*
X249431Y37000D01*
D02*
G37*
G36*
X340700Y35200D02*
X340143D01*
X340366Y34866D01*
X340700Y34643D01*
Y35200D01*
D02*
G37*
G36*
X245000Y37000D02*
X242569D01*
X242897Y36208D01*
X243466Y35466D01*
X244208Y34897D01*
X245000Y34569D01*
Y37000D01*
D02*
G37*
G36*
X256000Y41583D02*
X255073Y41461D01*
X254208Y41103D01*
X253466Y40534D01*
X252897Y39792D01*
X252539Y38927D01*
X252417Y38000D01*
X252539Y37073D01*
X252897Y36208D01*
X253466Y35466D01*
X254208Y34897D01*
X255073Y34539D01*
X256000Y34417D01*
X256927Y34539D01*
X257792Y34897D01*
X258534Y35466D01*
X259103Y36208D01*
X259461Y37073D01*
X259583Y38000D01*
X259461Y38927D01*
X259103Y39792D01*
X258534Y40534D01*
X257792Y41103D01*
X256927Y41461D01*
X256000Y41583D01*
D02*
G37*
G36*
X269553Y41553D02*
X262447D01*
Y34447D01*
X269553D01*
Y41553D01*
D02*
G37*
G36*
X40000Y32657D02*
X39666Y32434D01*
X39443Y32100D01*
X40000D01*
Y32657D01*
D02*
G37*
G36*
X42000D02*
Y32100D01*
X42557D01*
X42334Y32434D01*
X42000Y32657D01*
D02*
G37*
G36*
X154070Y41020D02*
X152869Y40862D01*
X151750Y40398D01*
X150789Y39661D01*
X150052Y38700D01*
X149588Y37581D01*
X149430Y36380D01*
X149588Y35179D01*
X150052Y34060D01*
X150789Y33099D01*
X151750Y32362D01*
X152869Y31898D01*
X154070Y31740D01*
X155271Y31898D01*
X156390Y32362D01*
X157351Y33099D01*
X158088Y34060D01*
X158552Y35179D01*
X158710Y36380D01*
X158552Y37581D01*
X158088Y38700D01*
X157351Y39661D01*
X156390Y40398D01*
X155271Y40862D01*
X154070Y41020D01*
D02*
G37*
G36*
X113800Y31700D02*
X113243D01*
X113466Y31366D01*
X113800Y31143D01*
Y31700D01*
D02*
G37*
G36*
X116357D02*
X115800D01*
Y31143D01*
X116134Y31366D01*
X116357Y31700D01*
D02*
G37*
G36*
X88657Y33900D02*
X88100D01*
Y33343D01*
X88434Y33566D01*
X88657Y33900D01*
D02*
G37*
G36*
X198600Y34057D02*
X198266Y33834D01*
X198043Y33500D01*
X198600D01*
Y34057D01*
D02*
G37*
G36*
X86100Y33900D02*
X85543D01*
X85766Y33566D01*
X86100Y33343D01*
Y33900D01*
D02*
G37*
G36*
X137800Y33200D02*
X137243D01*
X137466Y32866D01*
X137800Y32643D01*
Y33200D01*
D02*
G37*
G36*
X140357D02*
X139800D01*
Y32643D01*
X140134Y32866D01*
X140357Y33200D01*
D02*
G37*
G36*
X344900Y154300D02*
X344343D01*
X344566Y153966D01*
X344900Y153743D01*
Y154300D01*
D02*
G37*
G36*
X347457D02*
X346900D01*
Y153743D01*
X347234Y153966D01*
X347457Y154300D01*
D02*
G37*
G36*
X93600Y154057D02*
Y153500D01*
X94157D01*
X93934Y153834D01*
X93600Y154057D01*
D02*
G37*
G36*
X79500Y153357D02*
Y152800D01*
X80057D01*
X79834Y153134D01*
X79500Y153357D01*
D02*
G37*
G36*
X91600Y154057D02*
X91266Y153834D01*
X91043Y153500D01*
X91600D01*
Y154057D01*
D02*
G37*
G36*
X335857Y154600D02*
X335300D01*
Y154043D01*
X335634Y154266D01*
X335857Y154600D01*
D02*
G37*
G36*
X189600Y154900D02*
X189043D01*
X189266Y154566D01*
X189600Y154343D01*
Y154900D01*
D02*
G37*
G36*
X333300Y154600D02*
X332743D01*
X332966Y154266D01*
X333300Y154043D01*
Y154600D01*
D02*
G37*
G36*
X262600Y154557D02*
X262266Y154334D01*
X262043Y154000D01*
X262600D01*
Y154557D01*
D02*
G37*
G36*
X264600D02*
Y154000D01*
X265157D01*
X264934Y154334D01*
X264600Y154557D01*
D02*
G37*
G36*
X94157Y151500D02*
X93600D01*
Y150943D01*
X93934Y151166D01*
X94157Y151500D01*
D02*
G37*
G36*
X154070Y160260D02*
X152869Y160102D01*
X151750Y159638D01*
X150789Y158901D01*
X150052Y157940D01*
X149588Y156821D01*
X149430Y155620D01*
X149588Y154419D01*
X150052Y153300D01*
X150789Y152339D01*
X151750Y151602D01*
X152869Y151138D01*
X154070Y150980D01*
X155271Y151138D01*
X156390Y151602D01*
X157351Y152339D01*
X158088Y153300D01*
X158552Y154419D01*
X158710Y155620D01*
X158552Y156821D01*
X158088Y157940D01*
X157351Y158901D01*
X156390Y159638D01*
X155271Y160102D01*
X154070Y160260D01*
D02*
G37*
G36*
X91600Y151500D02*
X91043D01*
X91266Y151166D01*
X91600Y150943D01*
Y151500D01*
D02*
G37*
G36*
X199300Y151157D02*
X198966Y150934D01*
X198743Y150600D01*
X199300D01*
Y151157D01*
D02*
G37*
G36*
X201300D02*
Y150600D01*
X201857D01*
X201634Y150934D01*
X201300Y151157D01*
D02*
G37*
G36*
X251157Y152500D02*
X250600D01*
Y151943D01*
X250934Y152166D01*
X251157Y152500D01*
D02*
G37*
G36*
X77500Y153357D02*
X77166Y153134D01*
X76943Y152800D01*
X77500D01*
Y153357D01*
D02*
G37*
G36*
X248600Y152500D02*
X248043D01*
X248266Y152166D01*
X248600Y151943D01*
Y152500D01*
D02*
G37*
G36*
X262600Y152000D02*
X262043D01*
X262266Y151666D01*
X262600Y151443D01*
Y152000D01*
D02*
G37*
G36*
X265157D02*
X264600D01*
Y151443D01*
X264934Y151666D01*
X265157Y152000D01*
D02*
G37*
G36*
X192157Y154900D02*
X191600D01*
Y154343D01*
X191934Y154566D01*
X192157Y154900D01*
D02*
G37*
G36*
X140500Y157457D02*
Y156900D01*
X141057D01*
X140834Y157234D01*
X140500Y157457D01*
D02*
G37*
G36*
X189600D02*
X189266Y157234D01*
X189043Y156900D01*
X189600D01*
Y157457D01*
D02*
G37*
G36*
X138500D02*
X138166Y157234D01*
X137943Y156900D01*
X138500D01*
Y157457D01*
D02*
G37*
G36*
X333300Y157157D02*
X332966Y156934D01*
X332743Y156600D01*
X333300D01*
Y157157D01*
D02*
G37*
G36*
X335300D02*
Y156600D01*
X335857D01*
X335634Y156934D01*
X335300Y157157D01*
D02*
G37*
G36*
X301200Y158157D02*
X300866Y157934D01*
X300643Y157600D01*
X301200D01*
Y158157D01*
D02*
G37*
G36*
X303200D02*
Y157600D01*
X303757D01*
X303534Y157934D01*
X303200Y158157D01*
D02*
G37*
G36*
X322400Y157657D02*
Y157100D01*
X322957D01*
X322734Y157434D01*
X322400Y157657D01*
D02*
G37*
G36*
X191600Y157457D02*
Y156900D01*
X192157D01*
X191934Y157234D01*
X191600Y157457D01*
D02*
G37*
G36*
X320400Y157657D02*
X320066Y157434D01*
X319843Y157100D01*
X320400D01*
Y157657D01*
D02*
G37*
G36*
X250600Y155057D02*
Y154500D01*
X251157D01*
X250934Y154834D01*
X250600Y155057D01*
D02*
G37*
G36*
X320400Y155100D02*
X319843D01*
X320066Y154766D01*
X320400Y154543D01*
Y155100D01*
D02*
G37*
G36*
X248600Y155057D02*
X248266Y154834D01*
X248043Y154500D01*
X248600D01*
Y155057D01*
D02*
G37*
G36*
X138500Y154900D02*
X137943D01*
X138166Y154566D01*
X138500Y154343D01*
Y154900D01*
D02*
G37*
G36*
X141057D02*
X140500D01*
Y154343D01*
X140834Y154566D01*
X141057Y154900D01*
D02*
G37*
G36*
X344900Y156857D02*
X344566Y156634D01*
X344343Y156300D01*
X344900D01*
Y156857D01*
D02*
G37*
G36*
X346900D02*
Y156300D01*
X347457D01*
X347234Y156634D01*
X346900Y156857D01*
D02*
G37*
G36*
X303757Y155600D02*
X303200D01*
Y155043D01*
X303534Y155266D01*
X303757Y155600D01*
D02*
G37*
G36*
X322957Y155100D02*
X322400D01*
Y154543D01*
X322734Y154766D01*
X322957Y155100D01*
D02*
G37*
G36*
X301200Y155600D02*
X300643D01*
X300866Y155266D01*
X301200Y155043D01*
Y155600D01*
D02*
G37*
G36*
X273900Y141557D02*
Y141000D01*
X274457D01*
X274234Y141334D01*
X273900Y141557D01*
D02*
G37*
G36*
X312200Y141857D02*
X311866Y141634D01*
X311643Y141300D01*
X312200D01*
Y141857D01*
D02*
G37*
G36*
X271900Y141557D02*
X271566Y141334D01*
X271343Y141000D01*
X271900D01*
Y141557D01*
D02*
G37*
G36*
X17000Y143631D02*
X16060Y143507D01*
X15184Y143145D01*
X14433Y142568D01*
X13855Y141815D01*
X13518Y141000D01*
X17000D01*
Y143631D01*
D02*
G37*
G36*
X19000D02*
Y141000D01*
X22482D01*
X22145Y141815D01*
X21567Y142568D01*
X20816Y143145D01*
X19940Y143507D01*
X19000Y143631D01*
D02*
G37*
G36*
X101200Y142986D02*
X100478Y142843D01*
X99866Y142434D01*
X99724Y142222D01*
X78700D01*
X78700Y142222D01*
X78271Y142136D01*
X77907Y141893D01*
X77907Y141893D01*
X34835Y98822D01*
X22732D01*
X22445Y99515D01*
X21868Y100268D01*
X21115Y100845D01*
X20240Y101207D01*
X19300Y101331D01*
X17300D01*
X16360Y101207D01*
X15484Y100845D01*
X14732Y100268D01*
X14155Y99515D01*
X13793Y98640D01*
X13669Y97700D01*
X13793Y96760D01*
X14155Y95885D01*
X14732Y95132D01*
X15484Y94555D01*
X16360Y94193D01*
X17300Y94069D01*
X19300D01*
X20240Y94193D01*
X21115Y94555D01*
X21868Y95132D01*
X22445Y95885D01*
X22732Y96578D01*
X24939D01*
X25130Y96117D01*
X20223Y91210D01*
X19300Y91331D01*
X17300D01*
X16360Y91207D01*
X15484Y90845D01*
X14732Y90268D01*
X14155Y89516D01*
X13793Y88640D01*
X13669Y87700D01*
X13793Y86760D01*
X14155Y85884D01*
X14732Y85132D01*
X15484Y84555D01*
X16360Y84193D01*
X17300Y84069D01*
X19300D01*
X20240Y84193D01*
X21115Y84555D01*
X21868Y85132D01*
X22445Y85884D01*
X22807Y86760D01*
X22931Y87700D01*
X22807Y88640D01*
X22445Y89516D01*
X22122Y89936D01*
X27165Y94978D01*
X35963D01*
X35963Y94978D01*
X36392Y95064D01*
X36756Y95307D01*
X78227Y136778D01*
X104400D01*
X104400Y136778D01*
X104829Y136864D01*
X105133Y137067D01*
X105400Y137014D01*
X106122Y137157D01*
X106734Y137566D01*
X107143Y138178D01*
X107286Y138900D01*
X107143Y139622D01*
X106734Y140234D01*
X106122Y140643D01*
X105400Y140786D01*
X104678Y140643D01*
X104066Y140234D01*
X103657Y139622D01*
X103538Y139022D01*
X102280D01*
X102135Y139500D01*
X102534Y139766D01*
X102943Y140378D01*
X103086Y141100D01*
X102943Y141822D01*
X102534Y142434D01*
X101922Y142843D01*
X101200Y142986D01*
D02*
G37*
G36*
X324400Y143800D02*
X323843D01*
X324066Y143466D01*
X324400Y143243D01*
Y143800D01*
D02*
G37*
G36*
X335300Y142357D02*
Y141800D01*
X335857D01*
X335634Y142134D01*
X335300Y142357D01*
D02*
G37*
G36*
X314200Y141857D02*
Y141300D01*
X314757D01*
X314534Y141634D01*
X314200Y141857D01*
D02*
G37*
G36*
X333300Y142357D02*
X332966Y142134D01*
X332743Y141800D01*
X333300D01*
Y142357D01*
D02*
G37*
G36*
X335857Y139800D02*
X335300D01*
Y139243D01*
X335634Y139466D01*
X335857Y139800D01*
D02*
G37*
G36*
X37700Y141057D02*
X37366Y140834D01*
X37143Y140500D01*
X37700D01*
Y141057D01*
D02*
G37*
G36*
X333300Y139800D02*
X332743D01*
X332966Y139466D01*
X333300Y139243D01*
Y139800D01*
D02*
G37*
G36*
X312200Y139300D02*
X311643D01*
X311866Y138966D01*
X312200Y138743D01*
Y139300D01*
D02*
G37*
G36*
X314757D02*
X314200D01*
Y138743D01*
X314534Y138966D01*
X314757Y139300D01*
D02*
G37*
G36*
X133900Y141357D02*
X133566Y141134D01*
X133343Y140800D01*
X133900D01*
Y141357D01*
D02*
G37*
G36*
X135900D02*
Y140800D01*
X136457D01*
X136234Y141134D01*
X135900Y141357D01*
D02*
G37*
G36*
X347200Y141257D02*
Y140700D01*
X347757D01*
X347534Y141034D01*
X347200Y141257D01*
D02*
G37*
G36*
X39700Y141057D02*
Y140500D01*
X40257D01*
X40034Y140834D01*
X39700Y141057D01*
D02*
G37*
G36*
X345200Y141257D02*
X344866Y141034D01*
X344643Y140700D01*
X345200D01*
Y141257D01*
D02*
G37*
G36*
X326957Y143800D02*
X326400D01*
Y143243D01*
X326734Y143466D01*
X326957Y143800D01*
D02*
G37*
G36*
X201857Y148600D02*
X201300D01*
Y148043D01*
X201634Y148266D01*
X201857Y148600D01*
D02*
G37*
G36*
X222800Y149457D02*
X222466Y149234D01*
X222243Y148900D01*
X222800D01*
Y149457D01*
D02*
G37*
G36*
X199300Y148600D02*
X198743D01*
X198966Y148266D01*
X199300Y148043D01*
Y148600D01*
D02*
G37*
G36*
X37600Y147657D02*
X37266Y147434D01*
X37043Y147100D01*
X37600D01*
Y147657D01*
D02*
G37*
G36*
X39600D02*
Y147100D01*
X40157D01*
X39934Y147434D01*
X39600Y147657D01*
D02*
G37*
G36*
X77500Y150800D02*
X76943D01*
X77166Y150466D01*
X77500Y150243D01*
Y150800D01*
D02*
G37*
G36*
X80057D02*
X79500D01*
Y150243D01*
X79834Y150466D01*
X80057Y150800D01*
D02*
G37*
G36*
X8100Y149557D02*
Y149000D01*
X8657D01*
X8434Y149334D01*
X8100Y149557D01*
D02*
G37*
G36*
X224800Y149457D02*
Y148900D01*
X225357D01*
X225134Y149234D01*
X224800Y149457D01*
D02*
G37*
G36*
X6100Y149557D02*
X5766Y149334D01*
X5543Y149000D01*
X6100D01*
Y149557D01*
D02*
G37*
G36*
X41100Y177740D02*
X39899Y177582D01*
X38780Y177118D01*
X37819Y176381D01*
X32044Y170606D01*
X31307Y169645D01*
X31171Y169317D01*
X30843Y168526D01*
X30764Y167925D01*
X30685Y167325D01*
X30685Y167325D01*
Y158447D01*
X26878Y154640D01*
X18000D01*
X16799Y154482D01*
X15680Y154018D01*
X14719Y153281D01*
X13982Y152320D01*
X13518Y151201D01*
X13360Y150000D01*
X13518Y148799D01*
X13982Y147680D01*
X14719Y146719D01*
X15680Y145982D01*
X16799Y145518D01*
X18000Y145360D01*
X28800D01*
X28800Y145360D01*
X29400Y145439D01*
X30001Y145518D01*
X30792Y145846D01*
X31120Y145982D01*
X32081Y146719D01*
X38606Y153244D01*
X38606Y153244D01*
X39023Y153788D01*
X39343Y154205D01*
X39535Y154669D01*
X39807Y155324D01*
X39965Y156525D01*
Y165403D01*
X44381Y169819D01*
X45118Y170780D01*
X45582Y171899D01*
X45740Y173100D01*
X45582Y174301D01*
X45118Y175420D01*
X44381Y176381D01*
X43420Y177118D01*
X42301Y177582D01*
X41100Y177740D01*
D02*
G37*
G36*
X324400Y146357D02*
X324066Y146134D01*
X323843Y145800D01*
X324400D01*
Y146357D01*
D02*
G37*
G36*
X40157Y145100D02*
X39600D01*
Y144543D01*
X39934Y144766D01*
X40157Y145100D01*
D02*
G37*
G36*
X267000Y176723D02*
X266321Y176633D01*
X266296Y176622D01*
X220100D01*
X219421Y176533D01*
X218789Y176271D01*
X218246Y175854D01*
X217829Y175311D01*
X217567Y174679D01*
X217478Y174000D01*
X217567Y173321D01*
X217829Y172689D01*
X218246Y172146D01*
X218789Y171729D01*
X219421Y171467D01*
X220100Y171378D01*
X266014D01*
X292246Y145146D01*
X292789Y144729D01*
X293421Y144467D01*
X294100Y144378D01*
X294779Y144467D01*
X295411Y144729D01*
X295954Y145146D01*
X296371Y145689D01*
X296633Y146321D01*
X296722Y147000D01*
X296633Y147679D01*
X296371Y148311D01*
X295954Y148854D01*
X268854Y175954D01*
X268311Y176371D01*
X267679Y176633D01*
X267000Y176723D01*
D02*
G37*
G36*
X37600Y145100D02*
X37043D01*
X37266Y144766D01*
X37600Y144543D01*
Y145100D01*
D02*
G37*
G36*
X6100Y147000D02*
X5543D01*
X5766Y146666D01*
X6100Y146443D01*
Y147000D01*
D02*
G37*
G36*
X8657D02*
X8100D01*
Y146443D01*
X8434Y146666D01*
X8657Y147000D01*
D02*
G37*
G36*
X225357Y146900D02*
X224800D01*
Y146343D01*
X225134Y146566D01*
X225357Y146900D01*
D02*
G37*
G36*
X326400Y146357D02*
Y145800D01*
X326957D01*
X326734Y146134D01*
X326400Y146357D01*
D02*
G37*
G36*
X222800Y146900D02*
X222243D01*
X222466Y146566D01*
X222800Y146343D01*
Y146900D01*
D02*
G37*
G36*
X142500Y189800D02*
X141943D01*
X142166Y189466D01*
X142500Y189243D01*
Y189800D01*
D02*
G37*
G36*
X145057D02*
X144500D01*
Y189243D01*
X144834Y189466D01*
X145057Y189800D01*
D02*
G37*
G36*
X57957Y189100D02*
X57400D01*
Y188543D01*
X57734Y188766D01*
X57957Y189100D01*
D02*
G37*
G36*
X82857Y188600D02*
X82300D01*
Y188043D01*
X82634Y188266D01*
X82857Y188600D01*
D02*
G37*
G36*
X55400Y189100D02*
X54843D01*
X55066Y188766D01*
X55400Y188543D01*
Y189100D01*
D02*
G37*
G36*
X176157Y190800D02*
X175600D01*
Y190243D01*
X175934Y190466D01*
X176157Y190800D01*
D02*
G37*
G36*
X217500Y191000D02*
X216943D01*
X217166Y190666D01*
X217500Y190443D01*
Y191000D01*
D02*
G37*
G36*
X173600Y190800D02*
X173043D01*
X173266Y190466D01*
X173600Y190243D01*
Y190800D01*
D02*
G37*
G36*
X120700Y190000D02*
X120143D01*
X120366Y189666D01*
X120700Y189443D01*
Y190000D01*
D02*
G37*
G36*
X123257D02*
X122700D01*
Y189443D01*
X123034Y189666D01*
X123257Y190000D01*
D02*
G37*
G36*
X283853Y179253D02*
X281300D01*
Y176700D01*
X283853D01*
Y179253D01*
D02*
G37*
G36*
X280300Y189283D02*
X279373Y189161D01*
X278508Y188803D01*
X277766Y188234D01*
X277197Y187492D01*
X276839Y186627D01*
X276717Y185700D01*
X276839Y184773D01*
X277197Y183908D01*
X277766Y183166D01*
X278508Y182597D01*
X279373Y182239D01*
X280300Y182117D01*
X281227Y182239D01*
X282092Y182597D01*
X282834Y183166D01*
X283403Y183908D01*
X283761Y184773D01*
X283883Y185700D01*
X283761Y186627D01*
X283403Y187492D01*
X282834Y188234D01*
X282092Y188803D01*
X281227Y189161D01*
X280300Y189283D01*
D02*
G37*
G36*
X279300Y179253D02*
X276747D01*
Y176700D01*
X279300D01*
Y179253D01*
D02*
G37*
G36*
X196200Y176157D02*
X195866Y175934D01*
X195643Y175600D01*
X196200D01*
Y176157D01*
D02*
G37*
G36*
X198200D02*
Y175600D01*
X198757D01*
X198534Y175934D01*
X198200Y176157D01*
D02*
G37*
G36*
X320300Y189283D02*
X319373Y189161D01*
X318508Y188803D01*
X317766Y188234D01*
X317197Y187492D01*
X316839Y186627D01*
X316717Y185700D01*
X316839Y184773D01*
X317197Y183908D01*
X317766Y183166D01*
X318508Y182597D01*
X319373Y182239D01*
X320300Y182117D01*
X321227Y182239D01*
X322092Y182597D01*
X322834Y183166D01*
X323403Y183908D01*
X323761Y184773D01*
X323883Y185700D01*
X323761Y186627D01*
X323403Y187492D01*
X322834Y188234D01*
X322092Y188803D01*
X321227Y189161D01*
X320300Y189283D01*
D02*
G37*
G36*
X80300Y188600D02*
X79743D01*
X79966Y188266D01*
X80300Y188043D01*
Y188600D01*
D02*
G37*
G36*
X310300Y189283D02*
X309373Y189161D01*
X308508Y188803D01*
X307766Y188234D01*
X307197Y187492D01*
X306839Y186627D01*
X306717Y185700D01*
X306839Y184773D01*
X307197Y183908D01*
X307766Y183166D01*
X308508Y182597D01*
X309373Y182239D01*
X310300Y182117D01*
X311227Y182239D01*
X312092Y182597D01*
X312834Y183166D01*
X313403Y183908D01*
X313761Y184773D01*
X313883Y185700D01*
X313761Y186627D01*
X313403Y187492D01*
X312834Y188234D01*
X312092Y188803D01*
X311227Y189161D01*
X310300Y189283D01*
D02*
G37*
G36*
X290300D02*
X289373Y189161D01*
X288508Y188803D01*
X287766Y188234D01*
X287197Y187492D01*
X286839Y186627D01*
X286717Y185700D01*
X286839Y184773D01*
X287197Y183908D01*
X287766Y183166D01*
X288508Y182597D01*
X289373Y182239D01*
X290300Y182117D01*
X291227Y182239D01*
X292092Y182597D01*
X292834Y183166D01*
X293403Y183908D01*
X293761Y184773D01*
X293883Y185700D01*
X293761Y186627D01*
X293403Y187492D01*
X292834Y188234D01*
X292092Y188803D01*
X291227Y189161D01*
X290300Y189283D01*
D02*
G37*
G36*
X300300D02*
X299373Y189161D01*
X298508Y188803D01*
X297766Y188234D01*
X297197Y187492D01*
X296839Y186627D01*
X296717Y185700D01*
X296839Y184773D01*
X297197Y183908D01*
X297766Y183166D01*
X298508Y182597D01*
X299373Y182239D01*
X300300Y182117D01*
X301227Y182239D01*
X302092Y182597D01*
X302834Y183166D01*
X303403Y183908D01*
X303761Y184773D01*
X303883Y185700D01*
X303761Y186627D01*
X303403Y187492D01*
X302834Y188234D01*
X302092Y188803D01*
X301227Y189161D01*
X300300Y189283D01*
D02*
G37*
G36*
X220057Y191000D02*
X219500D01*
Y190443D01*
X219834Y190666D01*
X220057Y191000D01*
D02*
G37*
G36*
X175600Y193357D02*
Y192800D01*
X176157D01*
X175934Y193134D01*
X175600Y193357D01*
D02*
G37*
G36*
X217500Y193557D02*
X217166Y193334D01*
X216943Y193000D01*
X217500D01*
Y193557D01*
D02*
G37*
G36*
X173600Y193357D02*
X173266Y193134D01*
X173043Y192800D01*
X173600D01*
Y193357D01*
D02*
G37*
G36*
X120700Y192557D02*
X120366Y192334D01*
X120143Y192000D01*
X120700D01*
Y192557D01*
D02*
G37*
G36*
X122700D02*
Y192000D01*
X123257D01*
X123034Y192334D01*
X122700Y192557D01*
D02*
G37*
G36*
X266900Y193757D02*
X266566Y193534D01*
X266343Y193200D01*
X266900D01*
Y193757D01*
D02*
G37*
G36*
X268900D02*
Y193200D01*
X269457D01*
X269234Y193534D01*
X268900Y193757D01*
D02*
G37*
G36*
X245400Y193657D02*
Y193100D01*
X245957D01*
X245734Y193434D01*
X245400Y193657D01*
D02*
G37*
G36*
X219500Y193557D02*
Y193000D01*
X220057D01*
X219834Y193334D01*
X219500Y193557D01*
D02*
G37*
G36*
X243400Y193657D02*
X243066Y193434D01*
X242843Y193100D01*
X243400D01*
Y193657D01*
D02*
G37*
G36*
X82300Y191157D02*
Y190600D01*
X82857D01*
X82634Y190934D01*
X82300Y191157D01*
D02*
G37*
G36*
X266900Y191200D02*
X266343D01*
X266566Y190866D01*
X266900Y190643D01*
Y191200D01*
D02*
G37*
G36*
X80300Y191157D02*
X79966Y190934D01*
X79743Y190600D01*
X80300D01*
Y191157D01*
D02*
G37*
G36*
X243400Y191100D02*
X242843D01*
X243066Y190766D01*
X243400Y190543D01*
Y191100D01*
D02*
G37*
G36*
X245957D02*
X245400D01*
Y190543D01*
X245734Y190766D01*
X245957Y191100D01*
D02*
G37*
G36*
X142500Y192357D02*
X142166Y192134D01*
X141943Y191800D01*
X142500D01*
Y192357D01*
D02*
G37*
G36*
X144500D02*
Y191800D01*
X145057D01*
X144834Y192134D01*
X144500Y192357D01*
D02*
G37*
G36*
X57400Y191657D02*
Y191100D01*
X57957D01*
X57734Y191434D01*
X57400Y191657D01*
D02*
G37*
G36*
X269457Y191200D02*
X268900D01*
Y190643D01*
X269234Y190866D01*
X269457Y191200D01*
D02*
G37*
G36*
X55400Y191657D02*
X55066Y191434D01*
X54843Y191100D01*
X55400D01*
Y191657D01*
D02*
G37*
G36*
X249900Y164157D02*
Y163600D01*
X250457D01*
X250234Y163934D01*
X249900Y164157D01*
D02*
G37*
G36*
X262400Y164857D02*
X262066Y164634D01*
X261843Y164300D01*
X262400D01*
Y164857D01*
D02*
G37*
G36*
X247900Y164157D02*
X247566Y163934D01*
X247343Y163600D01*
X247900D01*
Y164157D01*
D02*
G37*
G36*
X182000Y164057D02*
X181666Y163834D01*
X181443Y163500D01*
X182000D01*
Y164057D01*
D02*
G37*
G36*
X184000D02*
Y163500D01*
X184557D01*
X184334Y163834D01*
X184000Y164057D01*
D02*
G37*
G36*
X230000Y165157D02*
X229666Y164934D01*
X229443Y164600D01*
X230000D01*
Y165157D01*
D02*
G37*
G36*
X232000D02*
Y164600D01*
X232557D01*
X232334Y164934D01*
X232000Y165157D01*
D02*
G37*
G36*
X13400D02*
Y164600D01*
X13957D01*
X13734Y164934D01*
X13400Y165157D01*
D02*
G37*
G36*
X264400Y164857D02*
Y164300D01*
X264957D01*
X264734Y164634D01*
X264400Y164857D01*
D02*
G37*
G36*
X11400Y165157D02*
X11066Y164934D01*
X10843Y164600D01*
X11400D01*
Y165157D01*
D02*
G37*
G36*
X250457Y161600D02*
X249900D01*
Y161043D01*
X250234Y161266D01*
X250457Y161600D01*
D02*
G37*
G36*
X262400Y162300D02*
X261843D01*
X262066Y161966D01*
X262400Y161743D01*
Y162300D01*
D02*
G37*
G36*
X247900Y161600D02*
X247343D01*
X247566Y161266D01*
X247900Y161043D01*
Y161600D01*
D02*
G37*
G36*
X182000Y161500D02*
X181443D01*
X181666Y161166D01*
X182000Y160943D01*
Y161500D01*
D02*
G37*
G36*
X184557D02*
X184000D01*
Y160943D01*
X184334Y161166D01*
X184557Y161500D01*
D02*
G37*
G36*
X11400Y162600D02*
X10843D01*
X11066Y162266D01*
X11400Y162043D01*
Y162600D01*
D02*
G37*
G36*
X13957D02*
X13400D01*
Y162043D01*
X13734Y162266D01*
X13957Y162600D01*
D02*
G37*
G36*
X232557D02*
X232000D01*
Y162043D01*
X232334Y162266D01*
X232557Y162600D01*
D02*
G37*
G36*
X264957Y162300D02*
X264400D01*
Y161743D01*
X264734Y161966D01*
X264957Y162300D01*
D02*
G37*
G36*
X230000Y162600D02*
X229443D01*
X229666Y162266D01*
X230000Y162043D01*
Y162600D01*
D02*
G37*
G36*
X19100Y187333D02*
X17437Y187202D01*
X15814Y186812D01*
X14273Y186174D01*
X12850Y185302D01*
X11581Y184219D01*
X10498Y182950D01*
X9626Y181527D01*
X8988Y179986D01*
X8598Y178363D01*
X8467Y176700D01*
X8598Y175037D01*
X8988Y173414D01*
X9626Y171873D01*
X10498Y170450D01*
X11581Y169182D01*
X12850Y168098D01*
X14273Y167226D01*
X15814Y166588D01*
X17437Y166198D01*
X19100Y166067D01*
X20763Y166198D01*
X22386Y166588D01*
X23927Y167226D01*
X25350Y168098D01*
X26618Y169182D01*
X27702Y170450D01*
X28574Y171873D01*
X29212Y173414D01*
X29602Y175037D01*
X29733Y176700D01*
X29602Y178363D01*
X29212Y179986D01*
X28574Y181527D01*
X27702Y182950D01*
X26618Y184219D01*
X25350Y185302D01*
X23927Y186174D01*
X22386Y186812D01*
X20763Y187202D01*
X19100Y187333D01*
D02*
G37*
G36*
X198757Y173600D02*
X198200D01*
Y173043D01*
X198534Y173266D01*
X198757Y173600D01*
D02*
G37*
G36*
X118900Y174157D02*
X118566Y173934D01*
X118343Y173600D01*
X118900D01*
Y174157D01*
D02*
G37*
G36*
X196200Y173600D02*
X195643D01*
X195866Y173266D01*
X196200Y173043D01*
Y173600D01*
D02*
G37*
G36*
X172400D02*
X171843D01*
X172066Y173266D01*
X172400Y173043D01*
Y173600D01*
D02*
G37*
G36*
X174957D02*
X174400D01*
Y173043D01*
X174734Y173266D01*
X174957Y173600D01*
D02*
G37*
G36*
X172400Y176157D02*
X172066Y175934D01*
X171843Y175600D01*
X172400D01*
Y176157D01*
D02*
G37*
G36*
X174400D02*
Y175600D01*
X174957D01*
X174734Y175934D01*
X174400Y176157D01*
D02*
G37*
G36*
X143900Y175557D02*
Y175000D01*
X144457D01*
X144234Y175334D01*
X143900Y175557D01*
D02*
G37*
G36*
X120900Y174157D02*
Y173600D01*
X121457D01*
X121234Y173934D01*
X120900Y174157D01*
D02*
G37*
G36*
X141900Y175557D02*
X141566Y175334D01*
X141343Y175000D01*
X141900D01*
Y175557D01*
D02*
G37*
G36*
X290300Y179283D02*
X289373Y179161D01*
X288508Y178803D01*
X287766Y178234D01*
X287197Y177492D01*
X286839Y176627D01*
X286717Y175700D01*
X286839Y174773D01*
X287197Y173908D01*
X287766Y173166D01*
X288508Y172597D01*
X289373Y172239D01*
X290300Y172117D01*
X291227Y172239D01*
X292092Y172597D01*
X292834Y173166D01*
X293403Y173908D01*
X293761Y174773D01*
X293883Y175700D01*
X293761Y176627D01*
X293403Y177492D01*
X292834Y178234D01*
X292092Y178803D01*
X291227Y179161D01*
X290300Y179283D01*
D02*
G37*
G36*
X300300D02*
X299373Y179161D01*
X298508Y178803D01*
X297766Y178234D01*
X297197Y177492D01*
X296839Y176627D01*
X296717Y175700D01*
X296839Y174773D01*
X297197Y173908D01*
X297766Y173166D01*
X298508Y172597D01*
X299373Y172239D01*
X300300Y172117D01*
X301227Y172239D01*
X302092Y172597D01*
X302834Y173166D01*
X303403Y173908D01*
X303761Y174773D01*
X303883Y175700D01*
X303761Y176627D01*
X303403Y177492D01*
X302834Y178234D01*
X302092Y178803D01*
X301227Y179161D01*
X300300Y179283D01*
D02*
G37*
G36*
X121457Y171600D02*
X120900D01*
Y171043D01*
X121234Y171266D01*
X121457Y171600D01*
D02*
G37*
G36*
X340300Y187333D02*
X338637Y187202D01*
X337014Y186812D01*
X335473Y186174D01*
X334050Y185302D01*
X332782Y184219D01*
X331698Y182950D01*
X330826Y181527D01*
X330188Y179986D01*
X329798Y178363D01*
X329667Y176700D01*
X329798Y175037D01*
X330188Y173414D01*
X330826Y171873D01*
X331698Y170450D01*
X332782Y169182D01*
X334050Y168098D01*
X335473Y167226D01*
X337014Y166588D01*
X338637Y166198D01*
X340300Y166067D01*
X341963Y166198D01*
X343586Y166588D01*
X345127Y167226D01*
X346550Y168098D01*
X347818Y169182D01*
X348902Y170450D01*
X349774Y171873D01*
X350412Y173414D01*
X350802Y175037D01*
X350933Y176700D01*
X350802Y178363D01*
X350412Y179986D01*
X349774Y181527D01*
X348902Y182950D01*
X347818Y184219D01*
X346550Y185302D01*
X345127Y186174D01*
X343586Y186812D01*
X341963Y187202D01*
X340300Y187333D01*
D02*
G37*
G36*
X118900Y171600D02*
X118343D01*
X118566Y171266D01*
X118900Y171043D01*
Y171600D01*
D02*
G37*
G36*
X141900Y173000D02*
X141343D01*
X141566Y172666D01*
X141900Y172443D01*
Y173000D01*
D02*
G37*
G36*
X144457D02*
X143900D01*
Y172443D01*
X144234Y172666D01*
X144457Y173000D01*
D02*
G37*
G36*
X283853Y174700D02*
X281300D01*
Y172147D01*
X283853D01*
Y174700D01*
D02*
G37*
G36*
X320300Y179283D02*
X319373Y179161D01*
X318508Y178803D01*
X317766Y178234D01*
X317197Y177492D01*
X316839Y176627D01*
X316717Y175700D01*
X316839Y174773D01*
X317197Y173908D01*
X317766Y173166D01*
X318508Y172597D01*
X319373Y172239D01*
X320300Y172117D01*
X321227Y172239D01*
X322092Y172597D01*
X322834Y173166D01*
X323403Y173908D01*
X323761Y174773D01*
X323883Y175700D01*
X323761Y176627D01*
X323403Y177492D01*
X322834Y178234D01*
X322092Y178803D01*
X321227Y179161D01*
X320300Y179283D01*
D02*
G37*
G36*
X279300Y174700D02*
X276747D01*
Y172147D01*
X279300D01*
Y174700D01*
D02*
G37*
G36*
X310300Y179283D02*
X309373Y179161D01*
X308508Y178803D01*
X307766Y178234D01*
X307197Y177492D01*
X306839Y176627D01*
X306717Y175700D01*
X306839Y174773D01*
X307197Y173908D01*
X307766Y173166D01*
X308508Y172597D01*
X309178Y172319D01*
Y152800D01*
X309178Y152800D01*
X309264Y152371D01*
X309507Y152007D01*
X327678Y133835D01*
Y108554D01*
X327181Y108505D01*
X327136Y108729D01*
X326893Y109093D01*
X326893Y109093D01*
X313993Y121993D01*
X313629Y122236D01*
X313200Y122322D01*
X313200Y122322D01*
X238513D01*
X238513Y122322D01*
X238084Y122236D01*
X237720Y121993D01*
X237720Y121993D01*
X216548Y100822D01*
X214500D01*
X214071Y100736D01*
X213707Y100493D01*
X213707Y100493D01*
X209707Y96493D01*
X209464Y96129D01*
X209378Y95700D01*
X209379Y95700D01*
Y88676D01*
X209166Y88534D01*
X208757Y87922D01*
X208614Y87200D01*
X208757Y86478D01*
X209166Y85866D01*
X209778Y85457D01*
X210500Y85314D01*
X211222Y85457D01*
X211834Y85866D01*
X212243Y86478D01*
X212386Y87200D01*
X212243Y87922D01*
X211834Y88534D01*
X211621Y88676D01*
Y95235D01*
X213551Y97165D01*
X213938Y96848D01*
X213895Y96784D01*
X213752Y96062D01*
X213895Y95340D01*
X214304Y94728D01*
X214916Y94319D01*
X215638Y94176D01*
X216360Y94319D01*
X216972Y94728D01*
X217380Y95340D01*
X217524Y96062D01*
X217474Y96312D01*
X239640Y118478D01*
X266266D01*
X266502Y118037D01*
X266343Y117800D01*
X269457D01*
X269234Y118134D01*
X269338Y118478D01*
X311935D01*
X323378Y107035D01*
Y89630D01*
X322900Y89485D01*
X322734Y89734D01*
X322400Y89957D01*
Y88399D01*
Y86843D01*
X322734Y87066D01*
X322900Y87315D01*
X323378Y87170D01*
Y86365D01*
X320435Y83422D01*
X312576D01*
X312434Y83634D01*
X311822Y84043D01*
X311100Y84186D01*
X310378Y84043D01*
X309766Y83634D01*
X309357Y83022D01*
X309214Y82300D01*
X309357Y81578D01*
X309766Y80966D01*
X310378Y80557D01*
X311100Y80414D01*
X311822Y80557D01*
X312434Y80966D01*
X312576Y81178D01*
X319802D01*
X319993Y80717D01*
X318098Y78822D01*
X313276D01*
X313134Y79034D01*
X312522Y79443D01*
X311800Y79586D01*
X311078Y79443D01*
X310466Y79034D01*
X310057Y78422D01*
X309914Y77700D01*
X310057Y76978D01*
X310466Y76366D01*
X311078Y75957D01*
X311800Y75814D01*
X312522Y75957D01*
X313134Y76366D01*
X313276Y76578D01*
X318563D01*
X318563Y76578D01*
X318992Y76664D01*
X319356Y76907D01*
X326893Y84444D01*
X326893Y84444D01*
X327136Y84808D01*
X327181Y85033D01*
X327678Y84984D01*
Y84065D01*
X309307Y65693D01*
X309064Y65329D01*
X308978Y64900D01*
X308979Y64900D01*
Y37842D01*
X308966Y37834D01*
X308557Y37222D01*
X308414Y36500D01*
X308557Y35778D01*
X308966Y35166D01*
X309578Y34757D01*
X310300Y34614D01*
X311022Y34757D01*
X311634Y35166D01*
X312043Y35778D01*
X312186Y36500D01*
X312043Y37222D01*
X311634Y37834D01*
X311222Y38109D01*
Y64435D01*
X329593Y82807D01*
X329593Y82807D01*
X329836Y83171D01*
X329922Y83600D01*
Y134300D01*
X329922Y134300D01*
X329836Y134729D01*
X329593Y135093D01*
X329593Y135093D01*
X311421Y153265D01*
Y172319D01*
X312092Y172597D01*
X312834Y173166D01*
X313403Y173908D01*
X313761Y174773D01*
X313883Y175700D01*
X313761Y176627D01*
X313403Y177492D01*
X312834Y178234D01*
X312092Y178803D01*
X311227Y179161D01*
X310300Y179283D01*
D02*
G37*
G36*
X262300Y109100D02*
X261743D01*
X261966Y108766D01*
X262300Y108543D01*
Y109100D01*
D02*
G37*
G36*
X206200Y108657D02*
Y108100D01*
X206757D01*
X206534Y108434D01*
X206200Y108657D01*
D02*
G37*
G36*
X273657Y107900D02*
X273100D01*
Y107343D01*
X273434Y107566D01*
X273657Y107900D01*
D02*
G37*
G36*
X204200Y108657D02*
X203866Y108434D01*
X203643Y108100D01*
X204200D01*
Y108657D01*
D02*
G37*
G36*
X271100Y110457D02*
X270766Y110234D01*
X270543Y109900D01*
X271100D01*
Y110457D01*
D02*
G37*
G36*
X273100D02*
Y109900D01*
X273657D01*
X273434Y110234D01*
X273100Y110457D01*
D02*
G37*
G36*
X19300Y111331D02*
Y108700D01*
X22782D01*
X22445Y109516D01*
X21868Y110268D01*
X21115Y110845D01*
X20240Y111207D01*
X19300Y111331D01*
D02*
G37*
G36*
X264857Y109100D02*
X264300D01*
Y108543D01*
X264634Y108766D01*
X264857Y109100D01*
D02*
G37*
G36*
X17300Y111331D02*
X16360Y111207D01*
X15484Y110845D01*
X14732Y110268D01*
X14155Y109516D01*
X13818Y108700D01*
X17300D01*
Y111331D01*
D02*
G37*
G36*
X321600Y106257D02*
Y105700D01*
X322157D01*
X321934Y106034D01*
X321600Y106257D01*
D02*
G37*
G36*
X189920Y138203D02*
X189241Y138113D01*
X188609Y137851D01*
X188065Y137435D01*
X187649Y136891D01*
X187387Y136259D01*
X187297Y135580D01*
X187387Y134901D01*
X187649Y134269D01*
X188065Y133726D01*
X191677Y130114D01*
Y108700D01*
X191767Y108021D01*
X192029Y107389D01*
X192446Y106846D01*
X192989Y106429D01*
X193621Y106167D01*
X194300Y106078D01*
X194979Y106167D01*
X195611Y106429D01*
X196154Y106846D01*
X196571Y107389D01*
X196833Y108021D01*
X196922Y108700D01*
Y131200D01*
X196922Y131200D01*
X196833Y131879D01*
X196571Y132511D01*
X196154Y133054D01*
X196154Y133054D01*
X191774Y137435D01*
X191231Y137851D01*
X190598Y138113D01*
X189920Y138203D01*
D02*
G37*
G36*
X319600Y106257D02*
X319266Y106034D01*
X319043Y105700D01*
X319600D01*
Y106257D01*
D02*
G37*
G36*
X204200Y106100D02*
X203643D01*
X203866Y105766D01*
X204200Y105543D01*
Y106100D01*
D02*
G37*
G36*
X206757D02*
X206200D01*
Y105543D01*
X206534Y105766D01*
X206757Y106100D01*
D02*
G37*
G36*
X347600Y107357D02*
Y106800D01*
X348157D01*
X347934Y107134D01*
X347600Y107357D01*
D02*
G37*
G36*
X271100Y107900D02*
X270543D01*
X270766Y107566D01*
X271100Y107343D01*
Y107900D01*
D02*
G37*
G36*
X345600Y107357D02*
X345266Y107134D01*
X345043Y106800D01*
X345600D01*
Y107357D01*
D02*
G37*
G36*
X267300Y106757D02*
X266966Y106534D01*
X266743Y106200D01*
X267300D01*
Y106757D01*
D02*
G37*
G36*
X269300D02*
Y106200D01*
X269857D01*
X269634Y106534D01*
X269300Y106757D01*
D02*
G37*
G36*
X87670Y178640D02*
X87670Y178640D01*
X71200D01*
X69999Y178482D01*
X68880Y178018D01*
X67919Y177281D01*
X67182Y176320D01*
X66718Y175201D01*
X66560Y174000D01*
X66718Y172799D01*
X67182Y171680D01*
X67919Y170719D01*
X68880Y169982D01*
X69999Y169518D01*
X71200Y169360D01*
X85748D01*
X102769Y152339D01*
X102769Y152339D01*
X110760Y144348D01*
Y110310D01*
X110270Y110213D01*
X110068Y110700D01*
X109331Y111661D01*
X108370Y112398D01*
X107251Y112862D01*
X106050Y113020D01*
X81580D01*
X80379Y112862D01*
X79260Y112398D01*
X78843Y112078D01*
X78299Y111661D01*
X78299Y111661D01*
X66719Y100081D01*
X65982Y99120D01*
X65846Y98792D01*
X65518Y98001D01*
X65439Y97400D01*
X65360Y96800D01*
X65360Y96800D01*
Y70000D01*
X65360Y70000D01*
X65360D01*
X65518Y68799D01*
X65982Y67680D01*
X66719Y66719D01*
X67680Y65982D01*
X68799Y65518D01*
X70000Y65360D01*
X71201Y65518D01*
X72320Y65982D01*
X73281Y66719D01*
X74018Y67680D01*
X74482Y68799D01*
X74640Y70000D01*
Y94878D01*
X83502Y103740D01*
X106050D01*
X107251Y103898D01*
X108370Y104362D01*
X109331Y105099D01*
X110068Y106060D01*
X110270Y106547D01*
X110760Y106450D01*
Y94892D01*
X102769Y86901D01*
X102032Y85940D01*
X101896Y85612D01*
X101568Y84821D01*
X101489Y84220D01*
X101410Y83620D01*
X101489Y83020D01*
X101568Y82419D01*
X101896Y81628D01*
X102032Y81300D01*
X102769Y80339D01*
X103730Y79602D01*
X104058Y79466D01*
X104849Y79138D01*
X105450Y79059D01*
X106050Y78980D01*
X106650Y79059D01*
X107251Y79138D01*
X108042Y79466D01*
X108370Y79602D01*
X109331Y80339D01*
X118681Y89689D01*
X118681Y89689D01*
X119049Y90170D01*
X119418Y90650D01*
X119882Y91769D01*
X120040Y92970D01*
X120040Y92970D01*
Y146270D01*
X120040Y146270D01*
X119882Y147471D01*
X119418Y148590D01*
X119049Y149070D01*
X118681Y149551D01*
X118681Y149551D01*
X109331Y158901D01*
X109331Y158901D01*
X90951Y177281D01*
X89990Y178018D01*
X89662Y178154D01*
X88871Y178482D01*
X88270Y178561D01*
X87670Y178640D01*
D02*
G37*
G36*
X198800Y115500D02*
X198243D01*
X198466Y115166D01*
X198800Y114943D01*
Y115500D01*
D02*
G37*
G36*
X201357D02*
X200800D01*
Y114943D01*
X201134Y115166D01*
X201357Y115500D01*
D02*
G37*
G36*
X269457Y115800D02*
X266343D01*
X266566Y115466D01*
X266815Y115300D01*
X266670Y114822D01*
X245276D01*
X245134Y115034D01*
X244522Y115443D01*
X243800Y115586D01*
X243078Y115443D01*
X242466Y115034D01*
X242057Y114422D01*
X242038Y114324D01*
X232307Y104593D01*
X232064Y104229D01*
X231978Y103800D01*
X231979Y103800D01*
Y91334D01*
X231538Y91098D01*
X231022Y91443D01*
X230300Y91586D01*
X229578Y91443D01*
X228966Y91034D01*
X228824Y90822D01*
X223800D01*
X223371Y90736D01*
X223007Y90493D01*
X223007Y90493D01*
X219007Y86493D01*
X218764Y86129D01*
X218678Y85700D01*
X218678Y85700D01*
Y70200D01*
X218678Y70200D01*
X218722Y69982D01*
Y55704D01*
X218466Y55534D01*
X218057Y54922D01*
X217914Y54200D01*
X218057Y53478D01*
X218466Y52866D01*
X219078Y52457D01*
X219800Y52314D01*
X220522Y52457D01*
X221134Y52866D01*
X221543Y53478D01*
X221686Y54200D01*
X221543Y54922D01*
X221134Y55534D01*
X220965Y55647D01*
Y70157D01*
X220965Y70157D01*
X220921Y70374D01*
Y85235D01*
X224265Y88578D01*
X228824D01*
X228966Y88366D01*
X229578Y87957D01*
X230300Y87814D01*
X231022Y87957D01*
X231538Y88302D01*
X231979Y88066D01*
Y85465D01*
X225050Y78536D01*
X224800Y78586D01*
X224078Y78443D01*
X223466Y78034D01*
X223057Y77422D01*
X222914Y76700D01*
X223057Y75978D01*
X223466Y75366D01*
X223678Y75224D01*
Y44200D01*
X223678Y44200D01*
X223764Y43771D01*
X224007Y43407D01*
X242758Y24656D01*
X242733Y24268D01*
X242155Y23516D01*
X241793Y22640D01*
X241669Y21700D01*
Y21122D01*
X188665D01*
X183936Y25850D01*
X183986Y26100D01*
X183843Y26822D01*
X183434Y27434D01*
X182822Y27843D01*
X182100Y27986D01*
X181378Y27843D01*
X180766Y27434D01*
X180357Y26822D01*
X180214Y26100D01*
X180357Y25378D01*
X180766Y24766D01*
X181378Y24357D01*
X182100Y24214D01*
X182350Y24264D01*
X187407Y19207D01*
X187407Y19207D01*
X187771Y18964D01*
X187771Y18964D01*
X187771Y18964D01*
D01*
X187771Y18964D01*
X187771Y18964D01*
X188200Y18879D01*
X241777D01*
X241793Y18760D01*
X242155Y17885D01*
X242733Y17132D01*
X243484Y16555D01*
X244360Y16193D01*
X245300Y16069D01*
X246240Y16193D01*
X247115Y16555D01*
X247867Y17132D01*
X248445Y17885D01*
X248807Y18760D01*
X248931Y19700D01*
Y21700D01*
X248807Y22640D01*
X248445Y23516D01*
X247867Y24268D01*
X247115Y24845D01*
X246240Y25207D01*
X245300Y25331D01*
X245260Y25326D01*
X225922Y44665D01*
Y75224D01*
X226134Y75366D01*
X226543Y75978D01*
X226686Y76700D01*
X226637Y76950D01*
X233893Y84207D01*
X233893Y84207D01*
X234136Y84571D01*
X234222Y85000D01*
Y101669D01*
X234700Y101814D01*
X234657Y101878D01*
X234513Y102600D01*
X234657Y103322D01*
X234843Y103600D01*
X235400D01*
Y104157D01*
X235678Y104343D01*
X235962Y104399D01*
X235726Y104840D01*
X242937Y112051D01*
X243078Y111957D01*
X243800Y111814D01*
X244522Y111957D01*
X245134Y112366D01*
X245276Y112578D01*
X279324D01*
X279466Y112366D01*
X279978Y112024D01*
Y103476D01*
X279766Y103334D01*
X279357Y102722D01*
X279214Y102000D01*
X279357Y101278D01*
X279766Y100666D01*
X279978Y100524D01*
Y78160D01*
X279595Y77904D01*
X279187Y77293D01*
X279043Y76571D01*
X279116Y76202D01*
X277635Y74722D01*
X269583D01*
X269543Y74922D01*
X269134Y75534D01*
X268522Y75943D01*
X267800Y76086D01*
X267078Y75943D01*
X266466Y75534D01*
X266057Y74922D01*
X265914Y74200D01*
X266057Y73478D01*
X266466Y72866D01*
X267078Y72457D01*
X267800Y72314D01*
X268522Y72457D01*
X268553Y72478D01*
X278100D01*
X278100Y72478D01*
X278529Y72564D01*
X278893Y72807D01*
X280797Y74711D01*
X280929Y74685D01*
X281651Y74828D01*
X282263Y75237D01*
X282672Y75849D01*
X282816Y76571D01*
X282672Y77293D01*
X282263Y77904D01*
X282222Y77932D01*
Y100524D01*
X282434Y100666D01*
X282843Y101278D01*
X282986Y102000D01*
X282843Y102722D01*
X282434Y103334D01*
X282222Y103476D01*
Y112498D01*
X282543Y112978D01*
X282686Y113700D01*
X282543Y114422D01*
X282134Y115034D01*
X281522Y115443D01*
X280800Y115586D01*
X280078Y115443D01*
X279466Y115034D01*
X279324Y114822D01*
X269130D01*
X268985Y115300D01*
X269234Y115466D01*
X269457Y115800D01*
D02*
G37*
G36*
X203200Y115057D02*
X202866Y114834D01*
X202643Y114500D01*
X203200D01*
Y115057D01*
D02*
G37*
G36*
X205200D02*
Y114500D01*
X205757D01*
X205534Y114834D01*
X205200Y115057D01*
D02*
G37*
G36*
X34957Y115700D02*
X34400D01*
Y115143D01*
X34734Y115366D01*
X34957Y115700D01*
D02*
G37*
G36*
X345500Y116057D02*
X345166Y115834D01*
X344943Y115500D01*
X345500D01*
Y116057D01*
D02*
G37*
G36*
X32400Y115700D02*
X31843D01*
X32066Y115366D01*
X32400Y115143D01*
Y115700D01*
D02*
G37*
G36*
X334200Y115557D02*
X333866Y115334D01*
X333643Y115000D01*
X334200D01*
Y115557D01*
D02*
G37*
G36*
X336200D02*
Y115000D01*
X336757D01*
X336534Y115334D01*
X336200Y115557D01*
D02*
G37*
G36*
X205757Y112500D02*
X205200D01*
Y111943D01*
X205534Y112166D01*
X205757Y112500D01*
D02*
G37*
G36*
X334200Y113000D02*
X333643D01*
X333866Y112666D01*
X334200Y112443D01*
Y113000D01*
D02*
G37*
G36*
X203200Y112500D02*
X202643D01*
X202866Y112166D01*
X203200Y111943D01*
Y112500D01*
D02*
G37*
G36*
X262300Y111657D02*
X261966Y111434D01*
X261743Y111100D01*
X262300D01*
Y111657D01*
D02*
G37*
G36*
X264300D02*
Y111100D01*
X264857D01*
X264634Y111434D01*
X264300Y111657D01*
D02*
G37*
G36*
X83100Y114700D02*
X82543D01*
X82766Y114366D01*
X83100Y114143D01*
Y114700D01*
D02*
G37*
G36*
X85657D02*
X85100D01*
Y114143D01*
X85434Y114366D01*
X85657Y114700D01*
D02*
G37*
G36*
X348057Y113500D02*
X347500D01*
Y112943D01*
X347834Y113166D01*
X348057Y113500D01*
D02*
G37*
G36*
X336757Y113000D02*
X336200D01*
Y112443D01*
X336534Y112666D01*
X336757Y113000D01*
D02*
G37*
G36*
X345500Y113500D02*
X344943D01*
X345166Y113166D01*
X345500Y112943D01*
Y113500D01*
D02*
G37*
G36*
X5000Y98457D02*
X4666Y98234D01*
X4443Y97900D01*
X5000D01*
Y98457D01*
D02*
G37*
G36*
X7000D02*
Y97900D01*
X7557D01*
X7334Y98234D01*
X7000Y98457D01*
D02*
G37*
G36*
X315200Y98000D02*
X313100D01*
Y95900D01*
X315200D01*
Y98000D01*
D02*
G37*
G36*
X295957Y96400D02*
X295400D01*
Y95843D01*
X295734Y96066D01*
X295957Y96400D01*
D02*
G37*
G36*
X311100Y98000D02*
X309000D01*
Y95900D01*
X311100D01*
Y98000D01*
D02*
G37*
G36*
X298857Y101200D02*
X298300D01*
Y100643D01*
X298634Y100866D01*
X298857Y101200D01*
D02*
G37*
G36*
X235400Y101600D02*
X234843D01*
X235066Y101266D01*
X235400Y101043D01*
Y101600D01*
D02*
G37*
G36*
X296300Y101200D02*
X295743D01*
X295966Y100866D01*
X296300Y100643D01*
Y101200D01*
D02*
G37*
G36*
X293400Y98957D02*
X293066Y98734D01*
X292843Y98400D01*
X293400D01*
Y98957D01*
D02*
G37*
G36*
X295400D02*
Y98400D01*
X295957D01*
X295734Y98734D01*
X295400Y98957D01*
D02*
G37*
G36*
X346800Y93757D02*
X346466Y93534D01*
X346243Y93200D01*
X346800D01*
Y93757D01*
D02*
G37*
G36*
X348800D02*
Y93200D01*
X349357D01*
X349134Y93534D01*
X348800Y93757D01*
D02*
G37*
G36*
X99400Y93657D02*
Y93100D01*
X99957D01*
X99734Y93434D01*
X99400Y93657D01*
D02*
G37*
G36*
X277257Y93500D02*
X276700D01*
Y92943D01*
X277034Y93166D01*
X277257Y93500D01*
D02*
G37*
G36*
X97400Y93657D02*
X97066Y93434D01*
X96843Y93100D01*
X97400D01*
Y93657D01*
D02*
G37*
G36*
X276700Y96057D02*
Y95500D01*
X277257D01*
X277034Y95834D01*
X276700Y96057D01*
D02*
G37*
G36*
X293400Y96400D02*
X292843D01*
X293066Y96066D01*
X293400Y95843D01*
Y96400D01*
D02*
G37*
G36*
X274700Y96057D02*
X274366Y95834D01*
X274143Y95500D01*
X274700D01*
Y96057D01*
D02*
G37*
G36*
X5000Y95900D02*
X4443D01*
X4666Y95566D01*
X5000Y95343D01*
Y95900D01*
D02*
G37*
G36*
X7557D02*
X7000D01*
Y95343D01*
X7334Y95566D01*
X7557Y95900D01*
D02*
G37*
G36*
X237957Y101600D02*
X237400D01*
Y101043D01*
X237734Y101266D01*
X237957Y101600D01*
D02*
G37*
G36*
X22782Y106700D02*
X19300D01*
Y104069D01*
X20240Y104193D01*
X21115Y104555D01*
X21868Y105132D01*
X22445Y105885D01*
X22782Y106700D01*
D02*
G37*
G36*
X345600Y104800D02*
X345043D01*
X345266Y104466D01*
X345600Y104243D01*
Y104800D01*
D02*
G37*
G36*
X17300Y106700D02*
X13818D01*
X14155Y105885D01*
X14732Y105132D01*
X15484Y104555D01*
X16360Y104193D01*
X17300Y104069D01*
Y106700D01*
D02*
G37*
G36*
X269857Y104200D02*
X269300D01*
Y103643D01*
X269634Y103866D01*
X269857Y104200D01*
D02*
G37*
G36*
X154070Y113020D02*
X152869Y112862D01*
X151750Y112398D01*
X150789Y111661D01*
X150052Y110700D01*
X149588Y109581D01*
X149430Y108380D01*
X149588Y107179D01*
X150052Y106060D01*
X150789Y105099D01*
X151750Y104362D01*
X152869Y103898D01*
X154070Y103740D01*
X155271Y103898D01*
X156390Y104362D01*
X157351Y105099D01*
X158088Y106060D01*
X158552Y107179D01*
X158710Y108380D01*
X158552Y109581D01*
X158088Y110700D01*
X157351Y111661D01*
X156390Y112398D01*
X155271Y112862D01*
X154070Y113020D01*
D02*
G37*
G36*
X227700Y105657D02*
X227366Y105434D01*
X227143Y105100D01*
X227700D01*
Y105657D01*
D02*
G37*
G36*
X229700D02*
Y105100D01*
X230257D01*
X230034Y105434D01*
X229700Y105657D01*
D02*
G37*
G36*
X34600Y104857D02*
Y104300D01*
X35157D01*
X34934Y104634D01*
X34600Y104857D01*
D02*
G37*
G36*
X348157Y104800D02*
X347600D01*
Y104243D01*
X347934Y104466D01*
X348157Y104800D01*
D02*
G37*
G36*
X32600Y104857D02*
X32266Y104634D01*
X32043Y104300D01*
X32600D01*
Y104857D01*
D02*
G37*
G36*
X230257Y103100D02*
X229700D01*
Y102543D01*
X230034Y102766D01*
X230257Y103100D01*
D02*
G37*
G36*
X319600Y103700D02*
X319043D01*
X319266Y103366D01*
X319600Y103143D01*
Y103700D01*
D02*
G37*
G36*
X227700Y103100D02*
X227143D01*
X227366Y102766D01*
X227700Y102543D01*
Y103100D01*
D02*
G37*
G36*
X32600Y102300D02*
X32043D01*
X32266Y101966D01*
X32600Y101743D01*
Y102300D01*
D02*
G37*
G36*
X35157D02*
X34600D01*
Y101743D01*
X34934Y101966D01*
X35157Y102300D01*
D02*
G37*
G36*
X237400Y104157D02*
Y103600D01*
X237957D01*
X237734Y103934D01*
X237400Y104157D01*
D02*
G37*
G36*
X267300Y104200D02*
X266743D01*
X266966Y103866D01*
X267300Y103643D01*
Y104200D01*
D02*
G37*
G36*
X298300Y103757D02*
Y103200D01*
X298857D01*
X298634Y103534D01*
X298300Y103757D01*
D02*
G37*
G36*
X322157Y103700D02*
X321600D01*
Y103143D01*
X321934Y103366D01*
X322157Y103700D01*
D02*
G37*
G36*
X296300Y103757D02*
X295966Y103534D01*
X295743Y103200D01*
X296300D01*
Y103757D01*
D02*
G37*
G36*
X40357Y133200D02*
X39800D01*
Y132643D01*
X40134Y132866D01*
X40357Y133200D01*
D02*
G37*
G36*
X233300Y133600D02*
X232743D01*
X232966Y133266D01*
X233300Y133043D01*
Y133600D01*
D02*
G37*
G36*
X37800Y133200D02*
X37243D01*
X37466Y132866D01*
X37800Y132643D01*
Y133200D01*
D02*
G37*
G36*
X333700Y132857D02*
X333366Y132634D01*
X333143Y132300D01*
X333700D01*
Y132857D01*
D02*
G37*
G36*
X335700D02*
Y132300D01*
X336257D01*
X336034Y132634D01*
X335700Y132857D01*
D02*
G37*
G36*
X214600Y135400D02*
X214043D01*
X214266Y135066D01*
X214600Y134843D01*
Y135400D01*
D02*
G37*
G36*
X217157D02*
X216600D01*
Y134843D01*
X216934Y135066D01*
X217157Y135400D01*
D02*
G37*
G36*
X304700Y134257D02*
Y133700D01*
X305257D01*
X305034Y134034D01*
X304700Y134257D01*
D02*
G37*
G36*
X235857Y133600D02*
X235300D01*
Y133043D01*
X235634Y133266D01*
X235857Y133600D01*
D02*
G37*
G36*
X302700Y134257D02*
X302366Y134034D01*
X302143Y133700D01*
X302700D01*
Y134257D01*
D02*
G37*
G36*
X84600Y130157D02*
Y129600D01*
X85157D01*
X84934Y129934D01*
X84600Y130157D01*
D02*
G37*
G36*
X333700Y130300D02*
X333143D01*
X333366Y129966D01*
X333700Y129743D01*
Y130300D01*
D02*
G37*
G36*
X82600Y130157D02*
X82266Y129934D01*
X82043Y129600D01*
X82600D01*
Y130157D01*
D02*
G37*
G36*
X102200Y128457D02*
X101866Y128234D01*
X101643Y127900D01*
X102200D01*
Y128457D01*
D02*
G37*
G36*
X104200D02*
Y127900D01*
X104757D01*
X104534Y128234D01*
X104200Y128457D01*
D02*
G37*
G36*
X302700Y131700D02*
X302143D01*
X302366Y131366D01*
X302700Y131143D01*
Y131700D01*
D02*
G37*
G36*
X305257D02*
X304700D01*
Y131143D01*
X305034Y131366D01*
X305257Y131700D01*
D02*
G37*
G36*
X22600Y133600D02*
X19000D01*
Y131000D01*
X22600D01*
Y133600D01*
D02*
G37*
G36*
X336257Y130300D02*
X335700D01*
Y129743D01*
X336034Y129966D01*
X336257Y130300D01*
D02*
G37*
G36*
X17000Y133600D02*
X13400D01*
Y131000D01*
X17000D01*
Y133600D01*
D02*
G37*
G36*
X202200Y135600D02*
X201643D01*
X201866Y135266D01*
X202200Y135043D01*
Y135600D01*
D02*
G37*
G36*
X345200Y138700D02*
X344643D01*
X344866Y138366D01*
X345200Y138143D01*
Y138700D01*
D02*
G37*
G36*
X347757D02*
X347200D01*
Y138143D01*
X347534Y138366D01*
X347757Y138700D01*
D02*
G37*
G36*
X40257Y138500D02*
X39700D01*
Y137943D01*
X40034Y138166D01*
X40257Y138500D01*
D02*
G37*
G36*
X204200Y138157D02*
Y137600D01*
X204757D01*
X204534Y137934D01*
X204200Y138157D01*
D02*
G37*
G36*
X37700Y138500D02*
X37143D01*
X37366Y138166D01*
X37700Y137943D01*
Y138500D01*
D02*
G37*
G36*
X274457Y139000D02*
X273900D01*
Y138443D01*
X274234Y138666D01*
X274457Y139000D01*
D02*
G37*
G36*
X47500Y156622D02*
X46821Y156533D01*
X46189Y156271D01*
X45646Y155854D01*
X45229Y155311D01*
X44967Y154679D01*
X44878Y154000D01*
Y153500D01*
Y141100D01*
X44967Y140421D01*
X45229Y139789D01*
X45646Y139246D01*
X46189Y138829D01*
X46821Y138567D01*
X47500Y138478D01*
X48179Y138567D01*
X48811Y138829D01*
X49354Y139246D01*
X49771Y139789D01*
X50033Y140421D01*
X50122Y141100D01*
Y153500D01*
Y154000D01*
X50033Y154679D01*
X49771Y155311D01*
X49354Y155854D01*
X48811Y156271D01*
X48179Y156533D01*
X47500Y156622D01*
D02*
G37*
G36*
X271900Y139000D02*
X271343D01*
X271566Y138666D01*
X271900Y138443D01*
Y139000D01*
D02*
G37*
G36*
X133900Y138800D02*
X133343D01*
X133566Y138466D01*
X133900Y138243D01*
Y138800D01*
D02*
G37*
G36*
X136457D02*
X135900D01*
Y138243D01*
X136234Y138466D01*
X136457Y138800D01*
D02*
G37*
G36*
X233300Y136157D02*
X232966Y135934D01*
X232743Y135600D01*
X233300D01*
Y136157D01*
D02*
G37*
G36*
X235300D02*
Y135600D01*
X235857D01*
X235634Y135934D01*
X235300Y136157D01*
D02*
G37*
G36*
X39800Y135757D02*
Y135200D01*
X40357D01*
X40134Y135534D01*
X39800Y135757D01*
D02*
G37*
G36*
X204757Y135600D02*
X204200D01*
Y135043D01*
X204534Y135266D01*
X204757Y135600D01*
D02*
G37*
G36*
X37800Y135757D02*
X37466Y135534D01*
X37243Y135200D01*
X37800D01*
Y135757D01*
D02*
G37*
G36*
X216600Y137957D02*
Y137400D01*
X217157D01*
X216934Y137734D01*
X216600Y137957D01*
D02*
G37*
G36*
X202200Y138157D02*
X201866Y137934D01*
X201643Y137600D01*
X202200D01*
Y138157D01*
D02*
G37*
G36*
X214600Y137957D02*
X214266Y137734D01*
X214043Y137400D01*
X214600D01*
Y137957D01*
D02*
G37*
G36*
X17000Y139000D02*
X13518D01*
X13855Y138184D01*
X14433Y137432D01*
X15184Y136855D01*
X16060Y136493D01*
X17000Y136369D01*
Y139000D01*
D02*
G37*
G36*
X22482D02*
X19000D01*
Y136369D01*
X19940Y136493D01*
X20816Y136855D01*
X21567Y137432D01*
X22145Y138184D01*
X22482Y139000D01*
D02*
G37*
G36*
X228000Y119857D02*
X227666Y119634D01*
X227443Y119300D01*
X228000D01*
Y119857D01*
D02*
G37*
G36*
X230000D02*
Y119300D01*
X230557D01*
X230334Y119634D01*
X230000Y119857D01*
D02*
G37*
G36*
X136800Y119757D02*
Y119200D01*
X137357D01*
X137134Y119534D01*
X136800Y119757D01*
D02*
G37*
G36*
X34400Y118257D02*
Y117700D01*
X34957D01*
X34734Y118034D01*
X34400Y118257D01*
D02*
G37*
G36*
X134800Y119757D02*
X134466Y119534D01*
X134243Y119200D01*
X134800D01*
Y119757D01*
D02*
G37*
G36*
X347457Y122300D02*
X346900D01*
Y121743D01*
X347234Y121966D01*
X347457Y122300D01*
D02*
G37*
G36*
X5300Y122600D02*
X4743D01*
X4966Y122266D01*
X5300Y122043D01*
Y122600D01*
D02*
G37*
G36*
X344900Y122300D02*
X344343D01*
X344566Y121966D01*
X344900Y121743D01*
Y122300D01*
D02*
G37*
G36*
X333700Y122200D02*
X333143D01*
X333366Y121866D01*
X333700Y121643D01*
Y122200D01*
D02*
G37*
G36*
X336257D02*
X335700D01*
Y121643D01*
X336034Y121866D01*
X336257Y122200D01*
D02*
G37*
G36*
X83100Y117257D02*
X82766Y117034D01*
X82543Y116700D01*
X83100D01*
Y117257D01*
D02*
G37*
G36*
X85100D02*
Y116700D01*
X85657D01*
X85434Y117034D01*
X85100Y117257D01*
D02*
G37*
G36*
X137357Y117200D02*
X136800D01*
Y116643D01*
X137134Y116866D01*
X137357Y117200D01*
D02*
G37*
G36*
X347500Y116057D02*
Y115500D01*
X348057D01*
X347834Y115834D01*
X347500Y116057D01*
D02*
G37*
G36*
X134800Y117200D02*
X134243D01*
X134466Y116866D01*
X134800Y116643D01*
Y117200D01*
D02*
G37*
G36*
X200800Y118057D02*
Y117500D01*
X201357D01*
X201134Y117834D01*
X200800Y118057D01*
D02*
G37*
G36*
X32400Y118257D02*
X32066Y118034D01*
X31843Y117700D01*
X32400D01*
Y118257D01*
D02*
G37*
G36*
X198800Y118057D02*
X198466Y117834D01*
X198243Y117500D01*
X198800D01*
Y118057D01*
D02*
G37*
G36*
X228000Y117300D02*
X227443D01*
X227666Y116966D01*
X228000Y116743D01*
Y117300D01*
D02*
G37*
G36*
X230557D02*
X230000D01*
Y116743D01*
X230334Y116966D01*
X230557Y117300D01*
D02*
G37*
G36*
X7857Y122600D02*
X7300D01*
Y122043D01*
X7634Y122266D01*
X7857Y122600D01*
D02*
G37*
G36*
X104757Y125900D02*
X104200D01*
Y125343D01*
X104534Y125566D01*
X104757Y125900D01*
D02*
G37*
G36*
X313100Y126657D02*
X312766Y126434D01*
X312543Y126100D01*
X313100D01*
Y126657D01*
D02*
G37*
G36*
X102200Y125900D02*
X101643D01*
X101866Y125566D01*
X102200Y125343D01*
Y125900D01*
D02*
G37*
G36*
X323100Y125757D02*
X322766Y125534D01*
X322543Y125200D01*
X323100D01*
Y125757D01*
D02*
G37*
G36*
X325100D02*
Y125200D01*
X325657D01*
X325434Y125534D01*
X325100Y125757D01*
D02*
G37*
G36*
X82600Y127600D02*
X82043D01*
X82266Y127266D01*
X82600Y127043D01*
Y127600D01*
D02*
G37*
G36*
X85157D02*
X84600D01*
Y127043D01*
X84934Y127266D01*
X85157Y127600D01*
D02*
G37*
G36*
X22600Y129000D02*
X19000D01*
Y126400D01*
X22600D01*
Y129000D01*
D02*
G37*
G36*
X315100Y126657D02*
Y126100D01*
X315657D01*
X315434Y126434D01*
X315100Y126657D01*
D02*
G37*
G36*
X17000Y129000D02*
X13400D01*
Y126400D01*
X17000D01*
Y129000D01*
D02*
G37*
G36*
X315657Y124100D02*
X315100D01*
Y123543D01*
X315434Y123766D01*
X315657Y124100D01*
D02*
G37*
G36*
X333700Y124757D02*
X333366Y124534D01*
X333143Y124200D01*
X333700D01*
Y124757D01*
D02*
G37*
G36*
X313100Y124100D02*
X312543D01*
X312766Y123766D01*
X313100Y123543D01*
Y124100D01*
D02*
G37*
G36*
X323100Y123200D02*
X322543D01*
X322766Y122866D01*
X323100Y122643D01*
Y123200D01*
D02*
G37*
G36*
X325657D02*
X325100D01*
Y122643D01*
X325434Y122866D01*
X325657Y123200D01*
D02*
G37*
G36*
X5300Y125157D02*
X4966Y124934D01*
X4743Y124600D01*
X5300D01*
Y125157D01*
D02*
G37*
G36*
X7300D02*
Y124600D01*
X7857D01*
X7634Y124934D01*
X7300Y125157D01*
D02*
G37*
G36*
X346900Y124857D02*
Y124300D01*
X347457D01*
X347234Y124634D01*
X346900Y124857D01*
D02*
G37*
G36*
X335700Y124757D02*
Y124200D01*
X336257D01*
X336034Y124534D01*
X335700Y124757D01*
D02*
G37*
G36*
X344900Y124857D02*
X344566Y124634D01*
X344343Y124300D01*
X344900D01*
Y124857D01*
D02*
G37*
%LPD*%
D33*
X236800Y11000D02*
X239600Y13800D01*
X245300Y20700D02*
Y23700D01*
X224800Y44200D02*
X245300Y23700D01*
X224800Y44200D02*
Y76700D01*
X280800Y113700D02*
X281100Y113400D01*
X244600Y20000D02*
X245300Y20700D01*
X188200Y20000D02*
X244600D01*
X182100Y26100D02*
X188200Y20000D01*
X243800Y113700D02*
X280800D01*
X188300Y69200D02*
Y81700D01*
X200800Y49700D02*
Y74700D01*
X205896Y79796D01*
X219800Y70200D02*
X219843Y70157D01*
X219800Y70200D02*
Y85700D01*
X223800Y89700D02*
X230300D01*
X219800Y85700D02*
X223800Y89700D01*
X228800Y52700D02*
Y70700D01*
X230300Y72200D02*
Y72700D01*
X228800Y70700D02*
X230300Y72200D01*
X219843Y54200D02*
Y70157D01*
X195700Y44600D02*
X196000D01*
X195700D02*
X200800Y49700D01*
X178300Y35100D02*
X181600Y38400D01*
X224300D01*
X50000Y16000D02*
X55000Y11000D01*
X236800D01*
X50000Y27300D02*
X59500Y36800D01*
X50000Y16000D02*
Y27300D01*
X281100Y76600D02*
Y102000D01*
Y113400D01*
X215638Y96062D02*
X239176Y119600D01*
X320900Y82300D02*
X324500Y85900D01*
X311100Y82300D02*
X320900D01*
X214500Y99700D02*
X217013D01*
X210500Y95700D02*
X214500Y99700D01*
X210500Y87200D02*
Y95700D01*
X217013Y99700D02*
X238513Y121200D01*
X18300Y97700D02*
X35300D01*
X78700Y141100D01*
X101200D01*
X18300Y87700D02*
X26700Y96100D01*
X35963D01*
X77763Y137900D01*
X104400D01*
X105400Y138900D01*
X238513Y121200D02*
X313200D01*
X326100Y108300D01*
Y85237D02*
Y108300D01*
X239176Y119600D02*
X312400D01*
X324500Y107500D01*
Y85900D02*
Y107500D01*
X311800Y77700D02*
X318563D01*
X326100Y85237D01*
X267800Y74200D02*
X268400Y73600D01*
X278100D01*
X243000Y113700D02*
X243800D01*
X310100Y64900D02*
X328800Y83600D01*
X310100Y36700D02*
Y64900D01*
Y36700D02*
X310300Y36500D01*
X224800Y76700D02*
X233100Y85000D01*
Y103800D01*
X243000Y113700D01*
X310300Y152800D02*
Y175700D01*
X328800Y83600D02*
Y134300D01*
X278100Y73600D02*
X281100Y76600D01*
X310300Y152800D02*
X328800Y134300D01*
X1000Y100D02*
Y198900D01*
X353900D01*
Y200D02*
Y198900D01*
Y200D02*
X354000Y100D01*
X1000D02*
X354000D01*
D34*
X154070Y70430D02*
Y83620D01*
X194300Y64700D02*
Y97700D01*
X194300Y108700D02*
Y131200D01*
X189920Y135580D02*
X194300Y131200D01*
X267000Y174100D02*
X294100Y147000D01*
X47500Y141100D02*
Y153500D01*
Y154000D01*
X220100Y174000D02*
X266900D01*
X267000Y174100D01*
D35*
X28800Y150000D02*
X35325Y156525D01*
X18000Y150000D02*
X28800D01*
X35325Y167325D02*
X41100Y173100D01*
X35325Y156525D02*
Y167325D01*
X87670Y174000D02*
X106050Y155620D01*
X115400Y146270D01*
X71200Y174000D02*
X87670D01*
X81580Y108380D02*
X106050D01*
X132800Y68600D02*
Y101250D01*
X120900Y56700D02*
X132800Y68600D01*
X21300Y56700D02*
X120900D01*
X132500Y46100D02*
X148050D01*
X25100D02*
X132500D01*
X22700Y43700D02*
X25100Y46100D01*
X18300Y43700D02*
X22700D01*
X148050Y46100D02*
X161950Y60000D01*
X18300Y53700D02*
X21300Y56700D01*
X132800Y101250D02*
X162725Y131175D01*
X106050Y83620D02*
X115400Y92970D01*
Y146270D01*
X70000Y70000D02*
Y96800D01*
X81580Y108380D01*
D36*
X154070Y70430D02*
X154400Y70100D01*
D38*
X70000Y70000D02*
D03*
X154070Y36380D02*
D03*
Y83620D02*
D03*
X106050Y36380D02*
D03*
Y83620D02*
D03*
X161950Y60000D02*
D03*
X154070Y108380D02*
D03*
Y155620D02*
D03*
X106050Y108380D02*
D03*
Y155620D02*
D03*
X161950Y132000D02*
D03*
D39*
X70000Y30000D02*
D03*
D40*
X18000Y130000D02*
D03*
X18300Y77700D02*
D03*
Y43700D02*
D03*
D41*
X18000Y140000D02*
D03*
Y150000D02*
D03*
X18300Y107700D02*
D03*
Y97700D02*
D03*
Y87700D02*
D03*
Y53700D02*
D03*
D42*
X40000Y16000D02*
D03*
D43*
X50000D02*
D03*
D44*
X266000Y38000D02*
D03*
X280300Y175700D02*
D03*
D45*
X256000Y38000D02*
D03*
X246000D02*
D03*
X280300Y185700D02*
D03*
X290300Y175700D02*
D03*
Y185700D02*
D03*
X300300Y175700D02*
D03*
Y185700D02*
D03*
X310300Y175700D02*
D03*
Y185700D02*
D03*
X320300Y175700D02*
D03*
Y185700D02*
D03*
D46*
X289300Y20700D02*
D03*
X255300D02*
D03*
D47*
X279300D02*
D03*
X245300D02*
D03*
D48*
X340300Y176700D02*
D03*
X18300Y14700D02*
D03*
X19100Y176700D02*
D03*
X340300Y14700D02*
D03*
D49*
X38000Y190000D02*
D03*
X324300Y54700D02*
D03*
D50*
X254331Y94605D02*
D03*
X250331D02*
D03*
X258206Y82794D02*
D03*
X254331D02*
D03*
X246394D02*
D03*
X258206Y86700D02*
D03*
X254331D02*
D03*
X246394Y86731D02*
D03*
Y94605D02*
D03*
X258206D02*
D03*
X250331Y86700D02*
D03*
Y82794D02*
D03*
Y90668D02*
D03*
X246394D02*
D03*
X254331D02*
D03*
X258206D02*
D03*
D51*
X312100Y94900D02*
D03*
D52*
X38700Y139500D02*
D03*
X38800Y134200D02*
D03*
X346500Y114500D02*
D03*
X335200Y114000D02*
D03*
X334700Y131300D02*
D03*
X325400Y144800D02*
D03*
X301700Y64100D02*
D03*
X294400Y97400D02*
D03*
X292900Y82800D02*
D03*
X309700Y72300D02*
D03*
X332000Y76200D02*
D03*
X323000Y69000D02*
D03*
X6000Y28600D02*
D03*
Y48400D02*
D03*
X6300Y75900D02*
D03*
X6000Y96900D02*
D03*
X6300Y123600D02*
D03*
X7100Y148000D02*
D03*
X54900Y75700D02*
D03*
X267300Y67100D02*
D03*
X53200Y5600D02*
D03*
X72000Y5300D02*
D03*
X12400Y163600D02*
D03*
X141200Y55200D02*
D03*
X87100Y34900D02*
D03*
X107600Y69600D02*
D03*
X43500Y67700D02*
D03*
X164500Y47100D02*
D03*
X103200Y126900D02*
D03*
X86900Y89000D02*
D03*
X114800Y32700D02*
D03*
X239600Y13800D02*
D03*
X47500Y154000D02*
D03*
X315100Y7800D02*
D03*
X294500Y7600D02*
D03*
X278100Y7100D02*
D03*
X260500Y7400D02*
D03*
X303700Y132700D02*
D03*
X223800Y147900D02*
D03*
X56400Y190100D02*
D03*
X347800Y92200D02*
D03*
X346600Y105800D02*
D03*
X78500Y151800D02*
D03*
X341500Y66600D02*
D03*
X301600Y80800D02*
D03*
X341900Y51100D02*
D03*
X315800Y62700D02*
D03*
X341700Y36200D02*
D03*
X301300Y73200D02*
D03*
X321400Y88400D02*
D03*
X324100Y124200D02*
D03*
X314100Y125100D02*
D03*
X332900Y66400D02*
D03*
X234300Y134600D02*
D03*
X345900Y123300D02*
D03*
X346200Y139700D02*
D03*
X321400Y156100D02*
D03*
X334300Y155600D02*
D03*
X313200Y140300D02*
D03*
X334300Y140800D02*
D03*
X341100Y76300D02*
D03*
X148100Y18700D02*
D03*
X142800Y67100D02*
D03*
X81300Y189600D02*
D03*
X139500Y155900D02*
D03*
X197200Y174600D02*
D03*
X92600Y152500D02*
D03*
X84100Y115700D02*
D03*
X33400Y116700D02*
D03*
X33000Y67800D02*
D03*
X50400Y87400D02*
D03*
X60200Y16800D02*
D03*
X304100Y44500D02*
D03*
X275400Y67900D02*
D03*
X283300Y43700D02*
D03*
X275500Y62900D02*
D03*
X228700Y104100D02*
D03*
X297300Y102200D02*
D03*
X275700Y94500D02*
D03*
X267900Y116800D02*
D03*
X263300Y110100D02*
D03*
X272100Y108900D02*
D03*
X268300Y105200D02*
D03*
X38600Y146100D02*
D03*
X173400Y174600D02*
D03*
X218500Y192000D02*
D03*
X267900Y192200D02*
D03*
X98400Y92100D02*
D03*
X244400Y192100D02*
D03*
X116600Y82000D02*
D03*
X142900Y174000D02*
D03*
X183000Y162500D02*
D03*
X190600Y155900D02*
D03*
X231000Y163600D02*
D03*
X174600Y191800D02*
D03*
X200300Y149600D02*
D03*
X263400Y163300D02*
D03*
X248900Y162600D02*
D03*
X249600Y153500D02*
D03*
X334700Y123200D02*
D03*
X215600Y136400D02*
D03*
X199800Y116500D02*
D03*
X199400Y79800D02*
D03*
X233500Y56800D02*
D03*
X233400Y64200D02*
D03*
X239600Y58700D02*
D03*
X240000Y64900D02*
D03*
X173000Y4100D02*
D03*
X118700Y17400D02*
D03*
X169900Y17700D02*
D03*
X143500Y190800D02*
D03*
X121700Y191000D02*
D03*
X119900Y172600D02*
D03*
X134900Y139800D02*
D03*
X236400Y102600D02*
D03*
X302200Y156600D02*
D03*
X345900Y155300D02*
D03*
X320600Y104700D02*
D03*
X348600Y76900D02*
D03*
X281100Y102000D02*
D03*
X280929Y76571D02*
D03*
X209900Y66100D02*
D03*
X206200Y72700D02*
D03*
X263600Y153000D02*
D03*
X310300Y36500D02*
D03*
X293000Y42600D02*
D03*
X245200Y7000D02*
D03*
X218700Y25900D02*
D03*
X201800Y25400D02*
D03*
X33500Y86800D02*
D03*
X33600Y103300D02*
D03*
X83600Y128600D02*
D03*
X29100Y28600D02*
D03*
X243800Y113700D02*
D03*
X224800Y76700D02*
D03*
X188300Y81700D02*
D03*
Y69200D02*
D03*
X194300Y64700D02*
D03*
X194300Y108700D02*
D03*
X194300Y97700D02*
D03*
X205896Y79796D02*
D03*
X280800Y113700D02*
D03*
X267800Y74200D02*
D03*
X230300Y89700D02*
D03*
X219800Y54200D02*
D03*
X230300Y72700D02*
D03*
X228800Y52700D02*
D03*
X209800Y76900D02*
D03*
X199600Y32500D02*
D03*
X223000Y32600D02*
D03*
X301300Y29300D02*
D03*
X272900Y140000D02*
D03*
X87500Y79800D02*
D03*
X41000Y31100D02*
D03*
X204500Y65900D02*
D03*
X229000Y118300D02*
D03*
X135800Y118200D02*
D03*
X140800Y83200D02*
D03*
X102600Y18200D02*
D03*
X138800Y34200D02*
D03*
X93500Y3700D02*
D03*
X205200Y107100D02*
D03*
X204200Y113500D02*
D03*
X137000Y3900D02*
D03*
X203200Y136600D02*
D03*
X196000Y44600D02*
D03*
X178300Y35100D02*
D03*
X224300Y38400D02*
D03*
X182100Y26100D02*
D03*
X189920Y135580D02*
D03*
X87300Y19200D02*
D03*
X59500Y36800D02*
D03*
X312900Y95700D02*
D03*
X311400Y94100D02*
D03*
X312900D02*
D03*
X311300Y95700D02*
D03*
X215638Y96062D02*
D03*
X311100Y82300D02*
D03*
X311800Y77700D02*
D03*
X210500Y87200D02*
D03*
X101200Y141100D02*
D03*
X105400Y138900D02*
D03*
X294100Y147000D02*
D03*
X47500Y141100D02*
D03*
X220100Y174000D02*
D03*
D53*
X71200D02*
D03*
X41100Y173100D02*
D03*
X154400Y70100D02*
D03*
D54*
X252400Y88700D02*
D03*
M02*
