%FSLAX25Y25*%
%MOIN*%
G70*
G01*
G75*
G04 Layer_Color=8421504*
%ADD10R,0.05500X0.07700*%
%ADD11R,0.04724X0.05512*%
%ADD12R,0.01400X0.04000*%
%ADD13R,0.05512X0.04724*%
%ADD14R,0.05906X0.04724*%
%ADD15R,0.02953X0.02362*%
%ADD16R,0.04000X0.03500*%
%ADD17R,0.03937X0.07087*%
%ADD18R,0.04724X0.03150*%
%ADD19R,0.02362X0.02953*%
%ADD20R,0.02362X0.07874*%
%ADD21R,0.05906X0.01969*%
%ADD22R,0.05906X0.02362*%
%ADD23R,0.05906X0.02480*%
%ADD24R,0.06000X0.07000*%
%ADD25R,0.07700X0.05500*%
%ADD26O,0.01180X0.05906*%
%ADD27O,0.05906X0.01180*%
%ADD28R,0.17716X0.17716*%
%ADD29R,0.01000X0.02600*%
%ADD30R,0.02600X0.01000*%
%ADD31R,0.08800X0.04200*%
%ADD32R,0.04000X0.04000*%
%ADD33C,0.01000*%
%ADD34C,0.04000*%
%ADD35C,0.08000*%
%ADD36C,0.02000*%
%ADD37C,0.01200*%
%ADD38C,0.08000*%
%ADD39R,0.08000X0.08000*%
%ADD40R,0.08000X0.06000*%
%ADD41O,0.08000X0.06000*%
%ADD42C,0.06000*%
%ADD43R,0.06000X0.06000*%
%ADD44R,0.05906X0.05906*%
%ADD45C,0.05906*%
%ADD46R,0.06000X0.08000*%
%ADD47O,0.06000X0.08000*%
%ADD48C,0.20000*%
%ADD49C,0.04000*%
%ADD50R,0.03000X0.03000*%
%ADD51R,0.05000X0.05000*%
%ADD52C,0.02500*%
%ADD53C,0.05000*%
%ADD54R,0.17700X0.17700*%
%ADD55C,0.00600*%
%ADD56C,0.00984*%
%ADD57C,0.00800*%
%ADD58C,0.00787*%
%ADD59C,0.00400*%
D10*
X46600Y174000D02*
D03*
X65400D02*
D03*
Y100000D02*
D03*
X46600D02*
D03*
Y116000D02*
D03*
X65400D02*
D03*
D11*
X62457Y86000D02*
D03*
X69543D02*
D03*
X47543Y78000D02*
D03*
X40457D02*
D03*
X180757Y98200D02*
D03*
X187843D02*
D03*
X212757Y48700D02*
D03*
X219843D02*
D03*
X180757Y108700D02*
D03*
X187843D02*
D03*
X219843Y118700D02*
D03*
X212757D02*
D03*
X212757Y60700D02*
D03*
X219843D02*
D03*
X187843Y86700D02*
D03*
X180757D02*
D03*
D12*
X286600Y85100D02*
D03*
X284000D02*
D03*
X281400D02*
D03*
Y92300D02*
D03*
X284000D02*
D03*
X286600D02*
D03*
D13*
X40000Y42457D02*
D03*
Y49543D02*
D03*
D14*
X283576Y58047D02*
D03*
X293024D02*
D03*
Y51354D02*
D03*
X283576D02*
D03*
D15*
X211638Y166000D02*
D03*
X216362D02*
D03*
X220662Y76700D02*
D03*
X215938D02*
D03*
X288362Y70000D02*
D03*
X283638D02*
D03*
Y76000D02*
D03*
X288362D02*
D03*
X283638Y102000D02*
D03*
X288362D02*
D03*
Y108000D02*
D03*
X283638D02*
D03*
X249638Y174000D02*
D03*
X254362D02*
D03*
X215638Y86000D02*
D03*
X220362D02*
D03*
X215638Y92000D02*
D03*
X220362D02*
D03*
X293638D02*
D03*
X298362D02*
D03*
D16*
X235008Y174000D02*
D03*
X240992D02*
D03*
X211008D02*
D03*
X216992D02*
D03*
D17*
X267379Y130700D02*
D03*
X277221D02*
D03*
D18*
X193772Y56700D02*
D03*
X202828Y52960D02*
D03*
Y60440D02*
D03*
X193772Y128700D02*
D03*
X202828Y124960D02*
D03*
Y132440D02*
D03*
D19*
X240300Y114338D02*
D03*
Y119062D02*
D03*
X272300Y114338D02*
D03*
Y119062D02*
D03*
X276300Y52338D02*
D03*
Y57062D02*
D03*
X300300D02*
D03*
Y52338D02*
D03*
X284300Y133062D02*
D03*
Y128338D02*
D03*
X260300Y133062D02*
D03*
Y128338D02*
D03*
X234300Y114338D02*
D03*
Y119062D02*
D03*
X262300Y52338D02*
D03*
Y57062D02*
D03*
X256300Y52338D02*
D03*
Y57062D02*
D03*
X66300Y142338D02*
D03*
Y147062D02*
D03*
X186300Y31062D02*
D03*
Y26338D02*
D03*
X178300Y31062D02*
D03*
Y26338D02*
D03*
X308000Y112362D02*
D03*
Y107638D02*
D03*
X314000D02*
D03*
Y112362D02*
D03*
D20*
X229583Y38739D02*
D03*
Y18661D02*
D03*
X214938D02*
D03*
X215017Y38739D02*
D03*
X193017Y18661D02*
D03*
Y38739D02*
D03*
X207662D02*
D03*
X207583Y18661D02*
D03*
X307017Y16661D02*
D03*
Y36739D02*
D03*
X321662D02*
D03*
X321583Y16661D02*
D03*
D21*
X56724Y149543D02*
D03*
Y142457D02*
D03*
D22*
X47276Y149543D02*
D03*
Y146000D02*
D03*
D23*
Y142457D02*
D03*
D24*
X46000Y160700D02*
D03*
X58600D02*
D03*
X47700Y130000D02*
D03*
X60300D02*
D03*
D25*
X182300Y121300D02*
D03*
Y140100D02*
D03*
Y45300D02*
D03*
Y64100D02*
D03*
D26*
X243371Y101695D02*
D03*
X245339D02*
D03*
X247307D02*
D03*
X249276D02*
D03*
X251244D02*
D03*
X253213D02*
D03*
X255182D02*
D03*
X257150D02*
D03*
X259119D02*
D03*
X261087D02*
D03*
Y75705D02*
D03*
X259119D02*
D03*
X257150D02*
D03*
X255182D02*
D03*
X253213D02*
D03*
X251244D02*
D03*
X249276D02*
D03*
X247307D02*
D03*
X245339D02*
D03*
X243371D02*
D03*
D27*
X265295Y97558D02*
D03*
Y95590D02*
D03*
Y93621D02*
D03*
Y91653D02*
D03*
Y89684D02*
D03*
Y87716D02*
D03*
Y85747D02*
D03*
Y83779D02*
D03*
Y81810D02*
D03*
Y79842D02*
D03*
X239305D02*
D03*
Y81810D02*
D03*
Y83779D02*
D03*
Y85747D02*
D03*
Y87716D02*
D03*
Y89684D02*
D03*
Y91653D02*
D03*
Y93621D02*
D03*
Y95590D02*
D03*
Y97558D02*
D03*
D28*
X252395Y88605D02*
D03*
D29*
X309000Y100600D02*
D03*
X311000D02*
D03*
X313000D02*
D03*
X315000D02*
D03*
Y89400D02*
D03*
X313000D02*
D03*
X311000D02*
D03*
X309000D02*
D03*
D30*
X317600Y98000D02*
D03*
Y96000D02*
D03*
Y94000D02*
D03*
Y92000D02*
D03*
X306400D02*
D03*
Y94000D02*
D03*
Y96000D02*
D03*
Y97900D02*
D03*
D31*
X334000Y100000D02*
D03*
Y88000D02*
D03*
D32*
X328000Y94000D02*
D03*
D33*
X1000Y100D02*
Y198900D01*
X353900D01*
Y200D02*
Y198900D01*
Y200D02*
X354000Y100D01*
X1000D02*
X354000D01*
M02*
